<?xml version="1.0" encoding="UTF-8" standalone="no"?>
<svg
   viewBox="0 0 82.428667 63.58853"
   height="63.588531"
   width="82.428665"
   xml:space="preserve"
   id="svg2"
   version="1.1"
   sodipodi:docname="logo-ugent.svg"
   inkscape:version="1.2.1 (9c6d41e410, 2022-07-14)"
   xmlns:inkscape="http://www.inkscape.org/namespaces/inkscape"
   xmlns:sodipodi="http://sodipodi.sourceforge.net/DTD/sodipodi-0.dtd"
   xmlns="http://www.w3.org/2000/svg"
   xmlns:svg="http://www.w3.org/2000/svg"
   xmlns:rdf="http://www.w3.org/1999/02/22-rdf-syntax-ns#"
   xmlns:cc="http://creativecommons.org/ns#"
   xmlns:dc="http://purl.org/dc/elements/1.1/"><sodipodi:namedview
     id="namedview192"
     pagecolor="#ffffff"
     bordercolor="#666666"
     borderopacity="1.0"
     inkscape:showpageshadow="2"
     inkscape:pageopacity="0.0"
     inkscape:pagecheckerboard="true"
     inkscape:deskcolor="#d1d1d1"
     showgrid="false"
     inkscape:zoom="6.5527983"
     inkscape:cx="42.958746"
     inkscape:cy="34.946902"
     inkscape:window-width="1920"
     inkscape:window-height="1051"
     inkscape:window-x="0"
     inkscape:window-y="0"
     inkscape:window-maximized="1"
     inkscape:current-layer="svg2" /><metadata
     id="metadata8"><rdf:RDF><cc:Work
         rdf:about=""><dc:format>image/svg+xml</dc:format><dc:type
           rdf:resource="http://purl.org/dc/dcmitype/StillImage" /></cc:Work></rdf:RDF></metadata><defs
     id="defs6" /><g
     transform="matrix(1.3333333,0,0,-1.3333333,-27.984933,91.716131)"
     id="g10"><g
       transform="scale(0.1)"
       id="g12"><path
         id="path14"
         style="fill:#ffffff;fill-opacity:1;fill-rule:nonzero;stroke:none"
         d="m 249.883,605.496 h -11.621 v -80.953 h 11.621 v 80.953" /><path
         id="path16"
         style="fill:#ffffff;fill-opacity:1;fill-rule:nonzero;stroke:none"
         d="m 274.824,605.496 h -11.621 v -80.953 h 11.621 v 80.953" /><path
         id="path18"
         style="fill:#ffffff;fill-opacity:1;fill-rule:nonzero;stroke:none"
         d="m 299.77,605.496 h -11.622 v -80.953 h 11.622 v 80.953" /><path
         id="path20"
         style="fill:#ffffff;fill-opacity:1;fill-rule:nonzero;stroke:none"
         d="m 324.719,605.496 h -11.621 v -80.953 h 11.621 v 80.953" /><path
         id="path22"
         style="fill:#ffffff;fill-opacity:1;fill-rule:nonzero;stroke:none"
         d="m 349.664,605.496 h -11.621 v -80.953 h 11.621 v 80.953" /><path
         id="path24"
         style="fill:#ffffff;fill-opacity:1;fill-rule:nonzero;stroke:none"
         d="m 374.609,605.496 h -11.621 v -80.953 h 11.621 v 80.953" /><path
         id="path26"
         style="fill:#ffffff;fill-opacity:1;fill-rule:nonzero;stroke:none"
         d="m 399.555,605.496 h -11.621 v -80.953 h 11.621 v 80.953" /><path
         id="path28"
         style="fill:#ffffff;fill-opacity:1;fill-rule:nonzero;stroke:none"
         d="M 400.383,618.395 H 237.41 l -11.621,11.621 h 186.215 l -11.621,-11.621" /><path
         id="path30"
         style="fill:#ffffff;fill-opacity:1;fill-rule:nonzero;stroke:none"
         d="M 425.195,475.074 H 212.598 v 11.629 h 212.597 v -11.629" /><path
         id="path32"
         style="fill:#ffffff;fill-opacity:1;fill-rule:nonzero;stroke:none"
         d="M 412.727,500.016 H 225.066 v 11.629 h 187.661 v -11.629" /><path
         id="path34"
         style="fill:#ffffff;fill-opacity:1;fill-rule:nonzero;stroke:none"
         d="m 425.195,650.227 -106.3,37.644 -106.297,-37.644 v -12.434 l 106.297,37.641 106.3,-37.641 v 12.434" /><path
         id="path36"
         style="fill:#ffffff;fill-opacity:1;fill-rule:nonzero;stroke:none"
         d="m 276.172,212.598 h 40.703 v 9.699 h -29.086 v 30.918 h 23.461 v 9.558 h -23.461 v 28.301 h 29.086 v 9.707 h -40.703 v -88.183" /><path
         id="path38"
         style="fill:#ffffff;fill-opacity:1;fill-rule:nonzero;stroke:none"
         d="m 699.91,337.012 h 40.703 v 9.699 h -29.086 v 30.918 h 23.461 v 9.559 h -23.461 v 28.3 h 29.086 v 9.707 H 699.91 v -88.183" /><path
         id="path40"
         style="fill:#ffffff;fill-opacity:1;fill-rule:nonzero;stroke:none"
         d="m 442.102,337.012 h 40.703 v 9.699 h -29.09 v 30.918 h 23.465 v 9.559 h -23.465 v 28.3 h 29.09 v 9.707 h -40.703 v -88.183" /><path
         id="path42"
         style="fill:#ffffff;fill-opacity:1;fill-rule:nonzero;stroke:none"
         d="m 249.531,222.277 c -2.027,-0.578 -5.754,-1.339 -10.238,-1.339 -13.809,0 -17.379,7.343 -17.379,35.742 0,27.871 4.496,35.508 20.941,35.508 5.7,0 11.633,-1.817 15.137,-3.641 v 10.516 c -3.031,1.679 -9.738,3.347 -16.094,3.347 -23.632,0 -32.011,-11.961 -32.011,-45.73 0,-35.039 6.906,-45.723 29.543,-45.723 8.965,0 18.867,2.715 21.718,4.309 v 47.371 h -24.785 v -9.707 h 13.168 v -30.653" /><path
         id="path44"
         style="fill:#ffffff;fill-opacity:1;fill-rule:nonzero;stroke:none"
         d="m 754.895,337.012 h 11.613 v 88.183 h -11.613 v -88.183" /><path
         id="path46"
         style="fill:#ffffff;fill-opacity:1;fill-rule:nonzero;stroke:none"
         d="m 614.91,337.012 h 11.617 v 88.183 H 614.91 v -88.183" /><path
         id="path48"
         style="fill:#ffffff;fill-opacity:1;fill-rule:nonzero;stroke:none"
         d="m 350.156,337.012 h 11.617 v 88.183 h -11.617 v -88.183" /><path
         id="path50"
         style="fill:#ffffff;fill-opacity:1;fill-rule:nonzero;stroke:none"
         d="m 339.941,286.895 29.61,-74.297 h 13.695 v 88.183 h -11.062 v -46.828 c 0,-6.754 0.964,-18.25 2.148,-27.207 l -29.344,74.035 h -13.695 v -88.183 h 11.07 v 46.828 c 0,6.855 -1.058,18.445 -2.422,27.469" /><path
         id="path52"
         style="fill:#ffffff;fill-opacity:1;fill-rule:nonzero;stroke:none"
         d="m 289.184,411.309 29.609,-74.297 h 13.695 v 88.183 h -11.062 v -46.824 c 0,-6.758 0.969,-18.254 2.148,-27.211 l -29.34,74.035 h -13.699 v -88.183 h 11.07 v 46.828 c 0,6.855 -1.058,18.445 -2.421,27.469" /><path
         id="path54"
         style="fill:#ffffff;fill-opacity:1;fill-rule:nonzero;stroke:none"
         d="m 413.879,212.598 h 11.613 v 78.476 h 19.348 v 9.707 h -50.168 v -9.707 h 19.207 v -78.476" /><path
         id="path56"
         style="fill:#ffffff;fill-opacity:1;fill-rule:nonzero;stroke:none"
         d="m 797.141,337.012 h 11.613 v 78.476 h 19.348 v 9.707 h -50.168 v -9.707 h 19.207 v -78.476" /><path
         id="path58"
         style="fill:#ffffff;fill-opacity:1;fill-rule:nonzero;stroke:none"
         d="m 657.578,337.012 h 11.617 v 78.476 h 19.344 v 9.707 h -50.164 v -9.707 h 19.203 v -78.476" /><path
         id="path60"
         style="fill:#ffffff;fill-opacity:1;fill-rule:nonzero;stroke:none"
         d="M 212.598,425.195 V 363.41 c 0,-19.914 7.484,-28.039 25.84,-28.039 18.105,0 25.835,8.391 25.835,28.039 v 61.785 h -11.617 v -62.332 c 0,-12.609 -3.984,-17.511 -14.218,-17.511 -10.239,0 -14.223,4.902 -14.223,17.511 v 62.332 h -11.617" /><path
         id="path62"
         style="fill:#ffffff;fill-opacity:1;fill-rule:nonzero;stroke:none"
         d="m 402.07,347.996 c -1.25,9.465 -3.824,24.399 -5.433,31.203 l -11.153,45.996 h -12.121 l 22.379,-88.183 h 12.383 l 22.383,88.183 h -11.707 l -11.024,-45.996 c -1.992,-7.254 -4.55,-22.441 -5.707,-31.203" /><path
         id="path64"
         style="fill:#ffffff;fill-opacity:1;fill-rule:nonzero;stroke:none"
         d="m 558.848,338.418 c 2.699,-1.504 8.14,-3.035 15.738,-3.035 15.734,0 25.508,8.769 25.508,22.898 0,11.731 -5.332,17.215 -12.578,23.449 l -7.149,6.192 c -6.047,5.203 -9.719,8.906 -9.719,16.433 0,8.282 4.934,12.473 14.668,12.473 5.129,0 9.829,-1.523 12.715,-3.008 v 10.118 c -2.578,1.433 -8.133,2.89 -13.816,2.89 -15.735,0 -25.504,-8.769 -25.504,-22.89 0,-11.719 5.328,-17.227 12.574,-23.45 l 7.156,-6.203 c 5.774,-4.832 9.711,-8.707 9.711,-16.422 0,-8.285 -4.933,-12.472 -14.672,-12.472 -5.179,0 -10.449,1.191 -14.632,3.293 v -10.266" /><path
         id="path66"
         style="fill:#ffffff;fill-opacity:1;fill-rule:nonzero;stroke:none"
         d="m 516.055,383.059 h -7.227 v 32.429 h 7.227 c 10.746,0 16.968,-2.636 16.968,-16.14 0,-13.625 -6.222,-16.289 -16.968,-16.289 z m 13.297,-7.571 c 10.878,4.024 15.699,11.563 15.699,23.86 0,17.625 -8.824,25.847 -27.762,25.847 h -20.07 v -88.183 h 11.609 v 36.367 h 9.336 l 16.738,-36.367 h 13.274 l -18.824,38.476" /></g></g></svg>
