<?xml version="1.0" encoding="UTF-8" standalone="no"?>
<!-- Created with Inkscape (http://www.inkscape.org/) -->
<svg id="svg4292" xmlns:rdf="http://www.w3.org/1999/02/22-rdf-syntax-ns#" xmlns="http://www.w3.org/2000/svg" height="2.8982mm" width="2.9555mm" version="1.1" xmlns:cc="http://creativecommons.org/ns#" xmlns:dc="http://purl.org/dc/elements/1.1/" viewBox="0 0 10.472279 10.269056">
 <g id="layer1" transform="translate(-103.34 -423.15)">
  <g id="g6894" transform="translate(-2051.4 -318.28)">
   <path id="path6662" style="stroke:#245b8d;stroke-width:.22248px;fill:none" d="m2159.3 743.99c-7.3856 1.5269-4.031 8.6978 1.6302 7.2774 5.6611-1.4204 5.7555-8.8044-1.6302-7.2774z"/>
   <path id="path6664" style="fill:#245b8d;fill-rule:evenodd" d="m2160.6 751.34c5.5086-0.89443 7.1828-9.4232-2.31-7.1438-0.6516 0.7246-4.0624 5.1822 2.31 7.1438z"/>
   <path id="path6666" style="fill:#245b8d;fill-rule:evenodd" d="m2158.4 744.23c-7.1483 2.5413-1.7114 8.3422 2.4019 7.1-8.5298-3.795-2.213-5.1141-2.4019-7.1z"/>
   <path id="path6668" style="fill-rule:evenodd;stroke:#245b8d;stroke-width:.22248px;fill:#fdb822" d="m2159.3 744.2c-1.5079-0.9076-2.8004-0.76731-3.9202 0.21347 1.2942 0.39208 2.6001 0.35163 3.9202-0.21347z"/>
   <path id="path6670" style="fill-rule:evenodd;stroke:#245b8d;stroke-width:.22248px;fill:#fdb822" d="m2159.2 744.31c0.2941 1.273-0.6772 1.7408-1.4749 2.3191 0.133-0.86909-0.037-1.8193 1.4749-2.3191z"/>
   <path id="path6672" style="fill-rule:evenodd;stroke:#245b8d;stroke-width:.22248px;fill:#fdb822" d="m2159.3 744.24c0.8937 0.96836 1.9795 1.6716 3.6194 1.6107-0.1574-1.4755-1.4973-1.8931-3.6194-1.6107z"/>
   <path id="path6674" style="fill-rule:evenodd;stroke:#245b8d;stroke-width:.22248px;fill:#fdb822" d="m2159.3 744.23c0.5925-1.2248 1.9225-1.5317 3.6775-1.31-1.0759 0.56658-2.2175 1.0763-3.6775 1.31z"/>
   <path id="path6676" style="fill-rule:evenodd;stroke:#245b8d;stroke-width:.22248px;fill:#fdb822" d="m2159.3 744.23 0.3978-2.5617c-0.5534-0.20717-1.0767-0.1835-1.5525 0.20377 0.5815 0.67869 0.8459 1.5304 1.1547 2.3579z"/>
   <path id="path6678" d="m2160.6 751.34c5.5086-0.89443 7.1828-9.4232-2.31-7.1438-0.6516 0.7246-4.0624 5.1822 2.31 7.1438z" style="fill:#d57231;fill-rule:evenodd"/>
   <path id="path6680" d="m2158.4 744.23c-7.1483 2.5413-1.7114 8.3422 2.4019 7.1-8.5298-3.795-2.213-5.1141-2.4019-7.1z" style="fill:#d57231;fill-rule:evenodd"/>
   <path id="path6682" d="m2159.3 743.99c-7.3856 1.5269-4.031 8.6978 1.6302 7.2774 5.6611-1.4204 5.7555-8.8044-1.6302-7.2774z" style="stroke:#245b8d;stroke-width:.5;fill:none"/>
   <path id="path6684" d="m2159.3 744.2c-1.5079-0.9076-2.8004-0.76731-3.9202 0.21347 1.2942 0.39208 2.6001 0.35163 3.9202-0.21347z" style="fill-rule:evenodd;stroke:#245b8d;stroke-width:.22248px;fill:#87a243"/>
   <path id="path6686" d="m2159.2 744.31c0.2941 1.273-0.6772 1.7408-1.4749 2.3191 0.133-0.86909-0.037-1.8193 1.4749-2.3191z" style="fill-rule:evenodd;stroke:#245b8d;stroke-width:.22248px;fill:#87a243"/>
   <path id="path6688" d="m2159.3 744.24c0.8937 0.96836 1.9794 1.6716 3.6194 1.6107-0.1574-1.4755-1.4973-1.8931-3.6194-1.6107z" style="fill-rule:evenodd;stroke:#245b8d;stroke-width:.22248px;fill:#87a243"/>
   <path id="path6690" d="m2159.3 744.23c0.5925-1.2248 1.9225-1.5317 3.6775-1.31-1.0759 0.56658-2.2175 1.0763-3.6775 1.31z" style="fill-rule:evenodd;stroke:#245b8d;stroke-width:.22248px;fill:#87a243"/>
   <path id="path6692" d="m2159.3 744.23 0.3978-2.5617c-0.5534-0.20717-1.0767-0.1835-1.5525 0.20377 0.5815 0.67869 0.8459 1.5304 1.1547 2.3579z" style="fill-rule:evenodd;stroke:#245b8d;stroke-width:.22248px;fill:#87a243"/>
  </g>
 </g>
</svg>
