<?xml version="1.0" encoding="UTF-8" standalone="no"?>
<!-- Created with Inkscape (http://www.inkscape.org/) -->
<svg id="svg4292" xmlns:rdf="http://www.w3.org/1999/02/22-rdf-syntax-ns#" xmlns="http://www.w3.org/2000/svg" height="2.7432mm" width="3.1445mm" version="1.1" xmlns:cc="http://creativecommons.org/ns#" xmlns:dc="http://purl.org/dc/elements/1.1/" viewBox="0 0 11.141756 9.7200855">
 <g id="layer1" transform="translate(-100.14 -427.5)">
  <g id="g6941" transform="translate(-2054.4 -141.05)">
   <g id="use6392" transform="matrix(.85196 0 0 .85196 1225.1 106.62)">
    <path id="path6806" d="m1094.1 552.62c-6.3731 1.2834 14.02 1.3374 6.9953 0 2.0648-1.2085 2.9317-3.4979 2.9177-5.0828-0.015-1.5849-13.043-1.5925-13.077 0-0.033 1.5925 0.9662 3.9787 3.1637 5.0828z" style="fill:#245b8d;fill-rule:evenodd"/>
    <path id="path6808" d="m1091.4 547.63c-0.017-0.96208 12.19-1.1163 12.163-0.0448-0.023 0.89254-12.145 1.0069-12.163 0.0448z" style="fill:#fdb822;fill-rule:evenodd"/>
    <path id="path6810" d="m1094.3 545.31c1.96-0.62173 0.012-2.0046 0.824-3.1168-2.0203 0.56663-0.03 2.1384-0.824 3.1168z" style="fill:#245b8d;fill-rule:evenodd"/>
    <path id="path6812" style="fill:#245b8d;fill-rule:evenodd" d="m1099.8 545.31c1.96-0.62173 0.012-2.0046 0.8239-3.1168-2.0203 0.56663-0.031 2.1384-0.8239 3.1168z"/>
    <path id="path6814" d="m1097.1 545.31c1.96-0.62173 0.012-2.0046 0.8239-3.1168-2.0203 0.56663-0.03 2.1384-0.8239 3.1168z" style="fill:#245b8d;fill-rule:evenodd"/>
   </g>
   <path id="path6718" d="m2157.2 577.43c-5.4296 1.0935 11.945 1.1394 5.9598 0 1.7591-1.0296 2.4977-2.98 2.4857-4.3303-0.013-1.3503-11.112-1.3568-11.141 0-0.028 1.3568 0.8232 3.3897 2.6953 4.3303z" style="fill:#c3d1e0;fill-rule:evenodd"/>
   <path id="path6934" d="m2160.1 572.86c2.5953-0.0212 5.1912 0.17444 5.1797 0.63085-0.02 0.76041-10.348 0.8587-10.363 0.0391-0.01-0.40983 2.5883-0.64874 5.1836-0.66992z" style="fill:#fdb822;fill-rule:evenodd"/>
   <path id="path6722" d="m2157.4 571.21c1.6698-0.52969 0.01-1.7078 0.702-2.6554-1.7212 0.48274-0.026 1.8218-0.702 2.6554z" style="fill:#245b8d;fill-rule:evenodd"/>
   <path id="path6724" style="fill:#245b8d;fill-rule:evenodd" d="m2162.1 571.21c1.6698-0.52969 0.01-1.7078 0.7019-2.6554-1.7212 0.48274-0.026 1.8218-0.7019 2.6554z"/>
   <path id="path6726" d="m2159.7 571.21c1.6698-0.52969 0.01-1.7078 0.7019-2.6554-1.7212 0.48274-0.026 1.8218-0.7019 2.6554z" style="fill:#245b8d;fill-rule:evenodd"/>
   <path id="path6938" style="fill:#245b8d;fill-rule:evenodd" d="m2160.1 572.51c2.5953-0.0212 5.1912 0.17444 5.1797 0.63085-0.02 0.76041-10.348 0.8587-10.363 0.0391-0.01-0.40983 2.5883-0.64874 5.1836-0.66992zm5.1543 1.0332c-0.8746 5.8098-9.4408 5.4559-10.381 0.0215 0.7196 0.77778 9.6443 0.76943 10.381-0.0215zm-5.1504-1.4551c-2.78-0.00081-5.5618 0.33725-5.5762 1.0156-0.028 1.3568 0.8232 3.3895 2.6953 4.3301-5.4296 1.0935 11.944 1.1394 5.959 0 1.7591-1.0296 2.4983-2.9798 2.4863-4.3301-0.01-0.67513-2.7844-1.0148-5.5644-1.0156z"/>
  </g>
 </g>
</svg>
