<?xml version="1.0" encoding="UTF-8" standalone="no"?>
<!-- Created with Inkscape (http://www.inkscape.org/) -->
<svg id="svg4292" xmlns:rdf="http://www.w3.org/1999/02/22-rdf-syntax-ns#" xmlns="http://www.w3.org/2000/svg" height="3.0396mm" width="3.9237mm" version="1.1" xmlns:cc="http://creativecommons.org/ns#" xmlns:dc="http://purl.org/dc/elements/1.1/" viewBox="0 0 13.903039 10.770346">
 <g id="layer1" transform="translate(-102.55 -423.95)">
  <g id="use6476" transform="translate(-1697.9 -252.1)">
   <path id="path6696" style="fill:#245b8d;fill-rule:evenodd" d="m1811.9 676.06c-5.7944-0.0101-11.914 2.0864-9.096 6.3181-1.0892 1.3654-2.3861 2.6756-2.3705 4.3356l1.3006 0.11625c-0.4777-1.3501 0.7063-2.6577 1.8497-3.8451 5.8356 3.0068 6.3384-2.2659 10.753-6.7923-0.7874-0.0874-1.6086-0.13127-2.4364-0.13271zm-8.8507 6.5644 0.2453 0.18763c-0.9688 1.1947-2.2279 2.3895-2.0658 3.5842l-0.3615-0.0439c-0.1037-0.92323 0.7863-2.228 2.182-3.7279z"/>
   <path id="path6698" style="fill:#fdb822;fill-rule:evenodd" d="m1803.6 682.22c1.4198-1.5936 5.3732-3.8895 8.3677-5.2461-2.9667 1.0068-7.8853 3.1221-8.3677 5.2461z"/>
   <path id="path6700" style="fill:#fdb822;fill-rule:evenodd" d="m1804 681.51c0.1735-0.95384 0.1751-1.9077 0.159-2.8615 0.083 0.88346 0.2545 1.7542 0.087 2.6736 1.5115 0.0538 2.4643 0.51395 3.5841 0.85267-1.2544-0.2883-2.501-0.5997-3.8298-0.66479z"/>
   <path id="path6702" style="fill:#fdb822;fill-rule:evenodd" d="m1806.7 679.6c0.7515-0.44801 2.5407-0.25598 3.5407-0.11561-0.9018-0.19453-1.8115-0.36561-2.7892-0.3324l0.072-1.8065c-0.183 1.0392-0.3764 2.0459-0.8237 2.2545z"/>
   <path id="path6704" style="fill:#b4c55a;fill-rule:evenodd" d="m1803.6 682.98c5.8356 3.0068 6.3378-2.2646 10.752-6.791-0.7874-0.0874-1.6079-0.13137-2.4356-0.13281-5.7944-0.0101-11.916 2.0847-9.0976 6.3164z"/>
   <path id="path6706" style="fill:#245b8d;fill-rule:evenodd" d="m1811.9 676.41c0.4898 0.003 0.994 0.0229 1.5117 0.0605-3.7861 3.79-4.9077 9.72-9.9433 5.8887-2.9915-2.276 1.0849-5.9909 8.4316-5.9492zm-0.051-0.35352c-5.7944-0.0101-11.916 2.0847-9.0976 6.3164-1.0892 1.3654-2.3847 2.6759-2.3692 4.3359l1.3008 0.11719c-0.4776-1.3501 0.7061-2.6583 1.8496-3.8457 5.8356 3.0068 6.3378-2.2646 10.752-6.791-0.7874-0.0874-1.6079-0.13137-2.4356-0.13281z"/>
   <path id="path6708" style="fill:#a85700;fill-rule:evenodd" d="m1803 682.62 0.2461 0.1875c-0.9687 1.1947-2.2286 2.3893-2.0664 3.584l-0.3614-0.0449c-0.1036-0.92323 0.786-2.2267 2.1817-3.7266z"/>
   <path id="path6710" d="m1803.6 682.22c1.4198-1.5936 5.3732-3.8895 8.3677-5.2461-2.9667 1.0068-7.8853 3.1221-8.3677 5.2461z" style="fill:#245b8d;fill-rule:evenodd"/>
   <path id="path6712" d="m1804 681.51c0.1735-0.95384 0.1751-1.9077 0.159-2.8615 0.083 0.88346 0.2545 1.7542 0.087 2.6736 1.5115 0.0538 2.4643 0.51395 3.5841 0.85267-1.2544-0.2883-2.5011-0.5997-3.8298-0.66479z" style="fill:#245b8d;fill-rule:evenodd"/>
   <path id="path6714" d="m1806.7 679.6c0.7514-0.44801 2.5407-0.25598 3.5407-0.11561-0.9019-0.19453-1.8115-0.36561-2.7893-0.3324l0.072-1.8065c-0.1831 1.0392-0.3765 2.0459-0.8237 2.2545z" style="fill:#245b8d;fill-rule:evenodd"/>
  </g>
 </g>
</svg>
