<?xml version="1.0" encoding="UTF-8" standalone="no"?>
<!-- Created with Inkscape (http://www.inkscape.org/) -->
<svg id="svg4292" xmlns:rdf="http://www.w3.org/1999/02/22-rdf-syntax-ns#" xmlns="http://www.w3.org/2000/svg" height="2.3743mm" width="4.8918mm" version="1.1" xmlns:cc="http://creativecommons.org/ns#" xmlns:dc="http://purl.org/dc/elements/1.1/" viewBox="0 0 17.333002 8.4129348">
 <g id="layer1" transform="translate(-99.242 -426.92)">
  <g id="use6466" transform="translate(-1699.7 -230.46)">
   <path id="path6742" d="m1801 660.97c-0.6499-1.1724-1.216-1.5515-1.5655-1.3162 0.1981 1.1821-0.011 2.8738-0.1275 3.9089 0.3396 0.32406 0.9647-0.0595 1.693-1.0544 1.8913 0.70349 7.106 2.9292 10.191 2.906-2.1118-3.0652-1.7148-5.1465-0.084-7.7113-3.1709 0.0214-8.2988 2.0486-10.107 3.2671z" style="fill:#245b8d;fill-rule:evenodd"/>
   <path id="path6744" style="stroke-linejoin:round;stroke:#245b8d;stroke-width:.63781;fill:none" d="m1801 660.97c-0.6499-1.1724-1.216-1.5515-1.5655-1.3162 0.2638 1.0236 0.212 2.7566-0.1275 3.9089 0.3396 0.32406 0.9647-0.0595 1.693-1.0544 3.7824 1.407 11.103 6.228 15.002-0.60121-2.9091-7.3148-11.386-3.3741-15.002-0.93706z"/>
   <path id="path6746" style="stroke:#245b8d;stroke-width:.38269;fill:none" d="m1811 657.9c-1.8431 2.6476-1.7891 5.2203 0.354 7.7105"/>
   <circle id="circle6748" r=".44257" style="fill:#245b8d" cx="1812.2" cy="660.37"/>
   <path id="path6750" style="fill:#fdb822;fill-rule:evenodd" d="m1809.1 658.63c-0.9582 0.58996-0.9925 1.3028-0.8064 2.0456 0.36-0.61052 0.6315-1.3054 0.8064-2.0456z"/>
   <path id="path6752" style="fill:#fdb822;fill-rule:evenodd" d="m1807 659.12c-0.5747 0.33397-0.6193 0.98888-0.5889 1.5795 0.3585-0.42275 0.564-1.0086 0.5889-1.5795z"/>
   <path id="path6754" style="fill:#fdb822;fill-rule:evenodd" d="m1805.1 659.8c-0.4145 0.28319-0.4722 0.83642-0.4442 1.2303 0.2913-0.31114 0.4309-0.74999 0.4442-1.2303z"/>
   <path id="path6756" style="fill:#c8d7e6;fill-rule:evenodd" d="m1801 660.97c-0.6499-1.1724-1.2161-1.5515-1.5655-1.3162 0.198 1.1821-0.011 2.8738-0.1275 3.9089 0.3396 0.32406 0.9646-0.0595 1.693-1.0544 1.8912 0.70349 7.1059 2.9292 10.191 2.906-2.1118-3.0652-1.7148-5.1465-0.084-7.7113-3.1709 0.0214-8.2988 2.0486-10.107 3.2671z"/>
   <path id="path6758" d="m1801 660.97c-0.6499-1.1724-1.2161-1.5515-1.5655-1.3162 0.2637 1.0236 0.212 2.7566-0.1275 3.9089 0.3396 0.32406 0.9646-0.0595 1.693-1.0544 3.7824 1.407 11.102 6.228 15.002-0.60121-2.9091-7.3148-11.386-3.3741-15.002-0.93706z" style="stroke-linejoin:round;stroke:#245b8d;stroke-width:.63781;fill:none"/>
   <path id="path6760" d="m1811 657.9c-1.8432 2.6476-1.7891 5.2203 0.354 7.7105" style="stroke:#245b8d;stroke-width:.38269;fill:none"/>
   <circle id="circle6762" cx="1812.2" cy="660.37" r=".44257" style="fill:#245b8d"/>
   <path id="path6764" d="m1809.1 658.63c-0.9583 0.58996-0.9926 1.3028-0.8064 2.0456 0.36-0.61052 0.6314-1.3054 0.8064-2.0456z" style="fill:#245b8d;fill-rule:evenodd"/>
   <path id="path6766" d="m1807 659.12c-0.5748 0.33397-0.6193 0.98888-0.5889 1.5795 0.3585-0.42275 0.5639-1.0086 0.5889-1.5795z" style="fill:#245b8d;fill-rule:evenodd"/>
   <path id="path6768" d="m1805.1 659.8c-0.4145 0.28319-0.4721 0.83642-0.4442 1.2303 0.2914-0.31114 0.4309-0.74999 0.4442-1.2303z" style="fill:#245b8d;fill-rule:evenodd"/>
  </g>
 </g>
</svg>
