<?xml version="1.0" encoding="UTF-8" standalone="no"?>
<!-- Created with Inkscape (http://www.inkscape.org/) -->
<svg id="svg4292" xmlns:rdf="http://www.w3.org/1999/02/22-rdf-syntax-ns#" xmlns="http://www.w3.org/2000/svg" height="4.2838mm" width="4.0203mm" version="1.1" xmlns:cc="http://creativecommons.org/ns#" xmlns:dc="http://purl.org/dc/elements/1.1/" viewBox="0 0 14.244993 15.178813">
 <g id="layer1" transform="translate(-98.545 -424.46)">
  <g id="g6832" transform="translate(-2055.3 -208.81)">
   <path id="path6628" d="m2166 636.79c3.0165 1.1773 1.9424-3.6032-0.222-1.3694 1.2737-2.8321-2.7507-2.1072-1.4064 0.074l-2.1574 2.2924c0.701 0.10946 1.2374 0.46101 1.6416 1.4194z" style="stroke-linejoin:round;stroke:#245b8d;stroke-linecap:round;stroke-width:.60004;fill:none"/>
   <path id="path6630" style="fill:#b4895a;fill-rule:evenodd" d="m2163.2 638.27c-2.7182-2.3219-13.199 3.4056-6.8468 8.4382 6.3521 5.0326 9.565-6.1163 6.8468-8.4382z"/>
   <path id="path6632" d="m2163.2 638.27c-2.7182-2.3219-13.199 3.4056-6.8468 8.4382 6.3521 5.0326 9.565-6.1163 6.8468-8.4382z" style="stroke:#245b8d;stroke-width:.90005;fill:none"/>
   <path id="path6634" d="m2156.3 641.41-0.5777 0.81526 0.6713 0.3766 0.5468-0.87694zm0.8463 0.4162-0.5468 0.86153 0.9458 0.44998 0.5159-0.86153zm-1.5787 0.69736-0.1453 0.67117 0.6249 0.33034 0.2224-0.62491zm0.9388 0.41621-0.2841 0.76369 0.9612 0.35746 0.2532-0.73285z" style="fill:#ffe2c2"/>
  </g>
 </g>
</svg>
