<?xml version="1.0" encoding="UTF-8" standalone="no"?>
<svg
   xmlns:dc="http://purl.org/dc/elements/1.1/"
   xmlns:cc="http://creativecommons.org/ns#"
   xmlns:rdf="http://www.w3.org/1999/02/22-rdf-syntax-ns#"
   xmlns:svg="http://www.w3.org/2000/svg"
   xmlns="http://www.w3.org/2000/svg"
   xmlns:sodipodi="http://sodipodi.sourceforge.net/DTD/sodipodi-0.dtd"
   xmlns:inkscape="http://www.inkscape.org/namespaces/inkscape"
   width="200"
   height="200"
   version="1.1"
   id="svg6"
   sodipodi:docname="h_logo.svg"
   inkscape:version="0.92.4 (5da689c313, 2019-01-14)">
  <metadata
     id="metadata12">
    <rdf:RDF>
      <cc:Work
         rdf:about="">
        <dc:format>image/svg+xml</dc:format>
        <dc:type
           rdf:resource="http://purl.org/dc/dcmitype/StillImage" />
        <dc:title></dc:title>
      </cc:Work>
    </rdf:RDF>
  </metadata>
  <defs
     id="defs10" />
  <sodipodi:namedview
     pagecolor="#1e64c8"
     bordercolor="#666666"
     borderopacity="1"
     objecttolerance="10"
     gridtolerance="10"
     guidetolerance="10"
     inkscape:pageopacity="0"
     inkscape:pageshadow="2"
     inkscape:window-width="1920"
     inkscape:window-height="1057"
     id="namedview8"
     showgrid="false"
     inkscape:pagecheckerboard="true"
     fit-margin-top="0"
     fit-margin-left="0"
     fit-margin-right="0"
     fit-margin-bottom="0"
     inkscape:zoom="2.0043759"
     inkscape:cx="122.00675"
     inkscape:cy="69.271688"
     inkscape:window-x="-8"
     inkscape:window-y="-8"
     inkscape:window-maximized="1"
     inkscape:current-layer="svg6" />
  <rect
     style="fill:#1e64c8;fill-opacity:1"
     id="rect822"
     width="200"
     height="200"
     x="0"
     y="0" />
  <path
     d="m 128.52,172.96281 c -1.053,-2.785 -1.541,-4.889 -2.151,-9.246 -0.072,-0.52 -0.298,-3.074 -0.401,-4.559 -0.088,-1.205 -0.104,-2.986 -0.08,-7.369 0.016,-3.178 0.048,-6.092 0.072,-6.469 0.039,-0.738 0.232,-7.72 0.369,-13.227 0.256,-10.89 0.297,-23.893 0.088,-26.077 -0.778,-7.903999 -2.85,-13.009999 -6.686,-16.443999 -2.825,-2.524 -6.557,-4.017 -11.565,-4.603 -1.404,-0.165 -6.63,-0.14 -8.163,0.048 -3.17,0.37 -5.963,1.022 -8.482,1.966 -3.732,1.408 -6.693,3.26 -9.189,5.764 -2.529,2.535 -4.078,5.31 -4.703,8.421999 l -0.193,0.924 0.008,16.98 c 0,16.328 0.049,20.646 0.281,26.601 0.08,2.055 0.209,4.672 0.281,5.627 l 0.128,1.66 c 0.241,3.316 0.675,6.11 1.172,7.658 0.12,0.37 0.136,0.385 0.755,0.617 1.524,0.586 3.988,1.035 6.966,1.268 1.798,0.137 6.101,0.281 8.628,0.281 h 1.718 v 7.465 l -3.331,-0.057 c -3.949,-0.064 -6.517,-0.145 -12.681,-0.418 -10.337,-0.44 -13.491,-0.44 -24.624,0 -6.132,0.25 -9.591,0.354 -14.543,0.418 l -3.86,0.057 v -7.44 l 5.161,-0.049 c 6.003,-0.049 8.09,-0.168 10.754,-0.627 1.565,-0.264 3.772,-0.898 4.045,-1.154 0.153,-0.152 0.547,-1.814 0.73,-3.123 0.691,-4.816 1.027,-12.439 1.236,-27.416 0.113,-8.553 0.057,-65.339996 -0.08,-70.123996 -0.16,-6.136 -0.329,-10.755 -0.449,-12.376 -0.024,-0.285 -0.057,-0.903 -0.088,-1.372 -0.225,-3.909 -0.675,-7.324 -1.172,-8.86 l -0.161,-0.486 -0.546,-0.213 c -1.147,-0.445 -2.455,-0.763 -4.222,-1.022 -2.648,-0.395 -4.759,-0.494 -10.458,-0.494 l -4.751,-0.004 v -7.411 l 7.585,-0.057 c 15.449,-0.11 24.68,-0.404 30.972,-0.979 1.1,-0.097 2.015,-0.169 2.03,-0.156 0.017,0.008 -0.104,1.47 -0.265,3.242 -0.481,5.39 -0.666,8.078 -0.851,12.601 -0.297,7.06 -0.418,17.545 -0.393,31.719997 l 0.023,11.18 0.971,-0.823 c 6.75,-5.698 16.189,-9.716 25.779,-10.976 2.697,-0.357 3.692,-0.422 6.855,-0.449 3.298,-0.024 4.582,0.044 6.998,0.365 10.827,1.457 18.523,6.637 22.593,15.217 1.694,3.556 2.688,7.484 3.179,12.439999 0.185,1.902 0.145,16.634 -0.097,33.933 -0.104,7.29 -0.097,16.688 0.009,18.275 0.176,2.77 0.514,4.881 1.011,6.445 0.329,1.004 0.241,0.932 1.669,1.355 2.979,0.893 7.77,1.365 13.629,1.373 h 1.637 v 7.442 h -2.648 c -5.643,0.008 -12.721,0.521 -20.723,1.5 -3.066,0.377 -8.725,1.203 -9.527,1.373 -0.137,0.04 -0.202,0.001 -0.249,-0.136 z"
     id="path2"
     inkscape:connector-curvature="0"
     style="fill:#ffffff"
     sodipodi:nodetypes="cccccccccccccccccccccscccccccccccccccccccccccccccccccccccccccccccccccc" />
</svg>
