<?xml version="1.0" encoding="UTF-8" standalone="no"?>
<!-- Created with Inkscape (http://www.inkscape.org/) -->
<svg id="svg3811" xmlns:rdf="http://www.w3.org/1999/02/22-rdf-syntax-ns#" xmlns="http://www.w3.org/2000/svg" height="3.8361mm" width="3.8415mm" version="1.1" xmlns:cc="http://creativecommons.org/ns#" xmlns:dc="http://purl.org/dc/elements/1.1/" viewBox="0 0 13.611451 13.592468">
 <g id="layer1" transform="translate(-41.766 -1014.1)">
  <path id="path5915" style="color-rendering:auto;text-decoration-color:#000000;color:#000000;shape-rendering:auto;solid-color:#000000;text-decoration-line:none;mix-blend-mode:normal;block-progression:tb;text-indent:0;image-rendering:auto;white-space:normal;text-decoration-style:solid;isolation:auto;text-transform:none" d="m46.316 1014.1a1.1187 1.1187 0 0 0 -1.1191 1.1192 1.1187 1.1187 0 0 0 0.92188 1.0996c0.17347 0.3223 0.35561 0.604 0.54297 0.8437-1.7188 0.2926-3.3821 0.9875-4.8281 2.086l0.88672 1.1679c3.4216-2.5991 8.2685-2.5909 11.672 0.018l0.89063-1.164c-1.4413-1.1047-3.1009-1.8064-4.8203-2.1036 0.20646-0.2444 0.4049-0.5287 0.59375-0.8496a1.1187 1.1187 0 0 0 0.91211 -1.0976 1.1187 1.1187 0 0 0 -1.1191 -1.1192 1.1187 1.1187 0 0 0 -1.1191 1.1192 1.1187 1.1187 0 0 0 0.22851 0.6738c-0.85157 1.4259-2.0528 1.2634-2.7598 0.012a1.1187 1.1187 0 0 0 0.23633 -0.6855 1.1187 1.1187 0 0 0 -1.1191 -1.1192zm2.123 5.0391c-3.3515 0.024-6.6616 1.6937-6.6738 5.0897 0.016 3.4532 2.1171 3.4912 6.707 3.459 4.5899-0.032 6.9211-0.01 6.9043-3.4473 0.0238-3.3958-3.4796-5.1257-6.9375-5.1014zm0.92383 1.8437c0.24624 0 0.49205 0.032 0.73828 0.096 0.24859 0.061 0.50064 0.1563 0.75391 0.2832l-0.19532 1.0489c-0.1923-0.1836-0.38816-0.3183-0.58984-0.4043-0.19933-0.086-0.419-0.1289-0.6582-0.1289-0.26265 0-0.50729 0.071-0.73243 0.2109-0.22512 0.1405-0.41669 0.3423-0.57617 0.6074h1.748l-0.30274 0.664h-1.6992c-0.0164 0.077-0.0293 0.1547-0.041 0.2363-0.0117 0.082-0.0222 0.1721-0.0293 0.2695h1.541l-0.3086 0.6621h-1.1894c0.0563 0.2696 0.17494 0.4765 0.35547 0.6192 0.18292 0.1404 0.41702 0.2109 0.70313 0.2109 0.21574 0 0.444-0.049 0.68554-0.1465 0.2439-0.1 0.48853-0.2422 0.73242-0.4257l-0.20703 1.125c-0.29079 0.111-0.5721 0.1953-0.84179 0.2519-0.26734 0.057-0.52056 0.086-0.75977 0.086-0.5769 0-1.0451-0.1502-1.4062-0.4492-0.3588-0.2991-0.58119-0.7233-0.66797-1.2715h-0.80664l0.31055-0.6621h0.48828c0.005-0.072 0.0137-0.1492 0.0254-0.2285 0.0141-0.079 0.0344-0.1709 0.0625-0.2774h-0.61914l0.30273-0.6639h0.54493c0.22982-0.5234 0.58253-0.938 1.0586-1.2461 0.47606-0.3104 1.0032-0.4668 1.5801-0.4668z"/>
 </g>
</svg>
