<?xml version="1.0" encoding="UTF-8" standalone="no"?>
<!-- Created with Inkscape (http://www.inkscape.org/) -->

<svg
   xmlns:dc="http://purl.org/dc/elements/1.1/"
   xmlns:cc="http://creativecommons.org/ns#"
   xmlns:rdf="http://www.w3.org/1999/02/22-rdf-syntax-ns#"
   xmlns:svg="http://www.w3.org/2000/svg"
   xmlns="http://www.w3.org/2000/svg"
   xmlns:sodipodi="http://sodipodi.sourceforge.net/DTD/sodipodi-0.dtd"
   xmlns:inkscape="http://www.inkscape.org/namespaces/inkscape"
   width="9.052146mm"
   height="7.8703122mm"
   viewBox="0 0 32.074533 27.886933"
   id="svg6750"
   version="1.1"
   inkscape:version="0.91 r13725"
   sodipodi:docname="home.svg">
  <defs
     id="defs6752" />
  <sodipodi:namedview
     id="base"
     pagecolor="#ffffff"
     bordercolor="#666666"
     borderopacity="1.0"
     inkscape:pageopacity="0.0"
     inkscape:pageshadow="2"
     inkscape:zoom="1.4"
     inkscape:cx="129.97422"
     inkscape:cy="93.373785"
     inkscape:document-units="px"
     inkscape:current-layer="layer1"
     showgrid="false"
     inkscape:window-width="1362"
     inkscape:window-height="746"
     inkscape:window-x="0"
     inkscape:window-y="918"
     inkscape:window-maximized="0" />
  <metadata
     id="metadata6755">
    <rdf:RDF>
      <cc:Work
         rdf:about="">
        <dc:format>image/svg+xml</dc:format>
        <dc:type
           rdf:resource="http://purl.org/dc/dcmitype/StillImage" />
        <dc:title />
      </cc:Work>
    </rdf:RDF>
  </metadata>
  <g
     inkscape:label="Layer 1"
     inkscape:groupmode="layer"
     id="layer1"
     transform="translate(-203.96273,-246.99017)">
    <path
       inkscape:connector-curvature="0"
       id="path3893"
       d="m 219.98358,246.99078 a 0.90697914,0.90697914 0 0 0 -0.0283,0.002 0.90697914,0.90697914 0 0 0 -0.57859,0.23145 0.90697914,0.90697914 0 0 0 -0.045,0.0424 l -15.06999,13.56078 a 0.90697914,0.90697914 0 0 0 0.60695,1.57998 l 4.00542,0 0,11.56281 a 0.90697914,0.90697914 0 0 0 0.90689,0.9069 l 7.17955,0 a 0.90697914,0.90697914 0 0 0 0.90689,-0.9069 l 0,-8.61543 1.16667,0 1.93185,0 1.16666,0 0,8.61543 a 0.90697914,0.90697914 0 0 0 0.9069,0.9069 l 7.17953,0 a 0.90697914,0.90697914 0 0 0 0.90689,-0.9069 l 0,-11.56281 4.00543,0 a 0.90697914,0.90697914 0 0 0 0.60697,-1.57998 l -15.11481,-13.60332 a 0.90697914,0.90697914 0 0 0 -0.61407,-0.23383 0.90697914,0.90697914 0 0 0 -0.026,0 z m 0.0165,2.11136 12.76966,11.49198 -2.55063,0 a 0.90697914,0.90697914 0 0 0 -0.90687,0.90688 l 0,11.56282 -5.36577,0 0,-8.61544 a 0.90697914,0.90697914 0 0 0 -0.90689,-0.90688 l -2.07357,0 -1.93186,0 -2.07356,0 a 0.90697914,0.90697914 0 0 0 -0.90689,0.90688 l 0,8.61544 -5.36575,0 0,-11.56282 a 0.90697914,0.90697914 0 0 0 -0.90688,-0.90688 l -2.55064,0 12.76965,-11.49198 z"
       style="color:#000000;font-style:normal;font-variant:normal;font-weight:normal;font-stretch:normal;font-size:medium;line-height:normal;font-family:sans-serif;text-indent:0;text-align:start;text-decoration:none;text-decoration-line:none;text-decoration-style:solid;text-decoration-color:#000000;letter-spacing:normal;word-spacing:normal;text-transform:none;direction:ltr;block-progression:tb;writing-mode:lr-tb;baseline-shift:baseline;text-anchor:start;white-space:normal;clip-rule:nonzero;display:inline;overflow:visible;visibility:visible;opacity:1;isolation:auto;mix-blend-mode:normal;color-interpolation:sRGB;color-interpolation-filters:linearRGB;solid-color:#000000;solid-opacity:1;fill:#000000;fill-opacity:1;fill-rule:evenodd;stroke:none;stroke-width:1.5;stroke-linecap:round;stroke-linejoin:round;stroke-miterlimit:4;stroke-dasharray:none;stroke-dashoffset:0;stroke-opacity:1;color-rendering:auto;image-rendering:auto;shape-rendering:auto;text-rendering:auto;enable-background:accumulate"
       inkscape:export-filename="/home/felix/Temporary/hydra.png"
       inkscape:export-xdpi="179.99899"
       inkscape:export-ydpi="179.99899" />
  </g>
</svg>
