<?xml version="1.0" encoding="UTF-8" standalone="no"?>
<!-- Created with Inkscape (http://www.inkscape.org/) -->

<svg
   xmlns:dc="http://purl.org/dc/elements/1.1/"
   xmlns:cc="http://creativecommons.org/ns#"
   xmlns:rdf="http://www.w3.org/1999/02/22-rdf-syntax-ns#"
   xmlns:svg="http://www.w3.org/2000/svg"
   xmlns="http://www.w3.org/2000/svg"
   xmlns:sodipodi="http://sodipodi.sourceforge.net/DTD/sodipodi-0.dtd"
   xmlns:inkscape="http://www.inkscape.org/namespaces/inkscape"
   width="8.7643261mm"
   height="8.7637701mm"
   viewBox="0 0 31.054699 31.052729"
   id="svg6943"
   version="1.1"
   inkscape:version="0.91 r13725"
   sodipodi:docname="info.svg">
  <defs
     id="defs6945" />
  <sodipodi:namedview
     id="base"
     pagecolor="#ffffff"
     bordercolor="#666666"
     borderopacity="1.0"
     inkscape:pageopacity="0.0"
     inkscape:pageshadow="2"
     inkscape:zoom="0.35"
     inkscape:cx="107.67021"
     inkscape:cy="-230.18792"
     inkscape:document-units="px"
     inkscape:current-layer="layer1"
     showgrid="false"
     inkscape:window-width="1362"
     inkscape:window-height="746"
     inkscape:window-x="0"
     inkscape:window-y="918"
     inkscape:window-maximized="0" />
  <metadata
     id="metadata6948">
    <rdf:RDF>
      <cc:Work
         rdf:about="">
        <dc:format>image/svg+xml</dc:format>
        <dc:type
           rdf:resource="http://purl.org/dc/dcmitype/StillImage" />
        <dc:title />
      </cc:Work>
    </rdf:RDF>
  </metadata>
  <g
     inkscape:label="Layer 1"
     inkscape:groupmode="layer"
     id="layer1"
     transform="translate(-267.32979,-271.12155)">
    <path
       inkscape:connector-curvature="0"
       style="color:#000000;font-style:normal;font-variant:normal;font-weight:normal;font-stretch:normal;font-size:medium;line-height:normal;font-family:sans-serif;text-indent:0;text-align:start;text-decoration:none;text-decoration-line:none;text-decoration-style:solid;text-decoration-color:#000000;letter-spacing:normal;word-spacing:normal;text-transform:none;direction:ltr;block-progression:tb;writing-mode:lr-tb;baseline-shift:baseline;text-anchor:start;white-space:normal;clip-rule:nonzero;display:inline;overflow:visible;visibility:visible;opacity:1;isolation:auto;mix-blend-mode:normal;color-interpolation:sRGB;color-interpolation-filters:linearRGB;solid-color:#000000;solid-opacity:1;fill:#000000;fill-opacity:1;fill-rule:nonzero;stroke:none;stroke-width:2.93425441;stroke-linecap:round;stroke-linejoin:round;stroke-miterlimit:4;stroke-dasharray:none;stroke-dashoffset:0;stroke-opacity:1;color-rendering:auto;image-rendering:auto;shape-rendering:auto;text-rendering:auto;enable-background:accumulate"
       d="m 282.85719,271.12155 c -8.5581,-2e-5 -15.5274,6.96738 -15.5274,15.52539 0,8.55801 6.9693,15.52736 15.5274,15.52734 8.558,2e-5 15.5273,-6.96933 15.5273,-15.52734 0,-8.55801 -6.9693,-15.52541 -15.5273,-15.52539 z m 0,2.93359 c 6.9722,-10e-6 12.5937,5.61958 12.5937,12.5918 0,6.97222 -5.6215,12.59377 -12.5937,12.59375 -6.9723,2e-5 -12.5918,-5.62153 -12.5918,-12.59375 0,-6.97222 5.6195,-12.59181 12.5918,-12.5918 z m 1.1855,4.33985 c -0.8803,0 -1.7344,0.85606 -1.7344,1.73633 0,0.73357 0.4882,1.27148 1.1973,1.27148 0.9536,0 1.8086,-0.8559 1.8086,-1.83398 0,-0.68466 -0.5135,-1.17383 -1.2715,-1.17383 z m -0.8555,4.40234 c -1.3938,0.31787 -1.7591,0.3904 -3.4218,0.53711 l -0.1231,0.70899 0.293,0.0488 c 1.0514,0.17116 1.4179,0.51355 1.4179,1.22266 0,0.24452 2e-4,0.39126 -0.049,0.61133 l -1.0273,5.625 c -0.049,0.26898 -0.072,0.5865 -0.072,0.85547 0,1.54048 0.8806,2.49414 2.3477,2.49414 1.2471,0 2.4212,-0.6124 3.5214,-1.81055 l -0.5624,-0.51367 c -0.7581,0.75802 -1.2473,1.05273 -1.7364,1.05273 -0.7824,0 -1.2969,-0.58754 -1.2969,-1.44336 0,-0.24452 0.024,-0.41469 0.049,-0.63476 l 1.5898,-8.75391 -0.9297,0 z"
       id="path4620" />
  </g>
</svg>
