<?xml version="1.0" encoding="UTF-8" standalone="no"?>
<!-- Created with Inkscape (http://www.inkscape.org/) -->

<svg
   xmlns:dc="http://purl.org/dc/elements/1.1/"
   xmlns:cc="http://creativecommons.org/ns#"
   xmlns:rdf="http://www.w3.org/1999/02/22-rdf-syntax-ns#"
   xmlns:svg="http://www.w3.org/2000/svg"
   xmlns="http://www.w3.org/2000/svg"
   xmlns:sodipodi="http://sodipodi.sourceforge.net/DTD/sodipodi-0.dtd"
   xmlns:inkscape="http://www.inkscape.org/namespaces/inkscape"
   width="6.4795141mm"
   height="11.38517mm"
   viewBox="0 0 22.958908 40.341153"
   id="svg6798"
   version="1.1"
   inkscape:version="0.91 r13725"
   sodipodi:docname="minerva_complex.svg">
  <defs
     id="defs6800" />
  <sodipodi:namedview
     id="base"
     pagecolor="#ffffff"
     bordercolor="#666666"
     borderopacity="1.0"
     inkscape:pageopacity="0.0"
     inkscape:pageshadow="2"
     inkscape:zoom="0.35"
     inkscape:cx="175.05088"
     inkscape:cy="-211.25799"
     inkscape:document-units="px"
     inkscape:current-layer="layer1"
     showgrid="false"
     inkscape:window-width="1362"
     inkscape:window-height="746"
     inkscape:window-x="0"
     inkscape:window-y="918"
     inkscape:window-maximized="0" />
  <metadata
     id="metadata6803">
    <rdf:RDF>
      <cc:Work
         rdf:about="">
        <dc:format>image/svg+xml</dc:format>
        <dc:type
           rdf:resource="http://purl.org/dc/dcmitype/StillImage" />
        <dc:title />
      </cc:Work>
    </rdf:RDF>
  </metadata>
  <g
     inkscape:label="Layer 1"
     inkscape:groupmode="layer"
     id="layer1"
     transform="translate(-199.94912,-280.76306)">
    <path
       style="opacity:1;fill:#000000;fill-opacity:1;fill-rule:nonzero;stroke:none;stroke-width:5;stroke-linecap:round;stroke-linejoin:round;stroke-miterlimit:4;stroke-dasharray:none;stroke-dashoffset:0;stroke-opacity:1"
       d="m 211.88026,280.76306 c -0.20355,0 -0.40561,0.01 -0.60523,0.0285 -0.59888,0.0562 -1.17942,0.19448 -1.73651,0.40548 -0.37138,0.14061 -0.73239,0.31357 -1.08161,0.51539 -0.1746,0.1009 -0.34568,0.20884 -0.51422,0.32387 -0.67413,0.46025 -1.29811,1.03088 -1.86062,1.68688 -0.28125,0.32796 -0.54769,0.67721 -0.79673,1.04496 -0.12452,0.1838 -0.24461,0.37235 -0.36054,0.56505 -0.11591,0.19271 -0.22754,0.39034 -0.33453,0.59104 -0.21396,0.40142 -0.40912,0.81813 -0.58514,1.24712 -0.52804,1.28688 -0.87942,2.68297 -1.01424,4.10779 -0.0674,0.71239 -0.0809,1.43192 -0.0354,2.14785 0.0757,1.19325 0.31495,2.37708 0.73999,3.50373 0.085,0.22535 0.17773,0.44871 0.27779,0.66908 0.34819,0.76685 0.57132,1.31169 0.67853,1.74004 0.0357,0.14275 0.0583,0.27275 0.0686,0.39362 0.0206,0.24182 -0.009,0.44762 -0.0863,0.64899 -0.0772,0.2014 -0.20153,0.39794 -0.37118,0.6218 -0.47914,0.63216 -0.74652,2.12009 -0.78136,3.56281 -0.008,0.3607 -0.002,0.71816 0.0178,1.05918 0.0207,0.34101 0.0566,0.66545 0.10759,0.95867 0.0255,0.14661 0.0544,0.28552 0.0875,0.41492 0.0331,0.12938 0.0702,0.24952 0.11116,0.35818 0.0408,0.10865 0.0849,0.20521 0.13358,0.28959 0.0487,0.0845 0.10176,0.15611 0.15842,0.2128 0.12438,0.12435 0.21629,0.24193 0.27424,0.35936 0.0579,0.11737 0.0816,0.23529 0.0721,0.35936 -0.005,0.062 -0.0184,0.12531 -0.0403,0.19155 -0.0654,0.19864 -0.20759,0.4199 -0.4291,0.6868 -1.0627,0.50309 -1.88985,1.02386 -2.51076,1.55328 -0.77616,0.66173 -1.22926,1.33728 -1.41499,2.00957 -0.0371,0.13441 -0.0641,0.269 -0.0803,0.40307 -0.0324,0.26812 -0.0237,0.5342 0.0225,0.7991 0.0231,0.13248 0.0556,0.26476 0.0969,0.39602 0.1654,0.52498 0.47347,1.03961 0.89604,1.53435 0.31692,0.37104 0.69765,0.73024 1.13126,1.0757 0.57815,0.46063 1.25002,0.89564 1.98592,1.2956 0.7359,0.39993 1.53682,0.76566 2.37365,1.0875 0.41843,0.16095 0.84603,0.31108 1.27903,0.44921 0.43301,0.1381 0.87046,0.26391 1.31094,0.37708 0.44049,0.11311 0.88309,0.21303 1.32395,0.29909 0.44087,0.086 0.88034,0.15843 1.31449,0.21514 0.86828,0.1135 1.7167,0.16579 2.51549,0.14894 0.39942,-0.008 0.78591,-0.0337 1.1573,-0.0781 0.74273,-0.0885 1.42267,-0.2504 2.01073,-0.49529 0.14701,-0.0614 0.28806,-0.12802 0.4232,-0.19978 0.13519,-0.0717 0.26418,-0.14817 0.38653,-0.23052 0.24472,-0.16483 0.46307,-0.35214 0.65133,-0.56149 0.0941,-0.10459 0.18013,-0.21477 0.2589,-0.33098 0.15746,-0.23242 0.28322,-0.48814 0.37354,-0.76836 0.0902,-0.28022 0.14584,-0.58475 0.16191,-0.91494 0.008,-0.16521 0.006,-0.33621 -0.006,-0.51422 -0.0116,-0.178 -0.0337,-0.36324 -0.0662,-0.5544 -0.0325,-0.19117 -0.0757,-0.3888 -0.12996,-0.59341 -0.2169,-0.81846 -0.61044,-1.74529 -1.20927,-2.78974 -0.29942,-0.52225 -0.65008,-1.07414 -1.05563,-1.65614 -0.18361,-0.28142 -0.39165,-0.49159 -0.61231,-0.66197 -0.1104,-0.0852 -0.22368,-0.15979 -0.33925,-0.22932 -0.11563,-0.0693 -0.23296,-0.13325 -0.35109,-0.19506 l 1.41258,-2.23769 c 0.38857,-0.6155 0.85104,-1.5175 1.28259,-2.47412 0.43154,-0.95664 0.83212,-1.96789 1.09816,-2.80394 0.13306,-0.41803 0.28014,-0.84159 0.43265,-1.24829 0.45755,-1.2201 0.96146,-2.29285 1.2613,-2.64436 0.1999,-0.23432 0.44692,-0.618 0.68325,-1.04734 0.23633,-0.42934 0.46199,-0.90436 0.6206,-1.32157 0.0628,-0.16483 0.11524,-0.31695 0.15494,-0.46221 0.0397,-0.14526 0.067,-0.28429 0.0802,-0.41963 0.0401,-0.4061 -0.0465,-0.78935 -0.30261,-1.2814 -0.25615,-0.49204 -0.68221,-1.09226 -1.32396,-1.93272 -0.27065,-0.35448 -0.56261,-0.78202 -0.85937,-1.25067 -0.59354,-0.93731 -1.20472,-2.04054 -1.69394,-3.05807 -0.12241,-0.25441 -0.23672,-0.50259 -0.34162,-0.74237 -0.10498,-0.2398 -0.20054,-0.47063 -0.28371,-0.68796 -0.0877,-0.22918 -0.17915,-0.45331 -0.27425,-0.67144 -0.1902,-0.43629 -0.39502,-0.84926 -0.61233,-1.23885 -0.10865,-0.19479 -0.22099,-0.38376 -0.33571,-0.56621 -0.22943,-0.36494 -0.47016,-0.70485 -0.72108,-1.01778 -0.1255,-0.1565 -0.25285,-0.30639 -0.38301,-0.44921 -0.52056,-0.57123 -1.07675,-1.0315 -1.65375,-1.36651 -0.43273,-0.25126 -0.87752,-0.43218 -1.32749,-0.53666 -0.14998,-0.0349 -0.30058,-0.0616 -0.45156,-0.0792 -0.15097,-0.0174 -0.30242,-0.026 -0.45392,-0.026 z m 0.12056,1.19628 c 0.74313,-0.0294 1.10418,0.34838 1.10171,1.04143 -3.4e-4,0.13868 -0.0155,0.28967 -0.0448,0.45273 -0.0883,0.48923 -0.30581,1.08558 -0.64897,1.76842 -0.11437,0.22762 -0.24325,0.46546 -0.38536,0.71161 -0.28423,0.49236 -0.62328,1.01924 -1.01661,1.57695 -0.19666,0.27884 -0.40657,0.56522 -0.63005,0.85818 -0.44698,0.58597 -0.94761,1.19867 -1.50008,1.83226 -0.27624,0.31681 -0.5655,0.63927 -0.86766,0.96576 -1.10807,1.19729 -2.28297,2.6734 -2.61125,3.28034 -0.32993,0.60993 -0.61254,0.8298 -0.83457,0.75535 -0.11103,-0.0372 -0.2074,-0.14778 -0.28607,-0.32036 -0.0394,-0.0864 -0.0746,-0.18806 -0.10521,-0.30379 -0.0918,-0.34708 -0.1429,-0.8192 -0.14776,-1.37716 -0.002,-0.37194 0.0145,-0.78278 0.0544,-1.21872 0.0797,-0.87187 0.24895,-1.84743 0.52248,-2.8323 0.26171,-0.94231 0.73432,-1.91866 1.3405,-2.83232 0.6062,-0.91366 1.34615,-1.7647 2.14078,-2.45403 0.52976,-0.45954 1.08385,-0.84744 1.63957,-1.13479 0.48656,-0.25163 0.9196,-0.43828 1.29912,-0.56505 0.37953,-0.12686 0.70558,-0.19368 0.97997,-0.20451 z m 1.9209,1.30978 c 0.11292,0.0242 0.27622,0.1503 0.51185,0.38771 0.23565,0.23746 0.54359,0.58638 0.94569,1.05679 0.23089,0.27013 0.45175,0.54704 0.65252,0.81566 0.60229,0.80583 1.02723,1.53985 1.02723,1.81451 0,0.0914 0.0242,0.22444 0.0674,0.38655 0.12918,0.4863 0.43053,1.23394 0.78017,1.90435 0.23308,0.44694 0.44392,0.94955 0.59579,1.39843 0.0759,0.22444 0.13654,0.43512 0.17857,0.61941 0.0418,0.18419 0.0651,0.34162 0.0637,0.45864 -0.002,0.23407 -0.11001,0.23262 -0.28134,0.0426 -0.17141,-0.19 -0.40699,-0.56863 -0.66433,-1.09107 -0.45037,-0.91406 -1.0767,-1.77737 -1.49062,-2.08048 -0.0591,-0.0434 -0.11389,-0.0755 -0.16308,-0.0947 -0.0494,-0.0194 -0.0959,-0.0434 -0.13829,-0.072 -0.0424,-0.0285 -0.0808,-0.0614 -0.11582,-0.098 -0.0351,-0.0368 -0.0664,-0.0783 -0.0934,-0.12183 -0.10827,-0.17451 -0.15049,-0.39699 -0.10885,-0.6206 0.0116,-0.056 0.0262,-0.11136 0.0473,-0.16676 0.11001,-0.28696 0.13015,-0.49228 0.0722,-0.61823 -0.0291,-0.063 -0.0775,-0.10672 -0.14429,-0.12996 -0.0333,-0.0116 -0.0711,-0.0174 -0.1135,-0.0202 -0.12705,-0.006 -0.2931,0.0327 -0.4941,0.11466 -0.13403,0.0544 -0.28344,0.12822 -0.44685,0.22105 -0.16327,0.0928 -0.34078,0.20504 -0.53074,0.33571 -0.19001,0.13074 -0.3927,0.27991 -0.60642,0.44801 -0.24819,0.19525 -0.45723,0.38535 -0.62769,0.56859 -0.0852,0.0916 -0.16074,0.18187 -0.22696,0.26953 -0.33113,0.43813 -0.4265,0.82195 -0.30381,1.11 0.0246,0.0575 0.0574,0.11117 0.0993,0.16075 0.0418,0.0496 0.0925,0.0949 0.1513,0.13597 0.1177,0.0819 0.26989,0.14604 0.45393,0.18923 0.36809,0.0864 0.8661,0.0899 1.4859,-0.0116 0.22008,-0.0356 0.41559,-0.0647 0.59223,-0.0839 0.35325,-0.0384 0.62915,-0.0384 0.86529,0.0261 0.35421,0.0967 0.61992,0.33716 0.92321,0.8038 0.1011,0.15553 0.20602,0.33596 0.32037,0.54495 0.11427,0.20898 0.23769,0.44661 0.37472,0.71517 0.64922,1.27263 1.1809,2.60898 1.1809,2.96942 0,0.0794 -0.0395,0.1474 -0.12047,0.20333 -0.56668,0.39101 -3.1684,0.20333 -8.53237,-0.59577 -1.41426,-0.2107 -1.98296,-0.14584 -2.10296,0.28725 -0.017,0.0618 -0.0248,0.13093 -0.0248,0.20804 0,0.056 -0.008,0.11776 -0.0237,0.18438 -0.0153,0.0666 -0.0374,0.1381 -0.0662,0.2128 -0.0576,0.14933 -0.14067,0.31191 -0.24352,0.47875 -0.20568,0.33362 -0.48938,0.68215 -0.80145,0.96458 -0.27805,0.25163 -0.48808,0.43952 -0.64661,0.55203 -0.31705,0.22506 -0.42793,0.14914 -0.46694,-0.31915 -0.0195,-0.23416 -0.0213,-0.56662 -0.0213,-1.00833 0,-0.32454 0.0387,-0.64117 0.12057,-0.96105 0.0409,-0.15999 0.0926,-0.32076 0.15603,-0.48349 0.25389,-0.65083 0.69267,-1.33477 1.36178,-2.13485 0.16726,-0.20002 0.34947,-0.40706 0.54612,-0.62298 0.41591,-0.45661 0.8173,-0.91217 1.20219,-1.36294 0.38489,-0.45078 0.75372,-0.8972 1.10171,-1.33341 0.69599,-0.87241 1.31202,-1.7064 1.82516,-2.46821 0.51315,-0.76182 0.92246,-1.45065 1.20575,-2.03202 0.14164,-0.2907 0.25207,-0.55479 0.32742,-0.78729 0.0754,-0.23251 0.11621,-0.43375 0.11951,-0.59933 0.008,-0.39129 0.0418,-0.62267 0.15959,-0.66789 0.0246,-0.01 0.0529,-0.0116 0.085,-0.004 z m 6.75925,10.16128 c 0.0385,-0.0116 0.0819,-0.002 0.12764,0.0236 0.13713,0.0759 0.29601,0.30224 0.41727,0.61824 0.048,0.12492 0.0845,0.23699 0.11117,0.33571 0.0802,0.29621 0.0693,0.47233 -0.008,0.51422 -0.10362,0.0558 -0.32549,-0.12666 -0.60524,-0.57924 -0.0513,-0.0831 -0.0932,-0.17044 -0.12415,-0.25652 -0.062,-0.17218 -0.0821,-0.34074 -0.0556,-0.46691 0.0136,-0.0631 0.0385,-0.11543 0.0757,-0.15242 0.0194,-0.0194 0.0393,-0.0308 0.0614,-0.0366 z m -5.31118,3.38672 c 1.29789,-0.008 2.62088,0.0676 3.27914,0.23168 0.21941,0.0546 0.36533,0.11931 0.41139,0.19388 0.0951,0.15417 0.24098,0.25783 0.39954,0.30024 0.15863,0.0424 0.32994,0.0236 0.47518,-0.0662 0.14527,-0.0899 0.27777,-0.0707 0.37356,0.0331 0.0478,0.0519 0.0866,0.12551 0.1135,0.21633 0.0269,0.0908 0.0414,0.19914 0.0414,0.32271 0,0.0618 -0.01,0.12609 -0.0285,0.19155 -0.0194,0.0655 -0.0463,0.13151 -0.0815,0.19859 -0.10575,0.20139 -0.282,0.40603 -0.50355,0.58749 -0.074,0.0606 -0.15223,0.11931 -0.23525,0.17374 -0.16579,0.10885 -0.34818,0.20286 -0.53904,0.27543 -0.37047,0.14081 -0.67411,0.33364 -0.92322,0.59697 -0.24912,0.26331 -0.44388,0.59739 -0.59697,1.02015 -0.10207,0.2818 -0.18535,0.60295 -0.25413,0.96932 -0.0784,0.41845 -0.15475,0.75253 -0.23879,1.01542 -0.12628,0.39432 -0.2699,0.62743 -0.46575,0.73998 -0.0653,0.0376 -0.13713,0.0622 -0.21512,0.0744 -0.15611,0.0246 -0.34011,7.9e-4 -0.56269,-0.0566 -0.40274,-0.10536 -0.66342,-0.0997 -0.80148,-0.0248 -0.20706,0.11233 -0.13926,0.38179 0.13597,0.67142 0.18341,0.1931 0.45992,0.39465 0.80736,0.56507 0.17374,0.0852 0.36498,0.16269 0.57212,0.22695 0.2882,0.0895 0.49914,0.1596 0.63007,0.2116 0.13093,0.0519 0.18167,0.0856 0.14778,0.10401 -0.0678,0.037 -0.47253,0.0116 -1.24474,-0.0604 -0.25357,-0.0236 -0.49594,-0.0329 -0.71635,-0.0296 -0.55107,0.008 -0.96654,0.0957 -1.08989,0.23645 -0.0246,0.0283 -0.0378,0.0589 -0.0378,0.0908 0,0.0324 0.01,0.0641 0.0285,0.0945 0.0194,0.0306 0.0478,0.0595 0.0839,0.0875 0.2161,0.16831 0.72108,0.28724 1.30622,0.28724 0.48761,0 0.91943,0.10149 1.17501,0.25535 0.0511,0.0306 0.0951,0.0635 0.13113,0.098 0.072,0.0689 0.11233,0.14507 0.11233,0.22459 0,0.0417 -0.0116,0.0792 -0.0306,0.1135 -0.0397,0.0686 -0.1166,0.1226 -0.2258,0.16076 -0.27307,0.0955 -0.7429,0.0928 -1.30385,-0.026 -0.48771,-0.10324 -0.80583,-0.16037 -0.96932,-0.16425 -0.27243,-0.006 -0.11524,0.13558 0.40193,0.46457 0.40958,0.26046 0.76365,0.60696 0.91494,0.87475 0.0504,0.0893 0.078,0.16947 0.078,0.23524 0,0.21567 -0.0897,0.38894 -0.24826,0.51776 -0.0792,0.0645 -0.17606,0.11795 -0.28725,0.15959 -0.33378,0.12512 -0.80018,0.14623 -1.32985,0.0544 -0.3531,-0.0612 -0.7339,-0.17258 -1.12298,-0.3369 -0.18158,-0.0767 -0.38596,-0.19668 -0.60525,-0.3499 -0.87711,-0.61287 -1.98782,-1.75827 -2.77792,-2.80038 -0.39506,-0.52105 -0.70973,-1.01685 -0.87594,-1.40668 -0.0831,-0.19494 -0.12884,-0.363 -0.12884,-0.4953 0,-0.0684 -0.0241,-0.15747 -0.0674,-0.26008 -0.0432,-0.10265 -0.10498,-0.21938 -0.18204,-0.34162 -0.15427,-0.24446 -0.36763,-0.51304 -0.6017,-0.74707 -0.13637,-0.13635 -0.25563,-0.27135 -0.35817,-0.40311 -0.10257,-0.13171 -0.18785,-0.26008 -0.25651,-0.38181 -0.41207,-0.73043 -0.21448,-1.23197 0.59932,-0.91966 0.11497,0.0442 0.23704,0.0674 0.35936,0.0709 0.24462,0.008 0.48947,-0.0637 0.67969,-0.19504 0.0476,-0.0329 0.0926,-0.0697 0.13241,-0.11001 0.0399,-0.0403 0.075,-0.0841 0.1052,-0.13113 0.0369,-0.0575 0.0856,-0.11659 0.14422,-0.17605 0.0587,-0.0595 0.1269,-0.11912 0.20451,-0.17974 0.62079,-0.48434 1.80178,-0.98664 2.82048,-1.25303 0.25468,-0.0666 0.49915,-0.11815 0.72225,-0.15127 0.33467,-0.05 0.62144,-0.0579 0.82157,-0.0116 0.0668,0.0155 0.12415,0.0378 0.17024,0.0662 0.17141,0.10595 0.21203,0.23471 0.13481,0.36291 -0.0194,0.0319 -0.0467,0.0641 -0.0802,0.0959 -0.10149,0.0949 -0.26668,0.18632 -0.49056,0.26478 -0.24279,0.0852 -0.42509,0.1534 -0.54731,0.22223 -0.0612,0.0345 -0.10713,0.0693 -0.13831,0.10633 -0.156,0.18517 0.0611,0.42983 0.64188,1.0107 0.19402,0.19401 0.36343,0.34371 0.51774,0.45037 0.15436,0.10652 0.29343,0.16986 0.42912,0.19271 0.20354,0.0343 0.39858,-0.0234 0.6194,-0.16792 0.0736,-0.0482 0.14971,-0.10536 0.23052,-0.17257 0.22463,-0.18632 0.39498,-0.4446 0.48821,-0.71045 0.0467,-0.13286 0.074,-0.26724 0.0792,-0.396 0.006,-0.1288 -0.0116,-0.25196 -0.0533,-0.36054 -0.1042,-0.27143 -0.0982,-0.45109 -0.004,-0.50119 0.0194,-0.01 0.0417,-0.0155 0.0674,-0.0136 0.0517,8.1e-4 0.11679,0.0244 0.19385,0.072 0.23138,0.14294 0.43099,0.1164 0.51659,-0.0438 0.0287,-0.0533 0.0449,-0.12164 0.0449,-0.20331 0,-0.1226 -0.14352,-0.25948 -0.38892,-0.39364 -0.40894,-0.22363 -1.10052,-0.43912 -1.88071,-0.56387 -0.31208,-0.05 -0.60944,-0.10769 -0.88066,-0.16909 -0.54245,-0.1226 -0.97905,-0.2605 -1.20929,-0.38182 -0.11509,-0.0606 -0.17863,-0.11699 -0.1785,-0.16541 8e-5,-0.0194 0.007,-0.0368 0.0201,-0.0544 0.0641,-0.0879 0.28229,-0.16192 0.60524,-0.22225 0.64591,-0.12067 1.70937,-0.18594 2.79093,-0.19272 z m -5.32889,0.67614 c 0.0501,-0.004 0.10475,-0.002 0.16196,0.004 0.10176,0.0116 0.21396,0.0378 0.33099,0.0827 0.11698,0.0449 0.22926,0.0939 0.33099,0.14429 0.10174,0.0504 0.19357,0.10265 0.27069,0.15243 0.15427,0.0996 0.24943,0.19155 0.24943,0.25297 0,0.0306 -0.0241,0.0596 -0.0674,0.0864 -0.0432,0.0265 -0.10497,0.0505 -0.18204,0.0709 -0.0771,0.0201 -0.16897,0.037 -0.27069,0.0484 -0.10176,0.0116 -0.21397,0.0174 -0.33099,0.0174 -0.11699,0 -0.22926,-0.0155 -0.331,-0.0438 -0.20347,-0.0558 -0.3663,-0.16056 -0.45274,-0.29198 -0.0432,-0.0657 -0.0674,-0.13848 -0.0674,-0.21396 0,-0.0566 0.0128,-0.10575 0.0378,-0.14778 0.0561,-0.0943 0.17003,-0.15049 0.32035,-0.16192 z m -5.16102,4.46834 c 0.0273,1.7e-4 0.0554,0.008 0.0839,0.0213 0.19993,0.0965 0.42258,0.5206 0.52366,1.20928 0.0169,0.11466 0.0186,0.22413 0.007,0.32389 -0.0118,0.0997 -0.0363,0.19039 -0.0721,0.26599 -0.0358,0.0755 -0.0827,0.13616 -0.13831,0.17857 -0.0556,0.0424 -0.12037,0.0662 -0.19149,0.0662 -0.14224,0 -0.27168,-0.13771 -0.36526,-0.36054 -0.0935,-0.22283 -0.15133,-0.53077 -0.15133,-0.86886 0,-0.14332 0.008,-0.26699 0.0237,-0.37235 0.0458,-0.31604 0.15315,-0.46461 0.28017,-0.46337 z m 13.67448,0.55439 c 0.12628,0.0261 0.20687,0.13306 0.20687,0.30854 0,0.0781 -0.0155,0.1625 -0.0449,0.24824 -0.0864,0.257 -0.28843,0.52558 -0.5225,0.67024 -0.15611,0.0965 -0.29788,0.11989 -0.40073,0.0802 -0.10284,-0.0395 -0.16676,-0.14177 -0.16676,-0.29786 0,-0.0781 0.0155,-0.16269 0.0449,-0.24826 0.0575,-0.17102 0.16696,-0.34689 0.30261,-0.4882 0.0678,-0.0707 0.14178,-0.13267 0.21989,-0.1809 0.0781,-0.0482 0.15204,-0.0779 0.21985,-0.091 0.0507,-0.01 0.0986,-0.01 0.14061,-7.9e-4 z m -10.98639,1.44453 1.29321,2.16087 c 0.0889,0.14856 0.18772,0.30037 0.29434,0.45392 0.74635,1.07494 1.8761,2.2201 2.68927,2.69637 0.14973,0.0875 0.29155,0.18361 0.42555,0.28725 0.13399,0.10362 0.26016,0.21489 0.37828,0.33335 0.47243,0.47386 0.81708,1.06134 1.02961,1.71875 0.0531,0.16444 0.0982,0.33221 0.1348,0.50476 0.073,0.34514 0.11253,0.70555 0.11815,1.07571 0.002,0.18516 -0.002,0.37331 -0.0174,0.56269 -0.0283,0.37877 -0.0907,0.76441 -0.18788,1.15253 -0.0486,0.19409 -0.10652,0.38833 -0.17257,0.58279 -0.13221,0.38893 -0.29945,0.77816 -0.50239,1.16081 -0.10151,0.19136 -0.21162,0.38078 -0.33099,0.5686 -0.65081,1.024 -1.31702,1.88476 -1.60055,2.08402 -0.0404,0.0285 -0.0732,0.0438 -0.0969,0.0438 -0.0237,0 -0.042,-0.006 -0.0556,-0.0155 -0.0677,-0.0533 -0.0106,-0.2324 0.14303,-0.47049 0.0615,-0.0953 0.13841,-0.20014 0.22933,-0.30972 0.19901,-0.23976 0.2662,-0.48425 0.15721,-0.80498 -0.0363,-0.10692 -0.092,-0.22206 -0.16903,-0.34875 -0.15417,-0.25332 -0.39372,-0.55147 -0.73054,-0.9161 -0.33681,-0.36462 -0.77123,-0.79553 -1.31686,-1.3145 -0.37394,-0.35568 -0.77436,-0.71314 -1.17855,-1.05561 -0.40418,-0.34247 -0.81216,-0.66958 -1.19983,-0.96342 -0.5815,-0.44072 -1.11795,-0.8074 -1.53081,-1.03905 -0.13762,-0.0773 -0.26163,-0.13925 -0.36881,-0.18438 l -1.55919,-0.65724 1.72468,-1.96348 c 0.11853,-0.135 0.23695,-0.27896 0.35346,-0.4291 0.1165,-0.15011 0.23118,-0.30668 0.3428,-0.46693 0.22322,-0.32051 0.43379,-0.65603 0.6206,-0.98705 0.28022,-0.49652 0.50691,-0.98232 0.64187,-1.39014 0.045,-0.13596 0.0796,-0.26335 0.10283,-0.37946 l 0.33809,-1.68922 z m -5.52157,7.71792 c 0.34832,-0.002 0.71805,0.18109 0.805,0.47754 0.0124,0.0424 0.0188,0.0868 0.0188,0.13364 0,0.0345 -0.0248,0.0668 -0.0697,0.0968 -0.13465,0.0899 -0.44957,0.15359 -0.81446,0.15359 -0.36492,0 -0.58995,-0.14662 -0.59696,-0.35345 -8e-4,-0.0345 0.005,-0.0701 0.0153,-0.10749 0.0118,-0.0376 0.0287,-0.0763 0.0532,-0.11583 0.12146,-0.19652 0.34983,-0.28393 0.58869,-0.28486 z m 14.66271,0.0649 c 0.0368,0.006 0.0668,0.0244 0.0827,0.0591 0.92152,2.0088 0.62656,4.66961 -0.89013,6.0133 -0.10691,0.0949 -0.52513,0.1166 -0.42792,0.0116 1.11178,-1.19846 1.96532,-3.44266 0.87004,-5.93176 0.0784,-0.0833 0.25477,-0.17179 0.36527,-0.15242 z m -12.35409,0.422 c 0.0679,0.0116 0.14304,0.0403 0.22106,0.0887 0.078,0.0482 0.15206,0.10149 0.21987,0.15611 0.20347,0.16366 0.34753,0.34125 0.34753,0.44446 0,0.0345 -0.0161,0.0668 -0.0448,0.0968 -0.0576,0.0598 -0.16698,0.10808 -0.30262,0.13364 -0.0679,0.0136 -0.14185,0.0202 -0.21986,0.0202 -0.0781,0 -0.15204,-0.0174 -0.21988,-0.0473 -0.13563,-0.061 -0.24498,-0.17683 -0.30261,-0.32037 -0.0288,-0.0717 -0.0449,-0.1503 -0.0449,-0.23287 0,-0.062 0.009,-0.11582 0.0261,-0.16191 0.0165,-0.0461 0.0403,-0.0845 0.0709,-0.1135 0.0612,-0.0581 0.14768,-0.081 0.24941,-0.0639 z m -3.52145,1.1349 c 3.2816,0.25378 7.51935,3.75641 8.34205,5.01564 0.22625,0.34625 0.57752,2.06646 -0.0285,1.22936 -1.4939,-2.06398 -6.22133,-5.63698 -8.34322,-5.99085 -0.18555,-0.031 -0.15797,-0.2687 0.0295,-0.25415 z m 17.56004,1.43387 c 0.10691,0.0116 0.31555,0.17974 0.32862,0.29434 0.21654,1.90026 -1.04155,4.65752 -2.772,5.28162 -0.28921,0.1042 -1.1877,0.2577 -0.91496,0.11583 1.86394,-0.9695 3.17264,-3.3094 3.29568,-5.64453 0.002,-0.0383 0.0271,-0.0513 0.0626,-0.0473 z m -10.79372,0.0757 c 0.0261,0 0.0943,0.0484 0.19386,0.1348 0.29892,0.25932 0.88626,0.8653 1.51191,1.56745 0.20997,0.23566 0.384,0.4495 0.52366,0.63952 0.34914,0.47507 0.48487,0.80247 0.44446,0.95513 -0.0566,0.21375 -0.45896,0.0846 -1.11115,-0.45866 -0.18637,-0.15514 -0.39356,-0.34386 -0.61824,-0.56857 -0.24608,-0.24608 -0.4635,-0.51063 -0.64307,-0.76954 -0.0897,-0.12938 -0.17067,-0.25725 -0.23996,-0.38065 -0.0692,-0.12337 -0.12754,-0.24233 -0.17378,-0.35343 -0.0461,-0.11098 -0.0799,-0.21473 -0.10044,-0.30735 -0.0206,-0.0926 -0.0277,-0.17432 -0.0201,-0.24234 0.008,-0.068 0.0301,-0.1226 0.0686,-0.15959 0.0384,-0.037 0.0925,-0.0566 0.16432,-0.0566 z m 6.27693,2.4954 c 0.0401,-0.004 0.0775,-0.002 0.11117,0.0116 0.0337,0.0116 0.0637,0.0341 0.0899,0.0662 0.20879,0.25716 0.63479,0.68566 0.94688,0.95279 0.0848,0.0726 0.13983,0.13189 0.1654,0.17741 0.0136,0.0229 0.0174,0.0422 0.0174,0.0579 -7.9e-4,0.0155 -0.0116,0.0283 -0.026,0.0366 -0.0312,0.0174 -0.0891,0.0194 -0.1749,0.006 -0.0856,-0.0136 -0.19879,-0.0413 -0.33689,-0.085 -0.0635,-0.0203 -0.13035,-0.0349 -0.19978,-0.0451 -0.0695,-0.01 -0.14081,-0.0155 -0.21396,-0.0155 -0.36575,-0.004 -0.76452,0.10865 -1.05561,0.30497 -0.0582,0.0393 -0.11222,0.0819 -0.16077,0.12764 -0.28114,0.26478 -0.42312,0.36422 -0.42673,0.26478 -0.003,-0.0996 0.13116,-0.3978 0.40309,-0.92559 0.14084,-0.27334 0.29661,-0.49757 0.44683,-0.65842 0.15022,-0.16076 0.29483,-0.25832 0.41492,-0.27544 z"
       id="path3895"
       inkscape:connector-curvature="0"
       inkscape:export-filename="/home/felix/Temporary/hydra.png"
       inkscape:export-xdpi="179.99899"
       inkscape:export-ydpi="179.99899" />
  </g>
</svg>
