<?xml version="1.0" encoding="UTF-8" standalone="no"?>
<!-- Created with Inkscape (http://www.inkscape.org/) -->

<svg
   xmlns:dc="http://purl.org/dc/elements/1.1/"
   xmlns:cc="http://creativecommons.org/ns#"
   xmlns:rdf="http://www.w3.org/1999/02/22-rdf-syntax-ns#"
   xmlns:svg="http://www.w3.org/2000/svg"
   xmlns="http://www.w3.org/2000/svg"
   xmlns:sodipodi="http://sodipodi.sourceforge.net/DTD/sodipodi-0.dtd"
   xmlns:inkscape="http://www.inkscape.org/namespaces/inkscape"
   width="8.1578569mm"
   height="8.6083689mm"
   viewBox="0 0 28.905792 30.502094"
   id="svg6901"
   version="1.1"
   inkscape:version="0.91 r13725"
   sodipodi:docname="schamper.svg">
  <defs
     id="defs6903" />
  <sodipodi:namedview
     id="base"
     pagecolor="#ffffff"
     bordercolor="#666666"
     borderopacity="1.0"
     inkscape:pageopacity="0.0"
     inkscape:pageshadow="2"
     inkscape:zoom="0.35"
     inkscape:cx="-287.68996"
     inkscape:cy="-236.17753"
     inkscape:document-units="px"
     inkscape:current-layer="layer1"
     showgrid="false"
     inkscape:window-width="1362"
     inkscape:window-height="746"
     inkscape:window-x="0"
     inkscape:window-y="918"
     inkscape:window-maximized="0" />
  <metadata
     id="metadata6906">
    <rdf:RDF>
      <cc:Work
         rdf:about="">
        <dc:format>image/svg+xml</dc:format>
        <dc:type
           rdf:resource="http://purl.org/dc/dcmitype/StillImage" />
        <dc:title />
      </cc:Work>
    </rdf:RDF>
  </metadata>
  <g
     inkscape:label="Layer 1"
     inkscape:groupmode="layer"
     id="layer1"
     transform="translate(-662.68996,-265.68259)">
    <path
       style="fill:#000000;fill-opacity:1;stroke:none"
       d="m 664.33472,295.57364 c -2.9066,-2.23159 -1.9168,-4.97286 2.6203,-7.25729 3.834,-1.93039 5.0954,-2.97434 9.6707,-8.00389 2.9863,-3.28282 4.065,-4.92537 5.6206,-8.55875 2.3094,-5.3941 3.8973,-6.92607 5.8518,-5.64548 1.0463,0.68558 1.205,1.15456 1.205,3.55953 0,1.65541 0.5138,4.35488 1.2769,6.70901 1.2629,3.89602 1.2679,3.9697 0.456,6.74271 -0.9125,3.11663 -4.1678,8.33339 -5.9141,9.47762 -1.4007,0.91773 -3.6088,0.70683 -4.3089,-0.41153 -0.7079,-1.13064 0.8546,-3.25691 3.2786,-4.46185 2.7139,-1.34896 3.4616,-3.17145 3.4829,-8.48943 0.014,-3.60252 -0.148,-4.66905 -0.8127,-5.33423 -1.0776,-1.07845 -1.5513,-0.69027 -5.4325,4.45162 -1.627,2.15555 -4.2421,5.42169 -5.8113,7.25813 -1.5692,1.83644 -3.2724,4.16079 -3.7848,5.16519 -1.1163,2.18816 -4.575,5.4313 -5.7691,5.40957 -0.4697,-0.008 -1.2029,-0.28347 -1.6294,-0.61093 z"
       id="path3899"
       inkscape:connector-curvature="0"
       inkscape:export-filename="/home/felix/Temporary/hydra.png"
       inkscape:export-xdpi="179.99899"
       inkscape:export-ydpi="179.99899" />
  </g>
</svg>
