<?xml version="1.0" encoding="UTF-8" standalone="no"?>
<!-- Created with Inkscape (http://www.inkscape.org/) -->

<svg
   xmlns:dc="http://purl.org/dc/elements/1.1/"
   xmlns:cc="http://creativecommons.org/ns#"
   xmlns:rdf="http://www.w3.org/1999/02/22-rdf-syntax-ns#"
   xmlns:svg="http://www.w3.org/2000/svg"
   xmlns="http://www.w3.org/2000/svg"
   xmlns:sodipodi="http://sodipodi.sourceforge.net/DTD/sodipodi-0.dtd"
   xmlns:inkscape="http://www.inkscape.org/namespaces/inkscape"
   width="6.3870449mm"
   height="6.3934979mm"
   viewBox="0 0 22.631261 22.654126"
   id="svg9121"
   version="1.1"
   inkscape:version="0.91 r13725"
   sodipodi:docname="settings.svg">
  <defs
     id="defs9123" />
  <sodipodi:namedview
     id="base"
     pagecolor="#ffffff"
     bordercolor="#666666"
     borderopacity="1.0"
     inkscape:pageopacity="0.0"
     inkscape:pageshadow="2"
     inkscape:zoom="15.839192"
     inkscape:cx="20.819423"
     inkscape:cy="13.631083"
     inkscape:document-units="px"
     inkscape:current-layer="layer1"
     showgrid="false"
     inkscape:window-width="1362"
     inkscape:window-height="746"
     inkscape:window-x="0"
     inkscape:window-y="918"
     inkscape:window-maximized="0" />
  <metadata
     id="metadata9126">
    <rdf:RDF>
      <cc:Work
         rdf:about="">
        <dc:format>image/svg+xml</dc:format>
        <dc:type
           rdf:resource="http://purl.org/dc/dcmitype/StillImage" />
        <dc:title />
      </cc:Work>
    </rdf:RDF>
  </metadata>
  <g
     inkscape:label="Layer 1"
     inkscape:groupmode="layer"
     id="layer1"
     transform="translate(-139.24105,-220.04102)">
    <path
       style="opacity:1;fill:#000000;fill-opacity:1;fill-rule:nonzero;stroke:none;stroke-width:3;stroke-linecap:round;stroke-linejoin:round;stroke-miterlimit:4;stroke-dasharray:none;stroke-dashoffset:0;stroke-opacity:1"
       d="m 150.45508,220.04102 c -0.50815,0.0137 -0.9084,0.13936 -1.04102,0.33398 -0.13538,0.30712 -0.18808,0.71692 -0.24414,1.24609 -0.0586,0.55328 -0.13943,1.23643 -0.57422,1.875 a 0.77481781,0.77481781 0 0 1 -0.0117,0.0156 c -0.86485,1.2036 -2.60252,1.23158 -3.5996,0.22851 l 0.084,0.0742 c -0.58776,-0.43945 -1.06795,-0.8002 -1.56445,-1.06054 -0.71501,0.35177 -1.30926,0.8984 -1.53907,1.57617 0.0535,0.28664 0.36084,0.61403 0.80078,1.24219 l -0.0391,-0.0488 c 0.47027,0.56679 1.09797,1.43976 0.84766,2.52929 a 0.77481781,0.77481781 0 0 1 -0.002,0.006 c -0.28888,1.21683 -1.43802,1.92676 -2.58985,1.89258 l 0.11328,-0.004 c -0.74809,0.0873 -1.29528,0.14828 -1.6289,0.39062 -0.19291,0.26097 -0.23331,0.75425 -0.22461,1.42773 0.003,0.19263 0.0569,0.41875 0.13672,0.56641 0.08,0.14815 0.15214,0.20631 0.24609,0.23438 a 0.77481781,0.77481781 0 0 1 0.0234,0.008 c 0.33229,0.1118 0.78712,0.14562 1.31836,0.21094 0.53123,0.0653 1.16216,0.17443 1.74804,0.58007 a 0.77481781,0.77481781 0 0 1 0.0254,0.0195 c 1.15734,0.87585 1.17962,2.57337 0.1875,3.55468 l 0.082,-0.0957 c -0.44545,0.61514 -0.81785,1.09489 -1.07618,1.58984 0.35139,0.7139 0.90131,1.3063 1.58008,1.53711 0.27954,-0.051 0.59885,-0.33626 1.19531,-0.76758 l -0.0527,0.041 c 0.61298,-0.53009 1.54392,-1.13765 2.65625,-0.86523 a 0.77481781,0.77481781 0 0 1 0.0234,0.006 c 1.19744,0.33248 1.81146,1.49002 1.80273,2.57617 l -0.006,-0.0957 c 0.0861,0.73959 0.15338,1.2932 0.38477,1.59766 0.28454,0.21601 0.82337,0.25034 1.52148,0.22461 0.35549,-0.0243 0.65941,-0.21121 0.71094,-0.40234 a 0.77481781,0.77481781 0 0 1 0.0176,-0.0586 c 0.10833,-0.30318 0.1407,-0.72907 0.19726,-1.23828 0.0564,-0.50798 0.14976,-1.12135 0.53711,-1.69726 0.80898,-1.21709 2.50722,-1.29485 3.5293,-0.36914 l -0.0742,-0.0586 c 0.70897,0.49872 1.20495,0.9481 1.70508,1.15625 0.079,-0.0405 0.20615,-0.1165 0.47656,-0.26758 0.50812,-0.35856 0.863,-0.85009 1.00781,-1.34765 -0.0617,-0.28537 -0.3655,-0.61219 -0.79882,-1.23633 l 0.0371,0.0508 c -0.46085,-0.56168 -1.08776,-1.42888 -0.8418,-2.51563 0.27476,-1.20674 1.40478,-1.90342 2.52734,-1.89453 l -0.10742,0.008 c 0.78097,-0.10228 1.35541,-0.15773 1.68945,-0.40821 0.20991,-0.28199 0.23075,-0.79593 0.2168,-1.49414 -0.0157,-0.18713 -0.0751,-0.39397 -0.1582,-0.52734 -0.0856,-0.13741 -0.15985,-0.19146 -0.26172,-0.2168 a 0.77481781,0.77481781 0 0 1 -0.0469,-0.0137 c -0.31063,-0.099 -0.74126,-0.12712 -1.24804,-0.18555 -0.50572,-0.0583 -1.10857,-0.16057 -1.67578,-0.53711 -1.17224,-0.77169 -1.29322,-2.37357 -0.47266,-3.40429 l -0.0371,0.0488 c 0.54129,-0.80285 1.05484,-1.27966 1.18945,-1.76953 -0.0312,-0.2715 -0.30893,-0.61813 -0.74804,-1.08593 -0.3412,-0.31526 -0.689,-0.48629 -0.88282,-0.44922 -0.37366,0.12547 -0.77923,0.59188 -1.48242,1.05468 -4.3e-4,3.2e-4 -0.002,-3.1e-4 -0.002,0 -0.60824,0.44439 -1.53624,0.85843 -2.49414,0.45313 -0.98556,-0.39021 -1.52562,-1.35278 -1.54883,-2.31836 l 0.008,0.084 c -0.11224,-0.82767 -0.15487,-1.44135 -0.42773,-1.78711 -0.16925,-0.14019 -0.56087,-0.19371 -1.125,-0.21875 z m 0.16797,6.21093 c 2.57939,0.003 4.85864,2.09489 5.04687,4.67774 0.21641,2.39573 -1.36139,4.75068 -3.71289,5.3789 -1.95898,0.55194 -4.1715,-0.11691 -5.42383,-1.76953 -1.16936,-1.49255 -1.47473,-3.60332 -0.60937,-5.34765 0.84756,-1.77244 2.69448,-2.98783 4.69922,-2.93946 z"
       id="path4255"
       inkscape:connector-curvature="0" />
  </g>
</svg>
