<?xml version="1.0" encoding="utf-8"?>
<!-- Generator: Adobe Illustrator 16.0.0, SVG Export Plug-In . SVG Version: 6.00 Build 0)  -->
<!DOCTYPE svg PUBLIC "-//W3C//DTD SVG 1.1//EN" "http://www.w3.org/Graphics/SVG/1.1/DTD/svg11.dtd">
<svg version="1.1" id="Layer_1" xmlns="http://www.w3.org/2000/svg" xmlns:xlink="http://www.w3.org/1999/xlink" x="0px" y="0px"
	 width="520.035px" height="263.625px" viewBox="0 0 520.035 263.625" enable-background="new 0 0 520.035 263.625"
	 xml:space="preserve">
<g>
	<path fill="#0071B9" d="M304.952,145.105c0,4.237-0.854,7.977-2.558,11.221c-1.705,3.244-3.998,5.919-6.881,8.018
		c-3.41,2.521-7.062,4.305-10.959,5.354c-3.896,1.05-8.929,1.575-15.097,1.575h-25.996v-85.2h24.041
		c6.45,0,11.289,0.199,14.517,0.601c3.226,0.4,6.318,1.343,9.28,2.83c3.246,1.637,5.62,3.781,7.12,6.43
		c1.501,2.649,2.253,5.765,2.253,9.347c0,4.004-1.127,7.584-3.379,10.748c-2.254,3.163-5.369,5.642-9.345,7.432v0.458
		c5.402,1.373,9.586,3.884,12.552,7.529C303.471,135.095,304.952,139.645,304.952,145.105 M288.129,106.874
		c0-2.061-0.365-3.843-1.095-5.349c-0.729-1.508-1.909-2.699-3.532-3.578c-1.947-1.029-4.119-1.66-6.514-1.886
		c-2.395-0.231-5.702-0.344-9.924-0.344H255.5v24.943h13.697c3.773,0,6.555-0.181,8.34-0.543c1.786-0.363,3.632-1.115,5.539-2.259
		c1.826-1.106,3.125-2.557,3.896-4.349C287.743,111.717,288.129,109.505,288.129,106.874 M292.408,145.572
		c0-3.213-0.487-5.859-1.463-7.944c-0.975-2.082-2.942-3.853-5.906-5.305c-1.91-0.954-3.991-1.565-6.244-1.833
		c-2.254-0.268-5.449-0.403-9.592-0.403H255.5v31.542h9.807c5.276,0,9.438-0.229,12.483-0.688c3.045-0.459,5.726-1.434,8.039-2.924
		c2.274-1.492,3.938-3.185,4.995-5.076C291.88,151.049,292.408,148.591,292.408,145.572"/>
	<polygon fill="#0071B9" points="316.948,171.271 316.948,86.073 373.725,86.073 373.725,96.152 328.985,96.152 328.985,119.5 
		370.68,119.5 370.68,129.58 328.985,129.58 328.985,161.193 373.725,161.193 373.725,171.271 	"/>
	<path fill="#0071B9" d="M412.16,172.795c-6.57,0-12.157-0.639-16.762-1.914c-4.605-1.275-8.935-2.849-12.99-4.717v-14.18h0.853
		c3.974,3.504,8.475,6.216,13.504,8.141c5.027,1.921,9.875,2.882,14.539,2.882c6.648,0,11.68-1.305,15.084-3.916
		c3.406-2.61,5.11-6.05,5.11-10.317c0-3.396-0.893-6.157-2.676-8.291c-1.783-2.135-4.623-3.717-8.515-4.746
		c-2.8-0.762-5.355-1.389-7.669-1.887c-2.312-0.494-5.213-1.162-8.703-2c-3.124-0.765-5.925-1.735-8.398-2.917
		c-2.477-1.183-4.666-2.726-6.572-4.632c-1.866-1.87-3.316-4.07-4.352-6.608c-1.035-2.533-1.553-5.46-1.553-8.778
		c0-6.902,2.858-12.687,8.578-17.357c5.718-4.67,13.018-7.006,21.898-7.006c5.072,0,9.866,0.477,14.389,1.431
		c4.523,0.955,8.711,2.31,12.563,4.065v13.574h-0.912c-2.88-2.484-6.571-4.65-11.071-6.503c-4.499-1.852-9.222-2.779-14.169-2.779
		c-5.595,0-10.116,1.228-13.562,3.689c-3.446,2.457-5.17,5.688-5.17,9.69c0,3.62,1.013,6.498,3.04,8.633
		c2.026,2.134,4.968,3.698,8.819,4.686c2.556,0.648,5.679,1.382,9.371,2.202c3.694,0.821,6.758,1.573,9.191,2.259
		c6.247,1.793,10.812,4.501,13.691,8.121c2.88,3.624,4.321,8.083,4.321,13.383c0,3.316-0.72,6.598-2.161,9.837
		c-1.438,3.239-3.458,5.986-6.053,8.234c-2.921,2.479-6.215,4.387-9.886,5.719C422.271,172.13,417.676,172.795,412.16,172.795"/>
	<polygon fill="#0071B9" points="477.547,171.271 477.547,96.152 447.093,96.152 447.093,86.073 520.035,86.073 520.035,96.152 
		489.583,96.152 489.583,171.271 	"/>
	<g enable-background="new    ">
		<path fill="#0071B9" d="M431.41,205.064c-1.621,0-3.104-0.246-4.447-0.738c-1.344-0.493-2.498-1.241-3.463-2.247
			c-0.964-1.016-1.702-2.271-2.215-3.77c-0.514-1.498-0.77-3.221-0.77-5.17c0-1.847,0.259-3.501,0.777-4.963
			c0.518-1.462,1.259-2.71,2.223-3.746c0.934-1.006,2.082-1.78,3.447-2.324c1.364-0.543,2.856-0.815,4.478-0.815
			c0.77,0,1.508,0.057,2.216,0.17c0.707,0.112,1.385,0.267,2.031,0.461c0.513,0.154,1.084,0.367,1.715,0.639
			c0.631,0.272,1.142,0.506,1.531,0.7v3.678h-0.262c-0.379-0.339-0.771-0.659-1.177-0.962s-0.978-0.628-1.716-0.977
			c-0.615-0.309-1.322-0.564-2.123-0.77s-1.662-0.308-2.585-0.308c-2.206,0-3.988,0.83-5.347,2.492
			c-1.359,1.662-2.039,3.873-2.039,6.632c0,1.539,0.18,2.883,0.538,4.031c0.359,1.149,0.878,2.124,1.554,2.924
			c0.656,0.79,1.449,1.393,2.378,1.808c0.929,0.416,1.972,0.624,3.132,0.624c0.861,0,1.717-0.062,2.569-0.185
			c0.851-0.124,1.569-0.309,2.153-0.555v-5.924h-5.293v-2.678h8.31v10.002c-0.39,0.175-0.911,0.396-1.562,0.662
			c-0.652,0.267-1.26,0.477-1.824,0.631c-0.748,0.226-1.426,0.395-2.031,0.508C433.004,205.008,432.271,205.064,431.41,205.064z"/>
		<path fill="#0071B9" d="M459.491,204.618h-3.047v-11.217h-10.54v11.217h-3.047v-22.911h3.047v8.985h10.54v-8.985h3.047V204.618z"
			/>
		<path fill="#0071B9" d="M464.138,204.618v-22.911h14.325v2.708h-11.278v6.277h10.509v2.709h-10.509v8.509h11.278v2.708H464.138z"
			/>
		<path fill="#0071B9" d="M498.205,204.618h-3.416l-10.125-19.757v19.757h-2.846v-22.911h4.324l9.217,18.142v-18.142h2.846V204.618z
			"/>
		<path fill="#0071B9" d="M508.207,204.618v-20.203h-7.693v-2.708h18.434v2.708h-7.693v20.203H508.207z"/>
	</g>
	<path fill="#0071B9" d="M198.232,171.385l-19.968-11.507h-52.139l-19.963,11.507c19.102,33.189,76.217,87.536,138.101,92.24
		C222.699,251.548,188.38,208.146,198.232,171.385"/>
	<path fill="#FFA615" d="M155.483,109.028L155.483,109.028l-0.39-0.677L155.483,109.028z M212.326,0
		c0.322,24.722-20.094,76.127-56.856,85.983l0.013,23.045l26.068,45.158l19.949,11.537C220.693,132.581,239.205,55.948,212.326,0"/>
	<path fill="#75BF1E" d="M122.84,154.186L122.84,154.186l-0.39,0.68L122.84,154.186z M148.925,85.983
		C110.635,85.929,35.005,108.221,0,159.473c21.246-12.639,75.982-20.67,102.895,6.254l19.945-11.541l26.071-45.151L148.925,85.983z"
		/>
	<path fill="#0071B9" d="M139.975,141.025c0-6.745,5.47-12.215,12.222-12.215c6.748,0,12.218,5.47,12.218,12.215
		c0,6.767-5.47,12.221-12.218,12.221C145.445,153.246,139.975,147.792,139.975,141.025"/>
</g>
</svg>
