<svg xmlns="http://www.w3.org/2000/svg" xmlns:xlink="http://www.w3.org/1999/xlink" width="100" height="57" viewBox="0 0 100 57"><defs><path id="vijja" d="M259.5 53.7l1.74-9.09 4.22-6.72 1.8-10.42 4.03 10.42-4.93 6.72zm1.39.1l5.47-5.88 4.53-4.01 1.1-4.92 2.01 5.62-2.61 4.21zm-2.48-3.38l-5.03-4.8 1.55-7.05 2.3 4.43 3.19-6.91-2.11-6.02 5.82 5.62-4.21 7.62zm6-17.1l-2.9-3.9.3-5.42 2.5 3.5zm-87.08-3.47l12.47-.83v22.95L174 53.03v-10.1l5.4-.4v5.22l5.03-.3V33.78l-7.1.46zm16.64-.07l15.8-1.1v23.29l-15.8 1.1zm10.4 3.46l-5 .3v14.97l5.03-.3zm25.4-4.55V52.3l-5.4.37v-18.7l-5 .34v18.03l-5.4.36V29.78zm12.1 10.64l7.9-.56v13.2l-15.8 1.06V29.78l15.8-1.1v7.6l-5.4.36v-3.66l-5 .3v15.5l5-.37v-5.35l-2.5.16zM181.9 67.26l7.9-.56v13.2L174 80.97V57.72l15.8-1.1v7.58l-5.4.37V60.9l-5 .3v15.5l5-.37V71l-2.5.17zm17.43 13l-5.36.37V57.72c3.76-.3 7.56-.47 11.33-.77l4.47-.33v10.9l-3.37.24v1.93l3.37-.23v10.7l-5.44.37v-9.3l-.9.06v-.4c-1.36.07-2.73.17-4.1.27zm0-13.03l4.1-.27v-.36l.9-.07v-5.62l-5 .33zm14.64-9.51l15.8-1.1V79.9l-15.8 1.1zm10.4 3.46l-5 .3v14.96l5.03-.3zm9.6-3.5l14.06-1v4.43l-8.7.63v5.5l7.1-.5v3.92l-7.1.56v4.82l8.8-.6v4.53l-14.16.93zm34.1-1.06v23.62l-5.4.36V61.9l-5 .34v18.03l-5.4.36V57.72z"/></defs><g><g transform="translate(-174 -24)"><use fill="#00af3f" xlink:href="#vijja"/></g></g></svg>