<?xml version="1.0" encoding="UTF-8" standalone="no"?>
<!-- Created with Inkscape (http://www.inkscape.org/) -->

<svg
   xmlns:dc="http://purl.org/dc/elements/1.1/"
   xmlns:cc="http://creativecommons.org/ns#"
   xmlns:rdf="http://www.w3.org/1999/02/22-rdf-syntax-ns#"
   xmlns:svg="http://www.w3.org/2000/svg"
   xmlns="http://www.w3.org/2000/svg"
   xmlns:sodipodi="http://sodipodi.sourceforge.net/DTD/sodipodi-0.dtd"
   xmlns:inkscape="http://www.inkscape.org/namespaces/inkscape"
   width="299.99997"
   height="320.00003"
   id="svg4600"
   version="1.1"
   inkscape:version="0.48.4 r9939"
   sodipodi:docname="shield.svg">
  <title
     id="title4816">Schild LILA</title>
  <defs
     id="defs4602" />
  <sodipodi:namedview
     id="base"
     pagecolor="#ffffff"
     bordercolor="#666666"
     borderopacity="1.0"
     inkscape:pageopacity="0.0"
     inkscape:pageshadow="2"
     inkscape:zoom="0.35"
     inkscape:cx="1399.2893"
     inkscape:cy="647.63807"
     inkscape:document-units="px"
     inkscape:current-layer="layer1"
     showgrid="false"
     fit-margin-top="0"
     fit-margin-left="0"
     fit-margin-right="0"
     fit-margin-bottom="0"
     inkscape:window-width="1920"
     inkscape:window-height="1017"
     inkscape:window-x="-8"
     inkscape:window-y="-8"
     inkscape:window-maximized="1" />
  <metadata
     id="metadata4605">
    <rdf:RDF>
      <cc:Work
         rdf:about="">
        <dc:format>image/svg+xml</dc:format>
        <dc:type
           rdf:resource="http://purl.org/dc/dcmitype/StillImage" />
        <dc:title>Schild LILA</dc:title>
      </cc:Work>
    </rdf:RDF>
  </metadata>
  <g
     inkscape:label="Layer 1"
     inkscape:groupmode="layer"
     id="layer1"
     transform="translate(1024.2893,-860.00023)">
    <g
       id="g3223"
       transform="matrix(1.0000053,0,0,0.99978375,9.7482484e-4,2.1778913)">
      <path
         id="path4127"
         style="fill:#313797;fill-opacity:1;fill-rule:nonzero;stroke:none"
         d="m -729.68965,1006.543 -144.44996,0 0,-142.98446 144.44996,0 0,142.98446 z"
         inkscape:connector-curvature="0" />
      <g
         transform="matrix(0.52563399,0,0,-0.52407322,-873.99075,1006.543)"
         id="g4137">
        <path
           id="path4139"
           style="fill:#fbbd0c;fill-opacity:1;fill-rule:nonzero;stroke:none"
           d="m 0,0 0,-316.238 c 16.318,14.498 69.713,48.158 139.648,48.158 105.44,0 134.602,26.096 134.602,111.503 L 274.25,0 0,0 z"
           inkscape:connector-curvature="0" />
      </g>
      <g
         transform="matrix(0.52563399,0,0,-0.52407322,-1018.7356,1006.543)"
         id="g4141">
        <path
           id="path4143"
           style="fill:#313797;fill-opacity:1;fill-rule:nonzero;stroke:none"
           d="m 0,0 0,-156.577 c 0,-85.407 29.162,-111.503 134.602,-111.503 70.663,0 124.502,-34.4 140.209,-48.639 L 274.811,0 0,0 z"
           inkscape:connector-curvature="0" />
      </g>
      <path
         id="path4145"
         style="fill:#fbbd0c;fill-opacity:1;fill-rule:nonzero;stroke:none"
         d="m -874.28574,1006.543 -144.44996,0 0,-142.98446 144.44996,0 0,142.98446 z"
         inkscape:connector-curvature="0" />
      <g
         transform="matrix(0.52563399,0,0,-0.52407322,-729.83566,863.55829)"
         id="g4147">
        <path
           id="path4149"
           style="fill:none;stroke:#231f20;stroke-width:21.14800072;stroke-linecap:butt;stroke-linejoin:miter;stroke-miterlimit:4;stroke-opacity:1;stroke-dasharray:none"
           d="m 0,0 0,-429.411 c 0,-85.407 -29.162,-111.503 -134.602,-111.503 -70.669,0 -124.508,-34.4 -140.209,-48.638 -15.707,14.238 -69.546,48.638 -140.21,48.638 -105.439,0 -134.601,26.096 -134.601,111.503 L -549.622,0 0,0 z m -274.811,-589.552 0,589.552 m -274.811,-272.833 549.622,0 m -274.811,-316.719 0,316.719"
           inkscape:connector-curvature="0" />
      </g>
      <g
         transform="matrix(0.52563399,0,0,-0.52407322,-773.86313,1061.0671)"
         id="g4165">
        <path
           id="path4167"
           style="fill:#231f20;fill-opacity:1;fill-rule:nonzero;stroke:none"
           d="m 0,0 c -2.388,0 -4.436,1.771 -4.757,4.164 -0.16,1.172 -4.188,28.706 -29.439,28.706 -5.17,0 -10.988,-1.123 -17.293,-3.35 -2.288,-0.815 -4.836,0.234 -5.916,2.418 -1.068,2.191 -0.333,4.837 1.715,6.158 0.629,0.406 15.632,9.963 30.266,9.963 5.207,0 9.821,-1.198 13.721,-3.566 C 5.447,34.066 4.843,5.861 4.812,4.664 4.738,2.159 2.758,0.142 0.259,0.006 0.173,0 0.087,0 0,0"
           inkscape:connector-curvature="0" />
      </g>
      <g
         transform="matrix(0.52563399,0,0,-0.52407322,-783.68845,1064.8017)"
         id="g4169">
        <path
           id="path4171"
           style="fill:#231f20;fill-opacity:1;fill-rule:nonzero;stroke:none"
           d="m 0,0 c -2.11,0 -4.004,1.389 -4.609,3.455 -0.253,0.852 -6.102,19.328 -29.323,19.328 -2.412,0 -4.966,-0.203 -7.6,-0.592 -2.412,-0.345 -4.757,1.166 -5.367,3.56 -0.611,2.388 0.684,4.85 2.998,5.7 0.413,0.154 10.185,3.702 20.778,3.702 9.131,0 16.226,-2.591 21.087,-7.687 C 2.985,22.185 5.286,14.485 4.806,4.571 4.694,2.222 2.893,0.303 0.561,0.031 0.376,0.013 0.185,0 0,0"
           inkscape:connector-curvature="0" />
      </g>
      <g
         transform="matrix(0.52563399,0,0,-0.52407322,-797.83691,1070.4011)"
         id="g4173">
        <path
           id="path4175"
           style="fill:#231f20;fill-opacity:1;fill-rule:nonzero;stroke:none"
           d="m 0,0 c -1.765,0 -3.437,0.975 -4.275,2.609 -0.309,0.592 -7.318,13.604 -24.141,13.604 -2.332,0 -4.331,1.678 -4.731,3.973 -0.408,2.3 0.9,4.552 3.09,5.348 0.21,0.08 5.244,1.882 11.364,1.882 12.696,0 21.13,-7.576 23.289,-20.84 C 4.812,6.027 4.936,5.429 4.936,4.806 4.936,2.152 2.782,0 0.123,0 L 0,0 z"
           inkscape:connector-curvature="0" />
      </g>
      <g
         transform="matrix(0.52563399,0,0,-0.52407322,-820.63374,1066.8769)"
         id="g4177">
        <path
           id="path4179"
           style="fill:#231f20;fill-opacity:1;fill-rule:nonzero;stroke:none"
           d="m 0,0 c -1.389,0 -2.752,0.604 -3.689,1.727 -0.389,0.457 -9.575,11.142 -26.127,11.142 -5.67,0 -11.623,-1.277 -17.694,-3.801 -2.276,-0.963 -4.923,-0.005 -6.089,2.178 -1.16,2.191 -0.475,4.899 1.592,6.268 0.623,0.408 15.33,10.019 30.05,10.019 8.971,0 20.711,-3.554 26.227,-20.291 C 4.688,6.527 4.936,5.693 4.936,4.806 4.936,2.152 2.782,0 0.123,0 L 0,0 z"
           inkscape:connector-curvature="0" />
      </g>
      <g
         transform="matrix(0.52563399,0,0,-0.52407322,-810.21448,1055.2701)"
         id="g4181">
        <path
           id="path4183"
           style="fill:#231f20;fill-opacity:1;fill-rule:nonzero;stroke:none"
           d="m 0,0 c -1.586,0 -3.122,0.777 -4.035,2.184 -0.493,0.753 -12.283,18.366 -34.277,18.366 -6.268,0 -12.876,-1.462 -19.63,-4.344 -2.234,-0.962 -4.856,-0.08 -6.071,2.049 -1.203,2.122 -0.623,4.818 1.357,6.256 0.605,0.437 14.973,10.746 31.315,10.746 11.106,0 26.183,-4.842 35.431,-27.742 C 4.62,6.743 4.929,5.812 4.929,4.806 4.929,2.141 2.684,-0.303 0.08,0 L 0,0 z"
           inkscape:connector-curvature="0" />
      </g>
      <g
         transform="matrix(0.52563399,0,0,-0.52407322,-801.76742,1045.739)"
         id="g4185">
        <path
           id="path4187"
           style="fill:#231f20;fill-opacity:1;fill-rule:nonzero;stroke:none"
           d="m 0,0 c -1.783,0 -3.479,0.994 -4.306,2.678 -0.531,1.054 -12.684,24.782 -39.44,24.782 -5.873,0 -12.123,-1.16 -18.576,-3.455 -2.32,-0.833 -4.899,0.247 -5.953,2.474 -1.055,2.227 -0.253,4.898 1.863,6.169 0.623,0.376 15.467,9.217 31.92,9.217 13.628,0 31.358,-6.083 38.89,-34.85 C 4.738,6.354 4.936,5.602 4.936,4.807 4.936,2.153 2.782,0 0.124,0 0.093,-0.006 0.037,0 0,0"
           inkscape:connector-curvature="0" />
      </g>
      <g
         transform="matrix(0.52563399,0,0,-0.52407322,-846.18345,1094.6437)"
         id="g4189">
        <path
           id="path4191"
           style="fill:#231f20;fill-opacity:1;fill-rule:nonzero;stroke:none"
           d="m 0,0 c -0.383,0 -0.766,0.043 -1.142,0.136 -1.499,0.37 -2.733,1.437 -3.313,2.869 l -3.362,8.304 c -0.858,2.109 -0.111,4.528 1.783,5.798 38.577,25.789 86.346,83.496 86.827,84.076 1.406,1.703 3.8,2.22 5.773,1.277 1.994,-0.95 3.085,-3.134 2.641,-5.294 C 83.803,70.607 11.363,8.181 3.121,1.147 2.239,0.401 1.129,0 0,0"
           inkscape:connector-curvature="0" />
      </g>
      <g
         transform="matrix(0.52563399,0,0,-0.52407322,-777.78694,1105.0023)"
         id="g4193">
        <path
           id="path4195"
           style="fill:#231f20;fill-opacity:1;fill-rule:nonzero;stroke:none"
           d="m 0,0 c -1.789,0 -3.498,0.992 -4.331,2.708 -5.324,10.981 -24.874,17.841 -31.957,19.563 -2.578,0.623 -4.164,3.226 -3.535,5.805 0.624,2.578 3.22,4.176 5.805,3.535 C -32.802,31.314 -4.054,24.164 4.318,6.902 5.479,4.516 4.479,1.641 2.092,0.48 1.413,0.153 0.703,0 0,0"
           inkscape:connector-curvature="0" />
      </g>
      <g
         transform="matrix(0.52563399,0,0,-0.52407322,-796.45564,1114.9479)"
         id="g4197">
        <path
           id="path4199"
           style="fill:#231f20;fill-opacity:1;fill-rule:nonzero;stroke:none"
           d="m 0,0 c -1.475,0 -2.931,0.673 -3.874,1.95 -10.451,14.146 -5.571,42.426 -5.355,43.629 0.462,2.609 2.936,4.343 5.571,3.887 2.609,-0.463 4.355,-2.961 3.892,-5.571 C -1.006,36.862 -2.776,16.646 3.862,7.663 5.436,5.528 4.984,2.518 2.851,0.938 1.992,0.309 0.987,0 0,0"
           inkscape:connector-curvature="0" />
      </g>
      <g
         transform="matrix(0.52563399,0,0,-0.52407322,-809.23872,1129.0636)"
         id="g4201">
        <path
           id="path4203"
           style="fill:#231f20;fill-opacity:1;fill-rule:nonzero;stroke:none"
           d="m 0,0 c -0.814,0 -1.61,0.012 -2.406,0.037 -10.407,0.382 -15.713,8.649 -15.565,16.613 0.16,8.86 6.441,15.541 14.615,15.541 2.653,0 4.806,-2.153 4.806,-4.806 0,-2.653 -2.153,-4.806 -4.806,-4.806 -3.862,0 -4.966,-3.837 -5.003,-6.101 -0.019,-1.105 0.191,-6.607 6.298,-6.83 31.779,-1.128 81.799,24.295 95.982,57.573 2.512,5.897 -0.092,7.045 -1.203,7.532 -4.3,1.9 -12.314,0.093 -14.307,-4.294 -1.103,-2.412 -3.973,-3.467 -6.372,-2.375 -2.412,1.104 -3.474,3.955 -2.375,6.373 4.411,9.667 18.335,12.888 26.935,9.094 5.996,-2.647 10.759,-9.31 6.17,-20.094 C 87.246,27.027 35.566,0 0,0"
           inkscape:connector-curvature="0" />
      </g>
      <g
         transform="matrix(0.52563399,0,0,-0.52407322,-783.78596,1090.2561)"
         id="g4205">
        <path
           id="path4207"
           style="fill:#231f20;fill-opacity:1;fill-rule:nonzero;stroke:none"
           d="m 0,0 c -26.51,0 -42.068,-13.949 -46.301,-41.488 14.597,1.4 53.815,8.026 66.111,39.014 C 15.343,-1.388 8.088,0 0,0 m -51.779,-51.471 c -1.338,0 -2.621,0.562 -3.534,1.549 -0.92,0.999 -1.376,2.351 -1.253,3.708 C -52.02,2.356 -19.174,9.611 0,9.611 14.954,9.611 27.053,5.497 27.559,5.317 29.977,4.485 31.321,1.899 30.611,-0.556 16.324,-50.07 -48.947,-51.434 -51.717,-51.471 l -0.062,0 z"
           inkscape:connector-curvature="0" />
      </g>
      <g
         transform="matrix(0.52563399,0,0,-0.52407322,-796.45864,917.85593)"
         id="g4209">
        <path
           id="path4211"
           style="fill:#231f20;fill-opacity:1;fill-rule:nonzero;stroke:none"
           d="m 0,0 c 1.512,0 3.004,-0.543 4.177,-1.576 l 57.948,-51.008 c 0.24,-0.213 0.469,-0.444 0.672,-0.694 2.109,-2.524 4.738,-3.054 6.576,-3.054 3.881,0 7.188,2.224 8.026,4.288 0.599,1.474 -0.129,3.23 -2.165,5.216 -0.913,0.962 -71.144,75.74 -106.519,88.332 -8.069,2.871 -15.713,4.328 -22.728,4.328 -25.627,0 -34.436,-18.579 -36.528,-24.273 -3.442,-9.4 -11.98,-41.467 22.771,-59.435 5.25,-2.712 10.759,-4.091 16.368,-4.091 22.727,0 43.054,22.179 45.152,36.56 0.333,2.291 1.895,4.22 4.072,5.018 C -1.469,-0.127 -0.734,0 0,0 m 69.373,-68.967 c -6.23,0 -11.869,2.551 -15.935,7.194 L 3.078,-17.44 c -7.995,-17.475 -29.131,-37.162 -54.48,-37.162 -7.651,0.003 -15.11,1.851 -22.167,5.503 -34.912,18.049 -37.784,50.579 -28.829,75.007 5.774,15.74 21.518,32.558 48.385,32.558 8.465,0 17.534,-1.702 26.966,-5.062 38.256,-13.615 108.333,-88.22 111.301,-91.391 5.613,-5.46 7.459,-12.395 4.849,-18.817 -2.912,-7.159 -11.025,-12.163 -19.73,-12.163"
           inkscape:connector-curvature="0" />
      </g>
      <g
         transform="matrix(0.52563399,0,0,-0.52407322,-803.1841,982.49198)"
         id="g4213">
        <path
           id="path4215"
           style="fill:#231f20;fill-opacity:1;fill-rule:nonzero;stroke:none"
           d="m 0,0 c 3.781,-2.455 14.454,-6.36 33.357,-6.36 16.872,0 23.307,3.923 24.449,6.243 0.124,0.254 0.42,0.846 -0.296,1.777 L 37.521,30.369 c -0.531,0.759 -0.888,1.625 -1.042,2.538 l -2.795,16.235 c -0.932,0.299 -2.541,0.626 -4.646,0.626 -1.289,0 -2.332,-0.129 -3.078,-0.281 L 24.312,31.803 C 24.201,30.569 23.721,29.397 22.943,28.432 L 0,0 z m 33.357,-18.995 c -24.48,0 -43.179,6.287 -46.535,15.64 -1.357,3.781 -0.351,7.649 2.69,10.481 l 22.407,27.759 1.69,17.882 c -0.031,4.352 4.029,9.636 15.429,9.636 9.97,0 16.534,-4.038 16.966,-10.349 L 48.693,36.433 67.701,9.119 C 70.978,4.874 71.576,-0.758 69.139,-5.7 66.152,-11.765 57.516,-18.995 33.357,-18.995"
           inkscape:connector-curvature="0" />
      </g>
      <g
         transform="matrix(0.52563399,0,0,-0.52407322,-803.53472,978.14941)"
         id="g4217">
        <path
           id="path4219"
           style="fill:#231f20;fill-opacity:1;fill-rule:nonzero;stroke:none"
           d="m 0,0 c -1.511,0 -3.028,0.542 -4.231,1.635 -14.03,12.668 -31.23,1.832 -31.957,1.363 -2.907,-1.888 -6.836,-1.061 -8.73,1.86 -1.895,2.915 -1.086,6.808 1.819,8.717 8.909,5.855 30.274,12.842 47.331,-2.566 C 6.823,8.667 7.027,4.673 4.688,2.085 3.442,0.703 1.722,0 0,0"
           inkscape:connector-curvature="0" />
      </g>
      <g
         transform="matrix(0.52563399,0,0,-0.52407322,-899.05072,1067.8826)"
         id="g4221">
        <path
           id="path4223"
           style="fill:none;stroke:#231f20;stroke-width:12.63500023;stroke-linecap:round;stroke-linejoin:round;stroke-miterlimit:4;stroke-opacity:1;stroke-dasharray:none"
           d="m 0,0 c 0,0 -9.347,5.54 -19.063,2.776 -38.885,-11.08 -86.932,-9.352 -114.04,-0.394 -11.962,3.947 -20.938,5.527 -28.792,-11.87 -7.853,-17.398 -11.585,-25.307 -1.123,-33.216 l 16.831,-9.883 c 0,0 29.908,36.387 33.276,49.428 m -49.73,-8.698 32.531,-18.977 m 48.231,25.306 1.123,-38.755 m -56.832,-35.585 c 3.362,23.333 20.865,34.709 29.162,33.611 20.939,-2.764 63.236,6.761 77.771,18.581 9.716,7.909 16.453,5.54 21.684,-1.973 5.232,-7.515 10.094,-24.122 10.094,-24.122 0,0 -23.179,-22.136 -67.671,-29.255 -44.493,-7.12 -71.04,3.158 -71.04,3.158 z"
           inkscape:connector-curvature="0" />
      </g>
      <g
         transform="matrix(0.52563399,0,0,-0.52407322,-987.09083,889.24735)"
         id="g4225">
        <path
           id="path4227"
           style="fill:#231f20;fill-opacity:1;fill-rule:nonzero;stroke:none"
           d="m 0,0 0.361,-8.992 c 2.131,0.12 4.365,0.355 6.4,0.641 C 4.503,-5.367 1.764,-1.866 0.034,-0.037 0.021,-0.025 0.009,-0.013 0,0 M 71.412,8.985 C 70.709,5.309 70.021,0.527 69.574,-4.062 l 0.031,-5.485 c 0.009,-0.978 0.145,-2.012 0.348,-2.946 2.989,3.131 5.392,5.808 5.994,6.799 0.685,1.85 2.205,3.374 4.118,4.608 -3.06,3.757 -6.151,7.369 -8.653,10.071 m 3.27,-36.244 c 5.639,-2.878 8.767,-3.458 11.614,-2.517 0.191,0.17 0.394,0.333 0.611,0.484 0.728,0.509 1.527,0.842 2.344,1.012 1.042,0.676 2.144,1.509 3.412,2.468 5.175,3.908 6.884,13.047 6.394,16.351 -0.929,0.247 -2.835,0.247 -3.819,0.247 -1.887,0 -6.573,-1.472 -8.202,-2.523 -0.941,-1.681 -3.64,-5.337 -12.755,-14.418 l 0.401,-1.104 z m -90.032,-1.194 c 2.456,-0.53 6.663,-1.212 10.251,-1.752 0.981,2.196 2.461,4.978 4.673,8.523 -3.881,-0.108 -7.893,0.117 -11.046,1.144 -2.616,0.851 -5.913,0.969 -8.23,0.734 1.064,-3.136 2.98,-7.319 4.352,-8.649 M 9.951,-73.399 c 1.191,0 2.44,-0.071 3.76,-0.219 10.377,-1.172 18.156,-3.776 23.298,-7.774 10.837,11.343 28.802,30.304 32.315,34.764 1.771,2.246 2.465,4.763 2.721,6.672 -1.718,0.744 -3.547,1.642 -5.503,2.712 -1.348,0.737 -2.382,1.943 -2.906,3.387 l -2.615,7.199 c -0.448,1.231 -0.491,2.539 -0.173,3.758 -3.727,5.148 -3.878,12.252 -3.878,13.353 l 0,3.245 c -14.627,1.499 -28.567,1.28 -31.42,-0.654 -1.358,-0.956 -2.739,-2.255 -4.115,-3.868 -0.173,-0.2 -0.342,-0.407 -0.509,-0.611 -0.385,-0.922 -0.993,-1.761 -1.811,-2.434 -2.505,-3.649 -3.951,-6.98 -3.969,-7.024 -0.17,-0.394 -0.386,-0.783 -0.633,-1.134 -4.09,-5.846 -8.011,-12.561 -8.76,-14.955 0.561,-2.65 2.838,-9.713 4.824,-15.325 0.299,-0.841 0.417,-1.736 0.342,-2.628 L 9.398,-73.402 c 0.186,0.003 0.368,0.003 0.553,0.003 m 99.217,-22.404 53.078,-0.241 9.093,9.618 -11.728,10.945 c -1.255,1.168 -1.977,2.797 -2.007,4.512 -0.028,1.716 0.641,3.369 1.856,4.578 l 11.327,11.293 -9.698,6.292 c -2.909,-3.319 -6.215,-5.691 -7.739,-6.702 l -44.182,-40.295 z m -65.027,-9.269 6.974,-0.821 c 19.378,17.83 40.825,37.488 57.85,52.893 -9.819,2.788 -16.269,7.471 -19.911,10.848 -1.475,-0.41 -3.017,-0.648 -4.664,-0.685 -0.615,-3.479 -2.036,-7.671 -5.142,-11.61 -4.474,-5.682 -27.062,-29.366 -35.218,-37.883 0.222,-1.058 0.367,-2.156 0.426,-3.297 0.179,-3.402 0.067,-6.558 -0.315,-9.445 m -34.15,19.038 c -5.679,0 -6.799,-2.875 -7.012,-3.846 -0.04,-0.18 -0.132,-0.599 -0.187,-0.775 -0.028,-0.089 -2.851,-9.164 -2.851,-15.83 0,-2.65 4.069,-3.828 4.109,-3.84 0.053,-0.013 13.143,-3.029 21.873,-2.067 6.241,0.694 6.105,12.498 5.916,16.099 -0.018,0.339 -0.043,0.795 -0.166,1.332 -0.592,0.725 -1,1.555 -1.218,2.421 -1.934,2.366 -6.626,5.062 -18.163,6.367 -0.839,0.096 -1.604,0.139 -2.301,0.139 M 9.063,-161.9 c -0.429,-0.821 -0.821,-1.719 -1.117,-2.534 3.88,0.102 7.135,0.905 8.72,1.371 l 0.262,0.237 c 0.395,0.654 0.92,1.246 1.561,1.736 0.343,0.263 0.7,0.482 1.071,0.664 l 125.656,114.6 c 0.271,0.247 0.561,0.472 0.872,0.667 3.458,2.218 7.49,6.24 7.727,8.445 0.019,0.167 0.047,0.444 -0.62,1.111 -0.135,0.132 -0.261,0.271 -0.382,0.416 -1.067,1.126 -2.687,1.037 -4.818,-0.292 -0.694,-0.46 -4.118,-3.135 -20.229,-17.584 -17.987,-16.135 -44.632,-40.541 -68.196,-62.219 -0.703,-1.488 -1.965,-2.632 -3.482,-3.205 -23.363,-21.503 -43.016,-39.7 -47.025,-43.413 m 85.99,-8.082 c 1.675,0 3.35,-0.666 4.59,-1.975 l 3.032,-3.208 0.386,45.468 c 0.015,1.73 0.737,3.378 2.002,4.559 1.258,1.181 2.952,1.78 4.679,1.697 l 45.15,-2.613 c 0.065,0.037 0.129,0.074 0.194,0.111 l 14.415,7.983 -5.774,9.275 -68.344,0.309 -7.477,-6.817 -0.821,-59.818 3.714,3.381 c 1.21,1.105 2.733,1.648 4.254,1.648 m 20.587,33.542 -0.348,-40.699 6.378,9.063 c 1.66,2.369 4.729,3.298 7.434,2.264 l 8.866,-3.406 -3.658,11.362 c -0.574,1.779 -0.331,3.719 0.663,5.302 0.996,1.579 2.64,2.64 4.491,2.893 l 18.055,2.477 -3.338,8.514 -38.543,2.23 z m -54.305,-32.518 c 1.665,0 3.307,-0.654 4.528,-1.906 l 8.523,-8.748 0.722,52.747 -44.086,-40.205 9.42,-12.315 17.894,9.667 c 0.944,0.513 1.978,0.76 2.999,0.76 m 50.091,-30.971 c -1.73,0 -3.393,0.71 -4.59,1.975 l -12.113,12.808 -12.752,-11.605 c -2.517,-2.301 -6.397,-2.178 -8.779,0.259 l -13.048,13.393 -18.44,-9.963 c -2.718,-1.474 -6.126,-0.747 -8.016,1.721 l -12.574,16.429 c -2.458,-0.783 -8.964,-2.585 -16.515,-2.091 -5.296,0.333 -7.681,3.399 -8.631,5.194 -3.186,6.015 0.771,13.94 2.619,17.068 0.311,0.524 0.697,1.006 1.144,1.419 0.324,0.299 13.52,12.526 31.714,29.31 -1.29,-0.46 -2.666,-0.774 -4.125,-0.935 -10.916,-1.209 -25.621,2.197 -26.24,2.342 -4.816,1.2 -13.773,6.08 -13.773,16.12 0,7.776 2.674,17.113 3.303,19.208 0.558,2.829 2.286,6.57 5.747,9.455 l 1.86,22.582 c -0.935,2.68 -2.767,8.051 -3.976,12.357 -4.051,0.602 -9.942,1.527 -13.067,2.264 -9.491,2.224 -14.294,20.405 -14.294,23.872 0,2.616 1.308,5.065 3.594,6.722 3.961,2.884 11.098,3.498 17.187,2.591 l -0.351,9.285 c 0.247,4.633 1.067,11.934 3.889,15.672 1.58,2.086 3.98,3.175 6.358,3.055 4.445,-0.26 6.641,-3.992 8.769,-7.604 0.932,-1.585 1.99,-3.384 2.888,-4.331 1.77,-1.872 4.14,-4.828 6.224,-7.539 0.932,0.839 1.879,1.595 2.835,2.267 7.53,5.318 27.367,4.238 39.854,2.921 2.477,16.88 5.79,18.04 8.304,18.925 3.689,1.307 7.206,2.535 26.395,-22.003 1.018,0.142 1.854,0.207 2.412,0.207 3.841,0 14.041,0 16.136,-10.01 1.539,-7.323 -1.345,-21.768 -10.562,-28.9 3.97,-2.78 10.405,-5.941 19.893,-6.934 15.541,13.918 19.112,16.737 20.621,17.672 9.969,6.197 17.94,1.468 21.028,-2.147 3.51,-3.637 4.22,-7.474 4.09,-10.318 l 17.777,-11.537 c 1.601,-1.039 2.647,-2.745 2.844,-4.643 0.197,-1.896 -0.472,-3.784 -1.823,-5.129 l -12.221,-12.187 11.588,-10.815 c 1.231,-1.148 1.953,-2.74 2.006,-4.42 0.052,-1.682 -0.568,-3.317 -1.725,-4.538 l -10.145,-10.728 c 0.071,-0.392 0.111,-0.793 0.108,-1.204 0,-0.077 -0.003,-0.15 -0.006,-0.225 l 8.893,-14.288 c 0.913,-1.471 1.184,-3.251 0.749,-4.926 -0.435,-1.675 -1.539,-3.1 -3.053,-3.939 l -13.974,-7.736 c -0.105,-0.861 -0.382,-1.66 -0.793,-2.372 l 5.546,-14.147 c 0.707,-1.801 0.547,-3.831 -0.431,-5.5 -0.981,-1.672 -2.675,-2.801 -4.594,-3.062 l -18.544,-2.542 5.395,-16.762 c 0.746,-2.319 0.095,-4.855 -1.672,-6.527 -1.767,-1.666 -4.334,-2.184 -6.607,-1.308 l -16.593,6.379 -12.576,-17.873 c -1.092,-1.555 -2.819,-2.529 -4.71,-2.664 -0.154,-0.013 -0.305,-0.02 -0.457,-0.02"
           inkscape:connector-curvature="0" />
      </g>
      <g
         transform="matrix(0.52563399,0,0,-0.52407322,-965.87173,908.40878)"
         id="g4229">
        <path
           id="path4231"
           style="fill:#231f20;fill-opacity:1;fill-rule:nonzero;stroke:none"
           d="m 0,0 c 0.065,-0.111 0.145,-0.234 0.244,-0.361 0.774,-1.012 2.023,-1.632 2.578,-1.632 l 0,-3.158 0.028,3.158 c 0.71,0.63 1.941,1.391 3.384,2.178 C 3.384,0.343 0.968,0.191 0,0 m 2.822,-8.31 c -2.662,0 -5.712,1.65 -7.594,4.109 -1.582,2.066 -2.132,4.395 -1.549,6.561 1.142,4.217 7.314,4.217 9.951,4.217 6.303,0 14.236,-1.314 14.573,-1.37 l 10.709,-1.789 -10,-4.235 C 14.745,-2.582 8.177,-5.66 6.623,-6.971 5.589,-7.847 4.275,-8.31 2.822,-8.31"
           inkscape:connector-curvature="0" />
      </g>
      <g
         transform="matrix(0.52563399,0,0,-0.52407322,-956.57789,907.31253)"
         id="g4233">
        <path
           id="path4235"
           style="fill:#231f20;fill-opacity:1;fill-rule:nonzero;stroke:none"
           d="m 0,0 c 0,0 -19.902,3.325 -20.951,-0.556 -1.049,-3.88 5.238,-8.309 7.86,-6.095 C -10.476,-4.436 0,0 0,0"
           inkscape:connector-curvature="0" />
      </g>
      <g
         transform="matrix(0.52563399,0,0,-0.52407322,-963.96346,907.63751)"
         id="g4237">
        <path
           id="path4239"
           style="fill:#231f20;fill-opacity:1;fill-rule:nonzero;stroke:none"
           d="m 0,0 c -4.303,0 -5.136,-0.688 -5.17,-0.716 -0.067,-0.53 0.475,-1.403 0.821,-1.854 1.255,-1.644 3.513,-2.44 4.053,-1.974 1.36,1.154 4.42,2.749 7.301,4.124 C 4.748,-0.188 2.236,0 0,0 m -0.805,-8.569 c -2.304,0 -4.972,1.459 -6.635,3.633 -1.348,1.758 -1.823,3.717 -1.339,5.509 0.796,2.944 5.109,3.32 8.779,3.32 6.203,0 14.042,-1.299 14.372,-1.354 0.854,-0.143 1.511,-0.83 1.613,-1.691 0.101,-0.861 -0.38,-1.684 -1.175,-2.02 C 10.707,-2.909 3.97,-6.034 2.218,-7.518 1.4,-8.205 0.355,-8.569 -0.805,-8.569"
           inkscape:connector-curvature="0" />
      </g>
      <g
         transform="matrix(0.52563399,0,0,-0.52407322,-987.6714,944.69268)"
         id="g4241">
        <path
           id="path4243"
           style="fill:#231f20;fill-opacity:1;fill-rule:nonzero;stroke:none"
           d="m 0,0 c -0.812,0 -1.339,0.043 -1.339,0.043 l -2.566,0.222 -1.191,9.951 2.943,0.518 c 0.105,0.019 2.656,0.463 5.132,0.463 1.966,0 4.748,-0.235 6.223,-2.246 C 10.028,7.825 10.235,6.425 9.788,5.009 8.77,1.779 5.293,0 0,0"
           inkscape:connector-curvature="0" />
      </g>
      <g
         transform="matrix(0.52563399,0,0,-0.52407322,-987.38114,941.57433)"
         id="g4245">
        <path
           id="path4247"
           style="fill:#231f20;fill-opacity:1;fill-rule:nonzero;stroke:none"
           d="M 0,0 0.099,-0.833 C 1.817,-0.769 3.208,-0.438 3.908,0.049 3.134,0.16 1.302,0.129 0,0 m -0.552,-4.738 c -0.753,0 -1.24,0.04 -1.24,0.04 -0.922,0.077 -1.666,0.793 -1.777,1.712 l -0.524,4.429 c -0.121,1.025 0.579,1.965 1.597,2.144 0.102,0.018 2.551,0.447 4.923,0.447 2.702,0 4.371,-0.558 5.244,-1.749 C 8.264,1.478 8.409,0.462 8.082,-0.574 7.233,-3.261 4.167,-4.738 -0.552,-4.738"
           inkscape:connector-curvature="0" />
      </g>
      <g
         transform="matrix(0.52563399,0,0,-0.52407322,-974.75052,945.25715)"
         id="g4249">
        <path
           id="path4251"
           style="fill:#231f20;fill-opacity:1;fill-rule:nonzero;stroke:none"
           d="m 0,0 c -0.99,0 -10.408,1.333 -11.167,5.778 -0.243,1.415 0.34,3.377 2.786,4.242 0.565,0.175 4.621,1.409 7.801,1.409 4.568,0 5.565,-2.659 5.781,-3.804 C 5.546,5.809 5.975,3.544 4.476,1.737 3.039,0 0.752,0 0,0"
           inkscape:connector-curvature="0" />
      </g>
      <g
         transform="matrix(0.52563399,0,0,-0.52407322,-976.69133,942.14039)"
         id="g4253">
        <path
           id="path4255"
           style="fill:#231f20;fill-opacity:1;fill-rule:nonzero;stroke:none"
           d="M 0,0 C 1.613,-0.555 3.479,-0.882 4.112,-0.826 4.09,-0.493 4.016,-0.04 3.955,0.312 3.381,0.41 1.471,0.296 0,0 m 3.692,-4.735 c -1.545,0 -9.429,1.601 -9.972,4.769 -0.17,0.999 0.262,2.282 1.995,2.894 C -4.041,3.005 0.059,4.27 3.112,4.27 6.641,4.27 7.505,2.505 7.703,1.453 8.014,-0.197 8.369,-2.066 7.237,-3.436 6.271,-4.599 4.75,-4.735 3.692,-4.735"
           inkscape:connector-curvature="0" />
      </g>
    </g>
  </g>
</svg>
