<svg id="Layer_1" xmlns="http://www.w3.org/2000/svg" viewBox="0 0 496 660.1"><style>.st0{fill:#fff}.st1{fill:#fbfbfb}</style><path class="st0" d="M212.9 18.9c21.7.1 43.5.2 65.2 0-.2 6.7 0 13.4-.1 20.1-9.8.1-19.6-.2-29.4.2.1 2.9 0 5.8-.1 8.7 8.8.3 17.6.1 26.4.1 0 6.7-.3 13.3-.2 20-8.8 0-17.5-.1-26.3.1 0 3.3-.1 6.6-.2 9.8 9.8.2 19.7 0 29.5.1-.3 7 .6 14 .5 21h-65.5c.3-4.7.1-9.4-.4-14.1 0-21.9.5-43.9.6-66zM56.7 20h35.7c4.2 15.5 7.4 31.3 11.2 46.9 5.1-15.5 9.3-31.3 14.1-47 12 .1 23.9 0 35.9 0-9 21.6-18.7 43-27.9 64.5-1.6 4.6-3.4 9.2-5.4 13.7-11.9-1-23.9-.4-35.8-1.3-1.4-5.5-4.2-10.5-6-15.8-6.7-17.7-12.4-35.7-19.2-53.2-1-2.5-1.9-5.1-2.6-7.8zM346.2 20h35.6c-.5 9.9 0 19.9-.4 29.8 6.5-9.8 12.3-20 18.8-29.8 11.6.1 23.2-.2 34.8.2-3.4 3.7-5.8 8.1-8.8 12-5.7 8.2-11.8 16.1-17.2 24.5 7.2 9.9 14 20.1 21.4 29.9 3.2 3.5 5.8 7.6 8.6 11.5-12.7 0-25.4-.1-38.1.1-2.1-3.5-3.8-7.4-6.3-10.7-4.8-7.6-8.4-15.9-13.2-23.5.3 8.7-.8 17.4.5 26 .1 2.7 0 5.4.1 8.1-11.8-.1-23.6-.1-35.4 0-.1-4.4-.2-8.7-.7-13.1.2-21.7-.1-43.3.3-65z"/><path class="st0" d="M495.9 153.9c.2-2.7-.7-5.2-.9-7.9-.2-17.7 0-35.3-.1-53 .1-3-1-5.9-1-9V5c0-1.7-.2-3.5-.9-5.1-51.7.1-103.3 0-155 0-14.3.5-28.7.6-43 1H102.1c-8.7.5-17.4.7-26.1 1.1-24.7 0-49.3.1-74 0 .2 39.3 0 78.7.1 118 .2 3.4-1.1 6.6-1 10 .1 15.7.1 31.3 0 47 .1 1.8-.1 3.5-.8 5.1-.1 10.7-.2 21.3 0 32 1.3 5.5.6 11.3.8 16.9 0 26.7.1 53.3 0 80 0 1.5-.1 3.1-.8 4.6-.4 10.9-.2 21.8 0 32.8 1.1 2.2 1.1 5 0 7.3-.6 10.5 0 21-.3 31.4.3 10.8-.3 21.6.2 32.3 2 3.4.1 7.7 1.3 11.4.6 5.2.9 10.5 1.8 15.7 1.5 4.2.6 9 2.6 13.1 0 3.4.9 6.7 1.8 9.9 1.1 5 2.6 10 3.6 15.1.5 1.3.9 2.6 1.4 3.9l.9 3c.3 1 .7 2 1 3 .3 1 .7 2 1 3 .3 1 .6 2 1 3 .3 1 .7 2 1.1 3 .1.5.4 1.5.5 2 .4 1 .7 2.1 1.1 3.2 1.1 2.3 2.3 4.5 3.1 6.9.3 1 .5 2 .8 3 1.8 3.7 4 7.1 5.1 11.1.2.5.7 1.5 1 2 1.1 1.9 2.1 3.9 3 6 2.2 2.7 3.5 6 4.9 9.1 1 1.7 2.1 3.2 3.1 4.9 1.1 2.7 2.5 5.2 4.9 6.9-.1.2-.3.8-.3 1 4.6 6.8 9.5 13.5 14.7 19.8 1.3 2.8 4.1 4.6 6.1 6.9 4.9 6.7 11.3 12.1 17.1 18 4.9 3.4 8.6 8.2 13.9 11 .9.8 1.7 1.7 2.6 2.5 1 .5 2.1 1.1 3.1 1.7 2.3 1.6 4.5 3.3 7 4.7 2 1.4 4.1 2.9 6.2 4.2 1 .6 1.9 1.3 2.9 1.9 2.7 1.4 5.4 2.7 8.2 3.8.4.5 1.2 1.4 1.6 1.8.5 0 1.6.1 2.2.2 2.3 1.3 4.6 2.4 6.9 3.6 1.3.6 2.7 1.3 4 1.9 5.5 1.5 10.7 4 16 6 2.4.6 4.8 1.1 7.1 1.9 1 .3 2 .7 3 1.1 1.4.2 2.9.3 4.2 1.1h2.3c1.7.8 3.5 1.5 5.2 2.2 3.9-.5 7.7 2.2 11.6.5-.2.3-.6 1-.7 1.4 3.8-.5 7.4 1.3 11.2 1.4.4-.2 1.2-.7 1.5-.9-.1.5-.2 1.4-.3 1.9 2.7-.4 5.5-.4 8.3-.6 0 .4-.1 1.1-.1 1.4 1.6-.3 3.2-.3 4.8-.3 2 .1 3.9.2 5.8.1 3 2.5 7.1 1 10.6.7 4.8.1 9.6.1 14.3-.1 7.1 2.4 14.3-2.5 21.6-.3-.1-.4-.2-1.2-.3-1.6 1.3.1 2.7.2 4 .2 1.6-.1 3.2-.1 4.8.1-.1-.4-.4-1.3-.6-1.7.5.2 1.6.6 2.2.9 3.6-.4 7.5.4 10.7-1.9l.4 1 2.8-.4c-.1-.2-.4-.7-.5-.9 3.3.2 6.8.1 10-.8 1.7-.4 4.1 1 4.7-1.3 1.2 0 2.3.1 3.5.2l-.4-1.4c1.9.3 3.8.5 5.7.8l-.2-1.5c4.5.5 8.5-2.4 13-1.9l-.3-1.2c.6.1 1.9.3 2.5.4 5.5-1.7 11-3.7 16.5-5.4 2-.6 4-1.4 6-2.3 1.7-.6 3.3-1.3 5-2 1.8-.5 3.6-1.2 5.2-2.3.5 0 1.5-.1 2.1-.1.4-.4 1.2-1.3 1.6-1.8.6 0 1.8-.1 2.4-.2.4-.5 1.2-1.4 1.6-1.8.6 0 1.7-.1 2.3-.1 2.7-1.5 5.3-3.2 7.9-4.8 2.2-.8 4.2-2.2 6.2-3.4 1.7-1 3.3-2 5-3.1 1.2-.9 2.5-1.7 3.9-2.5 2.8-1.8 5.5-3.8 8-6 2.4-1.1 4-3.3 5.9-5.1 3.3-.7 4.7-4.6 7.7-6.1 4.1-3.5 8.3-7.1 11.2-11.6 1.3-.4 2-1.2 2.2-2.6.3.1.9.2 1.2.2 1.2-3.7 5.4-5.1 6.7-8.7 2.7-2.7 4.8-5.8 6.9-8.9 2.5-2.7 4.4-5.8 6.1-9 2.6-4 5.3-7.9 7.9-11.9 1-2.1 1.9-4.4 3.8-5.9v-2.2c.9-1.3 1.8-2.6 2.8-3.8.9-2 1.9-4 3-6 .5-2.5 1.7-4.9 3.1-7 .5-1.4 1.1-2.8 1.5-4.2.8-1.6 1.6-3.2 2.4-4.9.3-1 .6-2.1 1-3.1.1-.5.4-1.5.5-2 .4-.9 1.2-2.6 1.6-3.5-.3-.1-1.1-.4-1.4-.5.9-.5 1.6-1.1 2-2 .9-1.9 1.7-3.9 1.8-6 .5-1.3 1-2.7 1.6-4 .1-1 .2-1.9.4-2.9 1-2.2 1.7-4.6 2.1-7.1 1.6-4.9 2.3-10 3.3-15l.6-3.9c1.8-8.4 3.2-16.9 3.9-25.5 2-5 .1-10.5 1.3-15.7 1.3-5.7-.1-11.6.9-17.3 1-3.9.7-8 .8-12.1-.3-80-.2-160-.4-240.1zM7.5 42.9l.6-34.8c9.3-.3 18.7.3 28-.5C40.7 7.2 45.3 7 50 7h97c6.3-.2 12.7-1 19-1h73.1c16 .3 31.9-1.4 47.9-1h130c10-.1 20 1.3 30 1h39.5c-.7 19.3.8 38.6 1 57.9.6 8.7-.3 17.5 1.2 26 .4 7.3-.5 14.5-.1 21.8-8.1 1.6-16.4 1.1-24.5 1.2h-52c-5.4 0-10.7 1-16 1h-75c-7.7.5-15.3 1-23 1h-284c-1.9 0-3.9 0-5.8-.2-.7-23.8-1.6-47.8-.8-71.8zm483 354.2c-.1 2-.1 4-.6 6-1.8 6.5.1 13.4-1.7 19.9-1.2 5 .8 10.3-1.4 15.1v5.5c-2.2 2.7-.1 6.5-2 9.2-.1 1.3-.1 2.5-.2 3.8-1.3 3.5-1.3 7.3-2 10.9-1.1 1.8-1.1 3.9-.9 5.9-.2.3-.7.9-.9 1.2.3 2.8-.8 5.5-1.9 8 .3 2.6-1 5-2 7.2.1 2-.7 3.9-1.4 5.7-.4 1.3-.6 2.7-.9 4.1-.6 1.1-1.1 2.2-1.7 3.2-1 5.4-3.3 10.7-5.7 15.7-.5 2.2-1.5 4.2-2.6 6.1-.5.9-1 1.9-1.4 2.8l-.9 3c-.7 1.3-1.3 2.6-1.9 3.9-1.4 2.3-3.3 4.4-3.5 7.2-1.7 1.7-2.5 4.1-3.7 6.2-2.9 5.1-6.8 9.6-9.4 14.9-2.7 3.2-4.7 6.9-7.6 9.8-1.2 2.1-3.1 3.5-4.4 5.6-1.9 2.9-5 4.6-6.9 7.5-4.9 4.5-9.2 9.7-14.4 13.8-2.9 1.7-5.4 4-7.7 6.4-6.1 3.8-11.5 8.9-18.1 12.1-14.4 8.8-29.9 15.8-46 21-20.3 6.4-41.4 10.3-62.6 11.5-8.9 1.9-18-.3-26.9 1.7-10.7.3-21.4.2-32.1 0-4.4-1.2-9-.8-13.5-1-2.8-1.5-6.1-.3-9-1.7-14.7-1.5-29.1-5.7-43-10.5-2-.8-3.9-1.6-5.9-2.4-2.4-.9-5-1.4-7-3-2.7-1.2-5.5-2.5-8.2-3.5-10.7-6.1-21.3-12.4-31.1-19.9-2.4-2.4-5.1-4.4-7.8-6.4-5.2-5-10.5-10.1-15.5-15.4-2.1-3.1-4.7-5.8-7.4-8.3-3.1-5.1-7.5-9.3-10.7-14.3-1-1.5-2.1-3-3.2-4.4.4-.5.9-.9 1.4-1.4-.7-.1-2-.4-2.7-.6-.8-2.9-3.8-4.6-4.3-7.7-1-1.7-2.2-3.3-2.9-5.2l-1.1-.2c.1-.3.3-1 .4-1.3-2-3-3.8-6.2-5.4-9.5l-.8-.1c-.4-1.1-.7-2.2-1.1-3.3-1.1-1.9-2-4-2.8-6-.8-1.7-1.7-3.5-2.5-5.2-.5-1-1.1-1.9-1.6-2.8-.6-3.6-2.1-6.9-4-10-.8-2.7-1.7-5.4-2.6-8-.6-1.3-1-2.7-1.5-4-2-6.2-4.7-12.3-5.9-18.7-.9-1.9-.9-4.1-2.1-5.9v-2.4c-1-1.1-1.3-2.3-.9-3.9-.3-.4-.9-1.1-1.2-1.5-.1-2 .3-4.2-1.2-5.7 0-1.3 0-2.6.1-3.8-1.9-1.9-1.1-4.7-1.7-7.1-.5-1.9-.8-3.9-1-5.9-2.1-3-.4-6.9-1.6-10.2-1-2.7-.6-5.6-.8-8.5-2.3-11.2-.8-22.7-.7-34 1.2-10.8-.4-21.6.6-32.4 1.4-4.5-.8-9-.3-13.6.3-10.3-.6-20.7.8-31-.7-30.6-.1-61.3 0-91.9-1.4-11.6-.5-23.4-.7-35.1 1.5-10.6.2-21.3.4-32 0-10.6-1.2-21.3.4-31.9 96.8-.3 193.7 0 290.5-.1 63.5 0 127-.1 190.5.1-.3 9.4.1 18.7.5 28.1.9 2.5.7 5.2.8 7.8.8 52.3 0 104.7.9 157 .1 27.8.6 55.8-.2 83.8z"/><path class="st0" d="M304.4 155.6c-3.8-6.4-9.9-11-15.8-15.3-14.9-8.7-32.8-11.4-49.8-10-6.2.8-12.3 2.5-18.4 3.9-2.5 1.1-5.1 2.2-7.6 3.5-.1-.9-.2-1.8-.4-2.6-.1 1.1-.3 2.2-.4 3.3-8.3 3.4-14.6 10.2-19.1 17.8-.7 1.7-2 4-.5 5.6 2.1 2 5 .9 7.6.8 3.9-.6 7.9 0 11.7 1 .9.6 1.7 1.5 1.7 2.6.5 6 .3 12.1-.4 18.1-.1 1.7 2 2 3.1 2.9 3.8-3.2 6.3-7.8 10.8-10.2 8.8-5.8 19.8-6.7 30-5.5 6.3 1.4 12.6 3.8 17.6 8 2.1 2 3.2 4.9 5.4 6.8 1.2.9 2.6-.2 3.8-.5 1-6.2.3-12.5.5-18.8-.1-1.5.9-2.7 1.8-3.7 4-.2 7.9-1.4 11.9-.7 2.5.2 5.6 1.2 7.5-1 1.2-2.1 0-4.3-1-6zm-18.5 1.4c-2.2 1.3-5.1 2.2-6 4.9-1.7 4.2-1.1 8.9-1.1 13.3-4.1-3.6-9-5.9-14-7.9-11.9-3.7-25-3.1-36.3 2-3.3 1.6-6.3 3.7-9.2 6-.2-5 1.3-10.9-2.4-15-1.4-1.4-3.2-2.2-4.8-3.2-4.3 0-8.5-.5-12.8-.3 3.9-4.8 8.1-9.8 13.9-12.4 8.1-4.9 17.6-6.6 26.8-8.2 5.7-.1 11.5-.1 17.2 0 9.1 1.6 18.4 3.4 26.5 8.2 5.6 3.2 11.1 7 14.8 12.4-4.3-.2-8.5.3-12.6.2z"/><path class="st0" d="M244.3 139.4c3.1-.2 7.3-2.5 9.6.6.6 1.9-1.5 2.9-2.9 3.5.3 4.5.9 9 .8 13.6-.2 2.2 3.6 3.3 2.2 5.6-2.1 2.5-5.7 1-8.5 1.3-.4-.5-1.2-1.6-1.5-2.2.7-1.4 1.3-3.1 3.3-3 .2-5.2-.5-10.3-.7-15.4-2.3.1-4-2.3-2.3-4zM235.5 139.9c1.7-1.1 5.2-1.9 6 .5 1.3 2.7-4.3 2.6-3.2 5.5.8 6.3.8 12.7.8 19.1h-3.7c-2.5-4.2-5.5-8.1-8.1-12.2-.1 3.1-.1 6.2.1 9.3-.2 2.2 3 3.4 1.6 5.7-2.1 2.2-5.5.9-8.1 1.2-.6-2-.4-4.5 2.2-4.3-.2-5.1-.6-10.2-.6-15.3-1.7-.4-4.4-1-3.8-3.3 1.1-3.2 4.9-1.8 7.5-2.1 3.1 3.5 5.6 7.4 8.4 11.1-.1-3.2-.4-6.4-.8-9.6-.9-.5-1.9-1.1-2.7-1.7-.6-1.3.4-2.6 1-3.7 1-.1 2.2-.1 3.4-.2zM259.8 140.1c1.2-2.3 4-.4 5.8.2 2.2 1.3 4.6 2.4 5.9 4.7-1.1 1-2.2 2-3.7 2.4.9 4.7.7 9.6.9 14.3 2.5.8 5 1.4 7.6 1.4.6 1 1.2 2 1.7 3-.9.7-1.8 1.3-2.8 1.8-4-.9-8.1-1.8-12.2-2-1.3.1-2.6-1.6-1.8-2.8.3-1.4 2-1.5 3-2.3 0-5.5-.3-11-1.1-16.5-1.6-.6-4.6-2-3.3-4.2zM131.2 207.4h-2.9c0 .7.2 2 .2 2.7.4-1.4 1.3-2.3 2.7-2.7zM128.5 210c-.1 0-.1 0 0 0-.1 0 0 0 0 0z"/><path class="st0" d="M385.2 212c-.7 0-2.2.1-2.9.2-3.4 2.3-7.1 3.8-10.6 5.8-1.1 0-2.1.1-3.2.1-2.6-2.5-5.5-4.8-7.6-7.7-1.6-1.9-2.9-4.8-5.8-4.5-3.3 5.1-4.1 11.5-8.2 16.1-3.1 4.2-7.6 7.2-11.8 10.1-7.3 3.7-15.7 7.2-24 5.1-4.2-.3-7.9-2.7-11.7-4.4-14.3-9.3-20.9-25.7-27.5-40.6-2.8-5.9-5.6-12.8-11.8-15.9-6.1-3.4-14.2-3.4-20 .7-3.5 2.4-6.6 5.6-8.3 9.6-5.1 11-10.6 21.9-17.5 31.8-4.3 5.7-9.8 10.3-15.9 14-5.6 2.2-11.2 5-17.4 4.7-6.4.5-12.6-1.9-18-5-5.8-3.9-10.2-9.5-13.5-15.6-3.2-4.2-4.2-9.5-6.8-14-.7-.1-2.1-.3-2.8-.3-3.2 3.5-6.2 8.3-11.5 8.4 0-.1.1-.2.1-.3-2-.9-3.9-1.7-6-2.4-1.7-1-3.5-2.1-5.5-1.6-2.2 1.1-1.3 4-1.3 5.9 1.7 7 2.4 14.3 5.4 21 2.9 6.2 6.1 12.3 10.6 17.4 5.4 5.4 10.9 10.8 17.6 14.4 21.9 13.5 51.2 9.8 71.6-4.8 11.4-7.2 20.2-17.6 28.9-27.8 10.1 12.5 21.3 24.7 35.8 32.1 2 1 4 2.1 6 3 13.1 5.4 28 7.6 41.9 4.1 11.1-2.4 20.9-8.6 29.6-15.8 9.9-8.4 18.3-19.1 22.1-31.7.6-4 2.4-8.5 0-12.1zm-20.5 34.7c-6.2 6.7-14 11.8-22.1 16.1-1.7.7-3.4 1.3-5.1 2.1-.5.1-1.6.3-2.1.4-12.8 4.9-27 2.7-39.6-2-7.8-3-14.7-7.9-21.4-12.8-8.6-7.4-15.8-16.1-23.1-24.7-.8.1-2.5.2-3.4.3-6.1 7.2-12.2 14.5-19.2 20.8-12.6 12-29.3 20.2-46.8 21.2-27.3.7-53.5-20.2-59-47-.5-2.6-1.1-5.2-2-7.8 3.7 1.2 7.5 2.3 11.5 2.2 2.9-1.3 5.3-3.3 7.7-5.4 3.2 8 8.4 15.1 14 21.6 3.5 3.4 7.5 6.4 12.1 8.1 10 4.1 21.3 3 31.2-1.1 3.1-1.5 6-3.5 8.9-5.4 9.5-6.3 15.9-16.1 20.9-26.1.4.1 1.2.2 1.6.3l-1.1-.6c3.6-6.6 6.5-13.5 10-20.2 2-3.9 5.9-6 9.8-7.7 7-1.3 13.7 3.6 16.7 9.7 5.1 10 8.7 20.9 15 30.3 5.1 8.5 12.3 16 21.3 20.3 7.6 3.6 16.4 5 24.5 2.5 3-.8 5.8-2.1 8.8-3.1 10.3-5.2 19.7-13.3 23.3-24.6 3.4 3.6 6.5 7.7 11.1 9.8 4.3-.3 8.3-2.6 12.3-4.2-2.2 10.5-8.3 19.7-15.8 27z"/><path class="st0" d="M238.4 195c-.5-4.4 3.6-7.9 7.6-8.8.8.4 1.7.8 2.6 1.2.3.5.8 1.6 1.1 2.1-1.2 1.5-3 1.7-4.8 1.6-.8 1.2-1.6 2.3-2.4 3.6 1 .3 2.1.6 3.2.8 1.7-1.2 3.3-2.5 5.2-3.4 2.1-.2 4.2-.1 6.3-.2 3.8 4 2.5 10.6-1.3 14.1-2.7.2-7.6.3-7-3.7 1.1-2.2 3.4-1.1 5.1-.5.3-2 .6-4 .8-6-2.9.2-5.1 2.3-7.2 4.2h-4.8c-1.7-1.1-4.4-2.3-4.4-5zM232.8 205.1c-.6-4.3 4.2-3 6.9-3 3.2 1.9 6.7 3.4 9.2 6.3 2 2 2.4 4.9 3.1 7.6-1.1 3.4-3.8 5.9-7.4 6.6-3.2 1.4-6.6.1-9.6-1.3-3.5-2.5-5.9-7.6-2.9-11.4 1.5.2 3 .5 4.5.8-.5 1.4-.9 2.7-1.4 4.1 1.3 1.1 2.3 2.5 3.9 3.2 2.8.2 6.1.5 8.1-1.9.2-4.2-3.9-7.3-7.6-8.4-2.3-.9-5.3-.6-6.8-2.6zM255.9 208h4.5c-.2 1.5-.1 4.4-2.4 4-2.4.6-2.6-2.4-2.1-4zM138.3 216.9c1.5.1 3.9-.3 3.6 2.1-.5 2.7-3 4.6-4.5 6.9 2.5.1 5 0 7.5.3 1.9.7 1 2.5.4 3.8-4.8.4-9.6 1.5-14.5 1.1-.3-.9-.6-1.9-.9-2.8 3-3.7 5.6-7.6 8.4-11.4zM267.6 212.3c-1.7.2-3.4.7-5.1 1-2.2.7-4.5 1.2-6.5 2.5-2.6 1.7-6.3 3.4-5.3 7.2.9 0 2.7.1 3.6.1.2-.5.6-1.4.8-1.9.8-.5 1.7-.9 2.6-1.4 1.3 1.6 2.7 3.3 4.1 4.9-1.1 1.2-2.3 2.2-3.7 2.9.4 1.3.4 3 1.9 3.6 2 .2 3.1-1.6 4.4-2.8 3.2-3.8 6.9-7.6 8.2-12.6-1.4-1.6-3-3-5-3.5zm-2.9 8.7c-.9-.9-1.7-1.8-2.6-2.6 1.7-.6 3.5-1.1 5.3-1.6l-2.7 4.2zM354.8 224c1.1-.9 2.7-1.8 4.1-.8 2.6 1.3 5.1 3 7.8 4.1 2.5 1.8 6.8 2.9 5.6 6.8-2.1.1-4.1-.5-6-1.2-1.5-.9-3-1.9-4.5-2.8 1 4 4 7.7 3.4 12-4.3.5-8.3-1.1-12.4-2.1 1.1 1.6 2.3 3.2 3.5 4.7 2.5 1.4 2.3 6.5-1.4 5.4-3.8-3.6-6.5-8.2-9.9-12.2-1.8-1.4.1-4 1.9-3.8 4.2.8 8.4 1.6 12.4 3.2-1.3-4.6-3.6-8.7-4.5-13.3zM283.8 235c-.5-4.6-2.9-8.8-6.1-12-1.2-.2-2.3.5-3.3 1.1-2.6 3.7-6 6.8-9.1 10.2-1.4 1.1-1.5 2.9-1.5 4.6 2.4.7 4.4-.4 6.1-2.1.5 3.3.2 6.9 1.4 10.1 4.6 1.9 4.1-3.7 3.7-6.5 3.6 2.1 9.3-.9 8.8-5.4zm-5.9 2.1c-1.3-1-2.7-2-3.5-3.5-1.5-2 1.4-3.4 2.4-4.8 1 2.6 3.2 5.7 1.1 8.3zM213.9 232.1c-.4-2.5 2.3-1.9 3.9-2.2 2.3 4.6 5 8.9 8.2 12.9 2 1.8-1.3 6-3.1 3.4-3.6-4.2-6.8-9-9-14.1zM232 226c-.4-1.2-.8-2.5-1.2-3.7-1.4-.7-2.8-1.4-4.2-2.2h-3.2c-1.5 1-2.9 2-4.2 3.3-1 5.9 3.3 10.5 7.1 14.4 1.7 2 4.5 1.1 6.8 1.3 3-2.5 7.9-4.6 7.7-9.1-1.3-3.6-5.4-4.4-8.8-4zm-6.7 3.4c-.6-1-1.2-2.1-1.8-3.1.1-.3.3-1 .4-1.4.8 0 2.3.1 3 .1.1.5.4 1.5.5 2-.7.9-1.4 1.7-2.1 2.4zm4.9 5.7c-.3-.4-1-1.2-1.4-1.6 1.2-1.1 2.5-2.3 3.7-3.5.7 0 2-.1 2.6-.1 1.5 3.1-3.2 3.6-4.9 5.2zM210.7 235.6c1.1-1.5 3.4-1 4.3.5.3 2.6-2.4 3.8-3.9 5.5 1.3 4 4 7.3 5.2 11.3-.1 2.3-2.2 2.4-3.9 2.1-1.7-3.4-3.2-6.9-5.3-10-1.4.8-2.7 1.8-4.3 2.4-1.8-.4-2-2.3-2-3.9 3.7-2.2 7-4.8 9.9-7.9zM153.3 235.8c-1.9-3.2-5.8-3-9-2.8-3.1 2.1-6.1 5-6.2 9-.8 3.6 2 6.6 5 8.1 1.6-.1 3.3 0 5-.2 5.3-1.8 8.9-9.1 5.2-14.1zm-3.5 6.8c-.6.8-1.2 1.6-1.8 2.5-1.7 0-3.4 0-5.1-.1 0-1.9.2-3.8.4-5.6 1.7-.9 3.6-1.4 5.6-1.5.3.6 1 1.7 1.4 2.2-.2.6-.4 1.8-.5 2.5zM160.5 240.1c1.5-.6 2.2 1.2 3.2 1.9-2.3 4.5-5.5 8.4-8.3 12.6 2.8 2 7.5 1.6 8.6 5.3l-2.4 2c-3.9-1.3-8.3-2.4-11-5.6-1.5-1.5.3-3.2 1.1-4.5 3-3.8 5.1-8.4 8.8-11.7zM338.7 240.7c1.4-1.7 3.4.1 5.1.4 2.8 5 4.2 12.3.1 16.9-.4-.1-1.3-.5-1.7-.6.2.3.6 1 .9 1.3-2.8.8-5.8 2-8.7 1.2-4.1-3.7-7.3-9.3-6.6-15-.1-2.4 4.5-3.1 4.5-.5 0 4.4 1.3 9.1 5.1 11.6 1.4-.8 2.9-1.6 4.4-2.4.2-2.8 0-5.6-.9-8.2-2.5.2-4.7-3.2-2.2-4.7zM167.9 249c.8-2 .6-5.3 3.1-6 3 .9 5.8 2.5 9.1 2.1 0 1.3 0 2.6.1 3.9-2.6 0-5.1.1-7.7.1-.1.7-.2 2.2-.2 2.9h6.9c1.3 1.6.8 3.5-.1 5.2-2.8-.1-5.4-.6-8.1-1.3-.2 1.3-.4 2.7-.6 4 2.6.1 5.1.1 7.7.1 1.6 1.5 1.8 3.6.1 5.1-4.5.3-8.8-1-12.9-2.4-.5-4.7 1.7-9.1 2.6-13.7zM194.5 245c0-2.6 4.7-2.7 4.6 0 .7 5.9 1.1 11.9 1.1 17.8-.6.4-1.8 1.1-2.4 1.5-3.5-3.4-6.4-7.3-9.6-11-.3 3.8.5 7.7-.3 11.4-1.5.6-4.1.7-3.9-1.5-.3-6.1-.6-12.1-.6-18.2 1.4-.4 2.9-.4 4.3 0 2.2 3.2 4.9 6.1 7.4 9.1-.1-3-.6-6.1-.6-9.1zM295.3 242.8c-1.6-1.7-3.4-4.3-6-3.8-2.4 2.3-4.1 5.3-6.2 8-1.9 2.3-2.6 6-.4 8.3 2.5 3.8 7.6 2.8 11.5 2.8 5.3-3.2 5.2-11.2 1.1-15.3zm-3.8 11.1c-2.4.8-4.3-1-6.1-2.3 1.7-2.3 3.4-4.6 4.9-6.9 3.1 1.6 5 7.4 1.2 9.2zM305.9 245.1c2-.1 4-.6 5.9.3.3 1.8-.6 4.1-2.8 4 .5 3.2 1.1 6.5 2.1 9.6 1.8 0 3.7.1 5.5-.3 1.6-3.5 2.7-8.4-1.1-10.9-.5-3 2.6-3.1 4.7-3 3.9 3.8 3 9.5 1.5 14.2-.5 1.6-1.7 2.7-2.8 3.9-3.1 1.2-6.4 1.2-9.7 1.1-.5-.3-1.4-.9-1.9-1.3-1.5-5.6-4-11.9-1.4-17.6z"/><path class="st1" d="M354.5 287.7c.9 2.5 1.8 4.9 3.1 7.1-.9.5-1.8.9-2.7 1.4-1.2-2.7-1.9-5.7-.4-8.5z"/><path class="st0" d="M372.4 315.4c2.5-1.9 5.7-2.9 8.8-3.4.6.5 1.7 1.5 2.3 2-2.6 2.6-6.7 2.2-9.3 4.8-1.1-.8-2.7-1.8-1.8-3.4z"/><path class="st0" d="M408.9 340c.3.5 1 1.6 1.3 2.1.7-.1 2.2-.2 2.9-.3.1-2-.1-4.5-2.3-5.4-2.5-.7-5.1-.3-7.6-.5-.1-.7-.2-2.2-.2-2.9 2.6 0 5.1.1 7.7-.1 2.5-1.4 2.1-4.6 1.8-7-.8.1-2.5.2-3.4.2-.2 1.2-.4 2.5-.5 3.8-2-.5-4.1-.8-6.1-1.3-.3-2.4 3.8-1.9 5.4-2.7 2.5-2.3 3.1-5.6 2.9-8.8-1.2-.1-2.5-.1-3.7-.2.4 3.4-2 6.9-5.8 6.3-.3-1-.6-1.9-.9-2.9 2.4-3 7.7-4.7 6.6-9.5.1-2.2-2.4-2-3.8-1.4.2-2.4 1.6-6-1.1-7.5-3.1.3-1.8 4.2-2.7 6.2-1.3 1.6-3.3 4-5.1 1.7 1.7-2.2 3.5-4.3 5-6.7-.4-2.1.2-5-2-6.3-3.5-1-2 3.2-2.4 5.2-.7 1.8-2.2 3.2-3.4 4.7-.2-.4-.6-1.2-.9-1.5 1.1-2.1 2.3-4.1 3.2-6.3.5-1.9-1-3.6-1.8-5.2l-3.3.9c.4 1.4.8 2.8 1.2 4.1-1 1.5-2 2.9-3 4.3-.6-1.7-1.3-3.4-1.6-5.2.8-1.6 2.2-2.6 3.2-4 .2-2.2-1.7-2-3.3-2.1-2.6 2-4.1 4.9-3.7 8.3-.5-2.2-1.2-4.3-2-6.4 1-.8 2-1.6 3.1-2.4v-2.1c-.5-.2-1.5-.5-2.1-.7 0-.8 0-2.5-.1-3.3-.1 1.1-.1 2.2-.1 3.3-4.1.7-5.4 5.2-4.1 8.7-2.7-.7-2.3-4.1-2.9-6.3-.2-2.4 3.6-1.8 3.6-4-.1-1.9-2.1-2.1-3.6-2.2-4.2 2-4.8 7.1-2.6 10.9-.9-.4-1.9-.7-2.8-1-.8-1.6-1.8-3.1-2.2-4.8.6-2 1.8-3.7 2.4-5.7-.5-.2-1.7-.6-2.2-.8-.5.2-1.4.5-1.8.7-1 1.9-2.7 3.7-2.4 6 0 1.9 1.3 3.5 2 5.3-2.7-1-3.4-4.2-4.8-6.5.7-1.2 1.5-2.5 2.1-3.8-.6-.9-1.2-1.8-1.8-2.6-1.2 1-2.4 2-3.6 3.1-.6-1.5-2.8-2.3-3.6-.5-2.7 3.5-3.2 8.5-.5 12.1-2.8 0-4.2-2.8-4.7-5.2.3-1.6 1.2-2.9 1.7-4.4-.7-.7-1.5-1.3-2.4-1.7-1.9 1.2-2.6 3.4-3.8 5.2.9 2.8 1.9 5.6 3.9 7.9-2.3 2-3-1.5-4-2.9-.3-2.4.6-4.9-.9-7l-2.4 1.2c-2 4-.7 8.5 2.4 11.6-1.1.6-2.3 1.6-3.3.2-2.5-1.7-2.8-5-.9-7.3-.7-.7-1.3-1.4-2-2-2.2 1.2-4.1 3.7-3.5 6.3.7 2.7 2.9 4.5 4.3 6.9-4 .1-5.1-5.1-4.7-8.3-1-.3-2.1-.5-3.1-.6-1.9 4.6.5 9.8 4.6 12.2-.7 3.2-3.5.5-4.7-.9-2.4-1.6-1.1-6.8-4.9-6.2-1.7 3.3-.1 7.2 2.7 9.4 1 1.4 3.9 2.4 2.6 4.4-1-.3-1.9-.7-2.8-1-1.3-.8-2.7-1.6-3.9-2.5-.2-1.1-.3-2.2-.4-3.3H318c-.4 2.6-.1 5.5 1.9 7.3 2.2 1.5 4.8 2.3 7.3 3.4-2.6.2-5.7 1-7.9-.7-1.8-1-2.1-3.3-2.5-5.1-1.6-.1-3 .3-4.1 1.5 1 2 1.6 4.3 3.4 5.8 2.5 2.5 6.3 2.4 9.5 3-3.7 3.2-9.4 2-12-2 .2.3.5 1 .6 1.3-2.2-.2-2.8 2.8-1 3.6 3.1 3 7.6 3.1 11.5 1.7-.9 2.5-3.7 3.3-5.7 4.7-2.5 1.4-5-1.6-7.7-.5-.1 1.3-.7 3.1 1 3.7 3.6 2.7 8.5 1.1 11.3-2.1.8 3.7-2.9 5.5-5.8 6.6-.5-.7-1.4-2-1.9-2.6-1.2.7-3.3 1.5-2.5 3.3 1 1.1 2.1 2.1 3.2 3.1 3 .5 5.5-.8 7.6-2.9.2.8.5 1.5.8 2.3-2 1-4 2.1-5.8 3.5-.5 0-1.6-.1-2.2-.1-1-.7-2.2-1-3.5-.9 0 1.2 0 2.4.1 3.6 4.2 3.1 9.4.8 12.6-2.5.3 1.1.6 2.2 1 3.3-1.7 1.5-3 3.4-4.5 5.1-1.5-.2-3-.5-4.5-.8-.8 1.7 0 3.1 1.2 4.3 1.8-.1 3.5-.1 5.3-.1 1.4-1.7 2.9-3.4 4.3-5.1.8 1.2 1.6 2.5 2.5 3.7-1.4 1.8-2.8 3.6-4.3 5.4-2-1.2-4.8-1.6-5.7 1.2 2.1 1.6 4.8 4 7.6 2.4 2-1.5 3.1-3.8 4.5-5.8.5.4 1.5 1 2 1.4-.7 1.8-1.5 3.5-2.3 5.2-1-.2-2-.3-3-.5-.3.6-1 1.7-1.4 2.3 1.3 1.1 2.5 2.5 4.2 2.8 2.5-.8 3.6-3.3 5.2-5.2 0 2.1.2 4.2.1 6.3-1 1.2-3.7 1.6-3 3.6 1.1 2.4 4.1 1.2 5.6-.2 2.1-2.3 1.2-5.6 1.4-8.5.5.1 1.6.4 2.1.5.1 2.6.5 5.1 1 7.7-1.4 1.7-3 3.4-3.4 5.6.8.1 2.3.2 3.1.2 1.7-1.3 3.7-2.5 3.9-4.9-2-.2-1-1.6-.1-2.4-.1-1-.3-3-.5-4.1.5.2 1.6.7 2.2.9.5 2.9.4 6-.4 8.8-.5.4-1.6 1.1-2.1 1.5-.5 1.9 1.9 4.3 3.4 2.4 3.3-2.3 3.2-6.7 3.1-10.2 0-1.7 2.4-.8 3.5-1.1.1 2 .1 4.1.1 6.1-1.3 1.6-4.5 4.3-1.5 5.9 2.6.3 3.7-3 5.3-4.5.1-2.2.1-4.3 0-6.5h3.4c1 1.1 3 2.2 1.9 3.9-1.1 1.3-2.4 2.5-3.5 3.8 1.2.8 2.6 1.3 4.1 1.4 1.3-1.5 2.9-2.8 3.7-4.6 1-2-1-3.8-1.7-5.5h2.9c1.1 1.3 2.7 2.2 3.3 3.8-.4 1.1-1 2.2-1.6 3.2.2.6.6 1.7.8 2.2 1.3-.3 2.7-.8 4-1.3.1-1.7.2-3.4.4-5.1-1.1-1.7-2.2-3.3-3.3-4.9 3.7-.7 4.8 3.1 6.7 5.4-1.9 1-2.4 4.4.2 5 1.8-.9 3.5-2.5 4-4.5-.7-3.4-3.7-5.6-4.4-9 2.3.7 4.8.9 6.8 2.5-1.1 1.8-.8 3.7.6 5.2 1.5-1.1 3.8-2.2 3.2-4.5.8-3.3-2.9-4.7-5-6.1.9-.8 1.8-1.7 2.7-2.5 1.6.7 3.3 1.4 4.9 2.1-.2 2-.5 4.1.8 5.8.7-.2 2-.5 2.7-.7.2-3.1 1-7.7-2.8-9-.7-.3-2.2-.8-2.9-1 .7-.9 1.4-1.8 2.2-2.6 1.7.4 3.4.9 5.2 1.2.6 1.6 1.1 3.3 1.9 4.8 1.6.5 2.5-.8 3.4-1.8-.7-2.8-1.7-5.7-4.4-7.2h-3.9l1.2-3c1.8.6 3.6 1 5.4 1.6 1.5 1.2 1.6 3.5 3.3 4.5 2.1.8 3.2-1 2.4-2.8-.5-4.4-5.4-6.7-9.4-6.3 0-.7.1-2.1.2-2.8h6.8c.5 1.9 1.2 3.7 2.3 5.3.8-.7 1.6-1.3 2.4-2-.5-2.2-1-4.5-2.3-6.4-2.7 0-5.3.1-8 .1.1-.8.3-2.2.4-3 1.7.1 3.7.1 5.8.1zm-20.4 11.4c-3 4.3-7.3 7.7-11.8 10.3-7.2 3.2-15.4 3.8-23 1.6-11.7-3.6-20.8-15-21.2-27.3-.5-10 4.9-19.8 13.1-25.3 4.8-4.1 11.3-4.9 17.4-5.7 6.8.5 14 2.1 19.3 6.8 3 2.6 5.5 5.7 7.6 9-5.6-3.7-16.1-2.4-17.6 5.2.3.7.9 2 1.2 2.7 2.1.9 4.1 1.9 6.4 2.2 2.6-.6 5.3-1 7.6-2.3 2.2-1.5 3.1-4 3-6.6 4.3 9.4 3.8 20.8-2 29.4zm-4.3-25.5c-1.4 1-3.2 1.7-4.8.9-1.5-2 1.9-2.6 3.3-2.9.3.4 1.1 1.5 1.5 2zm13.6-9.7c.4-2.9 3.4-3.9 5.5-5.6 0 3.2-3.2 4.4-5.5 5.6z"/><path class="st0" d="M384.1 334.1c-4.2 3.2-9.5 1.7-14.1.7-2.3-.7-3 1.7-3.9 3.2-1.3-.1-4.1.2-2.8-2 2.1-5-.9-10.4-3.9-14.4h1.5c-1.1-.3-2.2-.8-3.1-1.5-4.7-3.4-10.7-5.8-16.6-5.1-.8 1.6.5 2.7 1.5 3.8 1.5 0 3 .1 4.5.5-2.2.6-4.9.5-6.4 2.6-1.1 1.4-.5 3.2-.7 4.8 1.6 1.5 3.2 2.9 5.1 4.1 1.4.2 2.7.5 4 1.1 3.7.7 7-1.1 10-2.7.2.6.5 1.9.7 2.5-3 1.2-5.5 3.1-8.1 5-3.7 2.6-8.2.8-12.2 0 .4 1.6 1 3.2 2.7 3.8 4.8 1.6 10.5.7 13.9-3.1 1.8 3 5.6 3.3 8.6 4.5 1.8-.8 2.8-2.7 3.9-4.2 5.2 1 11.1 2.6 15.8-.8.4.5 1.1 1.5 1.4 2h3.3c-.2-2.7-2.6-4.2-5.1-4.8zm-38.3-8.7c1.8-.3 3.7-.4 5.5-.5 1 .5 2 1.1 3 1.6-1.9 3-6.9 1.7-8.5-1.1zM367.5 344.9c1.5-1.8 3.7-2.7 6-2.9.6.4 1.7 1.1 2.3 1.4.5.9 1 1.8 1.4 2.8-.9 2.1-2.5 3.9-4.9 4.1-3.6 1.1-3.4 6.3-7.2 6.8-2.5-.8-3.3-3.5-5.1-5.2-3-1.3-6.3-2.2-8.5-4.8-1.4-1.7.3-4.6 2.5-4.1 2.3 1 4.3 2.7 6.9 2.8 2.3-.4 4.4-.8 6.6-.9zM154.2 346.7c1.1-.7 2.3-1.3 3.5-2 .8 1.5 1.6 3.2 3.3 3.9-1.2.9-2.4 1.8-3.7 2.7-1-1.5-2.2-3-3.1-4.6zM153.9 359.1c.1-1.6 2.1-2.1 3.1-3.2 1.1 1.2 2.2 2.5 3.4 3.7-1.2 1-2.3 2-3.5 3-1.1-1.2-2.1-2.3-3-3.5z"/><path class="st0" d="M427.4 355c-5.8-41.4-19.8-82.4-44.8-116.3-9 11.8-19.1 23.3-32.3 30.6-6.2 2.9-12.5 5.7-19.3 6.7-4.7-.2-9.4 1.6-14.1.7-4.3-.7-8.6-.6-12.9-.7-7-1.7-13.9-3.7-20.5-6.6-13.6-6.7-24.4-17.8-33.9-29.3-12.6 14.5-27.8 27.4-46.1 33.8-7.6 2.5-15.6 3.6-23.6 3.3-4.4.3-8.7-1.2-13.1-1.2-14.5-2.9-29-9.4-38.3-21.3-6.3-7.2-9.2-16.5-13.1-25-16.5 24.5-29.6 51.3-38 79.6-.7 3.8-3 7-3.7 10.7-2.1 8.5-4.1 17-5.4 25.7.4 6-2.3 11.6-2.4 17.6-1.3 8.9-1.1 17.9-1.3 26.9.6 9.3-.8 18.8.9 28 1.6 4.5.5 9.4 2.1 13.9.3 6.9 2.9 13.3 3.8 20 2 5.4 2.7 11.4 5 16.8.7 2.7 1.8 5.2 2.7 7.7.7 2.2 1.7 4.2 2.1 6.5 3.7 8.2 7.5 16.4 11.1 24.7 3.3 4.3 4.9 9.5 8 14 1.9 2.8 3.6 5.9 5.3 8.9 1.5 1.9 2.8 4.1 4 6.2 2.9 2.9 5 6.5 7.3 9.8 1.3 1.6 2.7 3.1 3.9 4.9 1.4 2.8 3.8 4.7 5.6 7.2 5.5 7.1 11.9 13.4 18.2 19.9 14.9 14.4 31 27.5 48.7 38.3 4.8 2.5 9.2 5.6 14 8 6.7 4.2 14 7.4 21.1 10.7 7.6 3.6 15.4 6.8 23.3 9.6 25.9-12.3 51.1-26.4 73.5-44.4 6.3-4 11.2-9.6 16.9-14.2 8.5-7.8 16.6-16 23.9-24.9 4.5-6.1 9.8-11.6 13.8-18 1.8-1.7 2.7-4 4-6.1 1.6-1.4 2.6-3.3 3.4-5.2l.8-.2c1-2.2 2.1-4.3 3.2-6.5 2-2.3 3.5-5.1 4.7-7.9 2-2.8 3.5-5.8 4.7-9 1.8-2.5 2.5-5.5 4-8.1 2.6-5.6 4.9-11.5 7.2-17.2.9-2.2 1.2-4.6 2.7-6.4v-2c1.6-1.7 1.2-4.2 2-6.2.7-1.6 1.3-3.3 1.6-5.1.9-3.7 2.1-7.2 3.1-10.9 1.4-2.8.6-6.2 2.2-9 1-1.6.6-3.6.6-5.4 2.7-4.3 1-9.6 2.3-14.3 2.3-6.2.8-12.9 2-19.2.5-1.5.7-3.1.8-4.7.8-15.5.2-30.5-1.7-45.4zm-212.8-79.3c13.2-6.4 25.2-15.2 34.4-26.7 7.3 8.4 15.8 16 25.6 21.3 8.5 4.9 17.8 8.8 27.6 10.1-3.6.5-7 1.7-10.4 3-6.6-.7-13.3-.1-19.9-.5-2.5-.8-4.9-1.8-7.4-2.7-2.5 1.2-5.2 2.8-5.5 5.8-.8 3 5.5 2.7 3.7 5.9-2.1 3.5-6.4 3.7-9.7 1.9.1-7.9-.3-15.9.2-23.8 1.5-3.1 3.2-6.7 1.8-10.1-.6-2.7-2.9-4.5-5.2-5.9-.7 0-2.1-.1-2.8-.1-4.4 2.3-6.9 7.1-6.1 12 1.1 1.5 2.4 3.1 2.2 5.1.2 8 .4 15.9.2 23.9-1.3 0-2.6.1-3.9.1-1.7-1.4-3.1-3.1-4-5.1 1.5-1.1 3.1-2.1 4.5-3.4.3-3.2-2.5-5.2-4.6-7.1-3.1 1.3-5.8 3.6-9.1 4.5-6 .2-12.1-.1-18.1.1-4.2.3-7.7-2.5-11.9-2.6 6.3-.9 12.3-3.6 18.4-5.7zm-25.6 7.2c2-.6 3.9-1.1 6-.7-1.8.6-3.6 1.1-5.1 2.4 3 1.2 5.7 3.1 8.1 5.4 1.2 0 2.3.1 3.5.1 2.4 4.2 9.1 1.1 10.9 5.8 3.1.1 6.3.1 9.5.1.2 3.6 4.1 2.4 5.8 4.7 1.7.7 4.6-.5 4.6 2.3 3.8.3 8-.8 11.5 1.2.4 2.2.3 4.5.3 6.8-.4 11.1.2 22.2.3 33.2-7.6-6.8-15.1-13.7-23.5-19.5-1.3.1-1.9 1.5-2.7 2.4-4.7 6.8-7.5 15.7-5 23.9.6 5.6 2.6 11.1 6.2 15.5 6.9 8.6 16.7 14.1 25.8 20.1.1-10.5-1-21-.4-31.4.5-3.5 0-7-.5-10.5 3.5 1.9 5.8 5.3 9.1 7.4-1.1 10.6.1 21.3-.2 31.9 6.5-3.8 13-7.8 18.6-13 3.6 3.3 6.9 7 10.5 10.2 3.5-3.2 6.7-6.6 9.6-10.3 7.7 6.7 14.9 13.8 21.9 21.2 7.9 8.2 14.2 17.8 21.4 26.7 1.3 1.4 2.1 3.2 2.9 5 1.9 4.1 5.3 7.4 7.5 11.4 1.8 3.6 4.5 6.7 5.6 10.7 4.8 8.9 6.2 19.4 4.3 29.3-.4 2-1.6 3.6-2.2 5.5-6.7 11.6-18.7 18.1-29 26-3.9 2.9-7.7 6-12.5 7.4-.4-.3-1.3-.8-1.7-1.1 9.5-7.4 19.4-14.6 27.6-23.4 2.4-2.1 4.8-4.3 6.8-7 3.1-3 5.7-6.4 8.6-9.6-3.5-5-6.6-10.2-10-15.4-4.8-6.8-9.3-13.9-14.4-20.6-3.7-5.9-9.1-10.4-12.5-16.4-4.5-5.2-9-10.3-13.3-15.6-5.5-8.1-12.9-14.6-19.3-22-.7-1-2.4-1.8-3.4-.8-8 6.5-17.5 10.9-26.6 15.7-.8 6.6-.8 13.3-.2 20 .6 4.1-.6 8.2.1 12.3.6 7.5-.2 15 .5 22.4 4.3-2.7 7.5-6.6 11.1-10.1 1.6-3.5 3.7-6.8 4.4-10.6 0-4.2-.8-8.3-1.7-12.4-3.5-5-7.2-9.9-12.8-12.7-.1-2.2-.1-4.4-.2-6.5 1.9-1 3.7-2 5.5-3.1 3.2 2.4 6.9 4.3 9.3 7.5 4.6 4.3 8 9.8 10.7 15.5.5 6 1.7 12.4-1.2 18-.7 4.2-3.9 7.1-5.8 10.8-6.5 8.6-14.8 15.6-23.2 22.4-4.3 4.7-9.8 8.3-14.4 12.7-2.1 2.1-4.7 3.6-7.1 5.3-.1-2.1.2-4.1.6-6.2 3.9-9 9.8-17 17.2-23.5.5-6.3-.4-12.5-.1-18.8-.6-3.5.5-6.9-.2-10.4-.9-4.2.2-8.4-.4-12.6-.5-5.5-.8-11-.4-16.5-5.5 3-11.7 5.5-15.6 10.6-3.3 3.3-4.4 7.8-5.8 12-1.8 4.7.5 9.5 1.5 14 5 8.2 12.2 14.8 19.6 20.8-2.4 2.7-5.5 4.8-7.5 7.9-7.4-6.6-15-13.2-20.3-21.7-.7-2.7-2.2-5.1-3-7.8-.7-5.2-2.2-10.8.4-15.7 1.3-7.9 5.9-14.9 11.9-20 5.4-5.1 11.8-9 18-13 .3-.5.8-1.4 1-1.8-4.4 1.1-7.9 4-11.5 6.4-12.3-6.7-24.4-15.6-30.6-28.6-3-5.7-3-12.2-4-18.4.4-10.6 3.2-21.5 9.7-30.1 3.7 2.6 7.3 5.4 10.9 8.2 4.5-4.3 9-8.5 14.2-12-.3-.5-1-1.5-1.4-2.1-4.8-1.7-9.9-1-14.9-1.1-4 0-6 4.1-8.6 6.6-15.4-11.8-31.1-23.3-46.8-34.5 8.7 2.4 17.6 2.1 26.5 1.8zm63.7 56.3c9.8 6.8 19.4 13.8 28.2 21.8-2.4 3.7-5.5 6.9-8.9 9.6-5.4-4.8-10.2-10.3-15.6-15-4.8-4-3.3-10.8-3.7-16.4zm105.7 142c4.4-4.1 10-6.4 14.5-10.3 4-2.8 8.6-4.4 12.5-7.5 2.4-.8 4.9-1.7 7.1-3 5-2.3 10.3-3.7 15.7-4.5l-.1.8c-4.6 1.2-8.4 4.1-12.6 6-3.7 1.2-6.5 4.3-10.2 5.5-8.3 5.7-16.9 11-25 17-4.9 3.1-9.2 6.8-14 10-1.4 1-2.9 1.8-4.4 2.6 5.6-5.3 10.4-11.6 16.5-16.6zm-103.6 49.4c.1-5-.3-10 0-15 0-1.3.1-2.6 0-3.8 0-1.3-.7-2.8.1-3.9 6.8 2.2 8.5 10.3 6.6 16.4.6-.1 1.7-.3 2.3-.4 1.6-3.4 2.1-7.2 3-10.9-.6-2.7-.9-5.7-3-7.6-2-1.6-4.2-2.9-6.5-4.1 5.9-1.2 12.3-5.4 13.2-11.8.4-1 .4-2 .2-3.1.1-.3.2-1 .3-1.3-.9-3-2-5.9-3-8.8l-1.6-1.6-.9-2.7c11.9-.8 24.5-.9 35.2 5.2 1.2 1.6 2.8 2.8 4.4 4.1 2.6 3.7 4.3 8.1 3.8 12.7-.6 6.2-3.1 12.2-6.3 17.5-6 4.2-12.9 7-18.9 11.2-4.2 2.1-8.5 4.2-12.1 7.2-.5.1-1.6.3-2.1.4-.4.4-1.2 1.1-1.6 1.5-3.9 2.2-8.1 4-12.6 4-.9-1.6-.4-3.5-.5-5.2zm-.5-40.8c0-1.6-.1-3.2 0-4.8 0-2.1 0-4.2-.1-6.3 1.2.9 2.4 1.7 3.5 2.6 1.2 2.1 2.4 4.3 2.6 6.8-1.3 2.6-3 5-5.9 5.7 0-1.4 0-2.7-.1-4zm-.6-14.7c.2-1.3.3-2.6.5-4 1.5-1.1 2.8-3 4.8-3.2 1.3 1.6 2.4 3.3 3.8 4.8-3.1.5-6.2 1.2-9.1 2.4zm43.7 46.3c4-3.1 8.5-5.4 12.5-8.4-1.7 3.5-2.7 7.5-5.5 10.4-2.1 2.2-4.3 4.3-6.9 5.9-2.2.8-4.4 1.6-6.6 2.5-4.1.3-8.2.3-12.2-.1 6.4-3.1 12.4-7 18.7-10.3zm6.1 18.1c.6-1.4 1.3-2.7 2.2-3.9 1.6-2.1 3.7-3.7 5.7-5.3 5-1.6 10.4-2.4 15.4-.1 1.2.9 2.2 2 3.1 3.2.2.5.7 1.6.9 2.1.7 4-.7 7.6-2.7 11-3.1 3.9-7.9 7.1-13.1 6.5-4.3.7-7.6-2.4-10.3-5.2-.6-1.5-1.2-2.9-1.8-4.4l.6-3.9zm-97.8-34.1c-.1-1.9-.1-3.8.1-5.7 0-3.5.1-7.2-2.6-9.8.1-2.3-.2-4.6-.6-6.9.2-1.4.1-2.8-.3-4.1.3-2.1-.1-4.1 0-6.2-.2-.4-.6-1.1-.8-1.4 3.3-6.3 6.8-12.5 9.9-18.9.5-.8.9-1.5 1.4-2.3-.2 11.6-.7 23.2-1.6 34.8-.9 6.9-1.4 13.8-2.6 20.6-.9 3.4-1.1 7-1.8 10.5l-.6-.1c-.2.6-.5 1.8-.6 2.3.4-4.2 0-8.5.1-12.8zm4 9.1c4.5-9.5 10.5-18.6 19-24.8.9 7 8.3 9.9 14.3 11.7-4.2 2.7-9.9 5.8-9.2 11.7-.6 4.2 2.1 7.6 3.2 11.4.9-.8 3-1.4 1.5-2.8-.2-2.4-.1-4.8.8-7.1.8-1.1 1.5-2.2 2.3-3.2.9.1 1.9.2 2.8.2-.7-.5-1.5-.9-2.2-1.4 1.9-1.3 3.9-2.3 6-3.4.2 1.7.4 3.4.5 5.1v2.7c-.3 2.3-.3 4.6-.1 7 0 3.3-.1 6.6.2 9.9 0 1.5-.5 3.5 1 4.5l-3.3-1.2c-1.2-.5-2.5-1-3.7-1.4-5-2.1-10.1-3.7-15.2-5.5-5.2-2.5-10.7-4.1-16.1-5.9-1.5-.7-2.9-1.5-4.4-2.3.8-1.8 1.8-3.4 2.6-5.2zm38.4-19.4c-2.6-1.6-5.1-3.2-7.3-5.3-.2-1.2-.4-2.4-.7-3.6.2-1 .4-2 .6-3.1 2.6-1.5 4.8-3.6 6.6-6 0 4.2.5 8.3.3 12.5.2 1.9.3 3.7.5 5.5zm-24.2-181.3c1-.6 1.9-1.2 2.8-1.7.6.5 1.3 1 2 1.5-.6.4-1.7 1.2-2.3 1.6-.8-.6-1.6-1-2.5-1.4zm-143.1 4c3.2-6.9 4.6-14.5 7.4-21.6 6.9-18.9 15.7-36.9 26.3-54 1.5 2.6 3 5.1 4.3 7.8 5.8 11.6 15.3 20.7 24.2 30 10 10.1 20.7 19.6 28.9 31.3 5.8 9.2 11.7 18.4 16.8 28 1.6 3.1 2.8 6.4 4.9 9.2 2.5 4.9 3.6 10.4 5.9 15.5 4.8 14.3 9.4 28.9 10.2 44.1.4 6 2.7 11.9 1.7 18-.7 3.7-2 7.3-3.9 10.5-1.5 2.6-1.6 5.9-3.8 8.1-.8 2.7-2.1 5.2-3.4 7.7-1.9 3.8-3.8 8-6.8 11.1.1.3.4.8.5 1.1-.8.8-1.6 1.6-2.4 2.5-2.3-1.4-4.7-2.6-7.1-3.6 0 4.5 1 8.9 1.6 13.3-.1.8-.3 2.3-.4 3-2.4-1.7-4.9-3.4-7.5-4.9-.2-6.2-1.1-12.5-1.5-18.7-5.9-2.1-11.4-5.4-17.4-7.4 1 5.5.9 11 1.9 16.5-2.9-1.5-6.2-2.6-8.8-4.5-1.5-2.5-1.2-5.5-1.8-8.3-.6-4.2-1.9-8.2-1.6-12.5-4.5-2.8-9.8-4-14.2-6.9-3.1-5.1-2-11.5-4.9-16.7 4.5-3.4 8.6-7.7 14-9.8 6.3-3 13.5-1.4 20.1-1.4 8.7-1.3 16.3-6.1 23.5-10.8 4.9-3.3 11-4.3 15.6-8-6.3-5-14.8-3.2-22.2-3.5-4.3.3-8.5-.6-12.7-1.4-3.3-1.5-6.3-3.7-9.5-5.4-8.9-2.4-18.4-1.5-27 1.6-3.9.3-8.1.6-11.9-.6-1.3.4-2.7.8-4 1.1 1.7 8.6 4.6 17 6 25.7 1.4 5.2 1.8 10.9 4.3 15.8.6 6.2 3 12 4 18.1 1.3 4 2 8.2 3.3 12.3-2.1-.4-4-1.6-5.9-2.4-3-7.1-2.9-15.1-6.1-22.1-3.7-1.6-7.4-3.2-11-5-4.8-9.8-6.3-20.7-10.3-30.8-3.1-9.2-6.2-18.3-9.3-27.5 1.2-.8 2.3-1.6 3.5-2.4 3.5-.4 6.3 2 9.6 2.9 4.7 1.5 10.5 2.3 14.7-1.1 3.8-3.1 8.7-4.4 13.5-5.4 6.4.4 10.8 5.5 16.3 8.2 2.3 1.3 4.7 2.2 7.1 3.3 5.3 1 11-.9 16 .9 8.1.8 15.8 3.5 23.6 5.5.6-1.4 2.1-2.8 1.1-4.3-5.4-4.9-12.9-6.2-18.9-10 3.1.6 6 2 9 2.9 1.8.4 3.6 1 5.5 1.3.8-1.1 1-2.5 1.2-3.8-3.6-2.8-7.7-4.6-11.7-6.7-1.6-.8-3.2-1.5-4.8-2.4 2.3-.2 4.6.8 6.8 1.4 2.7.9 5.3 2 7.7 3.4 1.8-.3 1.8-2.5 2-4-4.5-4.7-10.6-6.9-16.1-10.1-4.3-1.9-9.1-4-13.9-2.8-5.6 1.5-12-.2-16.2-4.1-3.1-2.7-6.7-4.8-10.5-6.6-6.1-3.4-13.2-2.8-19.9-2.5-1.1.4-2.1.8-3.2 1.1-4.7 1.8-8.1 5.5-11.6 9-4.4-3.2-8.9-6.9-14.5-7.6-3.2-1.3-6.4.4-9.6 1.2 1.2-3.7 2.1-7.8 3.3-11.8zm118.1 169.1c-.5-.1-1.6-.2-2.1-.3-.1-1.2-.3-2.3-.4-3.5 0-3.5-.3-6.9-.2-10.4 1.1 1.2 2 2.5 2.8 3.9-.3.7-.5 1.4-.8 2.2.9 2.5.5 5.4.7 8.1zm-7.1-7.9c.3.6.9 1.7 1.2 2.3-.7.7-1.5 1.5-2.3 2.1-.4-2.8-.8-5.6-.7-8.4.1-1.8-.5-3.4-1-5.1 1 .7 2.2 1.2 3 2-.2 2.4.6 4.8-.2 7.1zm-21-20.8l2.1 1.2c.4 3.9.8 7.9.8 11.8l1.2 2c-1.2-.7-2.4-1.3-3.6-2 .3-4.4-.6-8.7-.5-13zm-3.3 10.8l-2.1-1.2c-.5-3.9-1.1-7.8-1.1-11.7.5 0 1.6-.1 2.2-.1.2 2.8.4 5.6.2 8.4h2c-1.5 1.1-2.1 2.8-1.2 4.6zm-20.4-11.1c-.5-.3-1.6-.8-2.1-1.1-.1-1.1-.3-2.2-.4-3.2-1-3.9-1.8-7.9-1.8-11.9.6.1 1.8.4 2.4.5-.1.7-.3 2-.5 2.7 1.6 4.1 2 8.6 2.4 13zm-6.3-3.5c-.8-.7-2-1.2-2.2-2.5-1.3-4.7-1.7-9.7-3.6-14.2 1.2.8 2.8 1.3 3.5 2.6.6 4.8.8 9.6 2.3 14.1zm-11.1-44.6c-1.9-1.5-1.7-4.4-2.3-6.6-.9-7.2-3.7-14.1-4.5-21.3 6.3 1 12 4.4 17.9 6.7.1 1.5.5 3.2-.5 4.5-3.4 5.7-7.4 11-10.6 16.7zm19.3-21.3c3.9-2.2 8.3-3.8 12.8-3.5 4.6-.1 8.6 2.2 13 3 6 .3 12-.4 18 .2-1.5 1.2-3 2.2-4.5 3.2-4.1 1.6-8.5 2.5-12.3 4.7-4.8 2.8-11.1 2.8-15.8-.2-3.5-2.3-7.6-3.1-11.1-5.3 0-.6 0-1.6-.1-2.1zM122 444h-2c-.1-1.2-.3-2.3-.4-3.4-2.6-3.9-.8-9-3.7-12.8 5.9 1.2 2.9 9 5.9 12.8.1 1.1.2 2.3.2 3.4zm-6.1-3.1c-.9-.4-1.8-.8-2.8-1.2-1-3.1-.9-6.4-2.3-9.4-.9-1.7-1.2-3.6-1.5-5.5 3.1-.2 2.5 3.5 3.6 5.4 1.6 3.4.2 7.7 3 10.7zm-22.6-89.3c3.4-1.2 7.2-.3 10.8-.6 6.6-.5 12.4 3.9 19 3v.7c-3.1 1.2-6.2 2.6-8.3 5.2-3.2 2.1-6.5.2-9.5-1.2-3.4-1.7-7.3.1-10.8-1.4.7-.6 2-1.8 2.6-2.4-1.1-1.2-2.5-2.2-3.8-3.3zm22.8-15.6c-2.8 3.5-6.4 6.8-11.1 7-5.4.5-10.7 2.2-16.2 1.9 1.2-1.3 2.5-2.6 3.7-4-1.3-2.1-3.3-3.6-5.1-5.2-1.3 1.2-2.7 2.4-4.1 3.5 1.6 1.8 3.3 3.6 5 5.3-1.4 1.4-3.5 1.3-5.1 2.5-2.1-.7-2.3-3.3-3.1-5-1.2-2.1-.4-4.5.2-6.7 1.2-.5 2.3-1.2 3.6-1.4 7.2 1.4 13.5 6.6 21.2 6.1 4.7-4.4 9.3-9.6 16.1-10.2-.8 2.8-3.5 4.1-5.1 6.2zm-22.3 14.1l-3.6 2.7c.8 1.5 1.6 3 2.3 4.6.7.3 2 1 2.6 1.3-4.9 1.6-7.5-3.9-9.8-7.2 2.6-2 5.4-2.8 8.5-1.4zm67.7 3.2c-1-.3-2-.7-3-1-2.5-.5-5-1.3-7.6-1.4-3-2.2-6.3-4.3-8.5-7.3-3.1-4.1-7.4-7.1-9.7-11.8 3.7 1 7.1 2.9 10 5.5 5.8 5.1 13.6 7.5 21.3 6.8.5 3.7 3.5 6.2 4.3 9.8-2.2 0-4.7.6-6.8-.6zm3.2 10.7c-3.2 0-6.6.4-9.7-1-5.5-1.6-9.6-5.7-14.4-8.5-2.1-.8-4.5-.4-6.6-1.2.5-.6 1.4-1.7 1.9-2.3 3.5 0 7.1-.1 10.6.1 1.2.7 2.6.9 4 1.2 1.9.9 4 1.6 6.1 2 2.8 2.7 6.9 2.4 10.2 4.1 2.1 1.9-1 4.1-2.1 5.6zm-33.5 190.6c-1.2-1.3-2.2-2.8-3.1-4.2-1.2-1.7-2.8-3.1-4-4.8-2.4-3.9-5.4-7.3-8.1-11-.9-1.3-1.8-2.6-2.6-3.9-1-1.8-2.1-3.6-3.4-5.2v-1c-1.2-1.6-2.3-3.2-3.5-4.8-1.9-2.9-3.1-6.3-5-9.2-3-4.3-4.7-9.3-7.2-13.9-2.3-5.3-5.2-10.4-6.8-16-.8-1.2-1.2-2.7-1.6-4.1-.7-1.3-1-2.8-1.4-4.2-.2-.3-.7-.9-.9-1.2-.3-1.2-.6-2.5-1-3.7-1.3-3.3-1.7-6.9-3.3-10-.2-1.3-.3-2.6-.5-3.9-2.4-4.8-2.1-10.4-4.1-15.3-.3-5.9-2.5-11.4-2.1-17.4-2.5-8.4-1.8-17.2-1.7-25.9-.6-12.4.3-24.8 1.8-37.1.5-3 2-5.9 1.8-9-.2-2.9.3-5.8 1-8.6 1.6 3.7 3.3 7.4 5 11.2 2.6 12.2 7.9 23.6 11.7 35.4 3.6 8.9 6.1 18.2 9.1 27.2 1 3.5 3.5 6.4 3.7 10.1.4 4.1 3.1 7.6 3.1 11.7 0 3.2 2.1 5.8 2 9 1.5 4 2.6 8.2 3.4 12.4 2.4 7.8 4.5 15.7 6.6 23.6.6 3 1.7 6 2.8 8.9 3.4 3.6 8.3 4.8 12.7 6.9 1.4.7 2.7 1.3 4.1 2 4.1.8 7.7 3 11.4 4.9-.4.2-1.1.7-1.5 1 .4.2 1.1.6 1.5.8-.3 3.7 1.8 6.8 2.9 10.2.7 2.7 1.4 5.4 1.9 8.2 4.7 1 8.5 4.3 13 5.7.3 2 .6 4 .8 6.1-.8.9-1.2 2.1-1.4 3.3-3.2 3.9-8.4 4.4-13.1 4.4l1 .9c-.1.8-.1 1.6-.2 2.5 1.2 5.3.1 10.8 1.5 16l-.5 1c.3 2.1.6 4.2.9 6.2-4.3.4-8.8.6-12.5-2-6.5-2.5-9.8-8.6-14.2-13.2zm279.4-91.2c-.4 3.3-2.3 6.1-2.6 9.5-.7 2-1.1 4.1-2.2 5.9-.7 2.1-1.4 4.1-2.1 6.2-3.5 7.8-6.5 15.9-10.5 23.5-1.2 2.7-2.6 5.4-4.2 8-1.4 2.3-2.5 4.7-3.9 7-2.5 3.5-4.1 7.6-6.8 11-.6 1.1-1.4 2.1-2.2 3-1.4 2.5-2.9 5-4.9 7.1-.3.6-1 1.9-1.3 2.5-.8-.9-1.5-1.8-2.3-2.7-4.3-1.3-6.3-7.1-11.3-6.5-1.7 1.2-3.4 2.4-4.9 3.8-2.6 1.3-5.6 1.3-8.5 1.3 0 .8.1 2.3.1 3.1 2.6 1.2 5.4.9 8.2.9 1.7-1.4 3.6-2.5 5.2-4.1 4.5.7 6.5 6.2 11.5 6.3l-.1-1.7 1.4.2c-8 9.5-15.7 19.3-24.7 27.9-8.9 8.5-18.2 16.6-28 24-3 1.5-5.5 3.8-8 6-2.5 1-4.5 2.9-6.8 4.4-12.6 8.3-25.7 15.7-39.1 22.5-4.1 2.1-8.2 4.7-12.9 5.5 2-6.8 6.3-12.5 10.9-17.7 4.9-7 12.8-11.2 20.6-14 6.7-2 13.6-3.5 20-6.3.5-.1 1.6-.2 2.1-.3 6.3-3 12.9-6.9 15.6-13.7l.6-.3c.2-2.6.7-5.1 1.1-7.7-.8-.8-1.6-1.5-2.4-2.2 0 3.3-1.3 6.4-2.2 9.6-2.5 3.1-5.1 6.2-8.7 8.1-6.2 2.9-12.8 4.6-19.6 5.3-8.1.8-15.9 3.6-22.6 8.2-6.5 4.9-11.4 11.5-16 18.1-2.2 3-3.7 6.5-4.8 10.1-5.5-1.9-10.6-4.8-16.1-6.7l-2.7-1.5c-3.1-1.5-6.1-3.4-9.3-4.6-7.6-4.3-15.3-8.3-22.8-12.9 3.1-3.4 6-7.2 10.6-8.5 2.8-1.5 6.1-.8 8.9-2.2 4.9.3 9.9.7 14.4 2.7 2.8.4 5.6 1.4 8.5 1.3 4.7 0 9.2-1.8 13.6-3.3 4-1.8 7.2-4.9 10.7-7.5 2-1 4-2 6.1-3 4.6-2 9.8-1 14.7-1.2 6.5 1.2 13.1 2.9 19.7 1.6 2-.7 3.9-1.4 6-1.9.4-.4 1.3-1.1 1.7-1.4 2.7-.7 4.3-3.1 6.4-4.7-.9-.6-1.6-1.5-2.7-1.7-3.4 2.4-7.1 4.5-11.1 5.9-3.4.3-6.7.2-10.1.1-6.9-1.5-14-4.1-21-2.3-4 .6-7.7 2.2-11.3 4-4.2 3.5-8.8 6.4-14 8.3-3.5.1-7.1.2-10.7 0-4.7-1-9.1-3.2-13.8-3.9-5.3.3-10.9-1-16 1.2-6.8 2.1-12.6 6.5-17.9 11.1-2-.5-3.4-2.1-5.1-3.3-6.5-5.3-13.5-9.9-19.5-15.8-2.3-1.9-4.7-3.8-6.9-5.8-1.3-1.6-2.8-2.9-4.4-4.1 1.5-.3 3-.4 4.3-1.2 9.7-.3 19-3.3 28.3-6.1 5.1-.1 10.3-.7 15.2 1 8.3 3.3 15.1 9.4 23.4 12.6 4.4 1.4 9 1.5 13.6 1.2 7.2-.9 12.9-5.9 19.3-8.7 1.1-.5 2.2-1 3.4-1.5 8.7-4.4 19.1-3.4 27.7.8 8 4.3 18.2 7.8 27 3.8 6.8-2.6 11.8-8.5 15.1-14.8 1.7-4.2 3.8-8.2 6.1-12 .7-1 1.1-2.2 1.4-3.4l.9-.2c.3-1.2.5-2.5.8-3.7.6-.5 1.2-1 1.8-1.6-.1-.3-.3-1-.3-1.4.4-1 .8-2 1.3-2.9.2-.4.7-1.2 1-1.7 2.2-6.8 3.7-13.8 7.1-20.1 9.5-18.7 26.1-32.6 43.6-43.5 4.7-3.7 10.5-5.4 15.4-8.8 1.7-.6 3.4-1.1 5.2-1.2-.4.7-.9 1.4-1.2 1.7zm11.6-72.4c-.2 4.6.1 9.3-1.2 13.8-1.5 6.5 0 13.4-2.3 19.8-1.1 4.1.1 8.6-1.7 12.5-1.1 2.4 0 5.4-1.9 7.5-.4 3.7-1.1 7.2-2.2 10.8-7-6.1-13.7-12.5-20.8-18.4-6.1-6-13.9-10.1-19.9-16.2-8.6-6.4-17.5-12.4-25.7-19.2-17.5-12.8-35.6-24.6-53.4-36.9 1.9-4.4 3.5-9 4.2-13.8.5-13.6-3.5-27.4-11.9-38.3-1.7-2.3-4.4-4.1-7.4-3.7-4.5.4-9.5-1.1-13.7 1.5-1.3.6-1.1 2.3.1 2.9 8.3 6.3 16.7 14.1 19 24.7.8 6 1.5 12.3-.6 18.1-7.9-5.8-16.2-11-24.1-16.9-1.9-1.5-4.4-2.3-5.8-4.3-.5-10.2.4-20.4.3-30.6 4.4-1.2 9-1.4 13.6-1.3 0-.5.1-1.4.2-1.9 1.9-.3 4.9.8 5.4-1.9 2 0 4.4-.4 4.3-3 2.9-.2 5.9-.1 8.8-.2 1.5-4.5 7.3-1.8 9.9-4.9.8-1 2.2-.8 3.3-1.1 2.7-2.4 5.2-5.2 8.8-6.3-1.4-1.3-3.2-1.6-4.9-2.4 2.9-.3 5.5 1.2 8.4.9 6-.3 12 .6 17.9-.8 12.1-1.8 23.6-6.7 33.7-13.5 7.5-5.2 13.6-12.1 19-19.5.2.1.7.2.9.2 16 25.4 28.2 53.4 34.3 82.8 4.4 19.4 5.7 39.6 5.4 59.6zm-149.1-77.6c-.4.4-1.1 1.3-1.4 1.8-1.1-.5-2.2-1.1-3.3-1.6.5-.3 1.6-1 2.1-1.4.9.4 1.7.8 2.6 1.2z"/><path class="st0" d="M138.2 532.3c2-.5 3.8-1.5 5.7-2.2 1.5.2 3 .6 4.5.8 2.4 2.8 5.6 4.6 8.1 7.3-.4.5-1.1 1.5-1.4 1.9h-3c-1.8-1.9-4.1-3.2-6.4-4.5-.7 1.3-2 .7-3.1.5-2.5.2-4.4 1.9-6.5 3.1-2.2 1.6-5.1.7-7.5.8-1.2-1-2.4-1.9-3.5-2.9.4-1.2 1.6-1.8 2.4-2.7 1.5.6 3 1.2 4.6 1.7 1.8-.1 3.1-1.7 4.7-2.4.2-.4 1-1.1 1.4-1.4zM127.1 542.6c3.8.7 5.1 4.7 7.9 6.8.5-1.5 1.4-2.7 2.2-4 .6-.9 1.3-1.8 1.9-2.7 1.1.4 2.1.9 3 1.5-.4.7-1.2 2-1.6 2.7-.3.1-.8.2-1.1.2-.6 2.4-2 4.4-3 6.5-.7.4-1.5.7-2.2 1.1-2-3.3-4-6.6-7.1-9v-3.1zM152.5 544.2c-.8-.8-1.4-1.8-2.4-2.2-1.3.4-2.7.9-4 1.3-.4.7-.9 1.5-1.3 2.2-.2.8-.3 1.6-.5 2.3.2.2.6.6.9.8-.6.5-1.7 1.6-2.3 2.2-.4-.7-.8-1.3-1.2-2 0 1.3-.1 2.6 0 3.9 1.1 1.3 2.5 2.4 4.2 3 .8-.2 2.3-.7 3.1-.9 1.5-1.5 2.3-3.5 2.6-5.6-1.6-1-3.2-2-3.7-3.9 1.3 1 2.7 1.8 4.3 2 0-1.1.2-2.1.3-3.1zm-6.8 8.6c-.1-1.1-.3-2.4.3-3.4 3-.7 2.3 4.3-.3 3.4zM358.3 549.8c1.4.4 2.7.9 4 1.5-1.4 3.2-4.3 5.3-7.5 6.6-3.1.9-6-.9-8.5-2.6-2.2 1.1-4.5 2-6.8 2.8-.9-.6-1.7-1.3-2.6-2l.9-3c2.4.2 4.5-.8 6.4-2.1h4.8c.7.7 1.4 1.3 2.1 2 3 .6 5.6-.7 7.2-3.2zM332.1 561h3c.4.3 1.2 1 1.6 1.4-1.2 2.2-2.8 4.1-4.6 5.8.2.8.5 1.7.8 2.6.7.2 2.1.6 2.7.7 1.4-.3 2.9-.5 4.3-.7.7 1.1 1.4 2.1 2.1 3.3-3.6 3-9.1 2.7-12.6-.3-2.3-1-1.8-3.7-1.8-5.7.8-2.7 2.6-5 4.5-7.1z"/></svg>