<?xml version="1.0" encoding="UTF-8" standalone="no"?>
<svg
   xmlns:dc="http://purl.org/dc/elements/1.1/"
   xmlns:cc="http://creativecommons.org/ns#"
   xmlns:rdf="http://www.w3.org/1999/02/22-rdf-syntax-ns#"
   xmlns:svg="http://www.w3.org/2000/svg"
   xmlns="http://www.w3.org/2000/svg"
   xmlns:sodipodi="http://sodipodi.sourceforge.net/DTD/sodipodi-0.dtd"
   xmlns:inkscape="http://www.inkscape.org/namespaces/inkscape"
   width="120.80921"
   height="103.93961"
   viewBox="0 0 120.80921 103.93961"
   version="1.1"
   id="svg58"
   sodipodi:docname="capitant.svg"
   inkscape:version="0.92.1 r15371">
  <metadata
     id="metadata62">
    <rdf:RDF>
      <cc:Work
         rdf:about="">
        <dc:format>image/svg+xml</dc:format>
        <dc:type
           rdf:resource="http://purl.org/dc/dcmitype/StillImage" />
        <dc:title>logo Grey</dc:title>
      </cc:Work>
    </rdf:RDF>
  </metadata>
  <sodipodi:namedview
     pagecolor="#ffffff"
     bordercolor="#666666"
     borderopacity="1"
     objecttolerance="10"
     gridtolerance="10"
     guidetolerance="10"
     inkscape:pageopacity="0"
     inkscape:pageshadow="2"
     inkscape:window-width="1920"
     inkscape:window-height="1017"
     id="namedview60"
     showgrid="false"
     inkscape:pagecheckerboard="true"
     fit-margin-top="0"
     fit-margin-left="0"
     fit-margin-right="0"
     fit-margin-bottom="0"
     inkscape:zoom="6.3684082"
     inkscape:cx="53.309875"
     inkscape:cy="60.596253"
     inkscape:window-x="-8"
     inkscape:window-y="-8"
     inkscape:window-maximized="1"
     inkscape:current-layer="logo-Grey" />
  <!-- Generator: Sketch 46.2 (44496) - http://www.bohemiancoding.com/sketch -->
  <title
     id="title39">logo Grey</title>
  <desc
     id="desc41">Created with Sketch.</desc>
  <defs
     id="defs43" />
  <g
     id="Page-1"
     style="fill:none;fill-rule:evenodd;stroke:none;stroke-width:1"
     transform="translate(-37.656119,75.454)">
    <g
       id="logo-Grey"
       style="fill:#ffffff;fill-rule:nonzero">
      <path
         d="m 141.54049,16.805599 c 0,3.479054 0,6.977763 0,10.456817 0,0.963128 -0.19656,1.159685 -1.15968,1.159685 -0.68795,0 -1.3759,-0.01966 -2.06385,0 -0.60933,0.01966 -1.00244,-0.235868 -1.29727,-0.766571 -2.29972,-4.108036 -4.63874,-8.216071 -6.95811,-12.324106 -0.37346,-0.668293 -0.74692,-1.31693 -1.14003,-1.965567 -0.0983,-0.157246 -0.13759,-0.432425 -0.39311,-0.334147 -0.17691,0.07862 -0.25553,0.294835 -0.23587,0.511048 0.31449,4.579771 0.059,9.179198 0.13759,13.75897 0.0197,1.04175 -0.0786,1.120373 -1.14003,1.120373 -0.62898,0 -1.27762,-0.03931 -1.9066,0.01966 -0.68795,0.05897 -1.08106,-0.235868 -1.41521,-0.825539 -1.82798,-3.243185 -3.67561,-6.466716 -5.50359,-9.690246 -0.92382,-1.63142 -1.88694,-3.262841 -2.81076,-4.894262 -0.13759,-0.235868 -0.27518,-0.550359 -0.5307,-0.550359 -0.33415,-0.01966 -0.33415,0.353803 -0.45208,0.589671 -2.69283,4.874606 -5.40531,9.768868 -8.1178,14.643475 -0.27517,0.511047 -0.66829,0.746915 -1.2383,0.72726 -0.62898,-0.01966 -1.27762,0.01966 -1.9066,0 -0.58967,-0.01966 -0.76657,-0.294836 -0.47174,-0.805883 1.59211,-2.968006 3.20388,-5.936013 4.79599,-8.923675 1.00243,-1.847633 1.96556,-3.734577 2.968,-5.58221 1.25796,-2.358681 2.53558,-4.6977059 3.8132,-7.0367308 0.25553,-0.4717362 0.53071,-0.4717362 0.78623,0 1.7297,3.1252517 3.4594,6.2505038 5.20875,9.3757548 1.21865,2.18178 2.51593,4.324248 3.6363,6.545339 0.0786,0.176901 0.15725,0.412769 0.41277,0.314491 0.21621,-0.07862 0.21621,-0.294835 0.21621,-0.511048 0,-5.169441 0,-10.358538 0,-15.5279801 0,-1.0024393 0,-1.0024393 0.96313,-1.0024393 0.66829,0 1.33659,0.019656 1.98522,0 0.45208,-0.019656 0.70761,0.1769011 0.94347,0.5503588 2.63386,4.6780496 5.28738,9.3364436 7.92124,13.9948386 0.23587,0.412769 0.45208,0.864849 0.66829,1.297274 0.0786,0.137589 0.13759,0.373458 0.35381,0.294835 0.21621,-0.05897 0.25552,-0.27518 0.25552,-0.491392 -0.29484,-4.815639 -0.0393,-9.611623 -0.11793,-14.4272627 -0.0197,-1.1203733 0.0983,-1.2186517 1.21865,-1.2186517 0.51104,0 1.02209,0 1.55279,0 0.96313,0 1.06141,0.098278 1.06141,1.0417506 -0.0393,3.4987095 -0.0393,6.9974188 -0.0393,10.4764728 z"
         id="Shape"
         inkscape:connector-curvature="0"
         style="fill-opacity:1;fill:#777777" />
      <path
         d="m 101.14808,18.830133 c 0,2.889384 -0.0196,5.798423 0.0197,8.687807 0,0.746916 -0.27518,0.963128 -0.94347,0.923817 -0.589671,-0.01966 -1.179342,0 -1.769012,0 -0.845194,0 -0.982783,-0.13759 -0.982783,-0.982784 0,-4.167002 0,-8.35366 0,-12.520663 0,-1.592109 0,-3.184219 0,-4.795984 0,-1.1007171 -0.05897,-1.1596841 -1.179341,-1.1596841 -1.31693,0 -2.653515,-0.019656 -3.970445,0 -0.530703,0 -0.766571,-0.1769011 -0.746916,-0.7272599 0.03931,-0.7076042 0.01966,-1.4152083 0,-2.1424682 -0.01966,-0.5503588 0.196557,-0.8255382 0.766572,-0.8255382 4.795983,0 9.572315,0 14.368295,0 0.57001,0 0.78623,0.2751794 0.78623,0.8255382 -0.0197,0.7076042 -0.0197,1.434864 0,2.1424682 0.0196,0.5503588 -0.1769,0.7469155 -0.72726,0.7272599 -1.5528,-0.019656 -3.08594,-0.019656 -4.63874,0 -0.8452,0 -0.96313,0.1375897 -0.96313,1.0024392 -0.0197,2.9483509 -0.0197,5.8967019 -0.0197,8.8450519 z"
         id="path46"
         inkscape:connector-curvature="0"
         style="fill-opacity:1;fill:#777777" />
      <path
         d="m 152.15455,18.830133 c 0,2.928695 -0.0197,5.837735 0.0197,8.76643 0,0.648637 -0.23587,0.884505 -0.86485,0.864849 -0.58967,-0.01966 -1.17934,-0.01966 -1.76901,0 -0.68795,0.03931 -0.94347,-0.196556 -0.94347,-0.943472 0.0393,-4.363559 0,-8.746774 0.0197,-13.110333 0,-1.592109 -0.29483,-3.184219 -0.0786,-4.7959836 0.0786,-0.5110475 -0.45208,-0.6093259 -0.90416,-0.6093259 -1.3759,0 -2.7518,0 -4.12769,0 -0.80589,0 -0.92382,-0.2162123 -0.82554,-1.0417505 0.059,-0.5503589 0.0983,-1.1203733 -0.059,-1.6707321 -0.15724,-0.5700145 0.13759,-0.8845052 0.68795,-0.9631279 0.13759,-0.019656 0.29484,0 0.43242,0 4.56012,0 9.13989,0 13.70001,0 0.98278,0 1.02209,0.039311 1.02209,1.0417506 0,0.6289814 -0.0197,1.2776186 0,1.9066001 0.0197,0.5503588 -0.19655,0.7469155 -0.72726,0.7272598 -1.55279,-0.019656 -3.08594,-0.019656 -4.63874,0 -0.84519,0 -0.96312,0.1375897 -0.96312,1.0024395 0.0197,2.928695 0.0197,5.877046 0.0197,8.825396 z"
         id="path48"
         inkscape:connector-curvature="0"
         style="fill-opacity:1;fill:#777777" />
      <path
         d="m 90.534023,16.884222 c 0,3.518365 0,7.017074 0,10.53544 0,0.923816 -0.117934,1.022095 -1.00244,1.04175 -0.570014,0 -1.120373,0 -1.690387,0 -0.86485,0 -0.982784,-0.117934 -0.982784,-0.982783 0,-3.557677 0.01966,-7.115353 0,-10.67303 -0.01966,-1.827977 0.01966,-3.655955 -0.117934,-5.483932 -0.117934,-1.6510766 -0.01966,-3.3218087 -0.03931,-4.9728851 0,-0.6289815 0.255524,-0.8845052 0.884505,-0.8845052 0.648637,0 1.31693,-0.1179341 1.965567,-0.1375897 0.845194,-0.019656 1.00244,0.117934 1.00244,0.9631279 -0.01966,3.5183652 -0.01966,7.0563861 -0.01966,10.5944071 z"
         id="path50"
         inkscape:connector-curvature="0"
         style="fill-opacity:1;fill:#777777" />
      <path
         d="M 84.00834,10.889242 C 82.750377,7.8033016 80.313074,6.0539468 77.050232,5.444621 75.399156,5.1301302 73.728424,5.3659983 72.057692,5.3070313 c -0.86485,-0.019656 -0.982784,0.117934 -0.982784,0.9827836 0,2.5748929 0,5.1497861 0,7.7443341 0,2.555238 0,5.110475 0,7.665712 0,0.255524 0.13759,0.648638 -0.176901,0.72726 -0.353802,0.09828 -0.432425,-0.334146 -0.570015,-0.570014 -0.628981,-1.081062 -1.218651,-2.18178 -1.827977,-3.262842 -2.319369,-4.147346 -4.638738,-8.294693 -6.958108,-12.4223842 -0.09828,-0.176901 -0.157245,-0.3734577 -0.393113,-0.3931134 -0.275179,-0.019656 -0.353802,0.1965567 -0.471736,0.3931134 -1.886945,3.4790539 -3.793545,6.9777632 -5.680489,10.4568172 -1.31693,2.437303 -2.63386,4.854951 -3.931134,7.292254 -0.255524,0.471736 -0.589671,0.72726 -1.179341,0.687949 -2.142468,-0.07862 -3.970445,-0.923817 -5.660833,-2.142469 -1.513487,-1.100717 -2.456959,-2.594548 -2.90904,-4.363559 -0.45208,-1.749354 -0.471736,-3.518365 0.09828,-5.267719 0.432425,-1.356242 1.159684,-2.476615 2.319369,-3.3021533 1.395553,-1.0024393 2.948351,-1.5724537 4.67805,-1.7886661 1.749355,-0.1965568 3.380775,-0.098278 4.697705,1.2186516 0.452081,0.4520804 0.707604,0.2751794 0.943473,-0.1572454 C 54.4069,8.137448 54.72139,7.4298438 55.094848,6.7812067 55.605895,5.8967014 55.566583,5.7198004 54.603455,5.3463426 52.53961,4.5208044 50.416797,4.068724 48.156395,4.4225261 46.878776,4.6387385 45.620813,4.9532292 44.461129,5.5232437 42.770741,6.3487819 41.335877,7.4888108 40.176192,9.0022975 39.23272,10.220949 38.485805,11.557535 38.092691,13.03171 c -0.373457,1.395553 -0.570014,2.889384 -0.334146,4.343904 0.216212,1.375897 0.393113,2.751794 1.002439,4.029412 0.923817,1.926256 2.280058,3.479054 3.970446,4.737017 1.081062,0.805883 2.260402,1.45452 3.557676,1.886944 1.788666,0.609326 3.636299,0.393114 5.464277,0.452081 0.491392,0.01966 0.805883,-0.196557 1.022095,-0.570014 1.808322,-3.243186 3.596988,-6.506028 5.40531,-9.768869 0.923816,-1.670732 1.827977,-3.36112 2.751794,-5.031852 0.393113,-0.707604 0.648637,-0.707604 1.04175,-0.01966 0.845194,1.493831 1.690388,2.968007 2.535582,4.461838 1.945911,3.439742 3.872167,6.859829 5.818078,10.299571 0.255524,0.452081 0.589671,0.668293 1.14003,0.628982 0.786226,-0.03931 1.572453,-0.03931 2.35868,0 0.687949,0.03931 0.982784,-0.255524 0.963128,-0.943472 -0.03931,-1.257963 0.01966,-2.515926 -0.01966,-3.754234 -0.01966,-0.648637 0.13759,-0.943472 0.86485,-0.923816 0.609326,0.01966 1.218651,-0.07862 1.808322,-0.216213 2.181779,-0.45208 3.990101,-1.533142 5.385654,-3.302152 1.985222,-2.614205 2.417647,-5.464277 1.17934,-8.451939 z m -3.459398,4.049068 c -0.491392,2.201435 -2.378337,3.891823 -4.619083,3.931135 -1.17934,0.01966 -1.17934,0.01966 -1.17934,-1.120374 0,-2.35868 0,-4.697705 0,-7.056386 0,-1.2579627 0,-1.2579627 1.218651,-1.2579627 2.437304,-0.078623 5.208753,2.6142047 4.579772,5.5035877 z"
         id="path54"
         inkscape:connector-curvature="0"
         style="fill-opacity:1;fill:#777777" />
      <path
         d="m 135.36503,-48.114928 c -0.65644,-5.9549 -1.26602,-11.909803 -2.01624,-17.864704 -0.28132,-2.203781 -1.07844,-4.079341 -2.90711,-5.579789 -1.688,-1.35978 -3.56356,-1.172226 -5.43913,-1.500447 -4.97023,-0.844001 -10.03423,-1.266002 -15.05136,-1.688003 -4.92333,-0.422001 -4.64201,-0.46889 -6.14245,-0.562668 -4.688897,-0.281333 -8.580687,-0.09377 -11.253357,0.09378 -0.844,0.0469 -2.11001,0.09377 -3.65734,0.18755 -3.56356,0.234449 -5.29846,0.468888 -8.15869,0.844001 -3.704225,0.468888 -7.408455,0.890889 -11.112685,1.172223 -3.985563,0.281334 -6.705125,2.766451 -7.174015,6.189347 -0.328222,2.391338 -0.609555,4.829565 -0.890889,7.267793 -0.468891,4.079343 -0.468891,3.188452 -0.937781,9.190242 -0.234449,3.516673 -0.328222,6.142457 -0.375111,8.674462 -0.0469,1.547336 -0.09377,5.861123 0.140674,13.175806 0,0 0.234449,7.642904 1.734893,17.958481 0.328221,2.3444496 0.797111,4.735788 2.672671,6.4706804 1.641116,1.5473366 3.938674,2.2506713 6.705125,2.2037824 2.391338,-0.04689 4.407565,0.6095568 10.081128,0.93777968 3.09468,0.1875567 4.6889,0.28133385 6.33002,0.3282229 8.01801,0.28133385 10.97202,0 23.538277,-0.0468898 0,0 2.48509,0 16.31735,-1.87555928 0.51578,-0.04689 1.78177,-0.2344441 2.90712,-1.1722247 0.84399,-0.6564458 1.35977,-1.5004476 1.73489,-2.2506715 1.45354,-2.860228 1.266,-6.0486791 1.54734,-9.0495741 0.46888,-5.157788 1.2191,-10.268688 1.6411,-15.426477 0.4689,-5.9549 0.42202,-11.862914 -0.2345,-17.677147 z m -10.08113,18.052261 c -0.2345,4.876453 -0.79712,9.752908 -1.40667,14.582474 -0.28135,2.110005 -1.59424,3.610452 -3.89178,3.844897 -1.54735,0.187557 -3.09469,0.515779 -4.64203,0.609557 -5.72046,0.281334 -11.44091,0.562668 -17.161357,0.375112 -2.67267,0 -5.39223,0.04689 -8.06491,0 -4.59512,-0.09378 -9.19024,-0.281334 -13.73847,-1.031558 -1.734893,-0.281334 -2.766451,-1.35978 -3.329119,-3.000895 -0.609557,-1.781782 -0.562668,-3.282228 1.078448,-4.688898 2.016227,-1.734893 3.844897,-3.798009 5.720461,-5.720457 0.28133,-0.281333 0.422,-0.750224 0.93777,-0.609557 0.56267,0.187549 0.65645,0.609557 0.65645,1.125335 -0.0469,2.110005 -0.0469,4.220011 -0.0938,6.330015 0,0.422001 -0.23444,0.797112 0.23445,1.078445 0.51578,0.328224 0.89089,0.0469 1.26601,-0.281333 0.79711,-0.797112 1.59422,-1.547337 2.34445,-2.344448 6.51756,-6.517572 12.98825,-12.98825 19.505807,-19.505821 1.688,-1.688003 1.82867,-1.688003 3.51669,0 0.2345,0.234449 0.51577,0.468891 0.75022,0.750225 0.89087,0.984668 1.35977,0.984668 1.87554,-0.422001 1.82867,-4.923345 3.79801,-9.799798 5.72046,-14.676252 0.1875,-0.422001 0.46889,-0.844002 0,-1.266003 -0.3751,-0.328223 -0.65645,-0.328223 -1.12533,-0.140674 -4.82958,1.875558 -9.70603,3.65734 -14.53558,5.5329 -1.781777,0.703335 -1.734897,0.750224 -0.37511,2.156894 0.37511,0.375111 0.75022,0.750224 1.12533,1.125335 0.844,0.984668 0.46889,1.78178 -0.32822,2.578894 -4.454457,4.454455 -8.908907,8.908906 -13.410247,13.41025 -0.37511,0.375111 -0.75023,1.078446 -1.40667,0.844002 -0.70334,-0.234449 -0.422,-1.031558 -0.422,-1.547336 -0.0469,-1.92245 0,-3.844897 0,-5.814234 0,-0.422003 0.14067,-0.984671 -0.422,-1.219115 -0.51578,-0.187549 -0.93778,0 -1.26601,0.375111 -3.09467,3.329119 -6.611344,6.236237 -9.471572,9.7998 -0.0469,0.0469 -0.0469,0.09378 -0.09377,0.140674 -0.844001,0.609557 -1.359782,2.203781 -2.578894,1.78178 -1.219115,-0.422001 -0.422001,-1.82867 -0.562668,-2.813338 -0.562667,-4.126231 -0.422001,-8.299351 -0.328223,-12.425582 0.140674,-5.767344 0.797111,-11.4878 1.453559,-17.208257 0.328223,-2.625784 2.532004,-4.407564 5.392228,-4.6889 9.19024,-0.890889 18.42737,-1.35978 27.617617,-1.031556 4.54823,0.140674 9.04956,0.609555 13.55089,1.078445 3.00089,0.328224 4.82958,2.625785 5.06401,5.814234 0.42202,9.002686 1.26602,18.052261 0.84402,27.101836 z"
         id="path52"
         inkscape:connector-curvature="0"
         style="stroke-width:2.3855195;fill-opacity:1;fill:#777777" />
    </g>
  </g>
</svg>
