<?xml version="1.0" encoding="UTF-8" standalone="no"?>
<svg
   xmlns:dc="http://purl.org/dc/elements/1.1/"
   xmlns:cc="http://creativecommons.org/ns#"
   xmlns:rdf="http://www.w3.org/1999/02/22-rdf-syntax-ns#"
   xmlns:svg="http://www.w3.org/2000/svg"
   xmlns="http://www.w3.org/2000/svg"
   viewBox="0 0 943.46667 611.01331"
   height="611.01331"
   width="943.46667"
   xml:space="preserve"
   id="svg2"
   version="1.1"><metadata
     id="metadata8"><rdf:RDF><cc:Work
         rdf:about=""><dc:format>image/svg+xml</dc:format><dc:type
           rdf:resource="http://purl.org/dc/dcmitype/StillImage" /></cc:Work></rdf:RDF></metadata><defs
     id="defs6" /><g
     transform="matrix(1.3333333,0,0,-1.3333333,0,611.01333)"
     id="g10"><g
       transform="scale(0.1)"
       id="g12"><path
         id="path14"
         style="fill:#231f20;fill-opacity:1;fill-rule:evenodd;stroke:none"
         d="m 156.938,2930.22 c -8.547,-97.6 -12.055,-220.75 -7.204,-336 4.274,-101.31 3.496,-207.36 2.407,-312 -1.094,-104.52 -12.145,-206.19 0,-304.8 8.875,-72.12 18.574,-144.79 23.996,-211.2 2.176,-26.57 -2.336,-56.61 2.402,-76.8 3.066,-13.07 17.524,-22.84 21.598,-38.4 7.652,-29.21 2.074,-59.33 14.398,-84 44.215,49.34 87.106,95.76 112.805,151.2 28.781,62.1 52.555,117.99 67.195,189.6 11.61,56.75 26.512,130.55 26.403,189.6 -0.372,203.98 -108.266,376.01 -146.403,537.6 -50.496,152.7 -78.691,307.43 -105.594,484.8 -3.457,-1.28 -5.859,9.36 -7.203,2.4 -1.191,-60.46 1.235,-123.1 -4.8,-192 z M 6401.74,4418.23 c 63.09,-8.57 76.44,44.95 129.6,57.59 17.4,-3.39 26.56,-15.04 35.99,-26.4 16.07,-98.39 -62.15,-108.43 -45.59,-194.4 127.22,-144.07 211.87,-324.7 307.2,-492 47.77,-83.83 93.07,-161.16 165.6,-220.8 28.52,-23.44 61.51,-52.7 79.2,-88.8 2.36,-16.91 3.49,-33.33 0,-48 -11.32,-47.57 -57.92,-89.5 -93.6,-120 -64.14,-54.84 -141.52,-100.94 -266.4,-86.4 -87.62,10.2 -168.81,38.35 -256.81,60 -16.86,4.16 -34,10.87 -50.39,14.4 -44.21,9.52 -90.79,15.43 -132,19.2 -22.91,2.1 -51.45,1.59 -69.6,0 -25.74,-2.25 -65.47,-7.45 -84,-16.8 -18.58,-9.36 -36.51,-31.64 -55.2,-48 -126.95,-111.04 -299.17,-175.68 -415.2,-297.6 -40.25,-50.15 -76.45,-104.35 -112.81,-158.4 -31.61,-73.98 -68,-143.19 -91.19,-225.6 -54.46,-69.91 -100.32,-144.5 -151.2,-216 -37.81,-53.12 -78.47,-109.1 -108.01,-170.4 -8.95,-18.59 -11.24,-43.22 -31.19,-55.2 -7.87,-57.42 -48.2,-85.67 -72,-134.4 -29.97,-61.34 -53.73,-132.19 -88.8,-192 -8.49,-14.48 -20.68,-26.76 -28.8,-40.8 -9.03,-15.62 -12.82,-33.98 -21.6,-48 -29.86,-47.69 -82.23,-86.13 -129.6,-117.6 -60.54,-16.27 -113.87,-39.73 -168.01,-62.4 -52.81,-95.48 -10.84,-290.86 -64.79,-376.8 17.21,-88.32 25.76,-187.249 14.39,-292.8 22.88,-109.742 29.21,-203.289 74.41,-300 57.06,-122.09 113.31,-248.269 192,-352.8 -7.94,-8.86 -17,-16.598 -26.41,-24 -128.64,1.82 -255.52,7.152 -352.79,28.8 -9.08,67.301 -30.1,123.649 -36.01,192.008 -28.54,15.442 -56.4,31.594 -71.99,60 -3.96,242.672 -78.61,417.57 -86.4,660.002 -39.97,-111.549 -81.53,-253.471 -98.4,-386.408 -8.13,-64.043 -6.12,-123.621 -2.4,-180 4.25,-64.711 -9.15,-134.762 9.6,-180 28.67,-69.141 69.29,-136.25 103.2,-206.402 13.36,-27.622 22.86,-50.942 28.8,-84.0005 -6.18,-10.6211 -22.61,-10.9882 -31.2,-19.1992 -55.53,4.3516 -102.34,-14.2305 -153.6,-9.6015 -62.97,5.6914 -122.9,21.9023 -175.2,36.0117 -10.33,24.0586 -21.6,47.1915 -33.61,69.5975 7.22,28.731 -1.47,47.684 2.41,72.004 4.45,27.848 26.66,48.328 26.4,71.988 -0.12,11.321 -11.95,45.762 -19.2,55.2 -5.93,7.73 -17.16,13 -26.4,19.199 -24.88,16.703 -39.61,28.293 -50.4,62.41 9.28,38.84 8.07,75.301 16.8,112.793 7.41,31.828 26.96,59.726 31.19,88.797 6.24,42.711 0,91.98 0,136.801 0,62.039 4.93,115.261 14.41,177.601 16.37,107.599 67.69,270.449 38.4,400.799 -15.94,70.91 -35.66,137.47 -50.4,206.4 -7.58,35.42 -11.55,59.05 0,91.2 -46.72,31.53 -122.09,61.42 -216,50.4 -24.08,-2.82 -48.51,-12.34 -74.4,-16.8 -67.33,-11.58 -155.44,-20.41 -232.81,-36 -29.07,-5.86 -60.21,-18.02 -88.8,-26.4 -56.75,-16.63 -115.17,-27.88 -180,-40.8 -29.87,-5.96 -58.51,-20.56 -86.39,-23.99 -82.79,-10.24 -177.62,2.52 -264,-4.81 -126.22,-10.7 -225.21,-5.1 -340.8,0 -55.66,2.46 -107.51,17.48 -160.8,26.4 -85.17,14.26 -173.87,32.87 -252,52.8 -40.9,10.44 -82.43,15.03 -124.8,28.8 -18.86,6.13 -37.98,14.39 -57.6,19.2 -34.45,8.45 -74.59,2.74 -96,26.41 -14.27,-4.14 -19.69,-17.12 -36,-19.2 -23.91,-71.3 -76.94,-113.47 -124.8,-160.8 -8.71,-59.06 -12.48,-109.03 4.8,-163.21 -10.71,-39.12 -49.92,-91.69 -93.6,-62.4 -33.35,22.36 -15.33,88.78 -57.6,105.61 -30.64,-50.17 -13.41,-148.2 -50.4,-192.01 -22.55,-5.35 -41.31,-4.12 -67.2,-2.4 -13.9,21.7 -34.96,34.01 -40.8,64.81 -3.68,19.36 4.54,41.06 2.4,62.39 -2.11,20.98 -16.34,37.65 -21.6,52.8 -13.88,8.52 -27.68,17.13 -38.4,28.8 -35.05,1.12 -66.78,0.02 -86.4,-16.8 -4.01,-3.43 -9.91,-18.4 -16.8,-28.8 -23.34,-35.24 -41.27,-81.46 -36,-148.79 -12.06,-18.35 -31.7,-29.11 -45.6,-45.61 14.08,-62.42 1.84,-137.34 16.8,-196.8 8.6,-67.859 20.4,-133.648 40.8,-192 15.6,-44.64 40.05,-92.55 57.6,-139.199 38.31,-101.832 72.74,-187.32 122.4,-273.601 33.84,-58.79 73.4,-107 115.2,-158.399 40.48,-49.781 79.36,-102.699 112.8,-160.8007 -12.51,-14.6914 -33.32,-21.082 -45.6,-36 -106.61,-12.140613 -247.34,-17.99218 -352.8,-2.39842 -6.04,25.76952 -37.04,39.40622 -45.6,64.80862 -2.56,7.5781 1.15,16.4297 0,23.9883 -2.62,17.2032 -17.31,26.0822 -19.2,43.2032 -30.5,-1.703 -39.68,17.93 -57.601,28.797 -20.488,96.691 -47.359,204.59 -86.402,290.402 -1.235,148.949 -56.176,255.957 -100.801,372 -36.531,95 -74.606,174.479 -129.598,252.009 -38.98,77.6 -12.125,215.18 4.797,316.79 -30.957,-5.84 -48.726,-24.86 -74.398,-35.99 -34.336,-38.47 -78.254,-67.35 -96,-122.41 -15.086,-4.91 -16.043,-23.95 -31.196,-28.79 -19.793,-43.03 -38.101,-72.71 -62.402,-110.4 -40.676,-139.381 -98.512,-287.041 -84,-465.611 6.035,-56.899 8.914,-114.348 21.602,-168 9.433,-39.918 28.297,-78.438 40.797,-117.598 27.5,-86.141 56.468,-167.23 105.597,-230.402 -0.738,-13.539 4.262,-21.34 2.403,-36.0002 -17.059,-32.2266 -71.305,-36.3399 -134.399,-31.1875 -29.453,2.3906 -71.019,13.8281 -105.601,16.789 -20.86,1.7813 -39.758,-1.1914 -52.801,2.4102 -30.196,8.3086 -48.442,38.3595 -79.199,38.3905 -4.747,56.219 5.23,137.777 -4.801,204 -17.8128,19.777 -53.5901,21.609 -83.9964,28.809 -7.9492,99.429 2.1524,196.961 26.3985,266.39 1.7734,12.02 -8.8477,-3.191 -9.5977,4.801 16.9219,139.57 46.832,281.258 76.7966,405.599 8.278,34.34 18.242,68 26.403,103.21 7.593,32.77 21.32,65.13 26.398,98.4 10.223,66.98 8.727,140.35 19.199,211.2 -15.804,-1.03 -29.117,-25.28 -33.597,-45.61 -14.02,-5.07 -21.266,-18.32 -33.606,-23.99 -7.328,-3.38 -17.234,-1.62 -26.394,-7.21 -13.2191,-8.05 -20.8363,-23.49 -33.6058,-23.99 -15.4883,-0.63 -26.0235,10.75 -28.7969,19.19 -8.3203,25.33 14.1797,64.35 9.6015,88.8 -3.625,19.37 -19.8984,18.99 -26.4023,36 3.7305,43.15 -17.82812,58.81 -9.6016,96.01 -26.1601,23.91 -17.73434,73.78 16.8047,88.79 -2.9218,30.92 5.4532,50.55 7.1953,76.8 9.7032,2.31 8.2422,15.76 24.0039,12 -0.8437,9.65 0.0391,17.56 7.1954,19.2 -16.7735,70.66 3.4648,171.54 -11.9961,247.2 -5.6289,318.46 12.9414,629.52 -21.6016,912 -3.4609,28.3 -12.2969,71.74 -14.3984,110.4 -2.8828,53.03 0.7031,110.57 -2.4024,165.6 -4.2812,75.94 -10.5117,145.99 -4.8008,211.2 3.8164,43.5 14.7696,88.79 21.6016,129.6 5.4609,32.62 3.8789,61.39 12.0039,88.8 22.8125,76.99 62.7036,139.83 112.7966,194.4 18.239,19.87 37.086,38.21 57.598,57.6 6.102,5.77 16.227,11 21.602,16.8 20.273,21.91 35.132,58.89 55.199,79.2 22.117,22.38 59.781,41.87 86.402,62.4 28.059,21.65 53.941,46.58 81.602,67.21 58.257,43.43 129.043,68.73 189.597,107.99 70.485,10.62 128.196,43.04 196.797,50.4 126.731,13.6 260.565,-23.9 393.605,-38.39 38.64,-4.22 77.8,-5.24 117.6,-9.61 61.5,-6.75 130.85,-11 187.2,-16.8 93.6,-9.62 189.56,-10.45 285.6,-21.6 122.98,-14.27 245.57,-31.69 369.6,-31.2 18.32,0.07 36.45,-6.24 55.2,-7.2 28.34,-1.44 55.19,0.96 79.2,-2.4 52.29,-7.33 113.66,-1.99 160.8,-9.6 23.56,-3.8 48.51,-0.05 72,-2.39 100.95,-10.1 203.91,-15.45 307.2,-26.41 137.46,-14.58 258.34,-19.93 400.8,-26.4 70.96,-3.22 158.69,-1.5 220.8,7.2 34,4.77 67.75,-0.41 100.8,4.8 54.03,8.52 112.69,23.64 170.4,36 81.58,17.48 190.74,32.14 290.4,21.6 166.28,-17.57 312.15,-74.1 475.19,-100.8 34.54,-5.66 77.55,-6.81 108.01,-9.6 53.35,-4.88 115.64,-1.15 151.2,4.8 49.47,8.28 99.76,4.37 146.4,12 306.18,50.14 527.6,173.65 789.6,273.6 34.9,27.69 -0.01,69.21 2.4,112.8 8.58,-0.65 11.01,12.44 14.4,14.41 16.12,9.28 84.44,6.23 105.6,9.59 60.44,9.62 116.83,6.03 170.4,38.4 19.25,11.64 36.77,28.92 57.6,40.8 41.46,23.66 65.54,31.78 129.6,36 22.92,1.52 43.07,3.34 55.19,-7.2 8.21,-7.12 4.15,-16.31 9.6,-26.4 27.46,-50.82 105.22,-72.28 124.81,-129.59" /></g></g></svg>