<?xml version="1.0" encoding="UTF-8" standalone="no"?>
<!-- Created with Inkscape (http://www.inkscape.org/) -->

<svg
   xmlns:dc="http://purl.org/dc/elements/1.1/"
   xmlns:cc="http://creativecommons.org/ns#"
   xmlns:rdf="http://www.w3.org/1999/02/22-rdf-syntax-ns#"
   xmlns:svg="http://www.w3.org/2000/svg"
   xmlns="http://www.w3.org/2000/svg"
   xmlns:sodipodi="http://sodipodi.sourceforge.net/DTD/sodipodi-0.dtd"
   xmlns:inkscape="http://www.inkscape.org/namespaces/inkscape"
   version="1.1"
   id="svg4518"
   xml:space="preserve"
   width="73.192001"
   height="75.036133"
   viewBox="0 0 73.192002 75.036136"
   sodipodi:docname="gk.svg"
   inkscape:version="0.92.4 (5da689c313, 2019-01-14)"><metadata
     id="metadata4524"><rdf:RDF><cc:Work
         rdf:about=""><dc:format>image/svg+xml</dc:format><dc:type
           rdf:resource="http://purl.org/dc/dcmitype/StillImage" /><dc:title></dc:title></cc:Work></rdf:RDF></metadata><defs
     id="defs4522"><clipPath
       clipPathUnits="userSpaceOnUse"
       id="clipPath4536"><path
         d="M 0,0 H 595.276 V 841.89 H 0 Z"
         id="path4534"
         inkscape:connector-curvature="0" /></clipPath><clipPath
       clipPathUnits="userSpaceOnUse"
       id="clipPath4558"><path
         d="m 413.859,29.828 h 151.62 v 72.22 h -151.62 z"
         id="path4556"
         inkscape:connector-curvature="0" /></clipPath><clipPath
       clipPathUnits="userSpaceOnUse"
       id="clipPath4726"><path
         d="M 0,0 H 595.276 V 841.89 H 0 Z"
         id="path4724"
         inkscape:connector-curvature="0" /></clipPath><clipPath
       clipPathUnits="userSpaceOnUse"
       id="clipPath4756"><path
         d="M 0,0 H 595.276 V 841.89 H 0 Z"
         id="path4754"
         inkscape:connector-curvature="0" /></clipPath><clipPath
       clipPathUnits="userSpaceOnUse"
       id="clipPath4818"><path
         d="M 0,0 H 595.276 V 841.89 H 0 Z"
         id="path4816"
         inkscape:connector-curvature="0" /></clipPath><clipPath
       clipPathUnits="userSpaceOnUse"
       id="clipPath4832"><path
         d="M 0,0 H 595.276 V 841.89 H 0 Z"
         id="path4830"
         inkscape:connector-curvature="0" /></clipPath><clipPath
       clipPathUnits="userSpaceOnUse"
       id="clipPath4846"><path
         d="M 0,0 H 595.276 V 841.89 H 0 Z"
         id="path4844"
         inkscape:connector-curvature="0" /></clipPath><clipPath
       clipPathUnits="userSpaceOnUse"
       id="clipPath4888"><path
         d="M 0,0 H 595.276 V 841.89 H 0 Z"
         id="path4886"
         inkscape:connector-curvature="0" /></clipPath></defs><sodipodi:namedview
     pagecolor="#ffffff"
     bordercolor="#666666"
     borderopacity="1"
     objecttolerance="10"
     gridtolerance="10"
     guidetolerance="10"
     inkscape:pageopacity="0"
     inkscape:pageshadow="2"
     inkscape:window-width="1920"
     inkscape:window-height="1057"
     id="namedview4520"
     showgrid="false"
     fit-margin-top="0"
     fit-margin-left="0"
     fit-margin-right="0"
     fit-margin-bottom="0"
     inkscape:zoom="3.4521649"
     inkscape:cx="-5.461224"
     inkscape:cy="20.089534"
     inkscape:window-x="-8"
     inkscape:window-y="-8"
     inkscape:window-maximized="1"
     inkscape:current-layer="g4532" /><g
     id="g4526"
     inkscape:groupmode="layer"
     inkscape:label="pdfresizer.com-pdf-crop"
     transform="matrix(1.3333333,0,0,-1.3333333,-9.0786664,80.692131)"><g
       id="g4528"
       transform="translate(-503.776,-41.528)"><g
         id="g4530"><g
           id="g4532"
           clip-path="url(#clipPath4536)"><g
             transform="translate(537.381,65.8101)"
             id="g4602"><path
               inkscape:connector-curvature="0"
               id="path4604"
               style="fill:#95c11f;fill-opacity:1;fill-rule:nonzero;stroke:none"
               d="m 0,0 c 8.954,0 17.199,-3.405 23.816,-5.926 2.707,4.253 4.282,9.298 4.282,14.714 0,15.16 -12.289,27.449 -27.448,27.449 -15.157,0 -27.446,-12.289 -27.446,-27.449 0,-5.264 1.485,-10.182 4.055,-14.36 C -16.315,-3.261 -8.477,0 0,0" /></g><g
             transform="translate(515.8849,57.975)"
             id="g4606"><path
               inkscape:connector-curvature="0"
               id="path4608"
               style="fill:#7e4300;fill-opacity:1;fill-rule:nonzero;stroke:none"
               d="m 0,0 c 4.644,-7.333 12.822,-12.205 22.142,-12.205 9.176,0 17.246,4.722 21.925,11.866 C 37.864,2.011 30.043,5.333 21.536,5.333 13.476,5.333 6.036,2.144 0,0" /></g><g
             transform="translate(551.4053,83.1636)"
             id="g4712"><path
               inkscape:connector-curvature="0"
               id="path4714"
               style="fill:#ffffff;fill-opacity:1;fill-rule:nonzero;stroke:none"
               d="m 0,0 c 0,0 -9.046,0.826 -12.61,-2.742 -2.611,-2.606 -2.407,-7.301 -2.113,-9.63 5.539,8.882 12.858,10.119 12.247,9.644 -6.097,-4.755 -8.458,-6.222 -10.632,-11.259 2.33,-0.293 7.025,-0.498 9.633,2.115 C 0.09,-8.308 0,0 0,0" /></g><g
             transform="translate(535.5356,78.0434)"
             id="g4716"><path
               inkscape:connector-curvature="0"
               id="path4718"
               style="fill:#ffffff;fill-opacity:1;fill-rule:nonzero;stroke:none"
               d="m 0,0 c 0.441,1.276 1.115,2.495 2.127,3.512 1.156,1.154 2.702,1.975 4.559,2.433 -1.789,5.089 -7.675,9.824 -7.675,9.824 0,0 -8.332,-6.183 -8.332,-12.624 0,-4.72 4.424,-8.782 6.796,-10.618 -2.094,9.785 1.632,19.743 1.553,18.844 C -1.317,7.431 -1.317,5.203 0,0" /></g><g
             id="g4720"><g
               id="g4722"
               clip-path="url(#clipPath4726)"><g
                 id="g4728"
                 transform="translate(59.3561,559.1315)"><path
                   d="m 0,0 h 1.792 v -4.659 c 0.157,0.268 0.604,1.008 1.725,1.008 0.672,0 1.209,-0.292 1.502,-0.74 0.267,-0.425 0.313,-0.94 0.313,-1.322 v -7.57 c 0,-0.449 0,-2.733 -2.196,-2.733 -1.232,0 -1.567,0.806 -1.725,1.209 -0.245,-0.426 -0.291,-0.538 -0.403,-1.008 H 0 Z m 3.517,-6.25 c 0,0.359 0,1.008 -0.785,1.008 -0.872,0 -0.94,-0.851 -0.94,-1.164 v -6.699 c 0,-0.605 0,-1.277 0.851,-1.277 0.582,0 0.874,0.426 0.874,1.029 z"
                   style="fill:#ffffff;fill-opacity:1;fill-rule:nonzero;stroke:none"
                   id="path4730"
                   inkscape:connector-curvature="0" /></g><g
                 id="g4732"
                 transform="translate(66.3663,552.0303)"><path
                   d="m 0,0 c 0,0.851 0,1.5 0.224,2.016 0.358,0.962 1.344,1.455 2.465,1.455 2.643,0 2.643,-2.149 2.643,-2.687 V -3.114 H 1.77 v -3.36 c 0,-0.336 0,-0.985 0.852,-0.985 0.872,0 0.895,0.74 0.895,1.097 v 2.105 h 1.815 v -1.702 c 0,-0.717 0,-2.956 -2.732,-2.956 -0.382,0 -0.74,0.043 -1.076,0.156 C 0,-8.266 0,-6.967 0,-6.429 Z m 3.517,0.896 c 0,0.492 0,1.097 -0.828,1.097 C 1.77,1.993 1.77,1.254 1.77,0.695 v -2.308 h 1.747 z"
                   style="fill:#ffffff;fill-opacity:1;fill-rule:nonzero;stroke:none"
                   id="path4734"
                   inkscape:connector-curvature="0" /></g><g
                 id="g4736"
                 transform="translate(74.4079,555.3006)"><path
                   d="m 0,0 0.449,-5.981 c 0.089,-1.232 0.089,-2.374 0.089,-3.45 h 0.134 c 0.068,0.739 0.135,1.547 0.314,2.98 L 1.837,0 h 1.299 l 0.785,-6.586 c 0.044,-0.269 0.156,-1.68 0.269,-2.866 h 0.156 c 0,1.859 0,2.194 0.134,3.874 L 4.951,0 H 6.72 L 5.22,-11.984 H 3.203 L 2.756,-8.177 C 2.553,-6.631 2.553,-5.688 2.553,-4.368 H 2.375 c 0,-1.545 -0.089,-2.598 -0.112,-2.845 L 1.681,-11.984 H -0.315 L -1.725,0 Z"
                   style="fill:#ffffff;fill-opacity:1;fill-rule:nonzero;stroke:none"
                   id="path4738"
                   inkscape:connector-curvature="0" /></g><g
                 id="g4740"
                 transform="translate(82.2486,552.0303)"><path
                   d="M 0,0 C 0,0.851 0,1.5 0.223,2.016 0.581,2.978 1.568,3.471 2.688,3.471 5.33,3.471 5.33,1.322 5.33,0.784 V -3.114 H 1.769 v -3.36 c 0,-0.336 0,-0.985 0.851,-0.985 0.874,0 0.897,0.74 0.897,1.097 v 2.105 H 5.33 v -1.702 c 0,-0.717 0,-2.956 -2.731,-2.956 -0.381,0 -0.741,0.043 -1.078,0.156 C 0,-8.266 0,-6.967 0,-6.429 Z m 3.517,0.896 c 0,0.492 0,1.097 -0.829,1.097 -0.919,0 -0.919,-0.739 -0.919,-1.298 v -2.308 h 1.748 z"
                   style="fill:#ffffff;fill-opacity:1;fill-rule:nonzero;stroke:none"
                   id="path4742"
                   inkscape:connector-curvature="0" /></g><g
                 id="g4744"
                 transform="translate(89.2137,553.3072)"><path
                   d="m 0,0 c 0,0.449 0,1.142 0.515,1.701 0.358,0.359 0.762,0.517 1.3,0.517 1.119,0 1.568,-0.807 1.702,-1.052 V 2.015 H 5.31 v -12.409 c 0,-0.919 -0.203,-1.927 -1.255,-2.486 -0.494,-0.247 -1.032,-0.313 -1.457,-0.313 -0.827,0 -2.687,0.335 -2.598,2.462 h 1.792 c -0.021,-0.156 -0.068,-0.963 0.873,-0.963 0.83,0 0.83,0.762 0.83,0.987 v 1.544 C 3.047,-9.789 2.553,-10.104 1.837,-10.104 1.075,-10.104 0,-9.835 0,-8.064 Z m 3.517,-0.941 c 0,0.761 -0.066,1.523 -0.919,1.523 -0.852,0 -0.852,-0.649 -0.852,-1.882 v -5.913 c 0,-0.65 0.025,-1.277 0.83,-1.277 0.896,0 0.941,0.806 0.941,1.345 z"
                   style="fill:#ffffff;fill-opacity:1;fill-rule:nonzero;stroke:none"
                   id="path4746"
                   inkscape:connector-curvature="0" /></g></g></g><path
             d="m 96.358,555.301 h 1.793 v -11.984 h -1.793 z m 1.816,1.389 h -1.77 v 2.397 h 1.77 z"
             style="fill:#ffffff;fill-opacity:1;fill-rule:nonzero;stroke:none"
             id="path4748"
             inkscape:connector-curvature="0" /><g
             id="g4750"><g
               id="g4752"
               clip-path="url(#clipPath4756)"><g
                 id="g4758"
                 transform="translate(101.7797,554.5386)"><path
                   d="m 0,0 c 0.314,0.381 0.784,0.987 1.769,0.987 1.815,0 1.815,-1.681 1.815,-2.487 v -9.722 H 1.747 v 9.385 c 0,0.515 0,1.165 -0.783,1.165 -0.942,0 -0.942,-0.873 -0.942,-1.478 v -9.072 H -1.77 V 0.762 H 0 Z"
                   style="fill:#ffffff;fill-opacity:1;fill-rule:nonzero;stroke:none"
                   id="path4760"
                   inkscape:connector-curvature="0" /></g><g
                 id="g4762"
                 transform="translate(106.9763,553.3072)"><path
                   d="m 0,0 c 0,0.449 0,1.142 0.514,1.701 0.358,0.359 0.763,0.517 1.299,0.517 1.121,0 1.568,-0.807 1.703,-1.052 v 0.849 h 1.792 v -12.409 c 0,-0.919 -0.201,-1.927 -1.255,-2.486 -0.492,-0.247 -1.029,-0.313 -1.455,-0.313 -0.829,0 -2.689,0.335 -2.598,2.462 h 1.791 c -0.022,-0.156 -0.067,-0.963 0.874,-0.963 0.83,0 0.83,0.762 0.83,0.987 v 1.544 C 3.046,-9.789 2.553,-10.104 1.836,-10.104 1.075,-10.104 0,-9.835 0,-8.064 Z m 3.516,-0.941 c 0,0.761 -0.066,1.523 -0.918,1.523 -0.851,0 -0.851,-0.649 -0.851,-1.882 v -5.913 c 0,-0.65 0.022,-1.277 0.829,-1.277 0.896,0 0.94,0.806 0.94,1.345 z"
                   style="fill:#ffffff;fill-opacity:1;fill-rule:nonzero;stroke:none"
                   id="path4764"
                   inkscape:connector-curvature="0" /></g><g
                 id="g4766"
                 transform="translate(85.82,568.2012)"><path
                   d="m 0,0 c -20.75,0 -37.631,16.881 -37.631,37.631 0,20.751 16.881,37.632 37.631,37.632 20.75,0 37.632,-16.881 37.632,-37.632 C 37.632,16.881 20.75,0 0,0 m 0,72.979 c -19.491,0 -35.348,-15.857 -35.348,-35.348 C -35.348,18.14 -19.491,2.282 0,2.282 19.492,2.282 35.348,18.14 35.348,37.631 35.348,57.122 19.492,72.979 0,72.979"
                   style="fill:#ffffff;fill-opacity:1;fill-rule:nonzero;stroke:none"
                   id="path4768"
                   inkscape:connector-curvature="0" /></g><g
                 id="g4770"
                 transform="translate(90.9927,622.882)"><path
                   d="m 0,0 c 0,-2.672 -2.164,-4.837 -4.835,-4.837 -2.67,0 -4.835,2.165 -4.835,4.837 0,2.67 2.165,4.835 4.835,4.835 C -2.164,4.835 0,2.67 0,0"
                   style="fill:#ffffff;fill-opacity:1;fill-rule:nonzero;stroke:none"
                   id="path4772"
                   inkscape:connector-curvature="0" /></g><g
                 id="g4774"
                 transform="translate(86.1578,616.4444)"><path
                   d="m 0,0 c -1.831,0 -3.481,0.769 -4.652,1.997 -0.895,-1.301 -1.441,-2.977 -1.441,-4.813 0,-1.837 0.541,-3.517 1.435,-4.82 h 9.316 c 0.894,1.303 1.436,2.983 1.436,4.82 0,1.836 -0.547,3.512 -1.442,4.813 C 3.481,0.769 1.831,0 0,0"
                   style="fill:#ffffff;fill-opacity:1;fill-rule:nonzero;stroke:none"
                   id="path4776"
                   inkscape:connector-curvature="0" /></g><g
                 id="g4778"
                 transform="translate(90.9927,596.6341)"><path
                   d="m 0,0 c 0,-2.668 -2.164,-4.835 -4.835,-4.835 -2.67,0 -4.835,2.167 -4.835,4.835 0,2.67 2.165,4.836 4.835,4.836 C -2.164,4.836 0,2.67 0,0"
                   style="fill:#ffffff;fill-opacity:1;fill-rule:nonzero;stroke:none"
                   id="path4780"
                   inkscape:connector-curvature="0" /></g><g
                 id="g4782"
                 transform="translate(86.1578,590.1971)"><path
                   d="m 0,0 c -1.831,0 -3.481,0.77 -4.652,1.999 -0.895,-1.302 -1.441,-2.977 -1.441,-4.814 0,-1.838 0.541,-3.518 1.435,-4.818 h 9.316 c 0.894,1.3 1.436,2.98 1.436,4.818 0,1.837 -0.547,3.512 -1.442,4.814 C 3.481,0.77 1.831,0 0,0"
                   style="fill:#ffffff;fill-opacity:1;fill-rule:nonzero;stroke:none"
                   id="path4784"
                   inkscape:connector-curvature="0" /></g><g
                 id="g4786"
                 transform="translate(108.4971,609.7584)"><path
                   d="m 0,0 c 0,-2.67 -2.165,-4.836 -4.836,-4.836 -2.669,0 -4.835,2.166 -4.835,4.836 0,2.67 2.166,4.836 4.835,4.836 C -2.165,4.836 0,2.67 0,0"
                   style="fill:#ffffff;fill-opacity:1;fill-rule:nonzero;stroke:none"
                   id="path4788"
                   inkscape:connector-curvature="0" /></g><g
                 id="g4790"
                 transform="translate(103.6613,603.3207)"><path
                   d="m 0,0 c -1.831,0 -3.481,0.769 -4.652,1.999 -0.895,-1.303 -1.44,-2.978 -1.44,-4.815 0,-1.836 0.54,-3.518 1.434,-4.817 h 9.317 c 0.893,1.299 1.435,2.981 1.435,4.817 0,1.837 -0.546,3.512 -1.441,4.815 C 3.482,0.769 1.832,0 0,0"
                   style="fill:#ffffff;fill-opacity:1;fill-rule:nonzero;stroke:none"
                   id="path4792"
                   inkscape:connector-curvature="0" /></g><g
                 id="g4794"
                 transform="translate(73.4894,609.7584)"><path
                   d="m 0,0 c 0,-2.67 -2.165,-4.836 -4.836,-4.836 -2.669,0 -4.835,2.166 -4.835,4.836 0,2.67 2.166,4.836 4.835,4.836 C -2.165,4.836 0,2.67 0,0"
                   style="fill:#ffffff;fill-opacity:1;fill-rule:nonzero;stroke:none"
                   id="path4796"
                   inkscape:connector-curvature="0" /></g><g
                 id="g4798"
                 transform="translate(68.6539,603.3207)"><path
                   d="m 0,0 c -1.831,0 -3.481,0.769 -4.652,1.999 -0.895,-1.303 -1.441,-2.978 -1.441,-4.815 0,-1.836 0.541,-3.518 1.435,-4.817 h 9.317 c 0.893,1.299 1.435,2.981 1.435,4.817 0,1.837 -0.547,3.512 -1.442,4.815 C 3.481,0.769 1.831,0 0,0"
                   style="fill:#ffffff;fill-opacity:1;fill-rule:nonzero;stroke:none"
                   id="path4800"
                   inkscape:connector-curvature="0" /></g><g
                 id="g4802"
                 transform="translate(60.0271,387.6655)"><path
                   d="m 0,0 c 0,1.165 0,3.428 2.733,3.428 2.644,0 2.644,-1.903 2.644,-2.8 V -6.115 C 5.377,-6.921 5.332,-8.959 2.643,-8.959 0,-8.959 0,-6.944 0,-5.532 Z m 3.606,0.807 c 0,0.56 -0.022,1.143 -0.873,1.143 -0.94,0 -0.94,-0.762 -0.94,-1.3 v -7.056 c 0,-0.471 0,-1.075 0.872,-1.075 0.897,0 0.941,0.672 0.941,1.21 z"
                   style="fill:#ffffff;fill-opacity:1;fill-rule:nonzero;stroke:none"
                   id="path4804"
                   inkscape:connector-curvature="0" /></g><g
                 id="g4806"
                 transform="translate(68.8295,390.0856)"><path
                   d="m 0,0 c 0.292,0.381 0.739,1.008 1.724,1.008 1.391,0 1.793,-0.986 1.793,-2.24 v -7.639 c 0,-0.493 0,-2.463 -1.837,-2.463 -0.985,0 -1.433,0.671 -1.68,1.006 v -4.098 H -1.792 V 0.828 H 0 Z m 1.724,-1.77 c 0,0.74 -0.155,1.188 -0.805,1.188 C 0,-0.582 0,-1.478 0,-2.039 v -6.563 c 0,-0.337 0,-1.097 0.874,-1.097 0.627,0 0.85,0.47 0.85,1.142 z"
                   style="fill:#ffffff;fill-opacity:1;fill-rule:nonzero;stroke:none"
                   id="path4808"
                   inkscape:connector-curvature="0" /></g></g></g><path
             d="m 74.16,394.722 h 1.815 V 378.908 H 74.16 Z"
             style="fill:#ffffff;fill-opacity:1;fill-rule:nonzero;stroke:none"
             id="path4810"
             inkscape:connector-curvature="0" /><g
             id="g4812"><g
               id="g4814"
               clip-path="url(#clipPath4818)"><g
                 id="g4820"
                 transform="translate(77.8098,387.6208)"><path
                   d="m 0,0 c 0,0.851 0,1.501 0.226,2.016 0.358,0.964 1.343,1.457 2.463,1.457 2.643,0 2.643,-2.152 2.643,-2.687 v -3.899 h -3.56 v -3.361 c 0,-0.335 0,-0.985 0.851,-0.985 0.873,0 0.896,0.74 0.896,1.097 v 2.107 h 1.813 v -1.702 c 0,-0.718 0,-2.957 -2.732,-2.957 -0.381,0 -0.739,0.044 -1.076,0.157 C 0,-8.266 0,-6.966 0,-6.429 Z m 3.519,0.896 c 0,0.494 0,1.099 -0.83,1.099 -0.917,0 -0.917,-0.739 -0.917,-1.3 v -2.307 h 1.747 z"
                   style="fill:#ffffff;fill-opacity:1;fill-rule:nonzero;stroke:none"
                   id="path4822"
                   inkscape:connector-curvature="0" /></g></g></g><path
             d="m 84.912,390.891 h 1.792 v -11.983 h -1.792 z m 1.814,1.389 h -1.769 v 2.397 h 1.769 z"
             style="fill:#ffffff;fill-opacity:1;fill-rule:nonzero;stroke:none"
             id="path4824"
             inkscape:connector-curvature="0" /><g
             id="g4826"><g
               id="g4828"
               clip-path="url(#clipPath4832)"><g
                 id="g4834"
                 transform="translate(92.0586,394.7449)"><path
                   d="M 0,0 H 1.815 V -15.837 H 0 v 0.828 c -0.292,-0.402 -0.695,-1.008 -1.659,-1.008 -1.815,0 -1.815,1.636 -1.815,2.15 v 7.976 c 0,1.232 0.448,2.217 1.838,2.217 0.785,0 1.233,-0.47 1.636,-0.896 z m 0,-6.451 c 0,0.38 -0.023,1.142 -0.83,1.142 -0.873,0 -0.873,-0.784 -0.873,-1.233 v -6.899 c 0,-0.314 0,-0.962 0.807,-0.962 0.896,0 0.896,1.006 0.896,1.41 z"
                   style="fill:#ffffff;fill-opacity:1;fill-rule:nonzero;stroke:none"
                   id="path4836"
                   inkscape:connector-curvature="0" /></g></g></g><path
             d="m 95.665,390.891 h 1.79 v -11.983 h -1.79 z m 1.813,1.389 h -1.769 v 2.397 h 1.769 z"
             style="fill:#ffffff;fill-opacity:1;fill-rule:nonzero;stroke:none"
             id="path4838"
             inkscape:connector-curvature="0" /><g
             id="g4840"><g
               id="g4842"
               clip-path="url(#clipPath4846)"><g
                 id="g4848"
                 transform="translate(101.0852,390.1302)"><path
                   d="m 0,0 c 0.313,0.381 0.784,0.987 1.769,0.987 1.814,0 1.814,-1.681 1.814,-2.489 v -9.72 H 1.747 v 9.386 c 0,0.514 0,1.165 -0.784,1.165 -0.94,0 -0.94,-0.875 -0.94,-1.479 v -9.072 H -1.77 V 0.761 H 0 Z"
                   style="fill:#ffffff;fill-opacity:1;fill-rule:nonzero;stroke:none"
                   id="path4850"
                   inkscape:connector-curvature="0" /></g><g
                 id="g4852"
                 transform="translate(106.2808,388.8982)"><path
                   d="m 0,0 c 0,0.448 0,1.143 0.516,1.703 0.358,0.359 0.761,0.516 1.299,0.516 1.12,0 1.569,-0.807 1.702,-1.054 v 0.851 h 1.792 v -12.41 c 0,-0.918 -0.201,-1.927 -1.254,-2.486 -0.492,-0.247 -1.031,-0.314 -1.455,-0.314 -0.83,0 -2.689,0.336 -2.6,2.464 h 1.793 c -0.023,-0.157 -0.067,-0.962 0.873,-0.962 0.828,0 0.828,0.76 0.828,0.986 v 1.544 C 3.047,-9.789 2.554,-10.102 1.838,-10.102 1.076,-10.102 0,-9.833 0,-8.065 Z m 3.517,-0.94 c 0,0.761 -0.067,1.522 -0.917,1.522 -0.852,0 -0.852,-0.65 -0.852,-1.881 v -5.915 c 0,-0.65 0.022,-1.276 0.827,-1.276 0.898,0 0.942,0.806 0.942,1.344 z"
                   style="fill:#ffffff;fill-opacity:1;fill-rule:nonzero;stroke:none"
                   id="path4854"
                   inkscape:connector-curvature="0" /></g><g
                 id="g4856"
                 transform="translate(85.8192,403.7917)"><path
                   d="m 0,0 c -20.75,0 -37.63,16.881 -37.63,37.631 0,20.751 16.88,37.632 37.63,37.632 20.751,0 37.632,-16.881 37.632,-37.632 C 37.632,16.881 20.751,0 0,0 m 0,72.981 c -19.491,0 -35.348,-15.859 -35.348,-35.35 0,-19.49 15.857,-35.347 35.348,-35.347 19.493,0 35.35,15.857 35.35,35.347 0,19.491 -15.857,35.35 -35.35,35.35"
                   style="fill:#ffffff;fill-opacity:1;fill-rule:nonzero;stroke:none"
                   id="path4858"
                   inkscape:connector-curvature="0" /></g><g
                 id="g4860"
                 transform="translate(81.5235,445.8329)"><path
                   d="m 0,0 c -5.245,0 -9.511,4.265 -9.511,9.51 0,5.243 4.266,9.509 9.511,9.509 5.243,0 9.51,-4.266 9.51,-9.509 C 9.51,4.265 5.243,0 0,0 m 0,18.315 c -4.855,0 -8.806,-3.95 -8.806,-8.805 0,-4.855 3.951,-8.805 8.806,-8.805 4.854,0 8.805,3.95 8.805,8.805 0,4.855 -3.951,8.805 -8.805,8.805"
                   style="fill:#ffffff;fill-opacity:1;fill-rule:nonzero;stroke:none"
                   id="path4862"
                   inkscape:connector-curvature="0" /></g><g
                 id="g4864"
                 transform="translate(81.5235,449.8849)"><path
                   d="m 0,0 c -3.009,0 -5.458,2.448 -5.458,5.458 0,3.009 2.449,5.459 5.458,5.459 3.009,0 5.458,-2.45 5.458,-5.459 C 5.458,2.448 3.009,0 0,0 m 0,10.274 c -2.657,0 -4.816,-2.16 -4.816,-4.816 0,-2.655 2.159,-4.816 4.816,-4.816 2.655,0 4.814,2.161 4.814,4.816 0,2.656 -2.159,4.816 -4.814,4.816"
                   style="fill:#ffffff;fill-opacity:1;fill-rule:nonzero;stroke:none"
                   id="path4866"
                   inkscape:connector-curvature="0" /></g><g
                 id="g4868"
                 transform="translate(97.1974,417.0017)"><path
                   d="m 0,0 h -15.869 l -0.205,0.607 c -0.03,0.084 -3.008,8.688 -10.137,15.887 -0.076,0.07 -0.576,0.582 -0.591,1.484 -0.015,0.877 0.437,1.777 1.339,2.681 0.094,0.098 1.077,1.084 2.433,1.084 0.764,0 1.492,-0.324 2.105,-0.936 l 0.065,-0.07 2.431,-3.017 v 19.722 l 0.046,0.139 c 0.058,0.177 0.65,1.728 3.229,1.728 h 0.003 c 2.001,0 3.198,-0.799 3.198,-2.084 v -8.933 c 0.502,0.221 1.137,0.372 1.935,0.372 0.922,-0.061 2.445,-0.582 2.934,-2.061 0.578,0.281 1.33,0.497 2.279,0.497 1.192,-0.033 2.836,-0.703 3.386,-2.354 0.531,0.246 1.243,0.419 2.197,0.419 C 1.973,25.093 4.13,24.351 4.13,22.036 L 4.123,12.623 C 4.085,12.311 3.171,4.923 0.265,0.41 Z m -14.604,1.786 h 13.619 c 2.373,4.02 3.246,10.37 3.327,11.001 v 9.249 c 0,1.231 -1.551,1.339 -1.618,1.344 -1.197,-0.002 -1.736,-0.383 -1.885,-0.63 l -0.07,-3.19 -1.788,0.02 v 3.946 c 0,1.628 -1.513,1.775 -1.817,1.788 -1.12,0 -1.784,-0.455 -2.091,-0.743 v -4.469 l -1.787,-0.007 -0.039,5.039 0.039,0.088 v 0.351 c 0,1.103 -1.049,1.28 -1.371,1.307 -1.237,-0.003 -1.723,-0.576 -1.868,-0.803 v -4.189 h -1.786 v 15.337 c -0.084,0.12 -0.642,0.298 -1.343,0.298 -1.026,0 -1.425,-0.307 -1.561,-0.463 V 12.655 l -5.577,6.92 c -0.267,0.256 -0.532,0.382 -0.81,0.382 -0.504,0 -1.01,-0.399 -1.161,-0.552 -0.92,-0.92 -0.9,-1.475 -0.745,-1.66 6.397,-6.459 9.512,-13.811 10.332,-15.959"
                   style="fill:#ffffff;fill-opacity:1;fill-rule:nonzero;stroke:none"
                   id="path4870"
                   inkscape:connector-curvature="0" /></g><g
                 id="g4872"
                 transform="translate(60.1973,233.6028)"><path
                   d="m 0,0 h 1.792 v -4.659 c 0.158,0.269 0.605,1.008 1.726,1.008 0.671,0 1.209,-0.29 1.499,-0.739 0.269,-0.426 0.314,-0.941 0.314,-1.322 v -7.571 c 0,-0.448 0,-2.733 -2.195,-2.733 -1.232,0 -1.569,0.805 -1.724,1.21 -0.247,-0.426 -0.292,-0.538 -0.404,-1.008 H 0 Z m 3.518,-6.25 c 0,0.359 0,1.008 -0.786,1.008 -0.873,0 -0.94,-0.851 -0.94,-1.165 v -6.697 c 0,-0.605 0,-1.276 0.851,-1.276 0.584,0 0.875,0.426 0.875,1.029 z"
                   style="fill:#ffffff;fill-opacity:1;fill-rule:nonzero;stroke:none"
                   id="path4874"
                   inkscape:connector-curvature="0" /></g><g
                 id="g4876"
                 transform="translate(67.2077,226.5011)"><path
                   d="m 0,0 c 0,0.852 0,1.502 0.224,2.017 0.358,0.963 1.345,1.456 2.463,1.456 2.645,0 2.645,-2.151 2.645,-2.687 V -3.113 H 1.77 v -3.36 c 0,-0.336 0,-0.985 0.852,-0.985 0.872,0 0.895,0.739 0.895,1.096 v 2.107 h 1.815 v -1.702 c 0,-0.718 0,-2.957 -2.733,-2.957 -0.381,0 -0.739,0.045 -1.075,0.157 C 0,-8.266 0,-6.966 0,-6.429 Z m 3.517,0.896 c 0,0.494 0,1.099 -0.83,1.099 -0.917,0 -0.917,-0.739 -0.917,-1.3 v -2.307 h 1.747 z"
                   style="fill:#ffffff;fill-opacity:1;fill-rule:nonzero;stroke:none"
                   id="path4878"
                   inkscape:connector-curvature="0" /></g></g></g><path
             d="m 74.309,233.603 h 1.814 v -15.814 h -1.814 z"
             style="fill:#ffffff;fill-opacity:1;fill-rule:nonzero;stroke:none"
             id="path4880"
             inkscape:connector-curvature="0" /><g
             id="g4882"><g
               id="g4884"
               clip-path="url(#clipPath4888)"><g
                 id="g4890"
                 transform="translate(77.9815,227.3972)"><path
                   d="m 0,0 c 0,0.673 0,2.601 2.599,2.601 2.598,0 2.598,-1.794 2.598,-2.577 v -7.595 c 0,-0.739 0.022,-1.389 0.335,-2.038 H 3.606 C 3.428,-9.183 3.405,-9.093 3.293,-8.645 2.957,-9.162 2.554,-9.744 1.569,-9.744 c -1.703,0 -1.703,1.434 -1.703,2.016 V -5.6 c 0,0.875 0,1.547 1.097,2.242 l 1.726,1.075 c 0.381,0.246 0.716,0.582 0.716,0.693 v 1.794 c 0,0.402 -0.066,0.917 -0.785,0.917 -0.782,0 -0.782,-0.56 -0.782,-0.896 V -1.454 H 0 Z M 3.405,-3.65 C 3.225,-3.807 2.689,-4.188 2.306,-4.435 1.793,-4.792 1.658,-5.151 1.658,-5.667 v -1.209 c 0,-0.628 0,-1.434 0.717,-1.434 1.03,0 1.03,1.545 1.03,1.838 z"
                   style="fill:#ffffff;fill-opacity:1;fill-rule:nonzero;stroke:none"
                   id="path4892"
                   inkscape:connector-curvature="0" /></g><g
                 id="g4894"
                 transform="translate(86.7404,229.0111)"><path
                   d="m 0,0 c 0.314,0.381 0.784,0.987 1.769,0.987 1.815,0 1.815,-1.682 1.815,-2.488 v -9.722 H 1.747 v 9.386 c 0,0.515 0,1.166 -0.784,1.166 -0.94,0 -0.94,-0.875 -0.94,-1.479 v -9.073 H -1.77 V 0.761 H 0 Z"
                   style="fill:#ffffff;fill-opacity:1;fill-rule:nonzero;stroke:none"
                   id="path4896"
                   inkscape:connector-curvature="0" /></g><g
                 id="g4898"
                 transform="translate(91.936,227.7784)"><path
                   d="m 0,0 c 0,0.448 0,1.143 0.516,1.703 0.358,0.359 0.761,0.516 1.299,0.516 1.12,0 1.568,-0.807 1.701,-1.054 v 0.851 h 1.793 v -12.41 c 0,-0.918 -0.202,-1.927 -1.254,-2.486 -0.492,-0.245 -1.031,-0.314 -1.455,-0.314 -0.83,0 -2.689,0.337 -2.6,2.464 h 1.792 c -0.022,-0.157 -0.067,-0.963 0.874,-0.963 0.828,0 0.828,0.762 0.828,0.987 v 1.544 C 3.047,-9.789 2.554,-10.102 1.837,-10.102 1.076,-10.102 0,-9.833 0,-8.064 Z m 3.516,-0.94 c 0,0.762 -0.066,1.523 -0.916,1.523 -0.853,0 -0.853,-0.65 -0.853,-1.881 v -5.915 c 0,-0.649 0.023,-1.277 0.829,-1.277 0.895,0 0.94,0.806 0.94,1.344 z"
                   style="fill:#ffffff;fill-opacity:1;fill-rule:nonzero;stroke:none"
                   id="path4900"
                   inkscape:connector-curvature="0" /></g><g
                 id="g4902"
                 transform="translate(98.9924,226.5011)"><path
                   d="m 0,0 c 0,0.852 0,1.502 0.224,2.017 0.358,0.963 1.343,1.456 2.462,1.456 2.645,0 2.645,-2.151 2.645,-2.687 V -3.113 H 1.77 v -3.36 c 0,-0.336 0,-0.985 0.85,-0.985 0.874,0 0.896,0.739 0.896,1.096 v 2.107 h 1.815 v -1.702 c 0,-0.718 0,-2.957 -2.734,-2.957 -0.38,0 -0.738,0.045 -1.074,0.157 C 0,-8.266 0,-6.966 0,-6.429 Z m 3.516,0.896 c 0,0.494 0,1.099 -0.83,1.099 -0.916,0 -0.916,-0.739 -0.916,-1.3 v -2.307 h 1.746 z"
                   style="fill:#ffffff;fill-opacity:1;fill-rule:nonzero;stroke:none"
                   id="path4904"
                   inkscape:connector-curvature="0" /></g><g
                 id="g4906"
                 transform="translate(107.7718,229.0111)"><path
                   d="m 0,0 c 0.313,0.381 0.785,0.987 1.77,0.987 1.814,0 1.814,-1.682 1.814,-2.488 v -9.722 H 1.748 v 9.386 c 0,0.515 0,1.166 -0.785,1.166 -0.94,0 -0.94,-0.875 -0.94,-1.479 v -9.073 H -1.77 V 0.761 H 0 Z"
                   style="fill:#ffffff;fill-opacity:1;fill-rule:nonzero;stroke:none"
                   id="path4908"
                   inkscape:connector-curvature="0" /></g><g
                 id="g4910"
                 transform="translate(85.8204,242.217)"><path
                   d="m 0,0 c -20.75,0 -37.631,16.881 -37.631,37.632 0,20.75 16.881,37.631 37.631,37.631 20.75,0 37.632,-16.881 37.632,-37.631 C 37.632,16.881 20.75,0 0,0 m 0,72.981 c -19.491,0 -35.348,-15.858 -35.348,-35.349 0,-19.491 15.857,-35.348 35.348,-35.348 19.491,0 35.349,15.857 35.349,35.348 0,19.491 -15.858,35.349 -35.349,35.349"
                   style="fill:#ffffff;fill-opacity:1;fill-rule:nonzero;stroke:none"
                   id="path4912"
                   inkscape:connector-curvature="0" /></g><g
                 id="g4914"
                 transform="translate(83.0424,288.7573)"><path
                   d="m 0,0 c 2.312,-8.708 2.365,-18.387 2.365,-18.387 l 1.238,0.01 V 3.691 h 0.019 v -22.068 l 1.236,-0.01 c 0,0 0.055,9.679 2.367,18.387 0,0 1.273,5.832 1.379,8.809 h -0.01 c 0,0.016 0.001,0.032 0.001,0.048 0,2.853 -2.235,5.165 -4.992,5.165 -2.756,0 -4.991,-2.312 -4.991,-5.165 0,-0.242 0.017,-0.48 0.049,-0.714 C -1.1,5.042 0,0 0,0 m 3.543,-20.909 c -2.706,0 -4.899,-2.193 -4.899,-4.899 0,-2.705 2.193,-4.899 4.899,-4.899 2.706,0 4.899,2.194 4.899,4.899 0,2.706 -2.193,4.899 -4.899,4.899"
                   style="fill:#ffffff;fill-opacity:1;fill-rule:nonzero;stroke:none"
                   id="path4916"
                   inkscape:connector-curvature="0" /></g></g></g><text
             transform="matrix(1,0,0,-1,147.4016,631.4645)"
             style="font-variant:normal;font-weight:500;font-stretch:condensed;font-size:16px;font-family:'Akzidenz-Grotesk Pro Med Cnd';-inkscape-font-specification:AkzidenzGroteskPro-MdCn;writing-mode:lr-tb;fill:#ffffff;fill-opacity:1;fill-rule:nonzero;stroke:none"
             id="text4920"><tspan
               x="0 5.664 10.672 13.344 18.351999 21.344 25.68 30.688 35.695999 38.688 41.023998 44.015999 47.007999 51.678398 56.686401 59.358398"
               y="0"
               sodipodi:role="line"
               id="tspan4918">Held van ‘t Veld</tspan></text>
<text
             transform="matrix(1,0,0,-1,225.2315,631.4645)"
             style="font-variant:normal;font-weight:normal;font-stretch:normal;font-size:8px;font-family:'Wingdings 2';-inkscape-font-specification:Wingdings2;writing-mode:lr-tb;fill:#ffffff;fill-opacity:1;fill-rule:nonzero;stroke:none"
             id="text4924"><tspan
               x="0"
               y="0"
               id="tspan4922"></tspan></text>
<text
             transform="matrix(1,0,0,-1,243.1289,631.4645)"
             style="font-variant:normal;font-weight:500;font-stretch:condensed;font-size:16px;font-family:'Akzidenz-Grotesk Pro Med Cnd';-inkscape-font-specification:AkzidenzGroteskPro-MdCn;writing-mode:lr-tb;fill:#ffffff;fill-opacity:1;fill-rule:nonzero;stroke:none"
             id="text4928"><tspan
               x="0 5.0079999 9.3439999 17.007999 21.68 26.688 31.695999 36.703999 38.734402"
               y="0"
               sodipodi:role="line"
               id="tspan4926">gymkana’s</tspan></text>
<text
             transform="matrix(1,0,0,-1,299.9993,631.4645)"
             style="font-variant:normal;font-weight:normal;font-stretch:normal;font-size:8px;font-family:'Wingdings 2';-inkscape-font-specification:Wingdings2;writing-mode:lr-tb;fill:#ffffff;fill-opacity:1;fill-rule:nonzero;stroke:none"
             id="text4932"><tspan
               x="0"
               y="0"
               id="tspan4930"></tspan></text>
<text
             transform="matrix(1,0,0,-1,317.8967,631.4645)"
             style="font-variant:normal;font-weight:500;font-stretch:condensed;font-size:16px;font-family:'Akzidenz-Grotesk Pro Med Cnd';-inkscape-font-specification:AkzidenzGroteskPro-MdCn;writing-mode:lr-tb;fill:#ffffff;fill-opacity:1;fill-rule:nonzero;stroke:none"
             id="text4936"><tspan
               x="0 2.9920001 8 10.672 15.008 20.016001"
               y="0"
               sodipodi:role="line"
               id="tspan4934">fuiven</tspan></text>
<text
             transform="matrix(1,0,0,-1,356.3836,631.4645)"
             style="font-variant:normal;font-weight:normal;font-stretch:normal;font-size:8px;font-family:'Wingdings 2';-inkscape-font-specification:Wingdings2;writing-mode:lr-tb;fill:#ffffff;fill-opacity:1;fill-rule:nonzero;stroke:none"
             id="text4940"><tspan
               x="0"
               y="0"
               id="tspan4938"></tspan></text>
<text
             transform="matrix(1,0,0,-1,374.2809,631.4645)"
             style="font-variant:normal;font-weight:500;font-stretch:condensed;font-size:16px;font-family:'Akzidenz-Grotesk Pro Med Cnd';-inkscape-font-specification:AkzidenzGroteskPro-MdCn;writing-mode:lr-tb;fill:#ffffff;fill-opacity:1;fill-rule:nonzero;stroke:none"
             id="text4944"><tspan
               x="0 5.0079999 10.016 13.008 16 21.007999 25.68 28.672001 31.344 34.015999 39.023998 44.032001"
               y="0"
               sodipodi:role="line"
               id="tspan4942">eetfestijnen</tspan></text>
<text
             transform="matrix(1,0,0,-1,147.4016,609.4299)"
             style="font-variant:normal;font-weight:500;font-stretch:condensed;font-size:16px;font-family:'Akzidenz-Grotesk Pro Med Cnd';-inkscape-font-specification:AkzidenzGroteskPro-MdCn;writing-mode:lr-tb;fill:#ffffff;fill-opacity:1;fill-rule:nonzero;stroke:none"
             id="text4948"><tspan
               x="0 2.9920001 6.336 11.344 16.016001 20.688 25.695999 29.360001 33.023998 36.015999 39.358398 44.366402"
               y="0"
               sodipodi:role="line"
               id="tspan4946">trekker-trek</tspan></text>
<text
             transform="matrix(1,0,0,-1,209.9039,609.4299)"
             style="font-variant:normal;font-weight:normal;font-stretch:normal;font-size:8px;font-family:'Wingdings 2';-inkscape-font-specification:Wingdings2;writing-mode:lr-tb;fill:#ffffff;fill-opacity:1;fill-rule:nonzero;stroke:none"
             id="text4952"><tspan
               x="0"
               y="0"
               id="tspan4950"></tspan></text>
<text
             transform="matrix(1,0,0,-1,227.8012,609.4299)"
             style="font-variant:normal;font-weight:500;font-stretch:condensed;font-size:16px;font-family:'Akzidenz-Grotesk Pro Med Cnd';-inkscape-font-specification:AkzidenzGroteskPro-MdCn;writing-mode:lr-tb;fill:#ffffff;fill-opacity:1;fill-rule:nonzero;stroke:none"
             id="text4956"><tspan
               x="0 5.0079999 10.016 15.024 20.032 22.704 25.695999 30.368 33.360001 38.368 43.375999 48.383999 53.391998"
               y="0"
               sodipodi:role="line"
               id="tspan4954">daguitstappen</tspan></text>
<text
             transform="matrix(1,0,0,-1,301.9069,609.4299)"
             style="font-variant:normal;font-weight:normal;font-stretch:normal;font-size:8px;font-family:'Wingdings 2';-inkscape-font-specification:Wingdings2;writing-mode:lr-tb;fill:#ffffff;fill-opacity:1;fill-rule:nonzero;stroke:none"
             id="text4960"><tspan
               x="0"
               y="0"
               id="tspan4958"></tspan></text>
<text
             transform="matrix(1,0,0,-1,319.8042,609.4299)"
             style="font-variant:normal;font-weight:500;font-stretch:condensed;font-size:16px;font-family:'Akzidenz-Grotesk Pro Med Cnd';-inkscape-font-specification:AkzidenzGroteskPro-MdCn;writing-mode:lr-tb;fill:#ffffff;fill-opacity:1;fill-rule:nonzero;stroke:none"
             id="text4964"><tspan
               x="0 4.6719999 9.6800003 14.688 18.351999 21.344 24.336 29.344 34.352001 37.344002 42.015999 47.023998 52.032001"
               y="0"
               sodipodi:role="line"
               id="tspan4962">sport en spel</tspan></text>
<text
             transform="matrix(1,0,0,-1,374.5063,609.4299)"
             style="font-variant:normal;font-weight:500;font-stretch:condensed;font-size:12px;font-family:'Akzidenz-Grotesk Pro Med Cnd';-inkscape-font-specification:AkzidenzGroteskPro-MdCn;writing-mode:lr-tb;fill:#ffffff;fill-opacity:1;fill-rule:nonzero;stroke:none"
             id="text4968"><tspan
               x="0 2.244"
               y="0"
               sodipodi:role="line"
               id="tspan4966">  </tspan></text>
<text
             transform="matrix(1,0,0,-1,147.4016,585.0913)"
             style="font-variant:normal;font-weight:normal;font-stretch:normal;font-size:10px;font-family:'Akzidenz-Grotesk Pro Regular';-inkscape-font-specification:AkzidenzGroteskPro-Regular;writing-mode:lr-tb;fill:#ffffff;fill-opacity:1;fill-rule:nonzero;stroke:none"
             id="text4972"><tspan
               x="0 8.1199999 11.25 16.67 21.879999 27.09 32.299999 36.674 42.723999 45.854 47.933998 53.144001 58.764 63.139 65.219002 70.009003 74.384003 79.594002 84.804001 90.014 94.388 100.008 105.218 112.508 117.718 123.338 125.418 130.62801 136.248 140.623 144.993 150.41299 155.83299 158.963 163.33701 165.41701 170.83701 176.047 181.66701 186.877 190.007 195.217 200.427 204.802 212.51199 217.722 220.642 225.01601 230.226 235.436 240.646 245.021 250.231 255.231 258.36099 261.28101 265.655 270.02499 275.44501 280.86499 283.995 288.37 293.98999 299.20001 303.57501 305.655 310.655 315.86499 321.48499 325.185 329.55899 334.76901 339.979 344.354 347.27399 352.48401 354.564 359.77399 365.39401 370.814 376.02399 383.314 388.104 393.314 398.52399 401.444 406.86401 409.58301 411.87299"
               y="0"
               sodipodi:role="line"
               id="tspan4970">Groene Kring is een beweging voor jongeren met een hart voor de land- en tuinbouwsector. </tspan></text>
<text
             transform="matrix(1,0,0,-1,147.4016,572.0913)"
             style="font-variant:normal;font-weight:normal;font-stretch:normal;font-size:10px;font-family:'Akzidenz-Grotesk Pro Regular';-inkscape-font-specification:AkzidenzGroteskPro-Regular;writing-mode:lr-tb;fill:#ffffff;fill-opacity:1;fill-rule:nonzero;stroke:none"
             id="text4976"><tspan
               x="0 7.0799999 12.29 17.459999 23.08 25.16 30.16 35.16 38.080002 42.869999 48.080002 50.16 52.240002 54.32 58.900002 64.110001 69.279999 74.900002 80.110001 87.400002 92.610001 97.400002 100.32 105.53 110.74 115.91 121.53 124.66 129.87 135.08 140.7 145.91 151.12 156.28999 161.91 167.12 172.28999 174.37 179.58 185.2 190.41 195.62 200.78999 205.78999 210.78999 218.5 223.71001 228.92 234.09 239.3 244.50999 249.67999 255.10001 258.23001 263.85001 268.85001 274.06 276.14001 280.92999 286.14001 289.26999 294.48001 299.69 304.85999 307.98999 312.98999 315.07001 320.23999 324.60999 329.60999 334.82001 339.98999 344.98999 350.20001 353.12 355.20001 359.57001 361.64999 364.57001 369.78 371.85999 374.78 379.98999 385.20001 390.37 394.54001 399.95999 404.95999 407.04001 411.82999"
               y="0"
               sodipodi:role="line"
               id="tspan4974">De plaatselijke gewesten brengen de leden samen en organiseren tal van activiteiten zoals </tspan></text>
<text
             transform="matrix(1,0,0,-1,147.4016,559.0913)"
             style="font-variant:normal;font-weight:normal;font-stretch:normal;font-size:10px;font-family:'Akzidenz-Grotesk Pro Regular';-inkscape-font-specification:AkzidenzGroteskPro-Regular;writing-mode:lr-tb;fill:#ffffff;fill-opacity:1;fill-rule:nonzero;stroke:none"
             id="text4980"><tspan
               x="0 4.79 7.71 12.92 18.540001 20.620001 25.83 30.200001 35.41 38.540001 44.16 49.16 54.779999 59.990002 63.119999 65.199997 70.410004 76.029999 81.239998 86.449997 88.739998 94.849998 100.47 105.68 111.3 114.43 116.51 118.59 121.3 126.09 131.71001 136.92 141.09 146.50999 151.72 156.3 161.50999 166.72 172.83 178.03999 183.25 189.36 194.98 198.11 203.53 206.45 211.66 214.78999 220 226.11 231.32001 235.69 240.89999 246.11 251.32001 259.03 264.23999 269.45001 272.37 277.57999 282.79001 288.89999 293.07001 298.48999 303.48999 305.57001 310.35999 316.47 321.67999 326.89001 332.10001 338.20999 343.82999 348.20001 355.91 360.70001 365.70001 370.91 375.91 382.01999 387.44 390.14999 396.26001 401.47 406.67999 411.89001"
               y="0"
               sodipodi:role="line"
               id="tspan4978">studievergaderingen, bedrijfsbezoeken en grotere evenementen zoals een gymkana of een </tspan></text>
<text
             transform="matrix(1,0,0,-1,147.4016,546.0913)"
             style="font-variant:normal;font-weight:normal;font-stretch:normal;font-size:10px;font-family:'Akzidenz-Grotesk Pro Regular';-inkscape-font-specification:AkzidenzGroteskPro-Regular;writing-mode:lr-tb;fill:#ffffff;fill-opacity:1;fill-rule:nonzero;stroke:none"
             id="text4984"><tspan
               x="0 7.71 12.92 18.129999 21.26 26.879999 31.879999 36.880001 42.5 47.290001 52.5 57.080002 60.209999 65.419998 67.5 72.290001 74.580002 79.160004 87.279999 92.699997 97.279999 101.86 107.28 112.9 117.48 123.1 126.23 131.64999 136.02 138.10001 143.31 148.52 150.60001 155.60001 160.60001 162.67999 167.25999 172.47 174.55 178.92 184.13 189.13 194.34 198.92 204.34 209.55 212.47 220.17999 225.60001 230.81 233.73 238.94 244.14999 248.73 256.01999 261.23001 265.81 271.01999 273.10001 277.89001 282.89001 287.89001 290.60999 292.89999 297.48001 304.56 309.76999 314.35001 319.97 323.10001 328.51999 332.89001 334.97 340.17999 345.39001 347.47 352.47 354.54999 359.76001 364.34 368.92001 374.13 377.26001 382.47 387.04999 389.13 393.92001 398.5 403.70999 408.92001 411.84"
               y="0"
               sodipodi:role="line"
               id="tspan4982">meerdaagse reis. Ook op provinciaal niveau ontmoeten we elkaar. De provinciale kern is het </tspan></text>
<text
             transform="matrix(1,0,0,-1,147.4016,533.0913)"
             style="font-variant:normal;font-weight:normal;font-stretch:normal;font-size:10px;font-family:'Akzidenz-Grotesk Pro Regular';-inkscape-font-specification:AkzidenzGroteskPro-Regular;writing-mode:lr-tb;fill:#ffffff;fill-opacity:1;fill-rule:nonzero;stroke:none"
             id="text4988"><tspan
               x="0 5.6199999 10.83 15.62 18.540001 23.75 28.959999 32.09 35.599998 41.220001 46.220001 49.139999 52.650002 58.27 63.48 68.269997 70.349998 72.43 77.220001 80.139999 83.650002 89.07 93.440002 98.650002 101.78 105.29 110.91 116.12 119.63 121.71 126.71 131.71001 134.84 136.92 139 141.08 145.66 150.45 155.66 159.17 164.17 169.38 172.3 174.38 178.75 180.83 183.75 188.96001 191.03999 193.96001 199.17 204.38 207.89 213.50999 215.59 220.8 224.31 226.39 231.60001 235.11 240.73 245.94 249.45 255.07001 258.20001 263.62 267.98999 270.07001 275.28 280.48999 282.57001 287.78 291.29001 296.91 302.12 307.54001 310.67001 316.29001 321.29001 326.5 328.57999 333.37 338.57999 343.79001 346.92001 352.54001 356.04999 363.34 368.76001 371.89001 377.51001 382.72 387.92999 390.22 393.73001 400.81 406.23001 411.85001"
               y="0"
               sodipodi:role="line"
               id="tspan4986">bestuur dat beslist over de jaarlijkse activiteiten die in de provincie georganiseerd worden. Nog </tspan></text>
<text
             transform="matrix(1,0,0,-1,147.4016,520.0913)"
             style="font-variant:normal;font-weight:normal;font-stretch:normal;font-size:10px;font-family:'Akzidenz-Grotesk Pro Regular';-inkscape-font-specification:AkzidenzGroteskPro-Regular;writing-mode:lr-tb;fill:#ffffff;fill-opacity:1;fill-rule:nonzero;stroke:none"
             id="text4992"><tspan
               x="0 5.6199999 10.83 16.040001 21.25 24.959999 29.959999 35.169998 38.09 40.169998 44.540001 46.619999 49.540001 54.75 56.830002 59.75 63.459999 67.830002 72.830002 78.040001 81.75 89.870003 93 98.419998 103.63 108.84 114.05 117.76 123.811 126.941 129.021 134.231 139.851 143.561 149.181 151.261 153.341 158.961 164.17101 171.461 176.881 182.30099 187.511 193.131 198.75101 202.461 208.92101 211.00101 215.791 219.50101 221.58099 223.661 229.28101 232.991 237.36099 242.36099 247.571 251.28101 259.401 262.53101 267.95099 273.16101 278.371 283.58099 287.29099 293.341 296.47101 298.55099 303.76099 309.38101 313.091 318.30099 323.51099 329.13101 332.841 334.92099 340.13101 343.841 346.76099 352.181 357.39099 363.01099 368.01099 373.22101 378.841 382.55099 385.47101 390.89099 393.811 397.521 402.521 404.60101 406.681 411.89099"
               y="0"
               sodipodi:role="line"
               id="tspan4990">geen activiteit van Groene Kring bijgewoond? Als lid van Groene Kring heb je toegang tot alle </tspan></text>
<text
             transform="matrix(1,0,0,-1,147.4016,507.0913)"
             style="font-variant:normal;font-weight:normal;font-stretch:normal;font-size:10px;font-family:'Akzidenz-Grotesk Pro Regular';-inkscape-font-specification:AkzidenzGroteskPro-Regular;writing-mode:lr-tb;fill:#ffffff;fill-opacity:1;fill-rule:nonzero;stroke:none"
             id="text4996"><tspan
               x="0 5 10.21 13.13 15.21 19.58 21.66 24.58 29.790001 31.870001 34.790001 40 45.209999 47.919998 50 55.209999 57.919998 63.549 65.628998 70.628998 75.628998 80.838997 86.459 91.668999 94.799004 100.009 105.219"
               y="0"
               sodipodi:role="line"
               id="tspan4994">activiteiten in Vlaanderen.</tspan></text>
<text
             transform="matrix(1,0,0,-1,147.4016,467.0551)"
             style="font-variant:normal;font-weight:500;font-stretch:condensed;font-size:16px;font-family:'Akzidenz-Grotesk Pro Med Cnd';-inkscape-font-specification:AkzidenzGroteskPro-MdCn;writing-mode:lr-tb;fill:#ffffff;fill-opacity:1;fill-rule:nonzero;stroke:none"
             id="text5000"><tspan
               x="0 5.0079999 10.016 15.024 18.688 21.360001 24.032 27.024 31.695999 36.703999 41.566399 45.902401 50.9104 55.9184 60.590401 65.598396"
               y="0"
               sodipodi:role="line"
               id="tspan4998">bedrijfsbezoeken</tspan></text>
<text
             transform="matrix(1,0,0,-1,231.471,467.0551)"
             style="font-variant:normal;font-weight:normal;font-stretch:normal;font-size:8px;font-family:'Wingdings 2';-inkscape-font-specification:Wingdings2;writing-mode:lr-tb;fill:#ffffff;fill-opacity:1;fill-rule:nonzero;stroke:none"
             id="text5004"><tspan
               x="0"
               y="0"
               id="tspan5002"></tspan></text>
<text
             transform="matrix(1,0,0,-1,249.3684,467.0551)"
             style="font-variant:normal;font-weight:500;font-stretch:condensed;font-size:16px;font-family:'Akzidenz-Grotesk Pro Med Cnd';-inkscape-font-specification:AkzidenzGroteskPro-MdCn;writing-mode:lr-tb;fill:#ffffff;fill-opacity:1;fill-rule:nonzero;stroke:none"
             id="text5008"><tspan
               x="0 4.6719999 7.664 12.672 16.336 19.327999 24.336 27.854401 32.526402 37.406399 42.414398 45.934399 50.6064 55.614399"
               y="0"
               sodipodi:role="line"
               id="tspan5006">starterscursus</tspan></text>
<text
             transform="matrix(1,0,0,-1,323.1185,467.0551)"
             style="font-variant:normal;font-weight:normal;font-stretch:normal;font-size:8px;font-family:'Wingdings 2';-inkscape-font-specification:Wingdings2;writing-mode:lr-tb;fill:#ffffff;fill-opacity:1;fill-rule:nonzero;stroke:none"
             id="text5012"><tspan
               x="0"
               y="0"
               id="tspan5010"></tspan></text>
<text
             transform="matrix(1,0,0,-1,341.0158,467.0551)"
             style="font-variant:normal;font-weight:500;font-stretch:condensed;font-size:16px;font-family:'Akzidenz-Grotesk Pro Med Cnd';-inkscape-font-specification:AkzidenzGroteskPro-MdCn;writing-mode:lr-tb;fill:#ffffff;fill-opacity:1;fill-rule:nonzero;stroke:none"
             id="text5016"><tspan
               x="0 3.664 6.336 9.0080004 14.016 19.024 25.360001 28.032 30.704 35.375999 38.368"
               y="0"
               sodipodi:role="line"
               id="tspan5014">rijbewijs G</tspan></text>
<text
             transform="matrix(1,0,0,-1,398.5101,467.0551)"
             style="font-variant:normal;font-weight:normal;font-stretch:normal;font-size:8px;font-family:'Wingdings 2';-inkscape-font-specification:Wingdings2;writing-mode:lr-tb;fill:#ffffff;fill-opacity:1;fill-rule:nonzero;stroke:none"
             id="text5020"><tspan
               x="0"
               y="0"
               id="tspan5018"></tspan></text>
<text
             transform="matrix(1,0,0,-1,416.4074,467.0551)"
             style="font-variant:normal;font-weight:500;font-stretch:condensed;font-size:16px;font-family:'Akzidenz-Grotesk Pro Med Cnd';-inkscape-font-specification:AkzidenzGroteskPro-MdCn;writing-mode:lr-tb;fill:#ffffff;fill-opacity:1;fill-rule:nonzero;stroke:none"
             id="text5024"><tspan
               x="0 7.664 12.672 17.68 22.688 27.695999 32.703999 40.368 45.375999 50.383999"
               y="0"
               sodipodi:role="line"
               id="tspan5022">management</tspan></text>
<text
             transform="matrix(1,0,0,-1,147.4016,445.0205)"
             style="font-variant:normal;font-weight:500;font-stretch:condensed;font-size:16px;font-family:'Akzidenz-Grotesk Pro Med Cnd';-inkscape-font-specification:AkzidenzGroteskPro-MdCn;writing-mode:lr-tb;fill:#ffffff;fill-opacity:1;fill-rule:nonzero;stroke:none"
             id="text5028"><tspan
               x="0 5.0079999 10.016 15.024 18.688 21.360001 24.032 27.024 31.695999 36.703999 41.712002 46.048 51.056 53.728001 58.736 61.408001 66.416"
               y="0"
               sodipodi:role="line"
               id="tspan5026">bedrijfsopvolging</tspan></text>
<text
             transform="matrix(1,0,0,-1,232.2867,445.0205)"
             style="font-variant:normal;font-weight:normal;font-stretch:normal;font-size:8px;font-family:'Wingdings 2';-inkscape-font-specification:Wingdings2;writing-mode:lr-tb;fill:#ffffff;fill-opacity:1;fill-rule:nonzero;stroke:none"
             id="text5032"><tspan
               x="0"
               y="0"
               id="tspan5030"></tspan></text>
<text
             transform="matrix(1,0,0,-1,250.184,445.0205)"
             style="font-variant:normal;font-weight:500;font-stretch:condensed;font-size:16px;font-family:'Akzidenz-Grotesk Pro Med Cnd';-inkscape-font-specification:AkzidenzGroteskPro-MdCn;writing-mode:lr-tb;fill:#ffffff;fill-opacity:1;fill-rule:nonzero;stroke:none"
             id="text5036"><tspan
               x="0 5.0079999 8.3520002 13.36 18.191999 21.184 23.856001 26.528 31.200001 36.208 41.216 43.888 48.896 51.568001 56.576 59.248001 64.255997"
               y="0"
               sodipodi:role="line"
               id="tspan5034">praktijkopleiding</tspan></text>
<text
             transform="matrix(1,0,0,-1,332.9092,445.0205)"
             style="font-variant:normal;font-weight:normal;font-stretch:normal;font-size:8px;font-family:'Wingdings 2';-inkscape-font-specification:Wingdings2;writing-mode:lr-tb;fill:#ffffff;fill-opacity:1;fill-rule:nonzero;stroke:none"
             id="text5040"><tspan
               x="0"
               y="0"
               id="tspan5038"></tspan></text>
<text
             transform="matrix(1,0,0,-1,350.8066,445.0205)"
             style="font-variant:normal;font-weight:500;font-stretch:condensed;font-size:16px;font-family:'Akzidenz-Grotesk Pro Med Cnd';-inkscape-font-specification:AkzidenzGroteskPro-MdCn;writing-mode:lr-tb;fill:#ffffff;fill-opacity:1;fill-rule:nonzero;stroke:none"
             id="text5044"><tspan
               x="0 4.6719999 7.664 12.672 17.68 20.351999 25.360001 29.695999 34.703999 38.046398 43.054401 48.062401 53.0704 58.0784 61.742401 64.414398 69.422401 74.430397 79.4384"
               y="0"
               sodipodi:role="line"
               id="tspan5042">studievergaderingen</tspan></text>
<text
             transform="matrix(1,0,0,-1,147.4016,420.6819)"
             style="font-variant:normal;font-weight:normal;font-stretch:normal;font-size:10px;font-family:'Akzidenz-Grotesk Pro Regular';-inkscape-font-specification:AkzidenzGroteskPro-Regular;writing-mode:lr-tb;fill:#ffffff;fill-opacity:1;fill-rule:nonzero;stroke:none"
             id="text5048"><tspan
               x="0 8.1199999 11.25 16.67 21.879999 27.09 32.299999 37.040001 43.09 46.220001 48.299999 53.509998 59.130001 63.869999 69.080002 74.290001 79.300003 84.510002 87.43 92.169998 97.790001 103 105.08 110.08 115.29 120.91 125.65 130.64999 135.64999 140.86 145.60001 151.22 156.42999 161.17 166.59 172.21001 174.28999 179.5 181.58 187.2 189.28 194.49001 200.11 204.85001 210.47 212.55 217.75999 222.5 224.58 230 235.21001 240.83 246.03999 250.78 252.86 257.85999 263.07001 268.69 272.39001 277.13 282.34 287.54999 292.29001 295.20999 300.42001 302.5 307.70999 313.32999 318.75 323.95999 331.25 336.45999 339.59 344.38 349.12 354.32999 359.75 365.37 367.45001 373.07001 377.81 383.01999 388.23001 393.85001 399.47 404.67999 409.89001"
               y="0"
               sodipodi:role="line"
               id="tspan5046">Groene Kring hecht belang aan de opleiding die jonge land- en tuinbouwers nodig hebben </tspan></text>
<text
             transform="matrix(1,0,0,-1,147.4016,407.6819)"
             style="font-variant:normal;font-weight:normal;font-stretch:normal;font-size:10px;font-family:'Akzidenz-Grotesk Pro Regular';-inkscape-font-specification:AkzidenzGroteskPro-Regular;writing-mode:lr-tb;fill:#ffffff;fill-opacity:1;fill-rule:nonzero;stroke:none"
             id="text5052"><tspan
               x="0 5.4200001 13.13 16.620001 21.83 27.040001 32.25 35.740002 41.360001 46.57 52.189999 55.32 57.400002 59.48 62.189999 65.675003 68.805 74.014999 79.224998 84.845001 89.845001 95.464996 100.675 102.755 106.245 111.455 116.665 120.155 123.075 128.495 133.705 138.285 143.705 151.41499 156.205 159.125 164.745 169.955 173.08501 175.16499 180.174 185.384 188.304 191.79401 197.004 199.084 202.004 205.494 208.414 213.62399 217.10899 222.729 228.149 233.35899 240.649 245.85899 251.069 253.35899 256.849 263.92899 268.92899 273.92899 277.05899 282.479 290.189 293.67401 299.29401 301.37399 306.58401 312.20401 315.12399 318.61401 326.73401 329.86401 335.284 340.49399 345.70401 350.914 354.40399 360.45401 363.58401 365.664 370.87399 376.49399 379.98401 385.194 390.40399 395.61401 399.099 404.71899 409.92899"
               y="0"
               sodipodi:role="line"
               id="tspan5050">om een bedrijf rendabel en toekomstgericht uit te bouwen. Daarom biedt Groene Kring hen de </tspan></text>
<text
             transform="matrix(1,0,0,-1,147.4016,394.6819)"
             style="font-variant:normal;font-weight:normal;font-stretch:normal;font-size:10px;font-family:'Akzidenz-Grotesk Pro Regular';-inkscape-font-specification:AkzidenzGroteskPro-Regular;writing-mode:lr-tb;fill:#ffffff;fill-opacity:1;fill-rule:nonzero;stroke:none"
             id="text5056"><tspan
               x="0 4.79 9.79 15 19.790001 23.5 28.92 36.630001 40.34 45.959999 48.040001 53.049999 58.259998 61.18 64.889999 70.510002 72.589996 74.669998 78.379997 83.589996 88.800003 90.879997 95.669998 99.379997 103.96 109.17 114.38 119.59 121.67 126.46 130.17 133.09 138.3 142.00999 146.38 151.59 154.72 162.00999 167.22 170.35001 174.72 179.92999 185.14 187.42999 191.14 197.17999 202.60001 209.89 215.10001 217.17999 220.89 225.89 231.10001 234.02 239.23 244.44 246.52 251.73 255.44 258.35999 263.57001 268.78 276.48999 281.48999 283.159 287.94901 291.659 296.659 298.73901 303.52899 307.23901 312.02899 317.64899 322.85901 328.069 330.14899 334.939 340.14899 344.729 349.939 353.64899 359.069 364.27899 369.89899 375.10901 378.23901 385.52899 390.73901 393.86899 399.48901 404.69901 409.909"
               y="0"
               sodipodi:role="line"
               id="tspan5054">kans om dicht bij huis kennis te verwerven. Zowel actuele thema’s als specifeke onderwerpen </tspan></text>
<text
             transform="matrix(1,0,0,-1,147.4016,381.6819)"
             style="font-variant:normal;font-weight:normal;font-stretch:normal;font-size:10px;font-family:'Akzidenz-Grotesk Pro Regular';-inkscape-font-specification:AkzidenzGroteskPro-Regular;writing-mode:lr-tb;fill:#ffffff;fill-opacity:1;fill-rule:nonzero;stroke:none"
             id="text5060"><tspan
               x="0 3.1300001 8.5500002 13.76 19.379999 24.379999 30 35.209999 40.830002 43.959999 46.040001 48.119999 50.830002 55.619999 61.040001 66.660004 71.029999 76.449997 78.529999 84.150002 86.230003 91.440002 97.059998 102.06 107.27 112.48 117.48 125.19 130.19 135.39999 140.39999 146.02 151.23 158.94 164.14999 169.36 172.28 177.28 181.86 187.28 194.99001 200.2 205.41 210.41 215.62 217.7 220.62 226.24001 231.45 237.07001 240.2 245.41 247.49001 253.11 258.10999 263.10999 268.10999 273.32001 278.32001 283.94 289.35999 294.98001 297.26999 302.26999 306.01999 311.44 316.64999 322.26999 327.48001 332.48001 334.56 339.56 344.76999 350.39001 354.09 359.09 364.29999 369.51001 374.51001 377.42999 382.64001 384.72 389.92999 395.54999 400.97"
               y="0"
               sodipodi:role="line"
               id="tspan5058">rond bedrijfsopvolging en management komen uitgebreid aan bod. Jonge land- en tuinbou</tspan></text>
<text
             transform="matrix(1,0,0,-1,553.5914,381.6819)"
             style="font-variant:normal;font-weight:normal;font-stretch:normal;font-size:10px;font-family:'Akzidenz-Grotesk Pro Regular';-inkscape-font-specification:AkzidenzGroteskPro-Regular;writing-mode:lr-tb;fill:#ffffff;fill-opacity:1;fill-rule:nonzero;stroke:none"
             id="text5064"><tspan
               x="0"
               y="0"
               id="tspan5062">-</tspan></text>
<text
             transform="matrix(1,0,0,-1,147.4016,368.6819)"
             style="font-variant:normal;font-weight:normal;font-stretch:normal;font-size:10px;font-family:'Akzidenz-Grotesk Pro Regular';-inkscape-font-specification:AkzidenzGroteskPro-Regular;writing-mode:lr-tb;fill:#ffffff;fill-opacity:1;fill-rule:nonzero;stroke:none"
             id="text5068"><tspan
               x="0 7.29 12.5 15.63 20.42 24.24 29.860001 31.940001 37.150002 40.970001 46.18 51.389999 56.599998 60.419998 65.839996 71.459999 73.540001 78.75 80.830002 86.449997 88.529999 93.739998 99.360001 103.18 107.55 112.97 118.39 121.52 125.34 130.55 135.75999 138.67999 142.5 145.63 147.71001 149.78999 155.41 160.62 167.91 169.99001 172.07001 176.86 180.67999 188.8 192.62 197.83 203.25 208.87 210.95 216.57001 220.39 225.60001 230.81 236.42999 242.05 247.25999 252.47 256.29001 261.70999 264.42001 268.23999 273.45001 278.66 283.87 287.69 292.48001 295.60999 300.60999 303.73999 306.66 311.87 315 319.79001 325 330.20999 333.34 338.13 343.34 348.13 351.95001 359.23999 361.32001 363.39999 365.48001 370.69 375.89999 379.72 384.09 389.51001 391.59 397.20999 402.42001 407.63 409.92001"
               y="0"
               sodipodi:role="line"
               id="tspan5066">wers die een opleiding voor het rijbewijs G nodig hebben of een starterscursus willen volgen, </tspan></text>
<text
             transform="matrix(1,0,0,-1,147.4016,355.6819)"
             style="font-variant:normal;font-weight:normal;font-stretch:normal;font-size:10px;font-family:'Akzidenz-Grotesk Pro Regular';-inkscape-font-specification:AkzidenzGroteskPro-Regular;writing-mode:lr-tb;fill:#ffffff;fill-opacity:1;fill-rule:nonzero;stroke:none"
             id="text5072"><tspan
               x="0 4.5799999 9.79 15 20.209999 25.42 30.629999 33.34 38.759998 44.18 48.759998 51.470001 57.09 59.169998 61.25 63.959999 72.080002 75.209999 80.629997 85.839996 91.050003 96.260002 98.970001 105.019 108.149 110.229 115.439 121.059 123.769 128.979 134.189 136.899 142.10899 147.10899 152.10899 155.239 157.94901 163.569 168.569 171.69901 174.619 179.82899 185.039 188.16901 192.959 195.66901 198.589 203.799 206.929 212.13901 217.147 222.35699 225.27699"
               y="0"
               sodipodi:role="line"
               id="tspan5070">kunnen ook bij Groene Kring en haar partners terecht.</tspan></text>
<text
             transform="matrix(1,0,0,-1,147.4016,305.4803)"
             style="font-variant:normal;font-weight:500;font-stretch:condensed;font-size:16px;font-family:'Akzidenz-Grotesk Pro Med Cnd';-inkscape-font-specification:AkzidenzGroteskPro-MdCn;writing-mode:lr-tb;fill:#ffffff;fill-opacity:1;fill-rule:nonzero;stroke:none"
             id="text5076"><tspan
               x="0 2.6719999 7.6799998 12.688 15.36 20.368 25.040001 30.048 33.040001 38.048 42.928001 45.919998 48.591999 53.599998"
               y="0"
               sodipodi:role="line"
               id="tspan5074">ludieke acties</tspan></text>
<text
             transform="matrix(1,0,0,-1,219.1353,305.4803)"
             style="font-variant:normal;font-weight:normal;font-stretch:normal;font-size:8px;font-family:'Wingdings 2';-inkscape-font-specification:Wingdings2;writing-mode:lr-tb;fill:#ffffff;fill-opacity:1;fill-rule:nonzero;stroke:none"
             id="text5080"><tspan
               x="0"
               y="0"
               id="tspan5078"></tspan></text>
<text
             transform="matrix(1,0,0,-1,237.0327,305.4803)"
             style="font-variant:normal;font-weight:500;font-stretch:condensed;font-size:16px;font-family:'Akzidenz-Grotesk Pro Med Cnd';-inkscape-font-specification:AkzidenzGroteskPro-MdCn;writing-mode:lr-tb;fill:#ffffff;fill-opacity:1;fill-rule:nonzero;stroke:none"
             id="text5084"><tspan
               x="0 4.6719999 9.6800003 14.56 17.552 22.559999 25.903999 30.912001 33.584 38.591999 41.584 47.919998 52.928001 56.591999 61.264 66.272003 69.614403 74.622398 79.630402 84.638397 89.6464"
               y="0"
               sodipodi:role="line"
               id="tspan5082">sectorale werkgroepen</tspan></text>
<text
             transform="matrix(1,0,0,-1,345.1495,305.4803)"
             style="font-variant:normal;font-weight:normal;font-stretch:normal;font-size:8px;font-family:'Wingdings 2';-inkscape-font-specification:Wingdings2;writing-mode:lr-tb;fill:#ffffff;fill-opacity:1;fill-rule:nonzero;stroke:none"
             id="text5088"><tspan
               x="0"
               y="0"
               id="tspan5086"></tspan></text>
<text
             transform="matrix(1,0,0,-1,360.8029,305.4803)"
             style="font-variant:normal;font-weight:500;font-stretch:condensed;font-size:16px;font-family:'Akzidenz-Grotesk Pro Med Cnd';-inkscape-font-specification:AkzidenzGroteskPro-MdCn;writing-mode:lr-tb;fill:#ffffff;fill-opacity:1;fill-rule:nonzero;stroke:none"
             id="text5092"><tspan
               x="0 2.9920001 6.336 11.344 16.224001 19.216 24.224001 27.888 31.232 36.240002 41.248001 46.256001 49.919998 52.591999"
               y="0"
               sodipodi:role="line"
               id="tspan5090">tractorrondrit</tspan></text>
<text
             transform="matrix(1,0,0,-1,147.4016,283.4457)"
             style="font-variant:normal;font-weight:500;font-stretch:condensed;font-size:16px;font-family:'Akzidenz-Grotesk Pro Med Cnd';-inkscape-font-specification:AkzidenzGroteskPro-MdCn;writing-mode:lr-tb;fill:#ffffff;fill-opacity:1;fill-rule:nonzero;stroke:none"
             id="text5096"><tspan
               x="0 5.0079999 10.016 15.024 20.032 25.040001 30.048 35.056 38.398399 43.406399 48.414398 53.422401 58.430401"
               y="0"
               sodipodi:role="line"
               id="tspan5094">opendeurdagen</tspan></text>
<text
             transform="matrix(1,0,0,-1,224.303,283.4457)"
             style="font-variant:normal;font-weight:normal;font-stretch:normal;font-size:8px;font-family:'Wingdings 2';-inkscape-font-specification:Wingdings2;writing-mode:lr-tb;fill:#ffffff;fill-opacity:1;fill-rule:nonzero;stroke:none"
             id="text5100"><tspan
               x="0"
               y="0"
               id="tspan5098"></tspan></text>
<text
             transform="matrix(1,0,0,-1,242.2004,283.4457)"
             style="font-variant:normal;font-weight:500;font-stretch:condensed;font-size:16px;font-family:'Akzidenz-Grotesk Pro Med Cnd';-inkscape-font-specification:AkzidenzGroteskPro-MdCn;writing-mode:lr-tb;fill:#ffffff;fill-opacity:1;fill-rule:nonzero;stroke:none"
             id="text5104"><tspan
               x="0 4.336 9.3439999 13.008 16 21.007999 26.016001 31.024 36.032001 42.368 47.375999 52.383999 55.726398 60.734402 63.406399 68.414398 71.086403 76.094398 81.102402 86.110397"
               y="0"
               sodipodi:role="line"
               id="tspan5102">vertegenwoordigingen</tspan></text>
<text
             transform="matrix(1,0,0,-1,346.7811,283.4457)"
             style="font-variant:normal;font-weight:normal;font-stretch:normal;font-size:8px;font-family:'Wingdings 2';-inkscape-font-specification:Wingdings2;writing-mode:lr-tb;fill:#ffffff;fill-opacity:1;fill-rule:nonzero;stroke:none"
             id="text5108"><tspan
               x="0"
               y="0"
               id="tspan5106"></tspan></text>
<text
             transform="matrix(1,0,0,-1,364.6784,283.4457)"
             style="font-variant:normal;font-weight:500;font-stretch:condensed;font-size:16px;font-family:'Akzidenz-Grotesk Pro Med Cnd';-inkscape-font-specification:AkzidenzGroteskPro-MdCn;writing-mode:lr-tb;fill:#ffffff;fill-opacity:1;fill-rule:nonzero;stroke:none"
             id="text5112"><tspan
               x="0 8.592 13.6 18.608 23.615999 27.4384 31.774401 36.782398 41.790401 45.454399 51.118401 56.1264 61.134399"
               y="0"
               sodipodi:role="line"
               id="tspan5110">#boervoor1dag</tspan></text>
<text
             transform="matrix(1,0,0,-1,147.4016,257.1071)"
             style="font-variant:normal;font-weight:normal;font-stretch:normal;font-size:10px;font-family:'Akzidenz-Grotesk Pro Regular';-inkscape-font-specification:AkzidenzGroteskPro-Regular;writing-mode:lr-tb;fill:#ffffff;fill-opacity:1;fill-rule:nonzero;stroke:none"
             id="text5116"><tspan
               x="0 8.1199999 11.25 16.67 21.879999 27.09 32.299999 35.709999 41.759998 44.889999 46.970001 52.18 57.799999 61.209999 65.580002 70.790001 73.919998 79.540001 84.75 90.370003 92.449997 98.07 100.99 104.4 110.02 115.23 118.64 124.26 129.47 131.55 136.55 141.75999 147.38 152.59 157.8 161.21001 165.58 170.58 175.78999 179.2 181.28 186.7 191.91 197.53 202.74001 206.14999 208.23 213.23 218.44 224.06"
               y="0"
               sodipodi:role="line"
               id="tspan5114">Groene Kring verdedigt de belangen van jonge land-</tspan></text>
<text
             transform="matrix(1,0,0,-1,378.5717,257.1071)"
             style="font-variant:normal;font-weight:normal;font-stretch:normal;font-size:10px;font-family:'Akzidenz-Grotesk Pro Regular';-inkscape-font-specification:AkzidenzGroteskPro-Regular;writing-mode:lr-tb;fill:#ffffff;fill-opacity:1;fill-rule:nonzero;stroke:none"
             id="text5120"><tspan
               x="0 5.21 10.42 13.83 16.75 21.959999 24.040001 29.25 34.869999 40.290001 45.5 52.790001 58 61.130001 65.919998 68.209999 71.620003 78.699997 83.699997 86.620003 90.029999 95.650002 100.86 106.48 111.69 116.9 120.03 122.95 126.36 131.57001 136.78 141.99001 145.12 149.28999 151.37 153.45 159.07001 163.86 167.27 171.64 173.72 178.72"
               y="0"
               sodipodi:role="line"
               id="tspan5118">en tuinbouwers. Dat gebeurt enerzijds via </tspan></text>
<text
             transform="matrix(1,0,0,-1,147.4016,244.1071)"
             style="font-variant:normal;font-weight:normal;font-stretch:normal;font-size:10px;font-family:'Akzidenz-Grotesk Pro Regular';-inkscape-font-specification:AkzidenzGroteskPro-Regular;writing-mode:lr-tb;fill:#ffffff;fill-opacity:1;fill-rule:nonzero;stroke:none"
             id="text5124"><tspan
               x="0 5.21 10.42 15.63 20.200001 24.99 27.91 33.119999 36.25 40.830002 46.040001 50.610001 54.98 60.189999 63.32 66.239998 71.449997 77.07 82.279999 87.489998 94.779999 100.2 105.62 108.75 114.37 116.45 122.07 124.15 129.36 134.98 139.55 141.63 146.84 151.41 157.03 162.24001 166.81 171.60001 174.52 177.64999 182.86 188.07001 190.99001 196.2 199.33 204.53999 209.75 214.32001 218.69 223.69 228.89999 233.47 240.56 245.98 251.19 254.32001 259.53 264.73999 270.35999 275.78 280.98999 286.60999 291.17999 296.39001 301.60001 306.17001 311.17001 316.38 322 327.20999 330.34 334.51001 336.59 338.67001 344.29001 349.07999 353.64999 358.01999 360.10001 365.10001 369.67001 374.67001 379.88 382.79999 384.88 390.09 394.88 399.45001 404.66 409.87"
               y="0"
               sodipodi:role="line"
               id="tspan5122">een sterke vertegenwoordiging in de structuren van Boerenbond en anderzijds via acties en </tspan></text>
<text
             transform="matrix(1,0,0,-1,147.4016,231.1071)"
             style="font-variant:normal;font-weight:normal;font-stretch:normal;font-size:10px;font-family:'Akzidenz-Grotesk Pro Regular';-inkscape-font-specification:AkzidenzGroteskPro-Regular;writing-mode:lr-tb;fill:#ffffff;fill-opacity:1;fill-rule:nonzero;stroke:none"
             id="text5128"><tspan
               x="0 5.21 7.29 12.91 18.120001 23.33 29 31.08 36.290001 38.369999 41.290001 43.369999 48.369999 51.290001 53.369999 58.580002 62.950001 68.160004 73.370003 79.040001 83.209999 88.629997 93.629997 95.709999 100.5 106.17 111.79 113.87 115.95 120.32 125.74 131.16 134.28999 139.91 145.12 150.33 152.41 158.03 163.7 168.91 174.12 179.33 185 189.78999 192.91901 197.91901 203.539 208.74899 214.41901 218.789 224.209 229.629 232.759 238.429 244.049 249.259 251.339 256.54901 258.629 264.24899 269.039 276.74899 281.74899 286.32901 291.539 294.66901 299.45901 305.129 308.27899 314.94901 322.039 327.45901 332.66901 335.79901 340.16901 345.58899 351.009 354.13901 359.96899 367.04901 372.04901 377.66901 380.85901 383.14899 388.819 395.89899 401.319 406.73901 409.86899"
               y="0"
               sodipodi:role="line"
               id="tspan5126">eigen initiatieven zoals bijvoorbeeld een stage voor beleidsmakers (#Boervoor1Dag). Door </tspan></text>
<text
             transform="matrix(1,0,0,-1,147.4016,218.1071)"
             style="font-variant:normal;font-weight:normal;font-stretch:normal;font-size:10px;font-family:'Akzidenz-Grotesk Pro Regular';-inkscape-font-specification:AkzidenzGroteskPro-Regular;writing-mode:lr-tb;fill:#ffffff;fill-opacity:1;fill-rule:nonzero;stroke:none"
             id="text5132"><tspan
               x="0 5.21 10.21 15.21 18.34 21.07 26.07 31.07 36.279999 43.57 48.779999 52.950001 55.029999 60.650002 65.860001 71.07 73.150002 78.769997 81.5 86.919998 92.540001 95.269997 100.89 106.1 108.83 114.04 119.46 124.67 130.28999 133.42 138.63 143.42 148.21001 153.42 158.63 161.36 165.73 170.73 175.94 178.67 186.52 192.56 196.31 202.77 205.06 207.78999 213.41 218.62 221.35001 226.77 231.14 236.35001 239.48 244.06 249.48 254.69 260.31 265.51999 267.60001 272.81 278.01999 283.64001 288.85001 291.57999 297 300.13 305.75 310.75 315.95999 318.04001 323.04001 328.04001 330.95999 333.04001 338.25 340.98001 345.35001 350.76999 356.19 359.32001 362.04999 364.13 369.54999 374.76001 380.38 385.59 388.32001 390.39999 395.39999 400.60999 406.23001 409.92999"
               y="0"
               sodipodi:role="line"
               id="tspan5130">haar aanwezigheid op de congressen van CEJA, de overkoepelende organisatie voor jonge land- </tspan></text>
<text
             transform="matrix(1,0,0,-1,147.4016,205.1071)"
             style="font-variant:normal;font-weight:normal;font-stretch:normal;font-size:10px;font-family:'Akzidenz-Grotesk Pro Regular';-inkscape-font-specification:AkzidenzGroteskPro-Regular;writing-mode:lr-tb;fill:#ffffff;fill-opacity:1;fill-rule:nonzero;stroke:none"
             id="text5136"><tspan
               x="0 5.21 10.42 12.995 15.915 21.125 23.205 28.415001 34.035 39.455002 44.665001 51.955002 57.165001 60.294998 65.084999 67.375 69.949997 75.57 78.699997 83.910004 89.120003 94.739998 97.660004 100.235 108.355 111.485 116.905 122.115 127.325 132.535 135.11501 141.16499 144.295 146.375 151.58501 157.205 159.78 165.39999 170.61 173.185 177.97501 181.105 186.105 191.315 196.935 202.55499 207.765 212.97501 215.895 221.105 226.315 228.89 233.25999 238.25999 243.47 246.045 251.675 253.755 258.755 263.755 271.465 276.255 281.465 284.04001 286.12 291.54001 296.75 302.37 307.57999 310.70999 315.92001 321.13 323.70499 329.125 334.745 337.32001 343.35999 348.57001 351.70001 357.12 362.73999 367.95001 373.16 377.95001 380.52499 385.73499 387.815 392.185 397.39499 402.39499 407.60501 409.89499"
               y="0"
               sodipodi:role="line"
               id="tspan5134">en tuinbouwers, brengt Groene Kring de standpunten van Vlaamse jongeren op Europees niveau. </tspan></text>
<text
             transform="matrix(1,0,0,-1,147.4016,192.1071)"
             style="font-variant:normal;font-weight:normal;font-stretch:normal;font-size:10px;font-family:'Akzidenz-Grotesk Pro Regular';-inkscape-font-specification:AkzidenzGroteskPro-Regular;writing-mode:lr-tb;fill:#ffffff;fill-opacity:1;fill-rule:nonzero;stroke:none"
             id="text5140"><tspan
               x="0 8.1199999 11.25 16.67 21.879999 27.09 32.299999 35.529999 41.581001 44.710999 46.791 52.000999 57.620998 60.851002 68.140999 73.350998 76.481003 81.060997 83.981003 87.210999 92.630997 98.051003 102.631 105.861 110.861 115.861 121.071 124.301 129.511 134.72099 139.931 143.161 148.78101 154.201 158.991 161.071 163.991 166.071 171.28101 175.651 180.86099 184.091 189.30099 194.511 197.741 202.951 208.371 211.50101 214.631 219.841 225.05099 227.97099 233.181 236.411 242.03101 247.241 252.451 254.53101 260.151 264.521 269.94101 273.07101 280.78101 282.86099 288.07101 293.69101 296.92099 301.29099 306.29099 311.50101 314.73099 320.35101 325.561 328.79099 330.871 335.871 341.08099 346.70099 350.401 353.63101 358.841 364.05099 367.28101 370.20099 375.41101 377.491 382.70099 388.32101 393.741 398.95099 406.241"
               y="0"
               sodipodi:role="line"
               id="tspan5138">Groene Kring werkt ook aan een positieve en correcte beeldvorming van de land- en tuinbouw-</tspan></text>
<text
             transform="matrix(1,0,0,-1,147.4016,179.1071)"
             style="font-variant:normal;font-weight:normal;font-stretch:normal;font-size:10px;font-family:'Akzidenz-Grotesk Pro Regular';-inkscape-font-specification:AkzidenzGroteskPro-Regular;writing-mode:lr-tb;fill:#ffffff;fill-opacity:1;fill-rule:nonzero;stroke:none"
             id="text5144"><tspan
               x="0 4.79 10 15.21 18.129999 23.549999 26.68 29.389999 35.009998 40.43 45.849998 48.98 51.689999 53.77 58.98 64.599998 66.68 71.889999 76.470001 81.68 84.389999 89.389999 94.599998 97.519997 99.599998 104.81 109.6 111.89"
               y="0"
               sodipodi:role="line"
               id="tspan5142">sector door ludieke acties. </tspan></text>
<text
             transform="matrix(1,0,0,-1,34.0157,783.3898)"
             style="font-variant:normal;font-weight:bold;font-stretch:normal;font-size:30px;font-family:'Akzidenz-Grotesk Pro Bold';-inkscape-font-specification:AkzidenzGroteskPro-Bold;writing-mode:lr-tb;fill:#ffffff;fill-opacity:1;fill-rule:nonzero;stroke:none"
             id="text5148"><tspan
               x="0 29.370001 40.02 59.400002 68.160004 78.806999 99.446999"
               y="0"
               sodipodi:role="line"
               id="tspan5146">WIE IS </tspan></text>
<text
             transform="matrix(1,0,0,-1,34.0157,748.3898)"
             style="font-variant:normal;font-weight:bold;font-stretch:normal;font-size:30px;font-family:'Akzidenz-Grotesk Pro Bold';-inkscape-font-specification:AkzidenzGroteskPro-Bold;writing-mode:lr-tb;fill:#ffffff;fill-opacity:1;fill-rule:nonzero;stroke:none"
             id="text5152"><tspan
               x="0 23.76 45.630001 69.387001 90.027 113.157 132.537 141.297 163.16701 185.66701 196.317 218.817 241.317"
               y="0"
               sodipodi:role="line"
               id="tspan5150">GROENE KRING?</tspan></text>
<text
             transform="matrix(1,0,0,-1,34.0157,707.8376)"
             style="font-variant:normal;font-weight:normal;font-stretch:normal;font-size:10px;font-family:'Akzidenz-Grotesk Pro Regular';-inkscape-font-specification:AkzidenzGroteskPro-Regular;writing-mode:lr-tb;fill:#ffffff;fill-opacity:1;fill-rule:nonzero;stroke:none"
             id="text5156"><tspan
               x="0 8.1199999 11.25 16.67 21.879999 27.09 32.299999 35.009998 41.060001 44.189999 46.27 51.48 57.099998 59.810001 61.889999 66.68 69.389999 75.010002 80.220001 82.93 88.550003 91.68 97.099998 102.52 105.44 110.23 113.15 118.36 121.07 126.49 130.86 136.07001 139.2 143.78 149.2 154.41 160.03 165.24001 167.32001 172.53 177.74001 183.36 188.57001 191.28 193.36 198.78 203.99001 209.61 214.82001 217.95 223.16 228.37 233.78999 236.92 242.53999 247.53999 252.75 254.83 259.827 264.827 267.74701 269.827 275.03699 277.74701 279.827 285.03699 287.74701 293.367 298.577 301.28699 306.91599 308.996 313.996 318.996 326.70599 331.496 336.70599 339.41599 341.496 346.496 351.70599 357.32599 361.026 363.73599 368.94601 374.15601 376.866 379.78601 384.996 387.07599 392.28601 397.90601 403.32599 408.53601 415.82599 420.616 425.82599 431.03601 433.95599 439.37601 442.095 444.38501"
               y="0"
               sodipodi:role="line"
               id="tspan5154">Groene Kring is de grootste overkoepelende jongerenorganisatie in de Vlaamse land- en tuinbouwsector. </tspan></text>
<text
             transform="matrix(1,0,0,-1,34.0157,694.8376)"
             style="font-variant:normal;font-weight:normal;font-stretch:normal;font-size:10px;font-family:'Akzidenz-Grotesk Pro Regular';-inkscape-font-specification:AkzidenzGroteskPro-Regular;writing-mode:lr-tb;fill:#ffffff;fill-opacity:1;fill-rule:nonzero;stroke:none"
             id="text5160"><tspan
               x="0 8.1199999 11.25 16.67 21.879999 27.09 32.299999 35.009998 41.060001 44.189999 46.27 51.48 57.099998 59.18 64.389999 70.010002 75.220001 80.43 83.139999 87.720001 92.93 98.139999 103.35 108.56 113.77 116.48 121.69 124.82 127.53 130.45 135.66 138.78999 144 149.009 154.21899 157.13901 159.849 164.21899 169.63901 175.05901 178.189 180.899 186.319 191.52901 194.44901 202.159 207.57899 212.789 215.709 217.789 222.99899 228.619 230.909 233.619 239.039 244.659 246.739 251.94901 254.02901 259.64899 261.729 266.939 272.55899 275.26901 280.479 285.689 288.39899 294.01901 299.229 301.30899 306.30899 311.51901 317.13901 322.349 327.55899 331.259 335.629 340.83899 343.96899 349.58899 354.79901 360.41901 362.49899 368.11899 370.19901 375.409 381.02899 383.319 386.02899 394.14899 397.27899 402.69901 407.909 413.11899 418.32901 421.039 427.08499 430.215 432.29501 437.505 443.125 445.83499 453.54501 458.54501 463.54501 468.125 471.04501"
               y="0"
               sodipodi:role="line"
               id="tspan5158">Groene Kringleden kunnen er terecht voor ontmoeting, opleiding en belangen-verdediging. Groene Kring maakt </tspan></text>
<text
             transform="matrix(1,0,0,-1,34.0157,681.8376)"
             style="font-variant:normal;font-weight:normal;font-stretch:normal;font-size:10px;font-family:'Akzidenz-Grotesk Pro Regular';-inkscape-font-specification:AkzidenzGroteskPro-Regular;writing-mode:lr-tb;fill:#ffffff;fill-opacity:1;fill-rule:nonzero;stroke:none"
             id="text5164"><tspan
               x="0 5.6199999 10.83 16.040001 18.120001 20.83 26.040001 28.120001 31.040001 33.75 38.119999 43.119999 48.330002 51.040001 56.66 59.790001 65.209999 70.419998 76.040001 78.75 85.838997 91.259003 96.469002 99.598999 104.809 110.019 115.639 121.059 126.269 131.88901 134.179 136.88901 143.96899 149.179 154.38901 162.099 164.80901 170.019 175.229 180.439 183.149 187.729 189.80901 191.88901 196.46899 198.549 203.759 206.46899 211.88901 217.509 220.21899 225.839 231.049 233.759 241.049 246.259 251.879 256.66901 258.74899 261.66901 266.879 269.58899 276.879 284.16901 291.04599 293.336 298.95599 302.086 307.50601 312.716 317.92599 323.13599 327.716 330.84601 332.92599 338.13599 343.75601 346.04599 351.66599 356.87601 359.586 365.00601 367.716 370.42599 375.84601 381.466 384.17599 389.59601 394.806 398.97601 404.186 406.896 412.31601 417.31601 422.526 427.73599 433.35599 438.776 444.19601 448.776 454.396 459.396 465.01599 467.09601 472.306 477.306"
               y="0"
               sodipodi:role="line"
               id="tspan5162">deel uit van groep Boerenbond. Neem een kijkje op de website www.groenekring.be of op onze Facebookpagina </tspan></text>
<text
             transform="matrix(1,0,0,-1,34.0157,668.8376)"
             style="font-variant:normal;font-weight:normal;font-stretch:normal;font-size:10px;font-family:'Akzidenz-Grotesk Pro Regular';-inkscape-font-specification:AkzidenzGroteskPro-Regular;writing-mode:lr-tb;fill:#ffffff;fill-opacity:1;fill-rule:nonzero;stroke:none"
             id="text5168"><tspan
               x="0 7.29 14.58 21.459999 23.75 26.459999 31.459999 36.669998 41.880001 47.5 52.919998 58.34 62.919998 65.209999 70.419998 75.839996 83.550003 86.879997 92.5 95.629997 101.05 106.26 111.47 116.68 121.26 124.39 126.47 131.67999 137.3 142.50999 147.50999 150.42999 152.50999 157.92999 163.14 168.14 173.14 175.22"
               y="0"
               sodipodi:role="line"
               id="tspan5166">www.facebook.com/groenekringnationaal!</tspan></text>
<g
             id="g5170"
             transform="translate(291.9685,730.5885)"><path
               d="M 0,0 H -257.953"
               style="fill:none;stroke:#ffffff;stroke-width:1.5;stroke-linecap:butt;stroke-linejoin:miter;stroke-miterlimit:4;stroke-dasharray:none;stroke-opacity:1"
               id="path5172"
               inkscape:connector-curvature="0" /></g></g></g></g></g></svg>