<?xml version="1.0" encoding="UTF-8" standalone="no"?>
<svg
   xmlns:dc="http://purl.org/dc/elements/1.1/"
   xmlns:cc="http://creativecommons.org/ns#"
   xmlns:rdf="http://www.w3.org/1999/02/22-rdf-syntax-ns#"
   xmlns:svg="http://www.w3.org/2000/svg"
   xmlns="http://www.w3.org/2000/svg"
   xmlns:sodipodi="http://sodipodi.sourceforge.net/DTD/sodipodi-0.dtd"
   xmlns:inkscape="http://www.inkscape.org/namespaces/inkscape"
   viewBox="0 0 1090.1792 1263.733"
   height="1263.733"
   width="1090.1792"
   xml:space="preserve"
   id="svg2"
   version="1.1"
   sodipodi:docname="pfk.svg"
   inkscape:version="0.92.4 (5da689c313, 2019-01-14)"><sodipodi:namedview
     pagecolor="#ffffff"
     bordercolor="#666666"
     borderopacity="1"
     objecttolerance="10"
     gridtolerance="10"
     guidetolerance="10"
     inkscape:pageopacity="0"
     inkscape:pageshadow="2"
     inkscape:window-width="1920"
     inkscape:window-height="1057"
     id="namedview36"
     showgrid="false"
     inkscape:pagecheckerboard="true"
     fit-margin-top="0"
     fit-margin-left="0"
     fit-margin-right="0"
     fit-margin-bottom="0"
     inkscape:zoom="0.5578125"
     inkscape:cx="416.50602"
     inkscape:cy="612.83003"
     inkscape:window-x="-8"
     inkscape:window-y="-8"
     inkscape:window-maximized="1"
     inkscape:current-layer="layer2" /><metadata
     id="metadata8"><rdf:RDF><cc:Work
         rdf:about=""><dc:format>image/svg+xml</dc:format><dc:type
           rdf:resource="http://purl.org/dc/dcmitype/StillImage" /><dc:title></dc:title></cc:Work></rdf:RDF></metadata><defs
     id="defs6"><clipPath
       id="clipPath18"
       clipPathUnits="userSpaceOnUse"><path
         id="path16"
         d="M 0,1080 H 1920 V 0 H 0 Z"
         inkscape:connector-curvature="0" /></clipPath></defs><g
     inkscape:groupmode="layer"
     id="layer1"
     inkscape:label="Layer 1"
     style="display:inline"><path
       id="path905"
       d="M 6.5150156,6.5150156 V 718.82334 a 538.57462,538.57462 0 0 0 1077.1491844,0 V 6.5150156 Z"
       inkscape:connector-curvature="0"
       style="fill:#ffffff;stroke:#000000;stroke-width:13.0300312" /></g><g
     inkscape:groupmode="layer"
     id="layer2"
     inkscape:label="Layer 2"><g
       style=""
       transform="matrix(1.3333333,0,0,-1.3333333,-734.9104,1301.5898)"
       id="g10"><g
         id="g12"><g
           clip-path="url(#clipPath18)"
           id="g14"><g
             transform="translate(933.0039,442.0479)"
             id="g20"><path
               id="path22"
               style="fill:#151412;fill-opacity:1;fill-rule:nonzero;stroke:none"
               d="m 0,0 c 3.965,10.808 5.081,22.172 5.88,33.487 0.858,12.152 0.231,24.37 -2.014,36.365 -1.071,5.715 -1.5,11.637 -3.868,17.081 -1.155,8.972 -4.308,17.38 -7.436,25.778 -0.451,1.209 -0.134,3.198 -2.255,3.398 -0.082,2.309 -0.679,4.445 -1.584,6.604 -9.196,21.947 -22.105,41.274 -40.59,56.449 -5.686,4.667 -11.015,10.051 -18.134,12.768 -5.652,5.621 -12.965,8.516 -19.854,12.109 -5.486,4.075 -11.963,6.125 -18.081,8.926 -18.166,8.319 -37.233,13.166 -56.944,16.268 -5.867,0.923 -5.164,-1.163 -5.162,-4.907 0.048,-118.409 0.033,-236.817 0.071,-355.225 0.001,-3.28 -1.43,-7.428 0.66,-9.616 1.99,-2.082 5.848,0.309 8.892,0.434 14.194,0.584 27.869,3.938 41.289,8.165 10.209,3.216 20.619,6.241 29.494,12.683 7.38,2.294 13.598,6.617 19.641,11.248 13.497,8.242 24.213,19.564 33.854,31.802 10.087,12.805 17.627,27.251 24.565,41.985 1.06,2.252 2.058,4.433 1.947,6.972 C -4.741,-18.744 -1.308,-9.748 0,0 m -90.007,-160.074 c -11.178,-4.069 -22.058,-8.903 -33.524,-12.244 -13.844,-4.036 -27.801,-7.371 -42.173,-8.68 -3.701,-0.337 -4.37,-2.131 -4.359,-5.439 0.1,-31.826 -0.015,-63.653 0.155,-95.479 0.021,-3.948 -0.571,-5.441 -4.988,-5.263 -9.815,0.4 -19.664,0.336 -29.486,0.035 -4.297,-0.131 -5.757,0.698 -5.751,5.502 0.16,131.139 0.128,262.279 0.127,393.418 0,50.323 0.074,100.646 -0.131,150.968 -0.019,4.61 1.299,5.436 5.519,5.312 10.655,-0.312 21.328,0.032 31.99,-0.138 13.738,-0.218 27.212,-2.491 40.629,-5.382 14.303,-3.081 28.089,-7.776 41.889,-12.477 6.657,-3.061 13.313,-6.122 19.969,-9.184 2.446,-1.509 4.873,-3.049 7.34,-4.524 13.153,-7.863 25.912,-16.282 36.926,-27.042 5.418,-5.294 10.582,-10.85 15.86,-16.287 3.267,-4.054 5.071,-9.274 9.737,-12.213 1.189,-4.696 4.879,-7.94 7.082,-12.059 0.616,-1.153 1.084,-3.515 2.585,-3.103 1.297,0.357 0.569,2.574 0.569,3.945 0.038,49.254 0.035,98.508 0.037,147.762 0.001,9.844 0,9.844 -9.886,9.498 -3.41,-10e-4 -6.819,-10e-4 -10.229,-0.002 -1.954,0.103 -2.458,1.25 -3.041,3.057 -1.737,5.388 -3.933,10.628 -5.949,15.926 -2.274,6.998 -4.548,13.996 -6.822,20.994 5.27,0.077 10.54,0.154 15.81,0.232 3.412,0 6.824,10e-4 10.236,10e-4 1.993,-0.035 4.001,0.073 5.975,-0.139 2.89,-0.309 3.989,0.457 3.975,3.717 -0.157,38.398 -0.145,76.797 -0.177,115.195 0.065,6.991 0.13,13.982 0.194,20.974 42.946,0.047 85.894,0.098 128.84,0.141 11.075,0.011 11.093,0.002 11.071,-10.961 -0.019,-9.986 -0.082,-19.971 -0.125,-29.957 -6.664,-0.063 -13.327,-0.126 -19.991,-0.188 -25.115,0.034 -50.231,-0.012 -75.346,0.195 -3.669,0.029 -4.657,-0.787 -4.632,-4.579 0.186,-28.276 0.035,-56.554 0.134,-84.831 0.037,-10.372 -2.185,-9.842 9.842,-9.564 3.413,0 6.827,-10e-4 10.24,-0.002 h 59.764 c 0.996,-0.035 1.993,-0.112 2.989,-0.099 6.815,0.09 14.407,1.765 16.279,-8.097 0.011,-0.06 0.308,-0.065 0.472,-0.095 0.769,-9.175 5.388,-17.173 7.995,-25.788 1.853,-6.125 2.312,-5.982 -4.023,-6.023 -1.16,-0.007 -2.319,-0.07 -3.48,-0.107 -6.742,-10e-4 -13.484,-10e-4 -20.226,-10e-4 -19.924,0 -39.849,0 -59.774,10e-4 -3.41,-10e-4 -6.819,-10e-4 -10.229,-10e-4 -0.83,0.031 -1.66,0.086 -2.491,0.091 -7.392,0.044 -7.392,0.042 -7.392,-7.131 -0.004,-54.264 -0.008,-108.528 -0.01,-162.791 0,-2.996 -0.021,-5.993 0.045,-8.987 0.016,-0.691 -0.434,-2.539 1.297,-1.14 3.113,2.515 6.955,4.207 9.077,7.866 4.093,0.771 6.374,4.332 9.695,6.294 14.632,11.149 29.409,22.117 43.826,33.54 5.503,4.36 11.88,7.675 16.422,13.23 7.158,3.951 13.082,9.614 19.757,14.235 19.294,14.806 38.576,29.628 57.908,44.383 1.4,1.069 3.111,1.585 5.047,1.576 17.497,-0.081 34.993,-0.043 52.488,-0.107 1.006,-0.004 2.625,0.819 2.929,-0.63 0.136,-0.652 -1.268,-1.785 -2.153,-2.468 -11.555,-8.916 -23.15,-17.778 -34.718,-26.677 -12.985,-9.991 -25.931,-20.031 -38.932,-30.001 -10.563,-8.1 -21.319,-15.954 -31.699,-24.278 -3.87,-3.102 -8.556,-5.344 -11.361,-9.716 -1.167,-0.083 -2.14,-0.42 -3.125,-1.215 -5.485,-4.426 -11.066,-8.735 -16.614,-13.084 -10.317,-7.824 -20.647,-15.633 -30.949,-23.476 -6.319,-4.81 -6.276,-4.823 -2.667,-12.126 1.206,-2.44 2.203,-4.983 3.381,-7.439 3.762,-7.851 7.421,-15.758 11.386,-23.507 6.491,-12.685 11.735,-25.983 18.965,-38.299 4.188,-10.631 9.242,-20.86 14.541,-30.964 1.633,-3.112 2.423,-6.709 5.086,-9.257 0.121,-1.648 0.575,-3.144 1.328,-4.668 6.639,-13.435 13.236,-26.893 19.727,-40.401 12.492,-25.997 24.879,-52.045 37.364,-78.046 8.162,-16.998 16.459,-33.93 24.626,-50.926 12.483,-25.977 24.896,-51.99 37.36,-77.976 7.231,-15.075 14.463,-30.15 21.788,-45.179 1.599,-3.279 1.928,-4.834 -2.795,-4.74 -13.993,0.279 -27.995,0.18 -41.992,0.036 -2.637,-0.027 -3.928,0.682 -5.101,3.153 -12.29,25.892 -24.752,51.702 -37.145,77.544 -6.956,14.505 -13.862,29.034 -20.804,43.545 -10.991,22.972 -21.991,45.94 -33.008,68.899 -0.177,0.368 -0.639,0.6 -0.968,0.896 -3.646,11.582 -10.444,21.728 -15.022,32.894 -1.073,2.616 -1.781,5.692 -4.57,7.339 -2.058,8.241 -6.447,15.461 -10.064,23.022 C 108.178,-4.41 96.055,21.034 83.871,46.45 79.31,55.967 74.627,65.426 70,74.91 c -2.738,6.649 -5.442,13.314 -9.697,19.195 -1.086,6.718 -5.36,12.028 -7.99,18.064 -0.613,1.409 -1.293,2.789 -1.943,4.181 -0.123,-1.55 -0.352,-3.1 -0.352,-4.65 C 50,-18.222 50,-148.145 49.998,-278.066 c 0,-8.982 -10e-4,-8.981 -9.037,-8.982 -8.828,-0.002 -17.665,0.215 -26.481,-0.112 -3.816,-0.141 -4.584,0.959 -4.577,4.647 0.119,66.46 0.086,132.92 0.046,199.381 -10e-4,1.514 0.651,3.151 -0.47,4.569 -0.706,-1.196 -1.409,-2.395 -2.119,-3.589 -2.392,-4.023 -5.92,-7.3 -7.691,-11.73 -4.066,-3.013 -6.39,-7.528 -9.679,-11.212 -8.419,-7.485 -16.273,-15.57 -25.513,-22.175 -9.42,-6.734 -18.828,-13.417 -29.016,-18.956 -1.962,-1.066 -3.731,-2.49 -5.588,-3.75 -6.627,-3.366 -13.254,-6.732 -19.88,-10.099"
               inkscape:connector-curvature="0" /></g><g
             transform="translate(892.5767,856.0166)"
             id="g24"><path
               id="path26"
               style="fill:#6f6f6f;fill-opacity:1;fill-rule:nonzero;stroke:none"
               d="m 0,0 c 8.982,0 17.965,0.062 26.947,-0.042 2.422,-0.028 3.639,0.41 3.517,3.244 -0.221,5.147 -0.213,10.317 -0.004,15.465 0.111,2.712 -0.86,3.361 -3.415,3.349 -17.798,-0.091 -35.597,-0.102 -53.395,0.008 -2.76,0.017 -3.334,-1.016 -3.25,-3.508 0.168,-4.984 0.225,-9.987 -0.015,-14.966 -0.142,-2.93 0.887,-3.657 3.666,-3.607 C -17.302,0.099 -8.65,0 0,0 m 40.541,-46.909 c -3.412,0 -6.824,-10e-4 -10.235,-10e-4 0.03,11.158 -0.009,22.316 0.145,33.471 0.036,2.555 -0.6,3.478 -3.306,3.462 -17.819,-0.107 -35.64,-0.107 -53.459,0 -2.726,0.017 -3.323,-0.946 -3.29,-3.478 0.127,-9.824 0.173,-19.654 -0.029,-29.476 -0.068,-3.264 0.9,-4.191 4.167,-4.157 13.319,0.139 26.641,-0.011 39.962,-0.054 2.274,-6.998 4.547,-13.996 6.821,-20.994 -14.809,0.036 -29.618,0.086 -44.427,0.103 -6.452,0.008 -6.457,-0.023 -6.467,-6.722 -0.047,-32.78 -0.091,-65.559 -0.136,-98.338 -6.657,3.061 -13.313,6.122 -19.97,9.183 0.027,50.142 0.01,100.284 0.171,150.426 0.012,3.705 -1.832,3.434 -4.292,3.53 -1.879,0.074 -4.712,-1.187 -5.446,0.874 -0.842,2.366 -0.534,5.304 -0.128,7.9 0.323,2.068 2.554,1.291 3.778,1.087 5.242,-0.871 6.186,1.391 6.133,6.261 -0.262,23.987 -0.03,47.978 -0.195,71.965 -0.026,3.836 0.876,5.667 4.893,4.844 4.715,-0.966 5.744,1.379 5.23,5.484 -0.319,2.548 -0.451,4.659 3.6,4.625 28.814,-0.238 57.631,-0.199 86.447,-0.248 -0.064,-6.991 -0.129,-13.983 -0.194,-20.973 -25.472,0.037 -50.944,0.031 -76.416,0.171 -2.959,0.017 -3.562,-1.074 -3.528,-3.763 0.135,-10.654 0.228,-21.315 -0.018,-31.964 -0.083,-3.576 1.016,-4.432 4.444,-4.406 19.978,0.151 39.96,-0.042 59.937,0.178 4.332,0.047 5.868,-0.782 5.82,-5.57 -0.24,-24.471 -0.051,-48.946 -0.012,-73.42"
               inkscape:connector-curvature="0" /></g><g
             transform="translate(1063.4121,389.1904)"
             id="g28"><path
               id="path30"
               style="fill:#6f6f6f;fill-opacity:1;fill-rule:nonzero;stroke:none"
               d="m 0,0 c 2.789,-1.646 3.497,-4.723 4.569,-7.339 4.578,-11.166 11.377,-21.311 15.023,-32.893 -10e-4,-62.808 -0.058,-125.617 0.114,-188.423 0.013,-4.691 -1.273,-6.074 -5.784,-5.616 -3.792,0.386 -7.658,0.135 -11.486,0.021 -2.151,-0.063 -3.085,0.733 -2.866,2.909 0.101,0.99 0.016,1.998 0.015,2.998 -0.005,74.303 -0.013,148.607 0.004,222.91 0,1.811 0.267,3.621 0.411,5.433"
               inkscape:connector-curvature="0" /></g><g
             transform="translate(1032.4668,856.0029)"
             id="g32"><path
               id="path34"
               style="fill:#6f6f6f;fill-opacity:1;fill-rule:nonzero;stroke:none"
               d="m 0,0 c 8.977,0 17.953,0.002 26.93,-0.001 1.838,-0.001 3.695,-0.295 3.629,2.612 -0.13,5.649 -0.094,11.303 -0.016,16.953 0.029,2.092 -1.048,2.446 -2.797,2.443 -18.119,-0.028 -36.238,-0.042 -54.357,0.016 -2.156,0.007 -2.929,-0.734 -2.881,-2.889 0.111,-4.984 0.221,-9.982 -0.023,-14.956 -0.154,-3.179 0.705,-4.347 4.083,-4.255 C -16.96,0.155 -8.478,0 0,0 m 30.413,51.887 c 6.664,0.062 13.327,0.125 19.991,0.188 0.051,-15.772 0.265,-31.547 0.042,-47.315 -0.058,-4.105 1.255,-5.072 5.025,-4.834 4.366,0.275 7.223,-5.059 4.892,-8.945 -1.177,-1.963 -3.393,-1.07 -5.01,-0.895 -4.009,0.433 -4.901,-1.11 -4.904,-4.974 -0.011,-13.431 0.59,-26.872 -0.294,-40.297 -0.164,0.03 -0.461,0.035 -0.471,0.095 -1.872,9.862 -9.465,8.187 -16.28,8.097 -0.996,-0.013 -1.993,0.064 -2.989,0.099 0.036,11.151 0.014,22.302 0.154,33.452 0.033,2.512 -0.606,3.504 -3.32,3.488 -17.811,-0.104 -35.621,-0.104 -53.432,0 -2.713,0.016 -3.352,-0.976 -3.32,-3.488 0.14,-11.15 0.118,-22.301 0.154,-33.452 -3.413,10e-4 -6.827,0.002 -10.24,0.002 0.04,24.32 0.208,48.641 0.007,72.959 -0.039,4.612 0.778,6.161 5.824,6.074 19.984,-0.344 39.978,-0.055 59.966,-0.223 3.554,-0.03 4.601,0.989 4.379,4.486 -0.326,5.144 -0.141,10.32 -0.174,15.483"
               inkscape:connector-curvature="0" /></g><g
             transform="translate(993.3066,536.1533)"
             id="g36"><path
               id="path38"
               style="fill:#6f6f6f;fill-opacity:1;fill-rule:nonzero;stroke:none"
               d="M 0,0 C 4.255,-5.882 6.959,-12.547 9.697,-19.195 9.696,-137.827 9.696,-256.459 9.695,-375.092 c 0,-5.723 -3.228,-7.93 -8.637,-6.013 -0.969,0.343 -1.333,0.861 -1.358,1.753 -0.031,1.166 -0.01,2.333 -0.01,3.499 -0.004,123.797 -0.01,247.595 0,371.392 0,1.487 0.203,2.974 0.31,4.461"
               inkscape:connector-curvature="0" /></g><g
             transform="translate(1082.624,456.8213)"
             id="g40"><path
               id="path42"
               style="fill:#6f6f6f;fill-opacity:1;fill-rule:nonzero;stroke:none"
               d="m 0,0 c -2.663,2.548 -3.453,6.145 -5.086,9.257 -5.299,10.103 -10.353,20.333 -14.541,30.964 -0.039,34.948 -0.077,69.897 -0.116,104.846 5.548,4.35 11.129,8.658 16.614,13.085 0.984,0.794 1.958,1.131 3.125,1.215 0.124,-1.315 0.357,-2.63 0.357,-3.945 C 0.373,104.93 0.375,54.438 0.358,3.945 0.357,2.63 0.124,1.314 0,0"
               inkscape:connector-curvature="0" /></g><g
             transform="translate(842.9966,281.9736)"
             id="g44"><path
               id="path46"
               style="fill:#6f6f6f;fill-opacity:1;fill-rule:nonzero;stroke:none"
               d="m 0,0 c 6.626,3.367 13.253,6.733 19.88,10.1 0.041,-42.289 0.083,-84.579 0.121,-126.868 0.009,-10.207 10e-4,-10.207 -10.438,-10.207 -9.559,0 -9.559,0 -9.559,9.59 C 0.003,-78.257 0.001,-39.128 0,0"
               inkscape:connector-curvature="0" /></g><g
             transform="translate(1062.8877,768.8984)"
             id="g48"><path
               id="path50"
               style="fill:#6f6f6f;fill-opacity:1;fill-rule:nonzero;stroke:none"
               d="m 0,0 c 6.742,0 13.484,0 20.227,0.001 l -0.003,-104.793 c -6.676,-4.622 -12.6,-10.284 -19.758,-14.235 -0.121,1.808 -0.348,3.616 -0.35,5.425 C 0.062,-75.735 0.034,-37.867 0,0"
               inkscape:connector-curvature="0" /></g><g
             transform="translate(922.9941,336.9541)"
             id="g52"><path
               id="path54"
               style="fill:#6f6f6f;fill-opacity:1;fill-rule:nonzero;stroke:none"
               d="m 0,0 c 3.289,3.684 5.613,8.199 9.679,11.212 0.113,-3.983 0.325,-7.967 0.326,-11.951 0.017,-58.642 0.007,-117.283 0,-175.926 0,-4.7 -4.425,-7.265 -8.874,-5.218 -0.953,0.44 -1.079,1.129 -1.096,1.963 -0.027,1.332 -0.028,2.665 -0.028,3.998 C 0.004,-117.281 0.002,-58.641 0,0"
               inkscape:connector-curvature="0" /></g><g
             transform="translate(863.0029,633.978)"
             id="g56"><path
               id="path58"
               style="fill:#6f6f6f;fill-opacity:1;fill-rule:nonzero;stroke:none"
               d="m 0,0 c 0.002,-99.972 0.004,-199.944 0.006,-299.916 -6.043,-4.63 -12.261,-8.954 -19.641,-11.248 -0.123,2.648 -0.351,5.295 -0.352,7.943 -0.026,103.614 -0.033,207.228 -0.033,310.843 0,1.496 0.108,2.991 0.166,4.487 C -12.965,8.516 -5.652,5.621 0,0"
               inkscape:connector-curvature="0" /></g><g
             transform="translate(993.4111,596.8066)"
             id="g60"><path
               id="path62"
               style="fill:#6f6f6f;fill-opacity:1;fill-rule:nonzero;stroke:none"
               d="m 0,0 c -0.138,1.974 -0.395,3.946 -0.396,5.92 -0.059,55.391 -0.092,110.781 -0.13,166.172 3.41,0 6.819,0 10.229,10e-4 C 9.7,116.827 9.697,61.56 9.694,6.294 6.374,4.333 4.093,0.771 0,0"
               inkscape:connector-curvature="0" /></g><g
             transform="translate(933.1133,768.8999)"
             id="g64"><path
               id="path66"
               style="fill:#6f6f6f;fill-opacity:1;fill-rule:nonzero;stroke:none"
               d="m 0,0 c -0.036,-46.532 -0.068,-93.063 -0.119,-139.594 -0.002,-2.15 -0.175,-4.3 -0.269,-6.449 -4.665,2.939 -6.469,8.159 -9.736,12.213 -0.035,44.609 -0.07,89.219 -0.105,133.828 C -6.82,-0.001 -3.41,-0.001 0,0"
               inkscape:connector-curvature="0" /></g><g
             transform="translate(923.3745,414.8223)"
             id="g68"><path
               id="path70"
               style="fill:#6f6f6f;fill-opacity:1;fill-rule:nonzero;stroke:none"
               d="m 0,0 c -0.124,1.315 -0.356,2.631 -0.357,3.946 -0.019,45.308 -0.02,90.616 -0.006,135.924 0.001,1.155 0.196,2.31 0.3,3.465 2.12,-0.2 1.804,-2.189 2.254,-3.398 3.128,-8.399 6.281,-16.806 7.436,-25.779 C 9.628,85.181 9.628,56.203 9.629,27.226 8.322,17.478 4.888,8.481 0,0"
               inkscape:connector-curvature="0" /></g></g></g></g></g></svg>