<?xml version="1.0" encoding="UTF-8" standalone="no"?>
<svg
   xmlns:dc="http://purl.org/dc/elements/1.1/"
   xmlns:cc="http://creativecommons.org/ns#"
   xmlns:rdf="http://www.w3.org/1999/02/22-rdf-syntax-ns#"
   xmlns:svg="http://www.w3.org/2000/svg"
   xmlns="http://www.w3.org/2000/svg"
   xmlns:sodipodi="http://sodipodi.sourceforge.net/DTD/sodipodi-0.dtd"
   xmlns:inkscape="http://www.inkscape.org/namespaces/inkscape"
   viewBox="0 0 619.65753 308.69223"
   height="308.69223"
   width="619.65753"
   xml:space="preserve"
   id="svg2"
   version="1.1"
   sodipodi:docname="PKARUS.svg"
   inkscape:version="0.92.4 (5da689c313, 2019-01-14)"><sodipodi:namedview
     pagecolor="#ffffff"
     bordercolor="#666666"
     borderopacity="1"
     objecttolerance="10"
     gridtolerance="10"
     guidetolerance="10"
     inkscape:pageopacity="0"
     inkscape:pageshadow="2"
     inkscape:window-width="1920"
     inkscape:window-height="1057"
     id="namedview69"
     showgrid="false"
     inkscape:pagecheckerboard="true"
     fit-margin-top="0"
     fit-margin-left="0"
     fit-margin-right="0"
     fit-margin-bottom="0"
     inkscape:zoom="0.93435933"
     inkscape:cx="346.38637"
     inkscape:cy="155.39571"
     inkscape:window-x="-8"
     inkscape:window-y="-8"
     inkscape:window-maximized="1"
     inkscape:current-layer="svg2" /><metadata
     id="metadata8"><rdf:RDF><cc:Work
         rdf:about=""><dc:format>image/svg+xml</dc:format><dc:type
           rdf:resource="http://purl.org/dc/dcmitype/StillImage" /><dc:title></dc:title></cc:Work></rdf:RDF></metadata><defs
     id="defs6" /><path
     id="path14"
     style="fill:#000000;fill-opacity:1;fill-rule:nonzero;stroke:none;stroke-width:0.13333333"
     d="m 529.15867,98.440137 c -5.016,0.36 -9.68266,1.701333 -13.68933,4.885333 -5.684,4.516 -8.656,10.424 -8.75467,17.66133 -0.10933,7.888 -0.0573,15.77867 0.005,23.66667 0.0107,1.32133 -0.332,1.756 -1.664,1.66 -1.64,-0.11733 -3.296,-0.0733 -4.94267,-0.0107 -0.93067,0.0347 -1.20533,-0.28666 -1.208,-1.20933 -0.008,-3.28933 -0.14667,-6.58 -0.152,-9.86933 -0.02,-14.18934 0.024,-28.37867 -0.052,-42.566669 -0.009,-1.608 0.44267,-2.004 1.93467,-1.862667 1.40133,0.130667 2.836,0.142667 4.23333,-0.0053 1.47867,-0.154667 1.71867,0.465333 1.67467,1.76 -0.092,2.638666 -0.028,5.281333 -0.028,8.154666 4.31466,-4.584 9.312,-7.602666 15.20666,-9.198666 4.87467,-1.32 9.80667,-0.468 14.708,-0.689334 0.59334,-0.02667 0.84934,0.188 0.86534,0.778667 0.0173,0.581333 0.12666,1.161333 0.128,1.741333 0.008,8.94933 -10e-4,17.89866 0.008,26.84666 0.005,4.272 0.96,8.24534 3.68533,11.672 5.76133,7.23867 16.008,8.62267 23.44267,3.09334 4.47066,-3.32534 6.80666,-7.77467 6.80133,-13.40134 -0.0107,-9.65466 0.02,-19.31066 -0.032,-28.965326 -0.005,-1.322667 0.24133,-1.909334 1.712,-1.792 1.696,0.137333 3.41333,0.088 5.11867,0.01067 0.94933,-0.04133 1.164,0.289334 1.16133,1.192 -0.0293,10.537336 0.43733,21.102666 -0.15333,31.606666 -0.552,9.83734 -6.14267,16.77067 -15.14267,20.752 -12.564,5.55734 -27.94667,-1.156 -32.82267,-14.16 -1.216,-3.24133 -1.67466,-6.58133 -1.70666,-9.996 -0.0653,-7.23866 -0.0667,-14.47866 -0.096,-21.718666 -0.16,-2.141333 -0.11067,-4.281333 -0.0347,-6.252 -0.26267,1.946667 0.16933,4.102667 -0.20667,6.216"
     inkscape:connector-curvature="0" /><path
     id="path16"
     style="fill:#000000;fill-opacity:1;fill-rule:nonzero;stroke:none;stroke-width:0.13333333"
     d="m 613.724,101.94547 c -0.41066,0 -0.82933,-0.0467 -1.23333,0.009 -1.90133,0.25867 -2.94267,-0.348 -4.03733,-2.19333 -2.12534,-3.577333 -5.76667,-4.738666 -9.87333,-4.351999 -3.812,0.358666 -6.78,2.133333 -8.81467,5.378669 -1.78667,2.84533 -1.07467,6.44933 1.66133,8.42933 2.25867,1.63467 4.88,2.50267 7.484,3.404 4.19867,1.452 8.52667,2.58667 12.364,4.94933 7.58267,4.66667 8.99867,10.12667 8.176,17.11067 -0.84,7.13467 -5.63467,11.25067 -12.28,13.172 -8.156,2.35733 -15.712,1.108 -22.216,-4.596 -3.85466,-3.38133 -5.69066,-7.78133 -5.83066,-12.90267 -0.02,-0.75333 0.24133,-1.04533 1.01333,-1.03066 2.00133,0.036 4.00533,0.0747 6.00267,-0.0147 1.02,-0.0453 1.02266,0.628 1.068,1.21733 0.652,8.83467 10.572,12.61867 18.62133,9.432 3.85733,-1.52666 5.58666,-4.748 5.476,-8.97066 -0.10534,-3.996 -2.37334,-6.32667 -5.72,-7.90934 -3.73067,-1.76266 -7.81467,-2.44666 -11.69067,-3.764 -2.89866,-0.984 -5.732,-2.088 -8.02,-4.2 -6.88266,-6.35333 -6.70533,-15.730663 0.39467,-22.001329 7.08267,-6.256 17.79466,-6.928 24.99466,-1.497334 2.90534,2.192 5.06267,5.006667 6.38667,8.432003 0.49467,1.28266 0.52533,2.14266 -1.27867,1.916 -0.87066,-0.108 -1.76533,-0.0187 -2.648,-0.0187"
     inkscape:connector-curvature="0" /><path
     id="path22"
     style="fill:#030303;fill-opacity:1;fill-rule:nonzero;stroke:none;stroke-width:0.13333333"
     d="m 438.85601,198.43747 c 2.98933,-1.31867 4.16,-5.16667 8.36667,-4.76 -1.85867,1.71866 -3.41067,3.268 -5.08934,4.66666 -1.28666,1.06934 -1.604,1.9 -0.36,3.336 1.98134,2.28134 3.70934,4.78134 5.62934,7.3 -1.764,0.524 -2.864,0.13734 -3.81867,-1.30533 -1.33333,-2.01467 -2.904,-3.872 -4.728,-5.692 0,1.96533 -0.0187,3.932 0.009,5.89867 0.012,0.77866 0.001,1.336 -1.07333,1.336 -1.08,0 -1.06933,-0.56934 -1.068,-1.34134 0.0147,-6.41333 0.0227,-12.82666 -0.008,-19.23866 -0.003,-0.88134 0.176,-1.23334 1.15867,-1.22267 0.97866,0.0107 0.99466,0.48667 0.99066,1.204 -0.02,3.23333 -0.009,6.46667 -0.009,9.81867"
     inkscape:connector-curvature="0" /><path
     id="path30"
     style="fill:#030303;fill-opacity:1;fill-rule:nonzero;stroke:none;stroke-width:0.13333333"
     d="m 463.58668,201.34013 c 0,-2.11866 -0.016,-4.236 0.012,-6.35333 0.005,-0.47333 -0.28934,-1.19333 0.47733,-1.304 0.51333,-0.0733 1.264,-0.38133 1.56267,0.34 0.24266,0.58667 0.38933,0.58933 0.80666,0.18667 3.41067,-3.288 10.34133,-1.04 10.87333,5.04266 0.26,2.97734 0.0253,5.996 0.064,8.99467 0.012,0.84933 -0.40933,0.944 -1.09066,0.952 -0.71734,0.009 -1.072,-0.17067 -1.06,-0.984 0.0387,-2.704 0.0267,-5.41067 0.0107,-8.116 -0.0187,-3.05867 -1.98933,-5.216 -4.744,-5.224 -2.67733,-0.008 -4.74399,2.23067 -4.78266,5.24933 -0.0333,2.588 -0.0227,5.176 0.003,7.764 0.008,0.788 -0.0147,1.32934 -1.08134,1.32934 -1.088,0 -1.068,-0.584 -1.05866,-1.34934 0.0227,-2.176 0.008,-4.352 0.008,-6.528"
     inkscape:connector-curvature="0" /><path
     id="path32"
     style="fill:#030303;fill-opacity:1;fill-rule:nonzero;stroke:none;stroke-width:0.13333333"
     d="m 516.23201,201.32413 c 0,-2.11866 -0.016,-4.236 0.012,-6.35333 0.007,-0.472 -0.288,-1.19333 0.49333,-1.28933 0.51467,-0.0653 1.26933,-0.384 1.55333,0.356 0.24667,0.644 0.424,0.52133 0.81334,0.16 3.61333,-3.36 10.504,-0.796 10.88,5.244 0.176,2.872 0.004,5.764 0.048,8.64533 0.0133,0.85067 -0.26934,1.112 -1.10934,1.12267 -0.92266,0.012 -1.052,-0.41467 -1.04266,-1.18667 0.032,-2.64667 0.0253,-5.29333 0.008,-7.94133 -0.0187,-3.05067 -2.004,-5.208 -4.75867,-5.20667 -2.60933,0.001 -4.70667,2.19733 -4.76267,5.08933 -0.0507,2.64534 -0.0307,5.29334 10e-4,7.94 0.009,0.808 -0.0533,1.31334 -1.1,1.31334 -1.10667,0 -1.048,-0.61734 -1.04267,-1.364 0.0173,-2.17734 0.007,-4.35334 0.007,-6.52934"
     inkscape:connector-curvature="0" /><path
     id="path42"
     style="fill:#000000;fill-opacity:1;fill-rule:nonzero;stroke:none;stroke-width:0.13333333"
     d="m 591.30134,196.5188 c -1.33867,0.27733 -2.15467,0.076 -2.95867,-0.90533 -1.05333,-1.28667 -3.428,-1.07067 -4.54666,0.17866 -1.00534,1.12267 -0.80534,2.528 0.55333,3.17734 1.1,0.52666 2.28933,0.86666 3.42533,1.32133 1.98934,0.796 3.66934,1.892 3.89067,4.292 0.172,1.848 -0.42267,3.40667 -2.04,4.356 -1.98533,1.168 -4.12667,1.39333 -6.19867,0.24 -1.35066,-0.75067 -2.48666,-1.8 -2.74533,-3.45867 -0.0707,-0.44666 -0.53067,-1.15333 0.316,-1.26 0.644,-0.08 1.43067,-0.41066 1.80133,0.76134 0.67334,2.132 2.59334,2.98266 4.74267,2.412 1.16267,-0.308 1.82667,-1.03334 1.99333,-2.17467 0.18,-1.23333 -0.30933,-2.23467 -1.45066,-2.73733 -1.06534,-0.468 -2.20667,-0.76134 -3.316,-1.13067 -2.53067,-0.84133 -3.89334,-2.42133 -3.82,-4.42933 0.064,-1.74134 1.70533,-3.55867 3.77066,-4.18 2.236,-0.67067 4.54934,0.0707 5.75467,1.888 0.316,0.476 0.52,1.02666 0.828,1.64933"
     inkscape:connector-curvature="0" /><path
     id="path48"
     style="fill:#020202;fill-opacity:1;fill-rule:nonzero;stroke:none;stroke-width:0.13333333"
     d="m 569.05601,198.99747 c -0.14134,1.468 0.252,3.23733 -0.23867,4.972 -0.95067,3.368 -4.28533,5.65733 -7.59467,5.19866 -3.39466,-0.47066 -6.05733,-3.45066 -6.11333,-6.90666 -0.0387,-2.468 0.003,-4.93734 -0.012,-7.40667 -0.005,-0.708 0.0213,-1.22533 0.98933,-1.24267 0.99734,-0.016 1.15734,0.42934 1.144,1.27334 -0.0387,2.29333 -0.0253,4.58533 -0.0107,6.87866 0.0227,3.16 1.952,5.26667 4.82933,5.30134 2.864,0.0333 4.87333,-2.12 4.88667,-5.25334 0.008,-2.23333 -0.009,-4.46666 0.007,-6.70133 0.005,-0.68933 -0.316,-1.492 1.004,-1.516 1.41467,-0.0253 1.09867,0.83467 1.10667,1.596 0.0133,1.176 0.003,2.352 0.003,3.80667"
     inkscape:connector-curvature="0" /><path
     id="path50"
     style="fill:#020202;fill-opacity:1;fill-rule:nonzero;stroke:none;stroke-width:0.13333333"
     d="m 365.89201,199.0388 c -0.14933,1.46667 0.24933,3.232 -0.25333,4.96933 -0.956,3.30534 -4.144,5.53334 -7.44534,5.164 -3.46133,-0.38533 -6.19733,-3.40533 -6.24933,-6.952 -0.0347,-2.40933 -10e-4,-4.82 -0.009,-7.22933 -0.003,-0.72667 -0.092,-1.38267 1.02933,-1.38133 1.044,0 1.108,0.52266 1.09733,1.31866 -0.0253,2.29067 -0.0227,4.584 -0.005,6.876 0.024,3.128 2.00133,5.25067 4.87067,5.26134 2.868,0.009 4.83333,-2.13334 4.844,-5.29467 0.007,-2.35067 0.036,-4.70267 -0.0173,-7.05333 -0.02,-0.83734 0.20134,-1.11467 1.072,-1.10934 0.84267,0.008 1.13067,0.23334 1.08534,1.096 -0.0707,1.348 -0.0187,2.70267 -0.0187,4.33467"
     inkscape:connector-curvature="0" /><path
     id="path56"
     style="fill:#000000;fill-opacity:1;fill-rule:nonzero;stroke:none;stroke-width:0.13333333"
     d="m 434.43734,203.14547 c 0,2.708 0.044,5.41733 -0.0147,8.124 -0.048,2.18533 -1.58267,3.82533 -3.66267,4.08133 -1.88533,0.232 -3.88,-0.99733 -4.37867,-2.79733 -0.11466,-0.416 -0.62933,-1.15467 0.0987,-1.344 0.53067,-0.13867 1.40933,-0.53467 1.80267,0.44266 0.46666,1.16267 1.27466,1.904 2.576,1.50934 1.38,-0.41867 1.484,-1.59334 1.47466,-2.85334 -0.036,-5.004 -0.0293,-10.00933 0.004,-15.01333 0.004,-0.67333 -0.512,-1.66533 0.99067,-1.69333 1.60667,-0.0293 1.08,1.03466 1.092,1.772 0.0427,2.59066 0.0173,5.18133 0.0173,7.772"
     inkscape:connector-curvature="0" /><path
     id="path58"
     style="fill:#050505;fill-opacity:1;fill-rule:nonzero;stroke:none;stroke-width:0.13333333"
     d="m 573.79067,195.98947 c 1.44267,-0.99334 2.90934,-2.03867 4.772,-2.24667 0.59867,-0.0667 1.20667,-0.348 1.268,0.60133 0.048,0.71067 0.0893,1.272 -0.92,1.53067 -3.87466,0.99467 -5.428,3.08933 -5.432,7.04 -10e-4,1.64267 -0.0107,3.28533 0.004,4.928 0.007,0.73067 0.0933,1.37867 -1.02533,1.376 -1.012,-10e-4 -1.128,-0.45067 -1.12267,-1.28667 0.0307,-4.34133 0.028,-8.68266 0.003,-13.024 -0.005,-0.808 0.06,-1.30666 1.1,-1.308 1.09867,-0.003 1.06667,0.60534 1.04933,1.356 -0.008,0.328 -0.12266,0.70534 0.304,1.03334"
     inkscape:connector-curvature="0" /><path
     id="path60"
     style="fill:#050505;fill-opacity:1;fill-rule:nonzero;stroke:none;stroke-width:0.13333333"
     d="m 370.63601,195.99747 c 1.38533,-0.99067 2.80533,-2.00534 4.60267,-2.21467 0.596,-0.068 1.33333,-0.544 1.42666,0.57467 0.0613,0.72 0.0667,1.26666 -0.932,1.52 -3.85866,0.98 -5.41733,3.08666 -5.42,7.052 -10e-4,1.64266 -0.0147,3.28533 0.005,4.928 0.008,0.74533 0.0613,1.36266 -1.04,1.36133 -1.032,0 -1.112,-0.48533 -1.10667,-1.30133 0.0253,-4.34134 0.0267,-8.684 -0.001,-13.02534 -0.005,-0.83066 0.0987,-1.308 1.11866,-1.28933 0.92267,0.016 1.07334,0.42933 1.03734,1.19467 -0.0173,0.37466 -0.176,0.82 0.30933,1.2"
     inkscape:connector-curvature="0" /><path
     id="path64"
     style="fill:#0d0d0d;fill-opacity:1;fill-rule:nonzero;stroke:none;stroke-width:0.13333333"
     d="m 425.44268,198.4068 c 0,3.17067 -0.016,6.34133 0.012,9.512 0.007,0.812 -0.0693,1.31067 -1.10534,1.31067 -1.07866,0.001 -1.06533,-0.58 -1.064,-1.348 0.0133,-6.4 0.0187,-12.80134 -0.005,-19.20134 -0.004,-0.82266 0.08,-1.268 1.10533,-1.27333 1.08267,-0.007 1.072,0.536 1.06667,1.31067 -0.0213,3.22933 -0.009,6.45866 -0.009,9.68933"
     inkscape:connector-curvature="0" /><path
     id="path70"
     style="fill:#000000;fill-opacity:1;fill-rule:nonzero;stroke:none;stroke-width:0.13333333"
     d="m 415.71068,196.3108 c 1.71466,-1.37333 3.28266,-2.35733 5.2,-2.57333 0.472,-0.0533 1.168,-0.41067 1.13066,0.504 -0.0227,0.52933 0.416,1.18933 -0.6,1.54666 -4.87866,1.716 -5.73066,3.01067 -5.73066,8.24934 0,1.352 -0.048,2.708 0.016,4.05733 0.0413,0.83333 -0.18667,1.124 -1.06667,1.11467 -0.84,-0.0107 -1.096,-0.23334 -1.088,-1.09467 0.044,-4.35067 0.0213,-8.704 0.02,-13.05733 0,-0.74134 -0.2,-1.46534 1.068,-1.46134 1.28533,0.005 1.04267,0.76 1.05067,1.48934 0.003,0.29333 0,0.58533 0,1.22533"
     inkscape:connector-curvature="0" /><path
     id="path78"
     style="fill:#000000;fill-opacity:1;fill-rule:nonzero;stroke:none;stroke-width:0.13333333"
     d="m 534.42934,201.58547 c 0,2.17333 -0.04,4.348 0.0187,6.52 0.0227,0.848 -0.216,1.10533 -1.076,1.10266 -0.85334,-0.001 -1.088,-0.24933 -1.08,-1.09866 0.0413,-4.46534 0.0413,-8.93067 0,-13.396 -0.008,-0.84534 0.21733,-1.104 1.07733,-1.10267 0.85333,10e-4 1.10133,0.24933 1.07867,1.1 -0.0573,2.29067 -0.0187,4.58267 -0.0187,6.87467"
     inkscape:connector-curvature="0" /><path
     id="path80"
     style="fill:#000000;fill-opacity:1;fill-rule:nonzero;stroke:none;stroke-width:0.13333333"
     d="m 461.28934,201.5908 c 0,2.17333 -0.0387,4.348 0.02,6.52133 0.0227,0.856 -0.23466,1.092 -1.08266,1.096 -0.86534,0.005 -1.08,-0.26666 -1.072,-1.10533 0.0387,-4.46533 0.04,-8.93067 -10e-4,-13.39467 -0.008,-0.85466 0.23334,-1.092 1.08267,-1.09733 0.86533,-0.004 1.092,0.26533 1.07333,1.10667 -0.056,2.28933 -0.02,4.58133 -0.02,6.87333"
     inkscape:connector-curvature="0" /><path
     id="path82"
     style="fill:#000000;fill-opacity:1;fill-rule:nonzero;stroke:none;stroke-width:0.13333333"
     d="m 429.84268,201.4068 c 0,2.232 -0.036,4.46533 0.02,6.696 0.02,0.844 -0.21067,1.10933 -1.07467,1.10533 -0.85067,-0.003 -1.08933,-0.244 -1.08133,-1.09733 0.0413,-4.46533 0.04,-8.93067 10e-4,-13.396 -0.008,-0.84 0.20933,-1.108 1.07333,-1.104 0.85067,0.004 1.104,0.244 1.08134,1.09867 -0.0587,2.23066 -0.02,4.464 -0.02,6.69733"
     inkscape:connector-curvature="0" /><path
     id="path88"
     style="fill:#070707;fill-opacity:1;fill-rule:nonzero;stroke:none;stroke-width:0.13333333"
     d="m 534.79601,188.8228 c -0.13067,0.81733 -0.62267,1.29067 -1.42267,1.25333 -0.72133,-0.036 -1.21333,-0.52933 -1.21333,-1.26266 10e-4,-0.796 0.464,-1.35334 1.30133,-1.34267 0.82533,0.009 1.24267,0.54933 1.33467,1.352"
     inkscape:connector-curvature="0" /><path
     id="path90"
     style="fill:#070707;fill-opacity:1;fill-rule:nonzero;stroke:none;stroke-width:0.13333333"
     d="m 461.65601,188.7268 c -0.0627,0.836 -0.532,1.32267 -1.32933,1.35067 -0.74,0.0253 -1.24667,-0.45867 -1.30134,-1.172 -0.0613,-0.78934 0.37467,-1.38134 1.204,-1.43467 0.82934,-0.0533 1.272,0.47067 1.42667,1.256"
     inkscape:connector-curvature="0" /><path
     id="path92"
     style="fill:#070707;fill-opacity:1;fill-rule:nonzero;stroke:none;stroke-width:0.13333333"
     d="m 430.20934,188.84147 c -0.14266,0.81733 -0.644,1.284 -1.44,1.23333 -0.72,-0.0467 -1.20933,-0.54533 -1.19466,-1.28133 0.0147,-0.79467 0.48266,-1.34667 1.32,-1.32267 0.824,0.024 1.23733,0.56667 1.31466,1.37067"
     inkscape:connector-curvature="0" /><path
     id="path96"
     style="fill:#0d0d0d;fill-opacity:1;fill-rule:nonzero;stroke:none;stroke-width:0.13333333"
     d="m 434.63334,188.70947 c -0.10666,0.75733 -0.42933,1.31333 -1.32266,1.27866 -0.8,-0.032 -1.14534,-0.556 -1.16267,-1.26 -0.0227,-0.82933 0.42533,-1.30266 1.29733,-1.27866 0.79734,0.0227 1.11334,0.51466 1.188,1.26"
     inkscape:connector-curvature="0" /><path
     id="path98"
     style="fill:#7d7d7d;fill-opacity:1;fill-rule:nonzero;stroke:none;stroke-width:0.13333333"
     d="m 529.15867,98.440137 c 0,-2.129333 0,-4.26 0,-6.390666 0.08,0.0027 0.16134,0.0027 0.24134,0.0027 0,2.141334 0,4.282667 0,6.424 l -0.12934,0.04533 -0.112,-0.08133"
     inkscape:connector-curvature="0" /><path
     id="path100"
     style="fill:#fe6500;fill-opacity:1;fill-rule:nonzero;stroke:none;stroke-width:0.13333333"
     d="m 153.52135,207.23613 c -29.36973,-0.052 -53.188,-23.46533 -53.17653,-53.37066 0.012,-30.03467 24.99533,-54.386666 55.7592,-53.048 27.25066,1.184 50.87733,23.91333 50.67333,53.33067 0.13733,28.71466 -23.232,53.14266 -53.256,53.08799 z m 155.92,-22.21333 c -12.48267,-5.564 -24.944,-11.17733 -37.452,-16.68666 -1.37467,-0.604 -1.65467,-1.36 -1.48267,-2.65867 0.43867,-3.31467 0.66267,-6.64667 0.69733,-9.992 0.0507,-4.87733 -0.007,-9.75067 -0.58,-14.59867 -0.11333,-0.96 0.0693,-1.44 1.012,-1.84933 3.064,-1.33333 6.07334,-2.79333 9.10534,-4.19867 9.15466,-4.244 18.3,-8.50933 27.47866,-12.70133 1.32667,-0.60533 1.6,-1.18667 1.17334,-2.64267 -2.56667,-8.77866 -5.03734,-17.58533 -7.43067,-26.413329 -0.412,-1.516 -1.04533,-1.665334 -2.436,-1.452 -13.56133,2.072 -27.136,4.053333 -40.69867,6.116 -1.004,0.153333 -1.408,-0.09733 -1.88266,-0.958667 -3.892,-7.064 -8.45734,-13.664 -13.7,-19.804 -1.008,-1.181333 -2.844,-2.154666 -2.82667,-3.596 0.0187,-1.494666 1.232,-2.985333 1.96267,-4.458666 4.98933,-10.048 9.968,-20.1 15.01333,-30.119999 0.608,-1.209334 0.40133,-1.805334 -0.664,-2.565334 -7.54267,-5.395999 -15.06267,-10.826666 -22.53067,-16.325333 -1.108,-0.816 -1.67466,-0.672 -2.544,0.253334 -4.91333,5.222666 -9.88266,10.390666 -14.832,15.575999 -3.57333,3.741334 -7.188,7.444 -10.68533,11.253333 -0.67067,0.730667 -1.03067,0.770667 -1.85733,0.378667 -8.79867,-4.16 -17.98133,-7.164 -27.56133,-8.9 -1.156,-0.209333 -1.472,-0.749333 -1.648,-1.808 -1.956,-11.754666 -3.97867,-23.497332 -5.924,-35.2519987 -0.20667,-1.24399997 -0.668,-1.62133329 -1.92534,-1.61466662 -9.304,0.05199999 -18.608,0.05599999 -27.912,-0.003999996 C 138.04402,-0.00786032 137.62935,0.325473 137.46402,1.593473 c -1.548,11.86 -3.18534,23.706666 -4.74054,35.565332 -0.14226,1.081334 -0.43853,1.664 -1.5844,1.888 -9.79173,1.921334 -19.11973,5.228 -28.04946,9.644 -1.14694,0.566667 -1.69227,0.353333 -2.49267,-0.464 -8.403194,-8.573333 -16.87506,-17.078666 -25.236527,-25.691999 -1.184933,-1.221334 -1.888533,-1.122667 -3.131733,-0.216 -7.3068,5.324 -14.636,10.619999 -22.0464,15.797333 -1.457733,1.017333 -1.590533,1.849333 -0.651066,3.142666 0.136533,0.189334 0.238533,0.402667 0.35,0.609334 5.897466,10.887999 11.788133,21.779999 17.702133,32.659999 0.364533,0.670666 0.326,1.113333 -0.1932,1.693333 -5.940667,6.634667 -10.965067,13.912 -15.141733,21.773333 -0.5344,1.006666 -1.060934,1.353333 -2.313467,1.174666 -13.1792,-1.877333 -26.376133,-3.626666 -39.555759,-5.503999 -1.3422,-0.190667 -1.77136,0.124 -2.1395866,1.356 -2.6052133,8.707999 -5.2338532,17.409329 -7.98802387,26.070669 -0.53958399,1.69733 -0.26927106,2.40133 1.38021067,3.12933 12.1786268,5.37067 24.3078258,10.852 36.4594258,16.28267 0.7452,0.332 0.953067,0.69466 0.8828,1.58933 -0.666667,8.50667 -0.722933,17.01067 0.4432,25.48667 0.151067,1.1 -0.202133,1.63333 -1.192667,2.136 -12.040133,6.11866 -24.047466,12.30266 -36.0901588,18.41866 -0.996352,0.50667 -1.17708135,0.94267 -0.8291653,1.992 2.9302052,8.85067 5.8343785,17.71067 8.6468718,26.59867 0.4375063,1.38133 0.9651063,1.63466 2.3375063,1.368 13.13548,-2.54934 26.28908,-5.004 39.424946,-7.55334 1.296933,-0.25066 1.952667,-0.0187 2.6272,1.16534 4.049467,7.11333 8.953066,13.61733 14.447866,19.67466 0.5312,0.584 0.5896,0.96534 0.252534,1.652 -2.431734,4.952 -4.8176,9.92667 -7.218134,14.89467 -3.472933,7.18773 -6.938533,14.38147 -10.430799,21.5612 -0.437467,0.9 -0.551067,1.4948 0.457866,2.18693 7.5516,5.18387 15.111467,10.36254 22.535333,15.7276 1.6724,1.2084 2.4448,0.85107 3.614133,-0.45826 8.366667,-9.37347 16.788533,-18.69894 25.178664,-28.05107 0.66346,-0.74107 1.2068,-0.9744 2.23853,-0.49067 8.47653,3.97094 17.29373,6.9308 26.49733,8.712 2.83294,0.54854 2.80494,0.59067 3.2556,3.46307 1.89067,12.05307 3.81467,24.10253 5.668,36.16253 0.22534,1.46147 0.71867,1.9948 2.296,1.94947 4.53067,-0.12973 9.068,-0.0453 13.60267,-0.0453 4.476,0 8.95333,-0.0907 13.42533,0.0437 1.772,0.0547 2.29734,-0.44013 2.516,-2.23067 1.53334,-12.63186 3.23867,-25.2428 4.80267,-37.8704 0.14933,-1.20826 0.59467,-1.50253 1.66,-1.7296 9.216,-1.96413 18.09733,-4.9412 26.536,-9.15053 1.15066,-0.57453 1.71733,-0.32813 2.49866,0.5 8.84,9.35627 17.71867,18.6744 26.556,28.03333 0.55867,0.59054 0.832,0.85467 1.63867,0.29734 7.924,-5.47867 15.87867,-10.91347 23.84933,-16.32294 0.812,-0.55053 0.94,-0.99426 0.476,-1.85053 -1.204,-2.21973 -2.31866,-4.488 -3.46933,-6.73587 -5.05733,-9.88026 -10.112,-19.76 -15.17467,-29.636 -0.35333,-0.692 -0.644,-1.19466 0.0747,-1.98933 5.368,-5.948 9.99867,-12.44533 13.90267,-19.43733 0.724,-1.29734 1.40666,-1.63334 2.85066,-1.41867 13.808,2.05467 27.628,4.01467 41.43734,6.05467 0.90533,0.13466 1.19333,-0.04 1.452,-0.89334 2.77866,-9.20133 5.58133,-18.39866 8.452,-27.572 0.316,-1.008 0.052,-1.34266 -0.78,-1.71333"
     inkscape:connector-curvature="0" /><path
     id="path102"
     style="fill:#fe6600;fill-opacity:1;fill-rule:nonzero;stroke:none;stroke-width:0.13333333"
     d="m 370.50268,104.2668 c -1.69867,2.508 -4.34667,3.524 -7.172,3.99867 -5.02,0.84133 -10.096,0.21867 -15.14267,0.39867 -1.08267,0.0387 -0.856,-0.732 -0.85867,-1.332 -0.012,-3.59067 -0.005,-7.18134 -0.005,-10.770669 0,-3.532 -0.007,-7.064 0.005,-10.596 0.003,-0.597334 -0.228,-1.370667 0.85467,-1.334667 4.75333,0.157333 9.53733,-0.42 14.26267,0.372 9.01866,1.512 13.23333,11.62 8.056,19.263996 z m 71.63066,43.82 c -11.03066,-13.56266 -22.048,-27.13333 -33.13333,-40.652 -0.812,-0.99066 -0.66533,-1.44266 0.0627,-2.31466 8.65066,-10.354669 17.26266,-20.740002 25.86533,-31.132002 1.192,-1.441334 2.55467,-2.766667 3.58,-4.545333 -5.16667,0 -10.11067,0.02533 -15.05467,-0.02533 -0.84533,-0.008 -1.25733,0.413334 -1.73066,0.956 -5.844,6.732 -11.70134,13.454667 -17.56,20.176 -2.00934,2.308 -4.02934,4.610666 -6.316,7.226666 0,-0.793333 0,-1.129333 0,-1.465333 0,-8.418667 -0.032,-16.838666 0.0347,-25.255999 0.009,-1.345334 -0.36666,-1.678667 -1.672,-1.644 -3.47066,0.09333 -6.94666,0.08933 -10.41866,0 -1.24134,-0.03067 -1.57467,0.308 -1.55467,1.552 0.0733,5.001333 0.0307,10.003999 0.0307,15.006666 -0.90134,-1.552 -1.55734,-3.113333 -2.52667,-4.508 -4.924,-7.076 -12.168,-9.706667 -20.32267,-10.209333 -8.752,-0.538667 -17.53066,-0.08533 -26.29466,-0.225333 -1.26667,-0.02 -1.57467,0.399999 -1.564,1.606666 0.0547,6.005333 0.024,12.010666 0.024,18.016 0,19.369325 0.0147,38.738665 -0.028,58.107995 -0.004,1.368 0.332,1.82933 1.752,1.784 3.29333,-0.104 6.596,-0.124 9.888,0.007 1.656,0.0653 2.19333,-0.328 2.172,-2.09467 -0.10267,-8.24133 -0.0173,-16.48533 -0.0747,-24.72667 -0.009,-1.28933 0.28133,-1.68266 1.64133,-1.68 4.76134,0.005 9.53467,0.32134 14.28267,-0.176 7.444,-0.77866 14.092,-3.18133 18.47467,-9.75333 0.94933,-1.424 1.63733,-3.02133 2.576,-4.78 0,0.60533 0,0.944 0,1.284 0,12.892 0.0173,25.78667 -0.0293,38.68 -0.005,1.27067 0.232,1.72 1.612,1.67467 3.412,-0.11334 6.832,-0.12934 10.24134,0.004 1.56133,0.06 1.796,-0.496 1.788,-1.88934 -0.0613,-8.88933 -0.032,-17.78 -0.032,-26.66933 0,-0.412 -0.004,-0.824 0.005,-1.236 0.0227,-1.048 0.68933,-1.896 1.44,-2.27467 0.64,-0.32133 1.01067,0.73467 1.43733,1.24667 8.26934,9.916 16.54534,19.82667 24.788,29.76533 0.62534,0.75467 1.25467,1.05734 2.22934,1.03867 3.00133,-0.06 6.004,-0.0227 9.00666,-0.0227 1.9,0 3.8,0 5.89867,0 -0.28133,-0.46666 -0.37867,-0.67866 -0.51867,-0.852"
     inkscape:connector-curvature="0" /><path
     id="path104"
     style="fill:#000000;fill-opacity:1;fill-rule:nonzero;stroke:none;stroke-width:0.13333333"
     d="m 466.91601,140.99214 c -12.35733,-0.004 -22.41067,-10.124 -22.41067,-22.55734 0,-12.59066 10.03734,-22.499996 22.78133,-22.494663 12.13067,0.0053 22.384,10.497333 22.27067,22.789333 -0.112,12.15067 -10.40133,22.268 -22.64133,22.26267 z m 30.57733,-21.98267 c -0.0387,-8.72933 -3.024,-16.224 -9.28667,-22.429333 -11.184,-11.08 -30.12933,-11.509333 -41.65199,-0.845333 -10.456,9.678666 -13.024,24.202666 -6.53334,36.957336 6.50667,12.78933 22.04534,19.26933 35.744,14.968 5.25067,-1.648 9.756,-4.44134 13.79333,-8.72667 0,2.39067 0.04,4.33333 -0.0187,6.27333 -0.0253,0.84 0.2,1.132 1.07466,1.09734 1.764,-0.0653 3.53867,-0.11734 5.29467,0.0133 1.4,0.104 1.628,-0.44667 1.62,-1.70267 -0.0507,-8.536 0.004,-17.07066 -0.036,-25.60533"
     inkscape:connector-curvature="0" /><path
     id="path106"
     style="fill:#000000;fill-opacity:1;fill-rule:nonzero;stroke:none;stroke-width:0.13333333"
     d="m 487.67067,207.77213 c -3.492,-0.0707 -6.25866,-2.964 -6.23866,-6.52266 0.0173,-3.53334 2.86533,-6.38267 6.372,-6.376 3.47466,0.005 6.39066,2.948 6.34666,6.404 -0.0467,3.65466 -2.95066,6.56533 -6.48,6.49466 z m 8.596,-13.152 c -10e-4,-0.44 0.13734,-1.03333 -0.62133,-0.96266 -0.48667,0.0453 -1.08267,-0.29467 -1.43867,0.29733 -0.25333,0.42 0.24,1.04533 -0.32933,1.412 -3.644,-3.396 -8.63867,-3.49733 -12.068,-0.264 -3.25333,3.068 -3.384,8.644 -0.284,12.09333 3.168,3.524 8.21467,3.58534 12.57867,0.0373 0.009,3.004 -1.55334,5.336 -4.12267,6.31866 -2.512,0.96 -5.056,0.24934 -7.148,-1.964 -0.312,-0.33066 -0.51067,-1.29066 -1.22933,-0.38 -0.408,0.51734 -1.26934,0.74 -0.408,1.77867 2.02933,2.45333 5.624,3.68667 8.85733,2.752 3.44267,-0.996 6.10533,-4.08133 6.188,-7.52133 0.10933,-4.52934 0.0293,-9.064 0.0253,-13.59734"
     inkscape:connector-curvature="0" /><path
     id="path110"
     style="fill:#000000;fill-opacity:1;fill-rule:nonzero;stroke:none;stroke-width:0.13333333"
     d="m 384.63201,207.7708 c -3.52,-0.104 -6.24933,-2.98933 -6.19867,-6.55467 0.0493,-3.53066 2.91867,-6.368 6.41467,-6.34266 3.472,0.0253 6.38933,3.01333 6.30933,6.46266 -0.0853,3.66134 -3.00266,6.53867 -6.52533,6.43467 z m 8.64533,-12.92 c 0.003,-0.72267 -0.0307,-1.248 -1,-1.23333 -0.824,0.0133 -1.224,0.244 -1.12133,1.108 0.024,0.21733 0.0587,0.476 -0.276,0.52 -3.98267,-3.29734 -8.73067,-3.33467 -12.08267,-0.0947 -3.05466,2.952 -3.39333,8.03733 -0.76,11.41333 1.35734,1.73867 3.12667,2.77334 5.29867,3.176 2.98667,0.55467 5.46667,-0.492 7.71067,-2.52533 0.11733,2.92267 -1.47734,5.35067 -4.03467,6.34267 -2.76933,1.07333 -5.31867,0.16933 -7.79733,-2.73734 -1.66667,0.88934 -1.66667,1.83867 -0.372,2.90134 2.748,2.25333 5.764,3.10933 9.16133,1.67866 3.28933,-1.38666 5.104,-3.96 5.22933,-7.47866 0.15334,-4.35067 0.0293,-8.71334 0.044,-13.07067"
     inkscape:connector-curvature="0" /><path
     id="path114"
     style="fill:#000000;fill-opacity:1;fill-rule:nonzero;stroke:none;stroke-width:0.13333333"
     d="m 341.57201,207.77213 c -3.51733,0.036 -6.45333,-2.95866 -6.42,-6.548 0.0333,-3.49466 2.956,-6.38266 6.43067,-6.35066 3.504,0.032 6.288,2.88933 6.28933,6.45466 0.001,3.544 -2.79867,6.408 -6.3,6.444 z m 8.2,-8.51466 c -1.83467,-6.848 -9.27733,-8.66134 -14.62133,-3.38267 0,-2.504 0.009,-4.73733 -0.004,-6.972 -0.004,-0.69733 0.304,-1.49067 -1.016,-1.49733 -1.23333,-0.005 -1.10667,0.63466 -1.104,1.42266 0.0133,4.29334 -0.036,8.588 0.02,12.88134 0.0453,3.536 1.916,5.964 5.02666,7.39333 3.304,1.516 6.44934,0.956 9.14667,-1.408 2.552,-2.23333 3.42133,-5.19467 2.552,-8.43733"
     inkscape:connector-curvature="0" /><path
     id="path116"
     style="fill:#010101;fill-opacity:1;fill-rule:nonzero;stroke:none;stroke-width:0.13333333"
     d="m 505.16801,194.91747 c 2.53333,-0.46267 4.99333,0.82933 6.64666,3.62266 -3.796,0 -7.372,0 -10.94266,0 0.34,-1.74133 2.08266,-3.21866 4.296,-3.62266 z m -3.976,5.74933 c 4.05866,0.092 8.12133,0.001 12.18133,0.052 1.14133,0.0147 1.43867,-0.276 1.116,-1.41733 -0.92267,-3.26 -2.94133,-5.40534 -6.21733,-6.25867 -3.4,-0.88533 -6.23334,0.18133 -8.56267,2.73733 -2.10933,2.316 -2.67733,6.02 -1.36267,8.87067 1.58267,3.43067 4.268,5.22533 8.036,5.21733 3.47467,-0.008 6.31867,-2.052 7.61067,-5.37066 -1.31733,-0.21467 -2.26,-0.08 -3.14,1.05333 -1.57467,2.03067 -3.83467,2.68 -6.29867,1.98533 -2.588,-0.72933 -4.13733,-2.536 -4.68,-5.2 -0.232,-1.13333 -0.0973,-1.70133 1.31734,-1.66933"
     inkscape:connector-curvature="0" /><path
     id="path122"
     style="fill:#010101;fill-opacity:1;fill-rule:nonzero;stroke:none;stroke-width:0.13333333"
     d="m 544.68801,194.88947 c 2.55733,-0.0693 4.43466,1.14533 5.792,3.552 -3.764,0 -7.376,0 -11.228,0 1.26,-2.31067 3.03866,-3.48667 5.436,-3.552 z m -4.744,5.784 c 3.88266,0.0733 7.76933,0.0293 11.65333,0.0253 1.88,-0.003 2.03733,-0.192 1.396,-2.024 -1.09333,-3.12 -3.24267,-5.09333 -6.52133,-5.73733 -3.22934,-0.636 -5.89067,0.432 -8.064,2.812 -2.148,2.35466 -2.67867,6.136 -1.312,9.04266 1.548,3.29334 4.65733,5.24 8.13466,5.09334 3.45467,-0.14534 6.31467,-2.21334 7.44934,-5.38667 -1.36267,-0.332 -2.316,0.056 -3.26267,1.21333 -1.64,2.00534 -3.95867,2.53734 -6.38667,1.764 -2.46266,-0.784 -3.97066,-2.53333 -4.45333,-5.168 -0.23333,-1.26933 0.0507,-1.66 1.36667,-1.63466"
     inkscape:connector-curvature="0" /><path
     id="path124"
     style="fill:#010101;fill-opacity:1;fill-rule:nonzero;stroke:none;stroke-width:0.13333333"
     d="m 402.68134,194.9028 c 2.68534,-0.208 4.7,1.00933 6.13867,3.60133 -3.86,0 -7.44667,0 -11.21867,0 1.07734,-2.28933 2.81867,-3.428 5.08,-3.60133 z m -4.27866,5.77467 c 4,0.0613 8.00266,-0.007 12.00533,0.04 1.05867,0.0133 1.344,-0.3 1.092,-1.332 -0.556,-2.28267 -1.804,-4.02134 -3.76533,-5.30534 -4.044,-2.64533 -9.52,-1.25066 -11.98,3.08134 -2.44667,4.30666 -0.67334,9.78533 3.85066,11.9 4.51334,2.10933 9.61734,0.0813 11.396,-4.53067 -1.368,-0.40933 -2.304,0.02 -3.24266,1.16 -1.64667,2 -3.948,2.556 -6.38134,1.79467 -2.46666,-0.772 -3.96,-2.51467 -4.48533,-5.14267 -0.29467,-1.47467 0.232,-1.68533 1.51067,-1.66533"
     inkscape:connector-curvature="0" /><path
     id="path136"
     style="fill:#000000;fill-opacity:1;fill-rule:nonzero;stroke:none;stroke-width:0.13333333"
     d="M 619.60534,173.85747 H 333.00401 v -8.83467 h 286.60133 v 8.83467"
     inkscape:connector-curvature="0" /></svg>