<?xml version="1.0" encoding="utf-8"?>
<!-- Generator: Adobe Illustrator 19.1.0, SVG Export Plug-In . SVG Version: 6.00 Build 0)  -->
<svg version="1.1" id="Layer_1" xmlns="http://www.w3.org/2000/svg" xmlns:xlink="http://www.w3.org/1999/xlink" x="0px" y="0px"
	 viewBox="353.6 -1406.6 107.6 169.3" style="enable-background:new 353.6 -1406.6 107.6 169.3;" xml:space="preserve">
<style type="text/css">
	.st0{fill:#9F3731;}
	.st1{fill:#B89899;}
	.st2{fill:#4C7BAC;}
	.st3{fill:#4E84C1;}
	.st4{fill:#D9B95C;}
	.st5{fill:#5794D0;}
	.st6{fill:#F1CB64;}
	.st7{fill:#FFFFFF;}
	.st8{fill:#E4D648;}
	.st9{fill:#4669AE;}
	.st10{fill:#C84134;}
	.st11{fill:#E7B9B6;}
	.st12{fill:#9C3C31;}
	.st13{display:none;fill:#FFFFFB;}
	.st14{display:none;}
	.st15{display:inline;fill:#FFFFFB;}
	.st16{display:inline;fill:#CB4D45;}
</style>
<g>
	<g id="XMLID_7514_">
		<g id="XMLID_8100_">
			<g id="XMLID_8101_">
				<polygon id="XMLID_8102_" class="st0" points="437.3,-1366.2 366,-1334.5 353.6,-1305.2 430.6,-1343 				"/>
			</g>
		</g>
		<g id="XMLID_8097_">
			<g id="XMLID_8098_">
				<path id="XMLID_8099_" class="st1" d="M426.9-1342.3c-0.1,0-0.2-0.1-0.3-0.2c-0.1-0.1,0-0.3,0.1-0.4l0,0h0.2
					c0.1,0,0.2,0.1,0.2,0.2c0.1,0.1,0,0.3-0.1,0.4C427-1342.3,426.9-1342.3,426.9-1342.3"/>
			</g>
		</g>
		<g id="XMLID_8084_">
			<g id="XMLID_8085_">
				<path id="XMLID_8086_" class="st1" d="M382.2-1340c-0.1,0-0.2-0.1-0.3-0.2c-0.1-0.1,0-0.3,0.1-0.4h0.1c0.1,0,0.2,0.1,0.3,0.2
					c0.1,0.1,0,0.3-0.1,0.4C382.2-1340,382.2-1340,382.2-1340 M380.7-1339.3c-0.1,0-0.2-0.1-0.3-0.2c-0.1-0.1,0-0.3,0.1-0.4h0.1
					c0.1,0,0.2,0.1,0.3,0.2c0.1,0.1,0,0.3-0.1,0.4C380.8-1339.3,380.8-1339.3,380.7-1339.3 M379.3-1338.7c-0.1,0-0.2-0.1-0.3-0.2
					c-0.1-0.1,0-0.3,0.1-0.4h0.1c0.1,0,0.2,0.1,0.3,0.2c0.1,0.1,0,0.3-0.1,0.4H379.3 M377.9-1338c-0.1,0-0.2-0.1-0.3-0.2
					c-0.1-0.1,0-0.3,0.1-0.4h0.1c0.1,0,0.2,0.1,0.3,0.2c0.1,0.1,0,0.3-0.1,0.4C377.9-1338,377.9-1338,377.9-1338 M376.4-1337.4
					c-0.1,0-0.2-0.1-0.3-0.2c-0.1-0.1,0-0.3,0.1-0.4h0.1c0.1,0,0.2,0.1,0.3,0.2c0.1,0.1,0,0.3-0.1,0.4
					C376.5-1337.4,376.5-1337.4,376.4-1337.4 M375-1336.7c-0.1,0-0.2-0.1-0.3-0.2c-0.1-0.1,0-0.3,0.1-0.4h0.1c0.1,0,0.2,0.1,0.3,0.2
					c0.1,0.1,0,0.3-0.1,0.4C375.1-1336.8,375.1-1336.7,375-1336.7 M373.6-1336.1c-0.1,0-0.2-0.1-0.3-0.2c-0.1-0.1,0-0.3,0.1-0.4h0.1
					c0.1,0,0.2,0.1,0.3,0.2c0.1,0.1,0,0.3-0.1,0.4H373.6 M372.2-1335.5c-0.1,0-0.2-0.1-0.3-0.2c-0.1-0.1,0-0.3,0.1-0.4h0.1
					c0.1,0,0.2,0.1,0.3,0.2c0.1,0.1,0,0.3-0.1,0.4C372.2-1335.5,372.2-1335.5,372.2-1335.5 M370.7-1334.8c-0.1,0-0.2-0.1-0.3-0.2
					c-0.1-0.1,0-0.3,0.1-0.4h0.1c0.1,0,0.2,0.1,0.3,0.2c0.1,0.1,0,0.3-0.1,0.4C370.8-1334.8,370.8-1334.8,370.7-1334.8 M369-1334.6
					c0-0.1,0.1-0.1,0.2-0.2h0.1c0.1,0,0.2,0.1,0.3,0.2l0,0H369"/>
			</g>
		</g>
		<g id="XMLID_8081_">
			<g id="XMLID_8082_">
				<polygon id="XMLID_8083_" class="st2" points="360.1,-1290.7 376.9,-1272.6 401.5,-1273.8 384.8,-1291.9 				"/>
			</g>
		</g>
		<g id="XMLID_8078_">
			<g id="XMLID_8079_">
				<polyline id="XMLID_8080_" class="st3" points="424,-1388 422.2,-1388.8 429.5,-1406.6 430.9,-1404.9 				"/>
			</g>
		</g>
		<g id="XMLID_8075_">
			<g id="XMLID_8076_">
				<polyline id="XMLID_8077_" class="st4" points="429.5,-1406.6 417.4,-1404.7 409.8,-1387.5 422.3,-1389.2 421,-1385.9 				"/>
			</g>
		</g>
		<g id="XMLID_8072_">
			<g id="XMLID_8073_">
				<polyline id="XMLID_8074_" class="st4" points="424,-1388 425.8,-1387.3 433,-1405.1 430.9,-1404.9 				"/>
			</g>
		</g>
		<g id="XMLID_8069_">
			<g id="XMLID_8070_">
				<polyline id="XMLID_8071_" class="st3" points="433,-1405.1 440.4,-1395.3 433.8,-1377.7 426,-1387.7 424.6,-1384.4 				"/>
			</g>
		</g>
		<g id="XMLID_8066_">
			<g id="XMLID_8067_">
				<polyline id="XMLID_8068_" class="st5" points="423.3,-1386.4 421.5,-1387.2 428.9,-1405 430.2,-1403.3 				"/>
			</g>
		</g>
		<g id="XMLID_8063_">
			<g id="XMLID_8064_">
				<polyline id="XMLID_8065_" class="st2" points="408,-1396.6 408,-1396.6 410.6,-1393.1 415,-1393.7 412.4,-1397.2 				"/>
			</g>
		</g>
		<g id="XMLID_8060_">
			<g id="XMLID_8061_">
				<polyline id="XMLID_8062_" class="st6" points="428.9,-1405 416.7,-1403.1 409.1,-1385.9 421.7,-1387.6 420.3,-1384.3 				"/>
			</g>
		</g>
		<g id="XMLID_8057_">
			<g id="XMLID_8058_">
				<polygon id="XMLID_8059_" class="st6" points="415.8,-1401.1 408.2,-1383.9 420.8,-1385.5 428,-1402.9 				"/>
			</g>
		</g>
		<g id="XMLID_8054_">
			<g id="XMLID_8055_">
				<polygon id="XMLID_8056_" class="st7" points="421.3,-1390 426.9,-1403.6 417.4,-1402.1 411.5,-1388.7 				"/>
			</g>
		</g>
		<g id="XMLID_8051_">
			<g id="XMLID_8052_">
				<polygon id="XMLID_8053_" class="st6" points="422.9,-1400 421.3,-1396.2 423.4,-1396.5 425,-1400.3 				"/>
			</g>
		</g>
		<g id="XMLID_8048_">
			<g id="XMLID_8049_">
				<polygon id="XMLID_8050_" class="st6" points="413,-1398.6 411.3,-1394.8 413.5,-1395.1 415.2,-1398.9 				"/>
			</g>
		</g>
		<g id="XMLID_8045_">
			<g id="XMLID_8046_">
				<polygon id="XMLID_8047_" class="st5" points="413.5,-1395.1 415.2,-1398.9 416.4,-1397.2 414.8,-1393.4 				"/>
			</g>
		</g>
		<g id="XMLID_8042_">
			<g id="XMLID_8043_">
				<polygon id="XMLID_8044_" class="st5" points="423.4,-1396.5 425,-1400.3 426.3,-1398.7 424.7,-1394.8 				"/>
			</g>
		</g>
		<g id="XMLID_8039_">
			<g id="XMLID_8040_">
				<polyline id="XMLID_8041_" class="st6" points="423.3,-1386.4 425.2,-1385.7 432.4,-1403.5 430.2,-1403.3 				"/>
			</g>
		</g>
		<g id="XMLID_8036_">
			<g id="XMLID_8037_">
				<polyline id="XMLID_8038_" class="st2" points="441.5,-1383 441.5,-1383 437.2,-1382.3 434.4,-1385.8 438.7,-1386.5 				"/>
			</g>
		</g>
		<g id="XMLID_8033_">
			<g id="XMLID_8034_">
				<polyline id="XMLID_8035_" class="st5" points="432.4,-1403.6 439.8,-1393.7 433.2,-1376.1 425.3,-1386.1 424,-1382.8 				"/>
			</g>
		</g>
		<g id="XMLID_8030_">
			<g id="XMLID_8031_">
				<polygon id="XMLID_8032_" class="st5" points="439,-1391.6 432.4,-1374 424.5,-1384 431.5,-1401.5 				"/>
			</g>
		</g>
		<g id="XMLID_8027_">
			<g id="XMLID_8028_">
				<polygon id="XMLID_8029_" class="st7" points="427.3,-1387.6 432.8,-1401.2 438.6,-1393.5 433.4,-1379.8 				"/>
			</g>
		</g>
		<g id="XMLID_8024_">
			<g id="XMLID_8025_">
				<polygon id="XMLID_8026_" class="st5" points="433.2,-1395.8 431.6,-1392 430.3,-1393.7 431.9,-1397.5 				"/>
			</g>
		</g>
		<g id="XMLID_8021_">
			<g id="XMLID_8022_">
				<polygon id="XMLID_8023_" class="st5" points="439.2,-1387.9 437.8,-1384 436.5,-1385.7 437.9,-1389.6 				"/>
			</g>
		</g>
		<g id="XMLID_8018_">
			<g id="XMLID_8019_">
				<polygon id="XMLID_8020_" class="st6" points="436.5,-1385.7 437.9,-1389.6 435.8,-1389.3 434.4,-1385.4 				"/>
			</g>
		</g>
		<g id="XMLID_8015_">
			<g id="XMLID_8016_">
				<polygon id="XMLID_8017_" class="st6" points="430.3,-1393.7 431.9,-1397.5 429.8,-1397.2 428.2,-1393.4 				"/>
			</g>
		</g>
		<g id="XMLID_8012_">
			<g id="XMLID_8013_">
				<polygon id="XMLID_8014_" class="st2" points="431.2,-1395.7 431.2,-1395.7 428.6,-1399.2 424.2,-1398.6 426.9,-1395.1 				"/>
			</g>
		</g>
		<g id="XMLID_8009_">
			<g id="XMLID_8010_">
				<polygon id="XMLID_8011_" class="st8" points="391.9,-1291.1 393.1,-1289.8 427.9,-1378.9 426.4,-1378.7 				"/>
			</g>
		</g>
		<g id="XMLID_8006_">
			<g id="XMLID_8007_">
				<polygon id="XMLID_8008_" class="st8" points="394.4,-1288.5 395.6,-1287.2 431,-1379.3 429.5,-1379.1 				"/>
			</g>
		</g>
		<g id="XMLID_8003_">
			<g id="XMLID_8004_">
				<polygon id="XMLID_8005_" class="st8" points="397,-1285.6 398.2,-1284.3 434.2,-1379.8 432.7,-1379.6 				"/>
			</g>
		</g>
		<g id="XMLID_8000_">
			<g id="XMLID_8001_">
				<polygon id="XMLID_8002_" class="st9" points="377.3,-1296.3 379.1,-1296.4 415.7,-1383.1 414.8,-1384.3 				"/>
			</g>
		</g>
		<g id="XMLID_7997_">
			<g id="XMLID_7998_">
				<polygon id="XMLID_7999_" class="st9" points="373.7,-1296.1 375.5,-1296.2 413.8,-1385.5 412.9,-1386.7 				"/>
			</g>
		</g>
		<g id="XMLID_7994_">
			<g id="XMLID_7995_">
				<polygon id="XMLID_7996_" class="st9" points="369.9,-1295.9 371.7,-1296 411.8,-1388.1 410.9,-1389.3 				"/>
			</g>
		</g>
		<g id="XMLID_7991_">
			<g id="XMLID_7992_">
				<polygon id="XMLID_7993_" class="st5" points="436.6,-1385.6 427.7,-1397.1 384.8,-1291.9 401.5,-1273.8 401.5,-1273.8 
					440.4,-1380.7 				"/>
			</g>
		</g>
		<g id="XMLID_7988_">
			<g id="XMLID_7989_">
				<polygon id="XMLID_7990_" class="st6" points="413.3,-1395.1 407.1,-1394.3 360.1,-1290.7 360.1,-1290.7 384.8,-1291.9 
					427.7,-1397.1 				"/>
			</g>
		</g>
		<g id="XMLID_7985_">
			<g id="XMLID_7986_">
				<polygon id="XMLID_7987_" class="st6" points="430,-1387.8 391.9,-1291.1 393.1,-1289.8 431,-1386.6 				"/>
			</g>
		</g>
		<g id="XMLID_7982_">
			<g id="XMLID_7983_">
				<polygon id="XMLID_7984_" class="st6" points="431.9,-1385.4 394.4,-1288.5 395.6,-1287.2 432.8,-1384.2 				"/>
			</g>
		</g>
		<g id="XMLID_7979_">
			<g id="XMLID_7980_">
				<polygon id="XMLID_7981_" class="st6" points="433.9,-1382.8 397,-1285.6 398.2,-1284.3 434.9,-1381.6 				"/>
			</g>
		</g>
		<g id="XMLID_7976_">
			<g id="XMLID_7977_">
				<polygon id="XMLID_7978_" class="st5" points="418,-1391.9 377.3,-1296.3 379.1,-1296.4 419.5,-1392.1 				"/>
			</g>
		</g>
		<g id="XMLID_7973_">
			<g id="XMLID_7974_">
				<polygon id="XMLID_7975_" class="st5" points="415,-1391.5 373.7,-1296.1 375.5,-1296.2 416.5,-1391.7 				"/>
			</g>
		</g>
		<g id="XMLID_7970_">
			<g id="XMLID_7971_">
				<polygon id="XMLID_7972_" class="st5" points="411.7,-1391 369.9,-1295.9 371.7,-1296 413.2,-1391.2 				"/>
			</g>
		</g>
		<g id="XMLID_7967_">
			<g id="XMLID_7968_">
				<polygon id="XMLID_7969_" class="st10" points="461.2,-1322.1 437.5,-1343.1 435.3,-1336.9 366,-1334.5 353.6,-1305.1 
					424.6,-1307.6 422.3,-1301.3 				"/>
			</g>
		</g>
		<g id="XMLID_7964_">
			<g id="XMLID_7965_">
				<polygon id="XMLID_7966_" class="st10" points="439.1,-1366.5 362.8,-1363.9 369.7,-1352.7 357,-1340.7 430.6,-1343 				"/>
			</g>
		</g>
		<g id="XMLID_7961_">
			<g id="XMLID_7962_">
				<rect id="XMLID_7963_" x="426.6" y="-1309.4" class="st11" width="0.6" height="0.6"/>
			</g>
		</g>
		<g id="XMLID_7956_">
			<g id="XMLID_7957_">
				<path id="XMLID_7958_" class="st11" d="M426.4-1307.4C426.3-1307.4,426.3-1307.4,426.4-1307.4c-0.3-0.1-0.3-0.2-0.3-0.4
					c0-0.1,0.2-0.2,0.3-0.2h0.1c0.2,0.1,0.2,0.2,0.2,0.4C426.6-1307.5,426.5-1307.4,426.4-1307.4 M425.9-1306
					C425.9-1306,425.8-1306,425.9-1306c-0.3-0.1-0.3-0.2-0.3-0.4c0-0.1,0.2-0.2,0.3-0.2h0.1c0.2,0.1,0.2,0.2,0.2,0.4
					C426.1-1306.1,426-1306,425.9-1306"/>
			</g>
		</g>
		<g id="XMLID_7953_">
			<g id="XMLID_7954_">
				<path id="XMLID_7955_" class="st11" d="M425.4-1304.6c-0.1,0-0.2,0-0.2-0.1c-0.1-0.1-0.1-0.1-0.1-0.2s0-0.2,0.1-0.2
					c0.1-0.1,0.1-0.1,0.2-0.1s0.2,0,0.2,0.1c0.1,0.1,0.1,0.1,0.1,0.2s0,0.2-0.1,0.2C425.6-1304.7,425.5-1304.6,425.4-1304.6"/>
			</g>
		</g>
		<g id="XMLID_7927_">
			<g id="XMLID_7928_">
				<path id="XMLID_7929_" class="st11" d="M457.1-1321.2c-0.1,0-0.2-0.1-0.3-0.2c-0.1-0.1,0-0.3,0.1-0.4h0.1c0.1,0,0.2,0.1,0.3,0.2
					c0.1,0.1,0,0.3-0.1,0.4H457.1 M455.7-1320.4c-0.1,0-0.2-0.1-0.3-0.2c-0.1-0.1,0-0.3,0.1-0.4h0.1c0.1,0,0.2,0.1,0.3,0.2
					c0.1,0.1,0,0.3-0.1,0.4C455.8-1320.5,455.7-1320.4,455.7-1320.4 M454.3-1319.7c-0.1,0-0.2-0.1-0.3-0.2c-0.1-0.1,0-0.3,0.1-0.4
					h0.1c0.1,0,0.2,0.1,0.3,0.2c0.1,0.1,0,0.3-0.1,0.4C454.4-1319.7,454.4-1319.7,454.3-1319.7 M452.9-1319c-0.1,0-0.2-0.1-0.3-0.2
					c-0.1-0.1,0-0.3,0.1-0.4h0.1c0.1,0,0.2,0.1,0.3,0.2c0.1,0.1,0,0.3-0.1,0.4C453-1319,453-1319,452.9-1319 M451.6-1318.3
					c-0.1,0-0.2-0.1-0.3-0.2c-0.1-0.1,0-0.3,0.1-0.4h0.1c0.1,0,0.2,0.1,0.3,0.2c0.1,0.1,0,0.3-0.1,0.4H451.6 M450.2-1317.6
					c-0.1,0-0.2-0.1-0.3-0.2c-0.1-0.1,0-0.3,0.1-0.4h0.1c0.1,0,0.2,0.1,0.3,0.2c0.1,0.1,0,0.3-0.1,0.4
					C450.3-1317.6,450.2-1317.6,450.2-1317.6 M448.8-1316.8c-0.1,0-0.2-0.1-0.3-0.2c-0.1-0.1,0-0.3,0.1-0.4h0.1
					c0.1,0,0.2,0.1,0.3,0.2c0.1,0.1,0,0.3-0.1,0.4C448.9-1316.9,448.9-1316.8,448.8-1316.8 M447.4-1316.1c-0.1,0-0.2-0.1-0.3-0.2
					c-0.1-0.1,0-0.3,0.1-0.4h0.1c0.1,0,0.2,0.1,0.3,0.2c0.1,0.1,0,0.3-0.1,0.4C447.5-1316.1,447.5-1316.1,447.4-1316.1
					 M446.1-1315.4c-0.1,0-0.2-0.1-0.3-0.2c-0.1-0.1,0-0.3,0.1-0.4h0.1c0.1,0,0.2,0.1,0.3,0.2c0.1,0.1,0,0.3-0.1,0.4
					C446.1-1315.4,446.1-1315.4,446.1-1315.4 M444.7-1314.7c-0.1,0-0.2-0.1-0.3-0.2c-0.1-0.1,0-0.3,0.1-0.4h0.1
					c0.1,0,0.2,0.1,0.3,0.2c0.1,0.1,0,0.3-0.1,0.4C444.8-1314.7,444.7-1314.7,444.7-1314.7 M443.3-1314c-0.1,0-0.2-0.1-0.3-0.2
					c-0.1-0.1,0-0.3,0.1-0.4h0.1c0.1,0,0.2,0.1,0.3,0.2c0.1,0.1,0,0.3-0.1,0.4C443.4-1314,443.4-1314,443.3-1314 M441.9-1313.3
					c-0.1,0-0.2-0.1-0.3-0.2c-0.1-0.1,0-0.3,0.1-0.4h0.1c0.1,0,0.2,0.1,0.3,0.2c0.1,0.1,0,0.3-0.1,0.4
					C442-1313.3,442-1313.3,441.9-1313.3 M440.5-1312.5c-0.1,0-0.2-0.1-0.3-0.2c-0.1-0.1,0-0.3,0.1-0.4h0.1c0.1,0,0.2,0.1,0.3,0.2
					c0.1,0.1,0,0.3-0.1,0.4C440.6-1312.5,440.6-1312.5,440.5-1312.5 M439.2-1311.8c-0.1,0-0.2-0.1-0.3-0.2c-0.1-0.1,0-0.3,0.1-0.4
					h0.1c0.1,0,0.2,0.1,0.3,0.2c0.1,0.1,0,0.3-0.1,0.4C439.3-1311.8,439.2-1311.8,439.2-1311.8 M437.8-1311.1
					c-0.1,0-0.2-0.1-0.3-0.2c-0.1-0.1,0-0.3,0.1-0.4h0.1c0.1,0,0.2,0.1,0.3,0.2c0.1,0.1,0,0.3-0.1,0.4H437.8 M436.4-1310.4
					c-0.1,0-0.2-0.1-0.3-0.2c-0.1-0.1,0-0.3,0.1-0.4h0.1c0.1,0,0.2,0.1,0.3,0.2c0.1,0.1,0,0.3-0.1,0.4
					C436.5-1310.4,436.5-1310.4,436.4-1310.4 M435-1309.7c-0.1,0-0.2-0.1-0.3-0.2c-0.1-0.1,0-0.3,0.1-0.4h0.1c0.1,0,0.2,0.1,0.3,0.2
					c0.1,0.1,0,0.3-0.1,0.4C435.1-1309.7,435.1-1309.7,435-1309.7 M433.7-1308.9c-0.1,0-0.2-0.1-0.3-0.2c-0.1-0.1,0-0.3,0.1-0.4h0.1
					c0.1,0,0.2,0.1,0.3,0.2c0.1,0.1,0,0.3-0.1,0.4C433.8-1309,433.7-1308.9,433.7-1308.9 M432.3-1308.2c-0.1,0-0.2-0.1-0.3-0.2
					c-0.1-0.1,0-0.3,0.1-0.4h0.1c0.1,0,0.2,0.1,0.3,0.2c0.1,0.1,0,0.3-0.1,0.4H432.3 M430.9-1307.5c-0.1,0-0.2-0.1-0.3-0.2
					c-0.1-0.1,0-0.3,0.1-0.4h0.1c0.1,0,0.2,0.1,0.3,0.2c0.1,0.1,0,0.3-0.1,0.4C431-1307.5,431-1307.5,430.9-1307.5 M429.5-1306.8
					c-0.1,0-0.2-0.1-0.3-0.2c-0.1-0.1,0-0.3,0.1-0.4h0.1c0.1,0,0.2,0.1,0.3,0.2c0.1,0.1,0,0.3-0.1,0.4
					C429.6-1306.8,429.6-1306.8,429.5-1306.8 M428.2-1306.1c-0.1,0-0.2-0.1-0.3-0.2c-0.1-0.1,0-0.3,0.1-0.4h0.1
					c0.1,0,0.2,0.1,0.3,0.2c0.1,0.1,0,0.3-0.1,0.4C428.2-1306.1,428.2-1306.1,428.2-1306.1 M426.8-1305.4c-0.1,0-0.2-0.1-0.3-0.2
					c-0.1-0.1,0-0.3,0.1-0.4h0.1c0.1,0,0.2,0.1,0.3,0.2c0.1,0.1,0,0.3-0.1,0.4H426.8"/>
			</g>
		</g>
		<g id="XMLID_7924_">
			<g id="XMLID_7925_">
				<path id="XMLID_7926_" class="st11" d="M458.4-1321.9c-0.1,0-0.2,0-0.2-0.1c-0.1-0.1-0.1-0.1-0.1-0.2c0-0.1,0-0.2,0.1-0.2
					c0.1-0.1,0.1-0.1,0.2-0.1s0.2,0,0.2,0.1c0.1,0.1,0.1,0.1,0.1,0.2c0,0.1,0,0.2-0.1,0.2C458.6-1321.9,458.5-1321.9,458.4-1321.9"
					/>
			</g>
		</g>
		<g id="XMLID_7904_">
			<g id="XMLID_7905_">
				<path id="XMLID_7906_" class="st11" d="M439.2-1339.4c-0.1,0-0.1,0-0.2-0.1s-0.1-0.3,0-0.4s0.1-0.1,0.2-0.1s0.1,0,0.2,0.1
					s0.1,0.3,0,0.4C439.4-1339.4,439.3-1339.4,439.2-1339.4 M440.4-1338.4c-0.1,0-0.1,0-0.2-0.1s-0.1-0.3,0-0.4s0.1-0.1,0.2-0.1
					s0.1,0,0.2,0.1s0.1,0.3,0,0.4S440.4-1338.4,440.4-1338.4 M441.5-1337.3c-0.1,0-0.1,0-0.2-0.1s-0.1-0.3,0-0.4
					c0.1-0.1,0.1-0.1,0.2-0.1s0.1,0,0.2,0.1c0.1,0.1,0.1,0.3,0,0.4C441.7-1337.4,441.6-1337.3,441.5-1337.3 M442.6-1336.3
					c-0.1,0-0.1,0-0.2-0.1s-0.1-0.3,0-0.4c0.1-0.1,0.1-0.1,0.2-0.1s0.1,0,0.2,0.1c0.1,0.1,0.1,0.3,0,0.4
					C442.8-1336.3,442.7-1336.3,442.6-1336.3 M443.8-1335.3c-0.1,0-0.1,0-0.2-0.1s-0.1-0.3,0-0.4c0.1-0.1,0.1-0.1,0.2-0.1
					s0.1,0,0.2,0.1c0.1,0.1,0.1,0.3,0,0.4S443.8-1335.3,443.8-1335.3 M444.9-1334.3c-0.1,0-0.1,0-0.2-0.1s-0.1-0.3,0-0.4
					c0.1-0.1,0.1-0.1,0.2-0.1s0.1,0,0.2,0.1c0.1,0.1,0.1,0.3,0,0.4S445-1334.3,444.9-1334.3 M446-1333.2c-0.1,0-0.1,0-0.2-0.1
					c-0.1-0.1-0.1-0.3,0-0.4c0.1-0.1,0.1-0.1,0.2-0.1s0.1,0,0.2,0.1c0.1,0.1,0.1,0.3,0,0.4C446.2-1333.3,446.1-1333.2,446-1333.2
					 M447.1-1332.2c-0.1,0-0.1,0-0.2-0.1c-0.1-0.1-0.1-0.3,0-0.4c0.1-0.1,0.1-0.1,0.2-0.1s0.1,0,0.2,0.1c0.1,0.1,0.1,0.3,0,0.4
					C447.3-1332.2,447.2-1332.2,447.1-1332.2 M448.3-1331.2c-0.1,0-0.1,0-0.2-0.1c-0.1-0.1-0.1-0.3,0-0.4c0.1-0.1,0.1-0.1,0.2-0.1
					s0.1,0,0.2,0.1c0.1,0.1,0.1,0.3,0,0.4C448.4-1331.2,448.4-1331.2,448.3-1331.2 M449.4-1330.1c-0.1,0-0.1,0-0.2-0.1
					c-0.1-0.1-0.1-0.3,0-0.4s0.1-0.1,0.2-0.1s0.1,0,0.2,0.1s0.1,0.3,0,0.4C449.6-1330.2,449.5-1330.1,449.4-1330.1 M450.5-1329.1
					c-0.1,0-0.1,0-0.2-0.1c-0.1-0.1-0.1-0.3,0-0.4s0.1-0.1,0.2-0.1s0.1,0,0.2,0.1s0.1,0.3,0,0.4
					C450.7-1329.1,450.6-1329.1,450.5-1329.1 M451.7-1328.1c-0.1,0-0.1,0-0.2-0.1c-0.1-0.1-0.1-0.3,0-0.4s0.1-0.1,0.2-0.1
					s0.1,0,0.2,0.1s0.1,0.3,0,0.4C451.8-1328.1,451.7-1328.1,451.7-1328.1 M452.8-1327c-0.1,0-0.1,0-0.2-0.1s-0.1-0.3,0-0.4
					c0.1-0.1,0.1-0.1,0.2-0.1s0.1,0,0.2,0.1c0.1,0.1,0.1,0.3,0,0.4C453-1327.1,452.9-1327,452.8-1327 M453.9-1326
					c-0.1,0-0.1,0-0.2-0.1s-0.1-0.3,0-0.4c0.1-0.1,0.1-0.1,0.2-0.1s0.1,0,0.2,0.1c0.1,0.1,0.1,0.3,0,0.4
					C454.1-1326,454-1326,453.9-1326 M455.1-1325c-0.1,0-0.1,0-0.2-0.1s-0.1-0.3,0-0.4c0.1-0.1,0.1-0.1,0.2-0.1s0.1,0,0.2,0.1
					c0.1,0.1,0.1,0.3,0,0.4S455.1-1325,455.1-1325 M456.2-1323.9c-0.1,0-0.1,0-0.2-0.1s-0.1-0.3,0-0.4s0.1-0.1,0.2-0.1
					s0.1,0,0.2,0.1s0.1,0.3,0,0.4C456.3-1324,456.3-1323.9,456.2-1323.9 M457.3-1322.9c-0.1,0-0.1,0-0.2-0.1s-0.1-0.3,0-0.4
					s0.1-0.1,0.2-0.1s0.1,0,0.2,0.1s0.1,0.3,0,0.4C457.5-1322.9,457.4-1322.9,457.3-1322.9"/>
			</g>
		</g>
		<g id="XMLID_7901_">
			<g id="XMLID_7902_">
				<path id="XMLID_7903_" class="st11" d="M438.1-1340.4c-0.1,0-0.2,0-0.2-0.1c-0.1-0.1-0.1-0.1-0.1-0.2c0-0.1,0-0.2,0.1-0.2
					c0.1-0.1,0.1-0.1,0.2-0.1s0.2,0,0.2,0.1c0.1,0.1,0.1,0.1,0.1,0.2c0,0.1,0,0.2-0.1,0.2C438.3-1340.5,438.2-1340.4,438.1-1340.4"
					/>
			</g>
		</g>
		<g id="XMLID_7895_">
			<g id="XMLID_7896_">
				<path id="XMLID_7897_" class="st11" d="M437.6-1339.1L437.6-1339.1c-0.3-0.1-0.3-0.2-0.3-0.4c0-0.1,0.2-0.2,0.3-0.2h0.1
					c0.2,0.1,0.2,0.2,0.2,0.4C437.9-1339.2,437.7-1339.1,437.6-1339.1 M437.1-1337.8L437.1-1337.8c-0.3-0.1-0.3-0.2-0.3-0.4
					c0-0.1,0.2-0.2,0.3-0.2h0.1c0.2,0.1,0.2,0.2,0.2,0.4C437.4-1337.8,437.3-1337.8,437.1-1337.8 M436.7-1336.4
					C436.6-1336.4,436.6-1336.4,436.7-1336.4c-0.3-0.1-0.3-0.2-0.3-0.4c0-0.1,0.2-0.2,0.3-0.2h0.1c0.2,0.1,0.2,0.2,0.2,0.4
					C436.9-1336.5,436.8-1336.4,436.7-1336.4"/>
			</g>
		</g>
		<g id="XMLID_7892_">
			<g id="XMLID_7893_">
				<path id="XMLID_7894_" class="st11" d="M436.2-1335.1c-0.1,0-0.2,0-0.2-0.1c-0.1-0.1-0.1-0.1-0.1-0.2s0-0.2,0.1-0.2
					c0.1-0.1,0.1-0.1,0.2-0.1s0.2,0,0.2,0.1c0.1,0.1,0.1,0.1,0.1,0.2s0,0.2-0.1,0.2C436.3-1335.1,436.3-1335.1,436.2-1335.1"/>
			</g>
		</g>
		<g id="XMLID_7846_">
			<g id="XMLID_7847_">
				<path id="XMLID_7848_" class="st11" d="M434.6-1335c-0.2,0-0.3-0.1-0.3-0.3c0-0.2,0.1-0.3,0.3-0.3l0,0c0.2,0,0.3,0.1,0.3,0.3
					C434.9-1335.2,434.8-1335,434.6-1335L434.6-1335 M433-1335c-0.2,0-0.3-0.1-0.3-0.3c0-0.2,0.1-0.3,0.3-0.3l0,0
					c0.2,0,0.3,0.1,0.3,0.3C433.3-1335.1,433.2-1335,433-1335L433-1335 M431.5-1334.9c-0.2,0-0.3-0.1-0.3-0.3c0-0.2,0.1-0.3,0.3-0.3
					l0,0c0.2,0,0.3,0.1,0.3,0.3C431.8-1335.1,431.6-1334.9,431.5-1334.9L431.5-1334.9 M429.9-1334.9c-0.2,0-0.3-0.1-0.3-0.3
					c0-0.2,0.1-0.3,0.3-0.3l0,0c0.2,0,0.3,0.1,0.3,0.3C430.2-1335,430.1-1334.9,429.9-1334.9L429.9-1334.9 M428.3-1334.8
					c-0.2,0-0.3-0.1-0.3-0.3c0-0.2,0.1-0.3,0.3-0.3l0,0c0.2,0,0.3,0.1,0.3,0.3C428.6-1335,428.5-1334.8,428.3-1334.8L428.3-1334.8
					 M426.8-1334.8c-0.2,0-0.3-0.1-0.3-0.3c0-0.2,0.1-0.3,0.3-0.3l0,0c0.2,0,0.3,0.1,0.3,0.3
					C427.1-1334.9,426.9-1334.8,426.8-1334.8L426.8-1334.8 M425.2-1334.7c-0.2,0-0.3-0.1-0.3-0.3s0.1-0.3,0.3-0.3l0,0
					c0.2,0,0.3,0.1,0.3,0.3C425.5-1334.9,425.4-1334.7,425.2-1334.7L425.2-1334.7 M423.6-1334.7c-0.2,0-0.3-0.1-0.3-0.3
					s0.1-0.3,0.3-0.3l0,0c0.2,0,0.3,0.1,0.3,0.3S423.8-1334.7,423.6-1334.7L423.6-1334.7 M422.1-1334.6c-0.2,0-0.3-0.1-0.3-0.3
					c0-0.2,0.1-0.3,0.3-0.3l0,0c0.2,0,0.3,0.1,0.3,0.3C422.4-1334.8,422.2-1334.6,422.1-1334.6L422.1-1334.6 M420.5-1334.6
					c-0.2,0-0.3-0.1-0.3-0.3c0-0.2,0.1-0.3,0.3-0.3l0,0c0.2,0,0.3,0.1,0.3,0.3C420.8-1334.7,420.7-1334.6,420.5-1334.6L420.5-1334.6
					 M418.9-1334.5c-0.2,0-0.3-0.1-0.3-0.3c0-0.2,0.1-0.3,0.3-0.3l0,0c0.2,0,0.3,0.1,0.3,0.3
					C419.2-1334.7,419.1-1334.5,418.9-1334.5L418.9-1334.5 M417.4-1334.5c-0.2,0-0.3-0.1-0.3-0.3c0-0.2,0.1-0.3,0.3-0.3l0,0
					c0.2,0,0.3,0.1,0.3,0.3C417.7-1334.6,417.5-1334.5,417.4-1334.5L417.4-1334.5 M415.8-1334.4c-0.2,0-0.3-0.1-0.3-0.3
					c0-0.2,0.1-0.3,0.3-0.3l0,0c0.2,0,0.3,0.1,0.3,0.3C416.1-1334.6,416-1334.4,415.8-1334.4L415.8-1334.4 M414.2-1334.4
					c-0.2,0-0.3-0.1-0.3-0.3c0-0.2,0.1-0.3,0.3-0.3l0,0c0.2,0,0.3,0.1,0.3,0.3S414.4-1334.4,414.2-1334.4L414.2-1334.4
					 M412.7-1334.3c-0.2,0-0.3-0.1-0.3-0.3c0-0.2,0.1-0.3,0.3-0.3l0,0c0.2,0,0.3,0.1,0.3,0.3C413-1334.5,412.8-1334.3,412.7-1334.3
					L412.7-1334.3 M411.1-1334.3c-0.2,0-0.3-0.1-0.3-0.3c0-0.2,0.1-0.3,0.3-0.3l0,0c0.2,0,0.3,0.1,0.3,0.3
					S411.3-1334.3,411.1-1334.3L411.1-1334.3 M409.5-1334.2c-0.2,0-0.3-0.1-0.3-0.3s0.1-0.3,0.3-0.3l0,0c0.2,0,0.3,0.1,0.3,0.3
					S409.7-1334.2,409.5-1334.2L409.5-1334.2 M407.9-1334.2c-0.2,0-0.3-0.1-0.3-0.3s0.1-0.3,0.3-0.3l0,0c0.2,0,0.3,0.1,0.3,0.3
					C408.2-1334.3,408.1-1334.2,407.9-1334.2L407.9-1334.2 M406.4-1334.1c-0.2,0-0.3-0.1-0.3-0.3c0-0.2,0.1-0.3,0.3-0.3l0,0
					c0.2,0,0.3,0.1,0.3,0.3C406.7-1334.2,406.5-1334.1,406.4-1334.1L406.4-1334.1 M404.8-1334.1c-0.2,0-0.3-0.1-0.3-0.3
					c0-0.2,0.1-0.3,0.3-0.3l0,0c0.2,0,0.3,0.1,0.3,0.3C405.1-1334.2,405-1334.1,404.8-1334.1L404.8-1334.1 M403.2-1334
					c-0.2,0-0.3-0.1-0.3-0.3c0-0.2,0.1-0.3,0.3-0.3l0,0c0.2,0,0.3,0.1,0.3,0.3C403.5-1334.1,403.4-1334,403.2-1334L403.2-1334
					 M401.7-1333.9c-0.2,0-0.3-0.1-0.3-0.3c0-0.2,0.1-0.3,0.3-0.3l0,0c0.2,0,0.3,0.1,0.3,0.3C402-1334.1,401.8-1334,401.7-1333.9
					L401.7-1333.9 M400.1-1333.9c-0.2,0-0.3-0.1-0.3-0.3c0-0.2,0.1-0.3,0.3-0.3l0,0c0.2,0,0.3,0.1,0.3,0.3
					S400.3-1333.9,400.1-1333.9L400.1-1333.9 M398.5-1333.8c-0.2,0-0.3-0.1-0.3-0.3c0-0.2,0.1-0.3,0.3-0.3l0,0
					c0.2,0,0.3,0.1,0.3,0.3C398.8-1334,398.7-1333.9,398.5-1333.8L398.5-1333.8 M397-1333.8c-0.2,0-0.3-0.1-0.3-0.3
					c0-0.2,0.1-0.3,0.3-0.3l0,0c0.2,0,0.3,0.1,0.3,0.3S397.1-1333.8,397-1333.8L397-1333.8 M395.4-1333.7c-0.2,0-0.3-0.1-0.3-0.3
					s0.1-0.3,0.3-0.3l0,0c0.2,0,0.3,0.1,0.3,0.3C395.7-1333.9,395.6-1333.7,395.4-1333.7L395.4-1333.7 M393.8-1333.7
					c-0.2,0-0.3-0.1-0.3-0.3s0.1-0.3,0.3-0.3l0,0c0.2,0,0.3,0.1,0.3,0.3C394.1-1333.8,394-1333.7,393.8-1333.7L393.8-1333.7
					 M392.3-1333.6c-0.2,0-0.3-0.1-0.3-0.3c0-0.2,0.1-0.3,0.3-0.3l0,0c0.2,0,0.3,0.1,0.3,0.3
					C392.6-1333.8,392.4-1333.6,392.3-1333.6L392.3-1333.6 M390.7-1333.6c-0.2,0-0.3-0.1-0.3-0.3c0-0.2,0.1-0.3,0.3-0.3l0,0
					c0.2,0,0.3,0.1,0.3,0.3C391-1333.7,390.9-1333.6,390.7-1333.6L390.7-1333.6 M389.1-1333.5c-0.2,0-0.3-0.1-0.3-0.3
					c0-0.2,0.1-0.3,0.3-0.3l0,0c0.2,0,0.3,0.1,0.3,0.3C389.4-1333.7,389.3-1333.5,389.1-1333.5L389.1-1333.5 M387.5-1333.5
					c-0.2,0-0.3-0.1-0.3-0.3c0-0.2,0.1-0.3,0.3-0.3l0,0c0.2,0,0.3,0.1,0.3,0.3C387.8-1333.6,387.7-1333.5,387.5-1333.5L387.5-1333.5
					 M386-1333.4c-0.2,0-0.3-0.1-0.3-0.3c0-0.2,0.1-0.3,0.3-0.3l0,0c0.2,0,0.3,0.1,0.3,0.3C386.3-1333.6,386.2-1333.4,386-1333.4
					L386-1333.4 M384.4-1333.4c-0.2,0-0.3-0.1-0.3-0.3c0-0.2,0.1-0.3,0.3-0.3l0,0c0.2,0,0.3,0.1,0.3,0.3
					C384.7-1333.5,384.6-1333.4,384.4-1333.4L384.4-1333.4 M382.8-1333.3c-0.2,0-0.3-0.1-0.3-0.3c0-0.2,0.1-0.3,0.3-0.3l0,0
					c0.2,0,0.3,0.1,0.3,0.3C383.1-1333.5,383-1333.3,382.8-1333.3L382.8-1333.3 M381.3-1333.3c-0.2,0-0.3-0.1-0.3-0.3
					c0-0.2,0.1-0.3,0.3-0.3l0,0c0.2,0,0.3,0.1,0.3,0.3C381.6-1333.4,381.4-1333.3,381.3-1333.3L381.3-1333.3 M379.7-1333.2
					c-0.2,0-0.3-0.1-0.3-0.3s0.1-0.3,0.3-0.3l0,0c0.2,0,0.3,0.1,0.3,0.3C380-1333.4,379.9-1333.2,379.7-1333.2L379.7-1333.2
					 M378.1-1333.2c-0.2,0-0.3-0.1-0.3-0.3s0.1-0.3,0.3-0.3l0,0c0.2,0,0.3,0.1,0.3,0.3S378.3-1333.2,378.1-1333.2L378.1-1333.2
					 M376.6-1333.1c-0.2,0-0.3-0.1-0.3-0.3c0-0.2,0.1-0.3,0.3-0.3l0,0c0.2,0,0.3,0.1,0.3,0.3
					C376.9-1333.3,376.7-1333.1,376.6-1333.1L376.6-1333.1 M375-1333.1c-0.2,0-0.3-0.1-0.3-0.3c0-0.2,0.1-0.3,0.3-0.3l0,0
					c0.2,0,0.3,0.1,0.3,0.3C375.3-1333.2,375.2-1333.1,375-1333.1L375-1333.1 M373.4-1333c-0.2,0-0.3-0.1-0.3-0.3
					c0-0.2,0.1-0.3,0.3-0.3l0,0c0.2,0,0.3,0.1,0.3,0.3C373.7-1333.2,373.6-1333,373.4-1333L373.4-1333 M371.9-1333
					c-0.2,0-0.3-0.1-0.3-0.3c0-0.2,0.1-0.3,0.3-0.3l0,0c0.2,0,0.3,0.1,0.3,0.3C372.2-1333.1,372-1333,371.9-1333L371.9-1333
					 M370.3-1332.9c-0.2,0-0.3-0.1-0.3-0.3c0-0.2,0.1-0.3,0.3-0.3l0,0c0.2,0,0.3,0.1,0.3,0.3
					C370.6-1333.1,370.5-1332.9,370.3-1332.9L370.3-1332.9 M368.7-1332.9c-0.2,0-0.3-0.1-0.3-0.3c0-0.2,0.1-0.3,0.3-0.3l0,0
					c0.2,0,0.3,0.1,0.3,0.3S368.9-1332.9,368.7-1332.9L368.7-1332.9"/>
			</g>
		</g>
		<g id="XMLID_7843_">
			<g id="XMLID_7844_">
				<path id="XMLID_7845_" class="st11" d="M367.2-1332.8c-0.1,0-0.2,0-0.2-0.1c-0.1-0.1-0.1-0.1-0.1-0.2s0-0.2,0.1-0.2
					c0.1-0.1,0.1-0.1,0.2-0.1s0.2,0,0.2,0.1c0.1,0.1,0.1,0.1,0.1,0.2s0,0.2-0.1,0.2C367.3-1332.8,367.2-1332.8,367.2-1332.8"/>
			</g>
		</g>
		<g id="XMLID_7823_">
			<g id="XMLID_7824_">
				<path id="XMLID_7825_" class="st11" d="M366.5-1331.3h-0.1c-0.1-0.1-0.2-0.2-0.2-0.4c0-0.1,0.2-0.2,0.3-0.2h0.1
					c0.2,0.1,0.2,0.2,0.2,0.4C366.8-1331.4,366.6-1331.3,366.5-1331.3 M365.9-1329.9h-0.1c-0.1-0.1-0.2-0.2-0.2-0.4
					c0-0.1,0.2-0.2,0.3-0.2h0.1c0.2,0.1,0.2,0.2,0.2,0.4C366.1-1329.9,366-1329.9,365.9-1329.9 M365.3-1328.4h-0.1
					c-0.2-0.1-0.2-0.2-0.2-0.4c0-0.1,0.2-0.2,0.3-0.2h0.1c0.1,0.1,0.2,0.2,0.2,0.4C365.5-1328.5,365.4-1328.4,365.3-1328.4
					 M364.7-1327h-0.1c-0.1-0.1-0.2-0.2-0.2-0.4c0-0.1,0.2-0.2,0.3-0.2h0.1c0.2,0.1,0.2,0.2,0.2,0.4
					C364.9-1327,364.8-1327,364.7-1327 M364-1325.5h-0.1c-0.1-0.1-0.2-0.2-0.2-0.4c0-0.1,0.2-0.2,0.3-0.2h0.1
					c0.2,0.1,0.2,0.2,0.2,0.4C364.3-1325.6,364.1-1325.5,364-1325.5 M363.4-1324h-0.1c-0.2-0.1-0.2-0.2-0.2-0.4
					c0-0.1,0.2-0.2,0.3-0.2h0.1c0.1,0.1,0.2,0.2,0.2,0.4C363.6-1324.1,363.5-1324,363.4-1324 M362.8-1322.6h-0.1
					c-0.1-0.1-0.2-0.2-0.2-0.4c0-0.1,0.2-0.2,0.3-0.2h0.1c0.2,0.1,0.2,0.2,0.2,0.4C363-1322.6,362.9-1322.6,362.8-1322.6
					 M362.2-1321.1h-0.1c-0.1-0.1-0.2-0.2-0.2-0.4c0-0.1,0.2-0.2,0.3-0.2h0.1c0.2,0.1,0.2,0.2,0.2,0.4
					C362.4-1321.2,362.3-1321.1,362.2-1321.1 M361.5-1319.6h-0.1c-0.1-0.1-0.2-0.2-0.2-0.4c0-0.1,0.2-0.2,0.3-0.2h0.1
					c0.2,0.1,0.2,0.2,0.2,0.4C361.8-1319.7,361.6-1319.6,361.5-1319.6 M360.9-1318.2h-0.1c-0.2-0.1-0.2-0.2-0.2-0.4
					c0-0.1,0.2-0.2,0.3-0.2h0.1c0.2,0.1,0.2,0.2,0.2,0.4C361.1-1318.2,361-1318.2,360.9-1318.2 M360.3-1316.7h-0.1
					c-0.2-0.1-0.2-0.2-0.2-0.4c0-0.1,0.2-0.2,0.3-0.2h0.1c0.1,0.1,0.2,0.2,0.2,0.4C360.5-1316.8,360.4-1316.7,360.3-1316.7
					 M359.7-1315.2h-0.1c-0.2-0.1-0.2-0.2-0.2-0.4c0-0.1,0.2-0.2,0.3-0.2h0.1c0.1,0.1,0.2,0.2,0.2,0.4
					C359.9-1315.3,359.8-1315.2,359.7-1315.2 M359-1313.8h-0.1c-0.2-0.1-0.2-0.2-0.2-0.4c0-0.1,0.2-0.2,0.3-0.2h0.1
					c0.2,0.1,0.2,0.2,0.2,0.4S359.1-1313.8,359-1313.8 M358.4-1312.3h-0.1c-0.2-0.1-0.2-0.2-0.2-0.4c0-0.1,0.2-0.2,0.3-0.2h0.1
					c0.1,0.1,0.2,0.2,0.2,0.4C358.6-1312.4,358.5-1312.3,358.4-1312.3 M357.8-1310.8h-0.1c-0.1-0.1-0.2-0.2-0.2-0.4
					c0.1-0.1,0.2-0.2,0.3-0.2h0.1c0.1,0.1,0.2,0.2,0.2,0.4C358-1310.9,357.9-1310.8,357.8-1310.8 M357.2-1309.4h-0.1
					c-0.1-0.1-0.2-0.2-0.2-0.4c0-0.1,0.2-0.2,0.3-0.2h0.1c0.1,0.1,0.2,0.2,0.2,0.4C357.4-1309.5,357.3-1309.4,357.2-1309.4
					 M356.5-1307.9h-0.1c-0.1-0.1-0.2-0.2-0.2-0.4c0-0.1,0.2-0.2,0.3-0.2h0.1c0.1,0.1,0.2,0.2,0.2,0.4
					C356.8-1308,356.6-1307.9,356.5-1307.9"/>
			</g>
		</g>
		<g id="XMLID_7820_">
			<g id="XMLID_7821_">
				<path id="XMLID_7822_" class="st11" d="M355.9-1306.5c-0.1,0-0.2,0-0.2-0.1c-0.1-0.1-0.1-0.1-0.1-0.2c0-0.1,0-0.1,0.1-0.2
					s0.1-0.1,0.2-0.1s0.2,0,0.2,0.1c0.1,0.1,0.1,0.1,0.1,0.2c0,0.1,0,0.2-0.1,0.2C356.1-1306.5,356-1306.5,355.9-1306.5"/>
			</g>
		</g>
		<g id="XMLID_7773_">
			<g id="XMLID_7774_">
				<path id="XMLID_7775_" class="st11" d="M425.3-1308.8c-0.2,0-0.3-0.1-0.3-0.3c0-0.2,0.1-0.3,0.3-0.3l0,0c0.2,0,0.3,0.1,0.3,0.3
					C425.6-1308.9,425.5-1308.8,425.3-1308.8L425.3-1308.8 M423.7-1308.7c-0.2,0-0.3-0.1-0.3-0.3s0.1-0.3,0.3-0.3l0,0
					c0.2,0,0.3,0.1,0.3,0.3S423.9-1308.7,423.7-1308.7L423.7-1308.7 M422.1-1308.7c-0.2,0-0.3-0.1-0.3-0.3s0.1-0.3,0.3-0.3l0,0
					c0.2,0,0.3,0.1,0.3,0.3S422.3-1308.7,422.1-1308.7L422.1-1308.7 M420.6-1308.6c-0.2,0-0.3-0.1-0.3-0.3c0-0.2,0.1-0.3,0.3-0.3
					l0,0c0.2,0,0.3,0.1,0.3,0.3C420.9-1308.7,420.7-1308.6,420.6-1308.6L420.6-1308.6 M419-1308.5c-0.2,0-0.3-0.1-0.3-0.3
					c0-0.2,0.1-0.3,0.3-0.3l0,0c0.2,0,0.3,0.1,0.3,0.3C419.3-1308.7,419.2-1308.6,419-1308.5L419-1308.5 M417.4-1308.5
					c-0.2,0-0.3-0.1-0.3-0.3c0-0.2,0.1-0.3,0.3-0.3l0,0c0.2,0,0.3,0.1,0.3,0.3C417.7-1308.6,417.6-1308.5,417.4-1308.5L417.4-1308.5
					 M415.8-1308.4c-0.2,0-0.3-0.1-0.3-0.3c0-0.2,0.1-0.3,0.3-0.3l0,0c0.2,0,0.3,0.1,0.3,0.3C416.1-1308.6,416-1308.4,415.8-1308.4
					L415.8-1308.4 M414.3-1308.4c-0.2,0-0.3-0.1-0.3-0.3c0-0.2,0.1-0.3,0.3-0.3l0,0c0.2,0,0.3,0.1,0.3,0.3
					C414.6-1308.5,414.4-1308.4,414.3-1308.4L414.3-1308.4 M412.7-1308.3c-0.2,0-0.3-0.1-0.3-0.3c0-0.2,0.1-0.3,0.3-0.3l0,0
					c0.2,0,0.3,0.1,0.3,0.3C413-1308.5,412.9-1308.3,412.7-1308.3L412.7-1308.3 M411.1-1308.3c-0.2,0-0.3-0.1-0.3-0.3
					c0-0.2,0.1-0.3,0.3-0.3l0,0c0.2,0,0.3,0.1,0.3,0.3S411.3-1308.3,411.1-1308.3L411.1-1308.3 M409.5-1308.2
					c-0.2,0-0.3-0.1-0.3-0.3s0.1-0.3,0.3-0.3l0,0c0.2,0,0.3,0.1,0.3,0.3C409.8-1308.4,409.7-1308.2,409.5-1308.2L409.5-1308.2
					 M407.9-1308.2c-0.2,0-0.3-0.1-0.3-0.3s0.1-0.3,0.3-0.3l0,0c0.2,0,0.3,0.1,0.3,0.3C408.2-1308.3,408.1-1308.2,407.9-1308.2
					L407.9-1308.2 M406.4-1308.1c-0.2,0-0.3-0.1-0.3-0.3c0-0.2,0.1-0.3,0.3-0.3l0,0c0.2,0,0.3,0.1,0.3,0.3
					C406.7-1308.3,406.5-1308.1,406.4-1308.1L406.4-1308.1 M404.8-1308.1c-0.2,0-0.3-0.1-0.3-0.3c0-0.2,0.1-0.3,0.3-0.3l0,0
					c0.2,0,0.3,0.1,0.3,0.3C405.1-1308.2,405-1308.1,404.8-1308.1L404.8-1308.1 M403.2-1308c-0.2,0-0.3-0.1-0.3-0.3
					c0-0.2,0.1-0.3,0.3-0.3l0,0c0.2,0,0.3,0.1,0.3,0.3C403.5-1308.2,403.4-1308,403.2-1308L403.2-1308 M401.6-1308
					c-0.2,0-0.3-0.1-0.3-0.3c0-0.2,0.1-0.3,0.3-0.3l0,0c0.2,0,0.3,0.1,0.3,0.3C401.9-1308.1,401.8-1308,401.6-1308L401.6-1308
					 M400.1-1307.9c-0.2,0-0.3-0.1-0.3-0.3c0-0.2,0.1-0.3,0.3-0.3l0,0c0.2,0,0.3,0.1,0.3,0.3
					C400.4-1308.1,400.2-1307.9,400.1-1307.9L400.1-1307.9 M398.5-1307.9c-0.2,0-0.3-0.1-0.3-0.3c0-0.2,0.1-0.3,0.3-0.3l0,0
					c0.2,0,0.3,0.1,0.3,0.3S398.7-1307.9,398.5-1307.9L398.5-1307.9 M396.9-1307.8c-0.2,0-0.3-0.1-0.3-0.3c0-0.2,0.1-0.3,0.3-0.3
					l0,0c0.2,0,0.3,0.1,0.3,0.3C397.2-1308,397.1-1307.8,396.9-1307.8L396.9-1307.8 M395.3-1307.8c-0.2,0-0.3-0.1-0.3-0.3
					c0-0.2,0.1-0.3,0.3-0.3l0,0c0.2,0,0.3,0.1,0.3,0.3C395.6-1307.9,395.5-1307.8,395.3-1307.8L395.3-1307.8 M393.8-1307.7
					c-0.2,0-0.3-0.1-0.3-0.3s0.1-0.3,0.3-0.3l0,0c0.2,0,0.3,0.1,0.3,0.3C394.1-1307.9,393.9-1307.7,393.8-1307.7L393.8-1307.7
					 M392.2-1307.7c-0.2,0-0.3-0.1-0.3-0.3s0.1-0.3,0.3-0.3l0,0c0.2,0,0.3,0.1,0.3,0.3S392.4-1307.7,392.2-1307.7L392.2-1307.7
					 M390.6-1307.6c-0.2,0-0.3-0.1-0.3-0.3c0-0.2,0.1-0.3,0.3-0.3l0,0c0.2,0,0.3,0.1,0.3,0.3
					C390.9-1307.7,390.8-1307.6,390.6-1307.6L390.6-1307.6 M389-1307.6c-0.2,0-0.3-0.1-0.3-0.3c0-0.2,0.1-0.3,0.3-0.3l0,0
					c0.2,0,0.3,0.1,0.3,0.3C389.3-1307.7,389.2-1307.6,389-1307.6L389-1307.6 M387.4-1307.5c-0.2,0-0.3-0.1-0.3-0.3
					c0-0.2,0.1-0.3,0.3-0.3l0,0c0.2,0,0.3,0.1,0.3,0.3C387.7-1307.6,387.6-1307.5,387.4-1307.5L387.4-1307.5 M385.9-1307.5
					c-0.2,0-0.3-0.1-0.3-0.3c0-0.2,0.1-0.3,0.3-0.3l0,0c0.2,0,0.3,0.1,0.3,0.3C386.2-1307.6,386-1307.5,385.9-1307.5L385.9-1307.5
					 M384.3-1307.4c-0.2,0-0.3-0.1-0.3-0.3c0-0.2,0.1-0.3,0.3-0.3l0,0c0.2,0,0.3,0.1,0.3,0.3
					C384.6-1307.5,384.5-1307.4,384.3-1307.4L384.3-1307.4 M382.7-1307.3c-0.2,0-0.3-0.1-0.3-0.3c0-0.2,0.1-0.3,0.3-0.3l0,0
					c0.2,0,0.3,0.1,0.3,0.3C383-1307.5,382.9-1307.3,382.7-1307.3L382.7-1307.3 M381.1-1307.3c-0.2,0-0.3-0.1-0.3-0.3
					c0-0.2,0.1-0.3,0.3-0.3l0,0c0.2,0,0.3,0.1,0.3,0.3S381.3-1307.3,381.1-1307.3L381.1-1307.3 M379.6-1307.2
					c-0.2,0-0.3-0.1-0.3-0.3s0.1-0.3,0.3-0.3l0,0c0.2,0,0.3,0.1,0.3,0.3C379.9-1307.4,379.7-1307.2,379.6-1307.2L379.6-1307.2
					 M378-1307.2c-0.2,0-0.3-0.1-0.3-0.3s0.1-0.3,0.3-0.3l0,0c0.2,0,0.3,0.1,0.3,0.3S378.2-1307.2,378-1307.2L378-1307.2
					 M376.4-1307.1c-0.2,0-0.3-0.1-0.3-0.3c0-0.2,0.1-0.3,0.3-0.3l0,0c0.2,0,0.3,0.1,0.3,0.3
					C376.7-1307.3,376.6-1307.1,376.4-1307.1L376.4-1307.1 M374.8-1307.1c-0.2,0-0.3-0.1-0.3-0.3c0-0.2,0.1-0.3,0.3-0.3l0,0
					c0.2,0,0.3,0.1,0.3,0.3C375.1-1307.2,375-1307.1,374.8-1307.1L374.8-1307.1 M373.3-1307c-0.2,0-0.3-0.1-0.3-0.3
					c0-0.2,0.1-0.3,0.3-0.3l0,0c0.2,0,0.3,0.1,0.3,0.3C373.6-1307.2,373.4-1307,373.3-1307L373.3-1307 M371.7-1307
					c-0.2,0-0.3-0.1-0.3-0.3c0-0.2,0.1-0.3,0.3-0.3l0,0c0.2,0,0.3,0.1,0.3,0.3C372-1307.1,371.9-1307,371.7-1307L371.7-1307
					 M370.1-1306.9c-0.2,0-0.3-0.1-0.3-0.3c0-0.2,0.1-0.3,0.3-0.3l0,0c0.2,0,0.3,0.1,0.3,0.3
					C370.4-1307.1,370.3-1306.9,370.1-1306.9L370.1-1306.9 M368.5-1306.9c-0.2,0-0.3-0.1-0.3-0.3c0-0.2,0.1-0.3,0.3-0.3l0,0
					c0.2,0,0.3,0.1,0.3,0.3S368.7-1306.9,368.5-1306.9L368.5-1306.9 M366.9-1306.8c-0.2,0-0.3-0.1-0.3-0.3c0-0.2,0.1-0.3,0.3-0.3
					l0,0c0.2,0,0.3,0.1,0.3,0.3C367.2-1307,367.1-1306.8,366.9-1306.8L366.9-1306.8 M365.4-1306.8c-0.2,0-0.3-0.1-0.3-0.3
					c0-0.2,0.1-0.3,0.3-0.3l0,0c0.2,0,0.3,0.1,0.3,0.3C365.7-1306.9,365.5-1306.8,365.4-1306.8L365.4-1306.8 M363.8-1306.7
					c-0.2,0-0.3-0.1-0.3-0.3s0.1-0.3,0.3-0.3l0,0c0.2,0,0.3,0.1,0.3,0.3C364.1-1306.9,364-1306.7,363.8-1306.7L363.8-1306.7
					 M362.2-1306.7c-0.2,0-0.3-0.1-0.3-0.3s0.1-0.3,0.3-0.3l0,0c0.2,0,0.3,0.1,0.3,0.3S362.4-1306.7,362.2-1306.7L362.2-1306.7
					 M360.6-1306.6c-0.2,0-0.3-0.1-0.3-0.3c0-0.2,0.1-0.3,0.3-0.3l0,0c0.2,0,0.3,0.1,0.3,0.3
					C360.9-1306.8,360.8-1306.6,360.6-1306.6L360.6-1306.6 M359.1-1306.6c-0.2,0-0.3-0.1-0.3-0.3c0-0.2,0.1-0.3,0.3-0.3l0,0
					c0.2,0,0.3,0.1,0.3,0.3C359.4-1306.7,359.2-1306.6,359.1-1306.6L359.1-1306.6 M357.5-1306.5c-0.2,0-0.3-0.1-0.3-0.3
					c0-0.2,0.1-0.3,0.3-0.3l0,0c0.2,0,0.3,0.1,0.3,0.3C357.8-1306.7,357.7-1306.5,357.5-1306.5L357.5-1306.5"/>
			</g>
		</g>
		<g id="XMLID_7770_">
			<g id="XMLID_7771_">
				<polygon id="XMLID_7772_" class="st12" points="373.3,-1330.6 370.3,-1323.1 370.4,-1323.1 370.7,-1323.4 376.1,-1330.7 
					379,-1330.8 373.5,-1323.6 371,-1309.2 368,-1309.1 369.5,-1318.4 369.6,-1318.9 369.5,-1318.9 369.2,-1318.4 367.8,-1316.6 
					364.8,-1309 361.8,-1308.9 370.2,-1330.5 				"/>
			</g>
		</g>
		<g id="XMLID_7767_">
			<g id="XMLID_7768_">
				<polygon id="XMLID_7769_" class="st12" points="381.1,-1330.9 384.2,-1331 375.7,-1309.4 372.7,-1309.3 				"/>
			</g>
		</g>
		<g id="XMLID_7764_">
			<g id="XMLID_7765_">
				<path id="XMLID_7766_" class="st12" d="M389.1-1317.2l-1.2,3c-0.4,0.9-0.9,1.7-1.4,2.4c-0.5,0.6-1.1,1.2-1.8,1.6
					c-0.7,0.5-1.6,0.8-2.6,0.8s-1.7-0.2-2.1-0.7c-0.4-0.4-0.5-1-0.6-1.5c0-0.7,0.1-1.5,0.4-2.3l5-12.8c0.4-0.9,0.8-1.7,1.4-2.3
					c0.5-0.6,1.1-1.2,1.8-1.7c0.7-0.5,1.6-0.8,2.7-0.8c1,0,1.7,0.2,2.1,0.7c0.4,0.4,0.6,1,0.6,1.6c0,0.7-0.1,1.5-0.4,2.3l-1.2,3
					l-2.9,0.1l1.2-3c0.2-0.6,0.2-1,0.1-1.3c-0.1-0.1-0.3-0.2-0.6-0.2c-0.5,0-1,0.4-1.2,0.8c-0.2,0.2-0.3,0.5-0.5,0.8l-5,12.8
					c-0.2,0.6-0.2,1,0,1.3c0.1,0.1,0.2,0.2,0.5,0.2c0.6,0,1-0.4,1.4-0.8c0.2-0.2,0.3-0.5,0.4-0.8l1.2-3L389.1-1317.2z"/>
			</g>
		</g>
		<g id="XMLID_7761_">
			<g id="XMLID_7762_">
				<polygon id="XMLID_7763_" class="st12" points="399.8,-1331.6 396.9,-1324 397,-1324 397.3,-1324.4 402.6,-1331.7 
					405.6,-1331.8 400,-1324.5 397.5,-1310.1 394.6,-1310 396.1,-1319.4 396.2,-1319.8 396.1,-1319.8 395.8,-1319.4 394.4,-1317.6 
					391.4,-1309.9 388.3,-1309.8 396.8,-1331.5 				"/>
			</g>
		</g>
		<g id="XMLID_7758_">
			<g id="XMLID_7759_">
				<polygon id="XMLID_7760_" class="st12" points="404.4,-1320.8 408.5,-1320.9 407.4,-1318.1 403.3,-1318 				"/>
			</g>
		</g>
		<g id="XMLID_7753_">
			<g id="XMLID_7754_">
				<path id="XMLID_7755_" class="st12" d="M417.6-1315.2c-0.4,0.9-0.9,1.7-1.4,2.4c-0.5,0.6-1.1,1.2-1.8,1.6
					c-0.7,0.5-1.6,0.8-2.6,0.8s-1.7-0.2-2.1-0.7c-0.4-0.4-0.5-1-0.6-1.5c0-0.7,0.1-1.5,0.4-2.3l5-12.8c0.4-0.9,0.8-1.7,1.4-2.3
					c0.5-0.6,1.1-1.2,1.8-1.7c0.7-0.5,1.6-0.8,2.7-0.8c1,0,1.7,0.2,2.1,0.7c0.4,0.4,0.6,1,0.6,1.6c0,0.7-0.1,1.5-0.4,2.3
					L417.6-1315.2z M419.5-1327.9c0.2-0.6,0.3-1,0.1-1.3c-0.1-0.1-0.3-0.2-0.5-0.2c-0.5,0-1,0.4-1.2,0.8c-0.2,0.2-0.3,0.5-0.4,0.8
					l-5,12.8c-0.2,0.6-0.3,1-0.1,1.3c0.1,0.1,0.2,0.2,0.5,0.2c0.5,0,0.9-0.4,1.2-0.8c0.2-0.2,0.3-0.5,0.4-0.8L419.5-1327.9z"/>
			</g>
		</g>
		<g id="XMLID_7750_">
			<g id="XMLID_7751_">
				<polygon id="XMLID_7752_" class="st12" points="432.7,-1329.5 428.5,-1329.4 426.2,-1323.7 429.1,-1323.8 427.8,-1320.5 
					425,-1320.4 421.3,-1311 418.2,-1310.9 426.7,-1332.5 433.9,-1332.8 				"/>
			</g>
		</g>
		<g id="XMLID_7747_">
			<g id="XMLID_7748_">
				<polygon id="XMLID_7749_" class="st12" points="441.4,-1329.8 437.2,-1329.7 435,-1324 437.8,-1324.1 436.6,-1320.8 
					433.7,-1320.7 430.1,-1311.3 427,-1311.2 435.4,-1332.8 442.7,-1333.1 				"/>
			</g>
		</g>
		<g id="XMLID_7744_">
			<g id="XMLID_7745_">
				<polygon id="XMLID_7746_" class="st7" points="372.7,-1330.6 369.7,-1323.1 369.8,-1323.1 370.1,-1323.4 375.5,-1330.7 
					378.5,-1330.8 372.9,-1323.6 370.4,-1309.2 367.4,-1309.1 369,-1318.4 369.1,-1318.9 369,-1318.9 368.6,-1318.4 367.2,-1316.6 
					364.2,-1309 361.2,-1308.9 369.6,-1330.5 				"/>
			</g>
		</g>
		<g id="XMLID_7741_">
			<g id="XMLID_7742_">
				<polygon id="XMLID_7743_" class="st7" points="380.5,-1330.9 383.6,-1331 375.1,-1309.4 372.1,-1309.3 				"/>
			</g>
		</g>
		<g id="XMLID_7738_">
			<g id="XMLID_7739_">
				<path id="XMLID_7740_" class="st7" d="M388.5-1317.2l-1.2,3c-0.4,0.9-0.8,1.7-1.4,2.4c-0.5,0.6-1.1,1.2-1.8,1.6
					c-0.7,0.5-1.6,0.8-2.6,0.8s-1.7-0.2-2.1-0.6s-0.5-1-0.6-1.6c0-0.7,0.1-1.5,0.4-2.3l5-12.8c0.4-0.9,0.8-1.7,1.4-2.3
					c0.5-0.6,1.1-1.2,1.8-1.7c0.7-0.5,1.6-0.8,2.7-0.8c1,0,1.7,0.2,2.1,0.7c0.4,0.4,0.6,1,0.6,1.6c0,0.7-0.1,1.5-0.4,2.3l-1.2,3
					l-2.9,0.1l1.2-3c0.2-0.6,0.2-1,0.1-1.3c-0.1-0.1-0.3-0.2-0.6-0.2c-0.5,0-1,0.4-1.2,0.8c-0.2,0.2-0.3,0.5-0.5,0.8l-5,12.8
					c-0.2,0.6-0.2,1,0,1.3c0.1,0.1,0.3,0.2,0.5,0.2c0.6,0,1-0.4,1.4-0.8c0.2-0.2,0.3-0.5,0.4-0.8l1.2-3L388.5-1317.2z"/>
			</g>
		</g>
		<g id="XMLID_7735_">
			<g id="XMLID_7736_">
				<polygon id="XMLID_7737_" class="st7" points="399.3,-1331.6 396.3,-1324 396.4,-1324 396.7,-1324.4 402.1,-1331.7 405,-1331.8 
					399.5,-1324.6 397,-1310.1 394,-1310 395.5,-1319.4 395.6,-1319.8 395.5,-1319.8 395.2,-1319.4 393.8,-1317.6 390.8,-1309.9 
					387.8,-1309.8 396.2,-1331.5 				"/>
			</g>
		</g>
		<g id="XMLID_7732_">
			<g id="XMLID_7733_">
				<polygon id="XMLID_7734_" class="st7" points="403.8,-1320.8 407.9,-1320.9 406.8,-1318.1 402.7,-1318 				"/>
			</g>
		</g>
		<g id="XMLID_7727_">
			<g id="XMLID_7728_">
				<path id="XMLID_7729_" class="st7" d="M417-1315.2c-0.4,0.9-0.9,1.7-1.4,2.4c-0.5,0.6-1.1,1.2-1.8,1.6c-0.7,0.5-1.6,0.8-2.6,0.8
					s-1.7-0.2-2.1-0.6s-0.5-1-0.6-1.5c0-0.7,0.1-1.5,0.4-2.3l5-12.8c0.4-0.9,0.8-1.7,1.4-2.3c0.5-0.6,1.1-1.2,1.8-1.7
					c0.7-0.5,1.6-0.8,2.7-0.8c1,0,1.7,0.2,2.1,0.7c0.4,0.4,0.6,1,0.6,1.6c0,0.7-0.1,1.5-0.4,2.3L417-1315.2z M419-1327.9
					c0.2-0.6,0.3-1,0.1-1.3c-0.1-0.1-0.3-0.2-0.5-0.2c-0.5,0-1,0.4-1.2,0.8c-0.2,0.2-0.3,0.5-0.4,0.8l-5,12.8
					c-0.2,0.6-0.3,1-0.1,1.3c0.1,0.1,0.2,0.2,0.5,0.2c0.5,0,0.9-0.4,1.2-0.8c0.2-0.2,0.3-0.5,0.4-0.8L419-1327.9z"/>
			</g>
		</g>
		<g id="XMLID_7724_">
			<g id="XMLID_7725_">
				<polygon id="XMLID_7726_" class="st7" points="432.1,-1329.5 427.9,-1329.4 425.7,-1323.7 428.5,-1323.8 427.2,-1320.5 
					424.4,-1320.4 420.7,-1311 417.7,-1310.9 426.1,-1332.5 433.4,-1332.8 				"/>
			</g>
		</g>
		<g id="XMLID_7721_">
			<g id="XMLID_7722_">
				<polygon id="XMLID_7723_" class="st7" points="440.9,-1329.8 436.6,-1329.7 434.4,-1324 437.3,-1324.1 436,-1320.8 
					433.2,-1320.7 429.5,-1311.3 426.4,-1311.2 434.9,-1332.8 442.1,-1333.1 				"/>
			</g>
		</g>
		<g id="XMLID_7718_">
			<g id="XMLID_7719_">
				<path id="XMLID_7720_" class="st12" d="M381.8-1357c0.2-0.6,0.4-1.2,0.4-1.7s-0.1-0.8-0.5-0.8c-0.6,0-1.1,0.7-1.4,1.7
					c-0.2,0.6-0.2,1.2-0.1,1.8c0.1,0.6,0.3,1.3,0.5,2c0.2,0.8,0.4,1.7,0.5,2.5c0.1,0.8,0.1,1.7-0.3,2.6c-0.4,1.1-1,2.2-1.8,3
					c-0.8,0.8-1.8,1.3-3,1.4c-1.5,0-2.1-0.5-2.3-1.4c-0.1-0.9,0.2-2.1,0.7-3.4l2.4-0.3c-0.3,0.7-0.5,1.4-0.5,2
					c-0.1,0.6,0.1,0.9,0.6,0.9c0.7,0,1.2-0.8,1.6-1.9c0.2-0.6,0.2-1.2,0.1-1.9c-0.1-0.3-0.1-0.7-0.2-1c-0.2-0.7-0.4-1.5-0.6-2.3
					s-0.3-1.7-0.2-2.6c0-0.4,0.1-0.9,0.3-1.4c0.3-0.9,0.9-1.9,1.7-2.7c0.8-0.8,1.7-1.3,2.8-1.4c1.4-0.1,2,0.5,2.1,1.4
					c0.1,0.9-0.2,2-0.5,3L381.8-1357z"/>
			</g>
		</g>
		<g id="XMLID_7715_">
			<g id="XMLID_7716_">
				<polygon id="XMLID_7717_" class="st12" points="385.5,-1359.1 386.4,-1361.6 393.2,-1361.8 392.2,-1359.3 390,-1359.2 
					384.8,-1344.8 382.4,-1344.7 387.7,-1359.1 				"/>
			</g>
		</g>
		<g id="XMLID_7712_">
			<g id="XMLID_7713_">
				<path id="XMLID_7714_" class="st12" d="M400.5-1362.1l-4.9,13.5c-0.3,0.7-0.6,1.3-1.1,1.9c-0.4,0.5-0.8,0.9-1.4,1.3
					s-1.2,0.6-2,0.6s-1.3-0.2-1.6-0.5c-0.3-0.3-0.4-0.8-0.5-1.2c0-0.5,0.1-1.1,0.3-1.8l4.9-13.5l2.3-0.1l-4.9,13.5
					c-0.2,0.5-0.2,0.8-0.1,1.1c0.1,0.1,0.2,0.2,0.4,0.2c0.4,0,0.7-0.3,0.9-0.6c0.1-0.2,0.2-0.4,0.3-0.6l4.9-13.5L400.5-1362.1z"/>
			</g>
		</g>
		<g id="XMLID_7707_">
			<g id="XMLID_7708_">
				<path id="XMLID_7709_" class="st12" d="M396.2-1345.1l6.2-17l1.8-0.1c2.2-0.1,3.2,0.4,3.3,1.6c0.1,1.3-0.6,3.4-1.8,6.7
					c-1.2,3.3-2.1,5.4-3.1,6.8c-1.1,1.3-2.4,1.8-4.6,1.9L396.2-1345.1z M399.5-1347.7c0.8,0,1.3-0.1,1.8-1c0.3-0.4,0.6-1,0.9-1.8
					c0.3-0.8,0.7-1.9,1.2-3.3s0.9-2.5,1.2-3.3c0.3-0.8,0.4-1.4,0.4-1.8c0.1-0.8-0.4-0.9-1.2-0.9L399.5-1347.7z"/>
			</g>
		</g>
		<g id="XMLID_7704_">
			<g id="XMLID_7705_">
				<polygon id="XMLID_7706_" class="st12" points="410.7,-1362.4 416.1,-1362.5 415.1,-1360 412.1,-1359.9 410.5,-1355.4 
					412.7,-1355.5 411.7,-1352.7 409.5,-1352.7 407.8,-1348 410.8,-1348.1 409.9,-1345.5 404.5,-1345.4 				"/>
			</g>
		</g>
		<g id="XMLID_7701_">
			<g id="XMLID_7702_">
				<polygon id="XMLID_7703_" class="st12" points="417.1,-1354.5 417.2,-1355.3 417,-1355.3 413.5,-1345.6 411.4,-1345.6 
					417.6,-1362.6 419.7,-1362.6 418.7,-1353.8 418.6,-1353.1 418.7,-1353.1 422.3,-1362.7 424.4,-1362.8 418.2,-1345.8 
					416.1,-1345.7 				"/>
			</g>
		</g>
		<g id="XMLID_7698_">
			<g id="XMLID_7699_">
				<polygon id="XMLID_7700_" class="st12" points="424.6,-1360.2 425.5,-1362.8 432.3,-1363 431.3,-1360.4 429.1,-1360.4 
					423.9,-1345.9 421.5,-1345.9 426.8,-1360.3 				"/>
			</g>
		</g>
		<g id="XMLID_7695_">
			<g id="XMLID_7696_">
				<path id="XMLID_7697_" class="st7" d="M381.3-1357c0.2-0.6,0.4-1.2,0.4-1.7s-0.1-0.8-0.5-0.8c-0.6,0-1.1,0.7-1.4,1.7
					c-0.2,0.6-0.2,1.2-0.1,1.8c0.1,0.6,0.3,1.3,0.5,2c0.2,0.8,0.4,1.7,0.5,2.5c0.1,0.8,0.1,1.7-0.3,2.6c-0.4,1.1-1,2.2-1.8,3
					c-0.8,0.8-1.8,1.3-3,1.4c-1.5,0-2.1-0.5-2.3-1.4c-0.1-0.9,0.2-2.1,0.7-3.4l2.4-0.3c-0.3,0.7-0.5,1.4-0.5,2
					c-0.1,0.6,0.1,0.9,0.6,0.9c0.7,0,1.2-0.8,1.6-1.9c0.2-0.6,0.2-1.2,0.1-1.9c-0.1-0.3-0.1-0.7-0.2-1c-0.2-0.7-0.4-1.5-0.6-2.3
					s-0.3-1.7-0.2-2.6c0-0.4,0.1-0.9,0.3-1.4c0.3-0.9,0.9-1.9,1.7-2.7c0.8-0.8,1.7-1.3,2.8-1.4c1.4-0.1,2,0.5,2.1,1.4
					c0.1,0.9-0.2,2-0.5,3L381.3-1357z"/>
			</g>
		</g>
		<g id="XMLID_7692_">
			<g id="XMLID_7693_">
				<polygon id="XMLID_7694_" class="st7" points="385,-1359.1 385.9,-1361.7 392.7,-1361.9 391.8,-1359.3 389.5,-1359.2 
					384.3,-1344.8 381.9,-1344.7 387.2,-1359.1 				"/>
			</g>
		</g>
		<g id="XMLID_7689_">
			<g id="XMLID_7690_">
				<path id="XMLID_7691_" class="st7" d="M400-1362.1l-4.9,13.5c-0.3,0.7-0.6,1.3-1.1,1.9c-0.4,0.5-0.8,0.9-1.4,1.3s-1.2,0.6-2,0.6
					s-1.3-0.2-1.6-0.5c-0.3-0.3-0.4-0.8-0.5-1.2c0-0.5,0.1-1.1,0.3-1.8l4.9-13.5l2.3-0.1l-4.9,13.5c-0.2,0.5-0.2,0.8-0.1,1.1
					c0.1,0.1,0.2,0.2,0.4,0.2c0.4,0,0.7-0.3,0.9-0.6c0.1-0.2,0.2-0.4,0.3-0.6l4.9-13.5L400-1362.1z"/>
			</g>
		</g>
		<g id="XMLID_7684_">
			<g id="XMLID_7685_">
				<path id="XMLID_7686_" class="st7" d="M395.8-1345.1l6.2-17l1.8-0.1c2.2-0.1,3.2,0.4,3.3,1.6c0.1,1.3-0.6,3.4-1.8,6.7
					c-1.2,3.3-2.1,5.4-3.1,6.8c-1.1,1.3-2.4,1.8-4.6,1.9L395.8-1345.1z M399-1347.7c0.8,0,1.3-0.1,1.8-1c0.3-0.4,0.6-1,0.9-1.8
					c0.3-0.8,0.7-1.9,1.2-3.3s0.9-2.5,1.2-3.3c0.3-0.8,0.4-1.4,0.4-1.8c0.1-0.8-0.4-0.9-1.2-0.9L399-1347.7z"/>
			</g>
		</g>
		<g id="XMLID_7681_">
			<g id="XMLID_7682_">
				<polygon id="XMLID_7683_" class="st7" points="410.2,-1362.4 415.6,-1362.5 414.6,-1360 411.6,-1359.9 410,-1355.4 
					412.2,-1355.5 411.2,-1352.7 409,-1352.7 407.3,-1348 410.3,-1348.1 409.4,-1345.5 404,-1345.4 				"/>
			</g>
		</g>
		<g id="XMLID_7678_">
			<g id="XMLID_7679_">
				<polygon id="XMLID_7680_" class="st7" points="416.6,-1354.5 416.7,-1355.3 416.6,-1355.3 413,-1345.6 410.9,-1345.6 
					417.1,-1362.6 419.2,-1362.6 418.2,-1353.8 418.1,-1353.1 418.2,-1353.1 421.8,-1362.7 423.9,-1362.8 417.7,-1345.8 
					415.6,-1345.7 				"/>
			</g>
		</g>
		<g id="XMLID_7675_">
			<g id="XMLID_7676_">
				<polygon id="XMLID_7677_" class="st7" points="424.1,-1360.3 425,-1362.8 431.8,-1363 430.9,-1360.5 428.6,-1360.4 
					423.4,-1345.9 421,-1345.9 426.3,-1360.3 				"/>
			</g>
		</g>
		<g id="XMLID_7672_">
			<g id="XMLID_7673_">
				<path id="XMLID_7674_" class="st11" d="M437.1-1364.8c-0.1,0-0.2,0-0.2-0.1c-0.1-0.1-0.1-0.1-0.1-0.2s0-0.1,0.1-0.2
					c0.1-0.1,0.1-0.1,0.2-0.1s0.2,0,0.2,0.1c0.1,0.1,0.1,0.1,0.1,0.2s0,0.2-0.1,0.2C437.2-1364.8,437.1-1364.8,437.1-1364.8"/>
			</g>
		</g>
		<g id="XMLID_7656_">
			<g id="XMLID_7657_">
				<path id="XMLID_7658_" class="st11" d="M436.5-1363.3h-0.1c-0.2-0.1-0.2-0.2-0.2-0.4c0-0.1,0.2-0.2,0.3-0.2h0.1
					c0.2,0.1,0.2,0.2,0.2,0.4C436.7-1363.4,436.6-1363.3,436.5-1363.3 M436-1361.8h-0.1c-0.2-0.1-0.2-0.2-0.2-0.4
					c0-0.1,0.2-0.2,0.3-0.2h0.1c0.2,0.1,0.2,0.2,0.2,0.4C436.2-1361.9,436.1-1361.8,436-1361.8 M435.4-1360.3h-0.1
					c-0.2-0.1-0.2-0.2-0.2-0.4c0-0.1,0.2-0.2,0.3-0.2h0.1c0.2,0.1,0.2,0.2,0.2,0.4C435.6-1360.4,435.5-1360.3,435.4-1360.3
					 M434.9-1358.9h-0.1c-0.2-0.1-0.2-0.2-0.2-0.4c0-0.1,0.2-0.2,0.3-0.2h0.1c0.2,0.1,0.2,0.2,0.2,0.4
					C435.1-1358.9,435-1358.9,434.9-1358.9 M434.3-1357.4h-0.1c-0.2-0.1-0.2-0.2-0.2-0.4c0-0.1,0.2-0.2,0.3-0.2h0.1
					c0.2,0.1,0.2,0.2,0.2,0.4C434.5-1357.5,434.4-1357.4,434.3-1357.4 M433.8-1355.9h-0.1c-0.2-0.1-0.2-0.2-0.2-0.4
					c0-0.1,0.2-0.2,0.3-0.2h0.1c0.2,0.1,0.2,0.2,0.2,0.4C434-1356,433.9-1355.9,433.8-1355.9 M433.2-1354.4h-0.1
					c-0.2-0.1-0.2-0.2-0.2-0.4c0-0.1,0.2-0.2,0.3-0.2h0.1c0.2,0.1,0.2,0.2,0.2,0.4C433.4-1354.5,433.3-1354.4,433.2-1354.4
					 M432.7-1353h-0.1c-0.2-0.1-0.2-0.2-0.2-0.4c0-0.1,0.2-0.2,0.3-0.2h0.1c0.2,0.1,0.2,0.2,0.2,0.4
					C432.9-1353,432.8-1353,432.7-1353 M432.1-1351.5H432c-0.2-0.1-0.2-0.2-0.2-0.4c0-0.1,0.2-0.2,0.3-0.2h0.1
					c0.1,0.1,0.2,0.2,0.2,0.4C432.3-1351.6,432.2-1351.5,432.1-1351.5 M431.6-1350h-0.1c-0.2-0.1-0.2-0.2-0.2-0.4
					c0-0.1,0.2-0.2,0.3-0.2h0.1c0.2,0.1,0.2,0.2,0.2,0.4C431.8-1350.1,431.7-1350,431.6-1350 M431-1348.5h-0.1
					c-0.2-0.1-0.2-0.2-0.2-0.4c0-0.1,0.2-0.2,0.3-0.2h0.1c0.2,0.1,0.2,0.2,0.2,0.4C431.2-1348.6,431.1-1348.5,431-1348.5
					 M430.5-1347.1h-0.1c-0.2-0.1-0.2-0.2-0.2-0.4c0-0.1,0.2-0.2,0.3-0.2h0.1c0.2,0.1,0.2,0.2,0.2,0.4
					C430.7-1347.1,430.6-1347.1,430.5-1347.1 M429.9-1345.6h-0.1c-0.2-0.1-0.2-0.2-0.2-0.4c0-0.1,0.2-0.2,0.3-0.2h0.1
					c0.2,0.1,0.2,0.2,0.2,0.4C430.2-1345.7,430-1345.6,429.9-1345.6"/>
			</g>
		</g>
		<g id="XMLID_7653_">
			<g id="XMLID_7654_">
				<path id="XMLID_7655_" class="st11" d="M429.4-1344.1c-0.1,0-0.2,0-0.2-0.1c-0.1-0.1-0.1-0.1-0.1-0.2s0-0.2,0.1-0.2
					c0.1-0.1,0.1-0.1,0.2-0.1s0.2,0,0.2,0.1c0.1,0.1,0.1,0.1,0.1,0.2s0,0.2-0.1,0.2C429.5-1344.1,429.4-1344.1,429.4-1344.1"/>
			</g>
		</g>
		<g id="XMLID_7608_">
			<g id="XMLID_7609_">
				<path id="XMLID_7610_" class="st11" d="M427.8-1344.1c-0.2,0-0.3-0.1-0.3-0.3c0-0.2,0.1-0.3,0.3-0.3l0,0c0.2,0,0.3,0.1,0.3,0.3
					C428.1-1344.2,428-1344.1,427.8-1344.1L427.8-1344.1 M426.2-1344c-0.2,0-0.3-0.1-0.3-0.3c0-0.2,0.1-0.3,0.3-0.3l0,0
					c0.2,0,0.3,0.1,0.3,0.3C426.5-1344.2,426.4-1344,426.2-1344L426.2-1344 M424.6-1344c-0.2,0-0.3-0.1-0.3-0.3
					c0-0.2,0.1-0.3,0.3-0.3l0,0c0.2,0,0.3,0.1,0.3,0.3C424.9-1344.1,424.8-1344,424.6-1344L424.6-1344 M423-1343.9
					c-0.2,0-0.3-0.1-0.3-0.3c0-0.2,0.1-0.3,0.3-0.3l0,0c0.2,0,0.3,0.1,0.3,0.3C423.3-1344.1,423.2-1343.9,423-1343.9L423-1343.9
					 M421.4-1343.9c-0.2,0-0.3-0.1-0.3-0.3c0-0.2,0.1-0.3,0.3-0.3l0,0c0.2,0,0.3,0.1,0.3,0.3C421.7-1344,421.6-1343.9,421.4-1343.9
					L421.4-1343.9 M419.8-1343.8c-0.2,0-0.3-0.1-0.3-0.3c0-0.2,0.1-0.3,0.3-0.3l0,0c0.2,0,0.3,0.1,0.3,0.3
					C420.1-1344,420-1343.8,419.8-1343.8L419.8-1343.8 M418.3-1343.8c-0.2,0-0.3-0.1-0.3-0.3c0-0.2,0.1-0.3,0.3-0.3l0,0
					c0.2,0,0.3,0.1,0.3,0.3C418.6-1343.9,418.4-1343.8,418.3-1343.8L418.3-1343.8 M416.7-1343.7c-0.2,0-0.3-0.1-0.3-0.3
					s0.1-0.3,0.3-0.3l0,0c0.2,0,0.3,0.1,0.3,0.3C417-1343.9,416.8-1343.7,416.7-1343.7L416.7-1343.7 M415.1-1343.7
					c-0.2,0-0.3-0.1-0.3-0.3s0.1-0.3,0.3-0.3l0,0c0.2,0,0.3,0.1,0.3,0.3S415.3-1343.7,415.1-1343.7L415.1-1343.7 M413.5-1343.6
					c-0.2,0-0.3-0.1-0.3-0.3c0-0.2,0.1-0.3,0.3-0.3l0,0c0.2,0,0.3,0.1,0.3,0.3C413.8-1343.8,413.7-1343.6,413.5-1343.6L413.5-1343.6
					 M411.9-1343.6c-0.2,0-0.3-0.1-0.3-0.3c0-0.2,0.1-0.3,0.3-0.3l0,0c0.2,0,0.3,0.1,0.3,0.3
					C412.2-1343.7,412.1-1343.6,411.9-1343.6L411.9-1343.6 M410.3-1343.5c-0.2,0-0.3-0.1-0.3-0.3c0-0.2,0.1-0.3,0.3-0.3l0,0
					c0.2,0,0.3,0.1,0.3,0.3C410.6-1343.7,410.5-1343.5,410.3-1343.5L410.3-1343.5 M408.7-1343.5c-0.2,0-0.3-0.1-0.3-0.3
					c0-0.2,0.1-0.3,0.3-0.3l0,0c0.2,0,0.3,0.1,0.3,0.3C409-1343.6,408.9-1343.5,408.7-1343.5L408.7-1343.5 M407.1-1343.4
					c-0.2,0-0.3-0.1-0.3-0.3c0-0.2,0.1-0.3,0.3-0.3l0,0c0.2,0,0.3,0.1,0.3,0.3C407.4-1343.6,407.3-1343.5,407.1-1343.4L407.1-1343.4
					 M405.6-1343.4c-0.2,0-0.3-0.1-0.3-0.3c0-0.2,0.1-0.3,0.3-0.3l0,0c0.2,0,0.3,0.1,0.3,0.3S405.7-1343.4,405.6-1343.4
					L405.6-1343.4 M404-1343.4c-0.2,0-0.3-0.1-0.3-0.3c0-0.2,0.1-0.3,0.3-0.3l0,0c0.2,0,0.3,0.1,0.3,0.3S404.1-1343.4,404-1343.4
					L404-1343.4 M402.4-1343.3c-0.2,0-0.3-0.1-0.3-0.3c0-0.2,0.1-0.3,0.3-0.3l0,0c0.2,0,0.3,0.1,0.3,0.3
					C402.7-1343.4,402.6-1343.3,402.4-1343.3L402.4-1343.3 M400.8-1343.3c-0.2,0-0.3-0.1-0.3-0.3c0-0.2,0.1-0.3,0.3-0.3l0,0
					c0.2,0,0.3,0.1,0.3,0.3C401.1-1343.4,401-1343.3,400.8-1343.3L400.8-1343.3 M399.2-1343.2c-0.2,0-0.3-0.1-0.3-0.3
					s0.1-0.3,0.3-0.3l0,0c0.2,0,0.3,0.1,0.3,0.3C399.5-1343.4,399.4-1343.2,399.2-1343.2L399.2-1343.2 M397.6-1343.2
					c-0.2,0-0.3-0.1-0.3-0.3s0.1-0.3,0.3-0.3l0,0c0.2,0,0.3,0.1,0.3,0.3S397.8-1343.2,397.6-1343.2L397.6-1343.2 M396-1343.1
					c-0.2,0-0.3-0.1-0.3-0.3c0-0.2,0.1-0.3,0.3-0.3l0,0c0.2,0,0.3,0.1,0.3,0.3C396.3-1343.3,396.2-1343.1,396-1343.1L396-1343.1
					 M394.4-1343.1c-0.2,0-0.3-0.1-0.3-0.3c0-0.2,0.1-0.3,0.3-0.3l0,0c0.2,0,0.3,0.1,0.3,0.3
					C394.7-1343.2,394.6-1343.1,394.4-1343.1L394.4-1343.1 M392.9-1343c-0.2,0-0.3-0.1-0.3-0.3c0-0.2,0.1-0.3,0.3-0.3l0,0
					c0.2,0,0.3,0.1,0.3,0.3C393.2-1343.2,393-1343,392.9-1343L392.9-1343 M391.3-1343c-0.2,0-0.3-0.1-0.3-0.3c0-0.2,0.1-0.3,0.3-0.3
					l0,0c0.2,0,0.3,0.1,0.3,0.3C391.6-1343.1,391.4-1343,391.3-1343L391.3-1343 M389.7-1342.9c-0.2,0-0.3-0.1-0.3-0.3
					c0-0.2,0.1-0.3,0.3-0.3l0,0c0.2,0,0.3,0.1,0.3,0.3C390-1343.1,389.9-1342.9,389.7-1342.9L389.7-1342.9 M388.1-1342.9
					c-0.2,0-0.3-0.1-0.3-0.3c0-0.2,0.1-0.3,0.3-0.3l0,0c0.2,0,0.3,0.1,0.3,0.3S388.3-1342.9,388.1-1342.9L388.1-1342.9
					 M386.5-1342.8c-0.2,0-0.3-0.1-0.3-0.3c0-0.2,0.1-0.3,0.3-0.3l0,0c0.2,0,0.3,0.1,0.3,0.3C386.8-1343,386.7-1342.8,386.5-1342.8
					L386.5-1342.8 M384.9-1342.8c-0.2,0-0.3-0.1-0.3-0.3c0-0.2,0.1-0.3,0.3-0.3l0,0c0.2,0,0.3,0.1,0.3,0.3
					C385.2-1342.9,385.1-1342.8,384.9-1342.8L384.9-1342.8 M383.3-1342.7c-0.2,0-0.3-0.1-0.3-0.3s0.1-0.3,0.3-0.3l0,0
					c0.2,0,0.3,0.1,0.3,0.3C383.6-1342.9,383.5-1342.7,383.3-1342.7L383.3-1342.7 M381.7-1342.7c-0.2,0-0.3-0.1-0.3-0.3
					s0.1-0.3,0.3-0.3l0,0c0.2,0,0.3,0.1,0.3,0.3S381.9-1342.7,381.7-1342.7C381.8-1342.7,381.7-1342.7,381.7-1342.7 M380.2-1342.6
					c-0.2,0-0.3-0.1-0.3-0.3c0-0.2,0.1-0.3,0.3-0.3l0,0c0.2,0,0.3,0.1,0.3,0.3C380.5-1342.8,380.3-1342.7,380.2-1342.6L380.2-1342.6
					 M378.6-1342.6c-0.2,0-0.3-0.1-0.3-0.3c0-0.2,0.1-0.3,0.3-0.3l0,0c0.2,0,0.3,0.1,0.3,0.3
					C378.9-1342.7,378.7-1342.6,378.6-1342.6L378.6-1342.6 M377-1342.6c-0.2,0-0.3-0.1-0.3-0.3c0-0.2,0.1-0.3,0.3-0.3l0,0
					c0.2,0,0.3,0.1,0.3,0.3C377.3-1342.7,377.2-1342.6,377-1342.6L377-1342.6 M375.4-1342.5c-0.2,0-0.3-0.1-0.3-0.3
					c0-0.2,0.1-0.3,0.3-0.3l0,0c0.2,0,0.3,0.1,0.3,0.3C375.7-1342.6,375.6-1342.5,375.4-1342.5L375.4-1342.5 M373.8-1342.5
					c-0.2,0-0.3-0.1-0.3-0.3c0-0.2,0.1-0.3,0.3-0.3l0,0c0.2,0,0.3,0.1,0.3,0.3C374.1-1342.6,374-1342.5,373.8-1342.5L373.8-1342.5
					 M372.2-1342.4c-0.2,0-0.3-0.1-0.3-0.3c0-0.2,0.1-0.3,0.3-0.3l0,0c0.2,0,0.3,0.1,0.3,0.3
					C372.5-1342.6,372.4-1342.4,372.2-1342.4L372.2-1342.4 M370.6-1342.4c-0.2,0-0.3-0.1-0.3-0.3c0-0.2,0.1-0.3,0.3-0.3l0,0
					c0.2,0,0.3,0.1,0.3,0.3S370.8-1342.4,370.6-1342.4L370.6-1342.4 M369-1342.3c-0.2,0-0.3-0.1-0.3-0.3c0-0.2,0.1-0.3,0.3-0.3l0,0
					c0.2,0,0.3,0.1,0.3,0.3C369.4-1342.5,369.2-1342.3,369-1342.3L369-1342.3 M367.5-1342.3c-0.2,0-0.3-0.1-0.3-0.3
					c0-0.2,0.1-0.3,0.3-0.3l0,0c0.2,0,0.3,0.1,0.3,0.3S367.6-1342.3,367.5-1342.3L367.5-1342.3 M365.9-1342.2
					c-0.2,0-0.3-0.1-0.3-0.3s0.1-0.3,0.3-0.3l0,0c0.2,0,0.3,0.1,0.3,0.3C366.2-1342.4,366-1342.2,365.9-1342.2L365.9-1342.2
					 M364.3-1342.2c-0.2,0-0.3-0.1-0.3-0.3s0.1-0.3,0.3-0.3l0,0c0.2,0,0.3,0.1,0.3,0.3C364.6-1342.3,364.5-1342.2,364.3-1342.2
					L364.3-1342.2 M362.7-1342.1c-0.2,0-0.3-0.1-0.3-0.3c0-0.2,0.1-0.3,0.3-0.3l0,0c0.2,0,0.3,0.1,0.3,0.3
					C363-1342.3,362.9-1342.1,362.7-1342.1L362.7-1342.1"/>
			</g>
		</g>
		<g id="XMLID_7605_">
			<g id="XMLID_7606_">
				<path id="XMLID_7607_" class="st11" d="M361.1-1342.1c-0.1,0-0.2,0-0.2-0.1c-0.1-0.1-0.1-0.1-0.1-0.2s0-0.2,0.1-0.2
					c0.1-0.1,0.1-0.1,0.2-0.1s0.2,0,0.2,0.1c0.1,0.1,0.1,0.1,0.1,0.2s0,0.2-0.1,0.2C361.3-1342.1,361.2-1342.1,361.1-1342.1"/>
			</g>
		</g>
		<g id="XMLID_7593_">
			<g id="XMLID_7594_">
				<path id="XMLID_7595_" class="st11" d="M371-1351.2c-0.1,0-0.2,0-0.2-0.1c-0.1-0.1-0.1-0.3,0-0.4c0.1-0.1,0.1-0.1,0.2-0.1
					s0.2,0,0.2,0.1c0.1,0.1,0.1,0.3,0,0.4C371.2-1351.3,371.1-1351.2,371-1351.2 M369.9-1350.2c-0.1,0-0.2,0-0.2-0.1
					c-0.1-0.1-0.1-0.3,0-0.4c0.1-0.1,0.1-0.1,0.2-0.1s0.2,0,0.2,0.1c0.1,0.1,0.1,0.3,0,0.4C370.1-1350.3,370-1350.2,369.9-1350.2
					 M368.8-1349.2c-0.1,0-0.2,0-0.2-0.1c-0.1-0.1-0.1-0.3,0-0.4c0.1-0.1,0.1-0.1,0.2-0.1s0.2,0,0.2,0.1c0.1,0.1,0.1,0.3,0,0.4
					C369-1349.2,368.9-1349.2,368.8-1349.2 M367.7-1348.2c-0.1,0-0.2,0-0.2-0.1c-0.1-0.1-0.1-0.3,0-0.4c0.1-0.1,0.1-0.1,0.2-0.1
					s0.2,0,0.2,0.1c0.1,0.1,0.1,0.3,0,0.4C367.9-1348.2,367.8-1348.2,367.7-1348.2 M366.6-1347.2c-0.1,0-0.2,0-0.2-0.1
					c-0.1-0.1-0.1-0.3,0-0.4c0.1-0.1,0.1-0.1,0.2-0.1s0.2,0,0.2,0.1c0.1,0.1,0.1,0.3,0,0.4C366.8-1347.2,366.7-1347.2,366.6-1347.2
					 M365.5-1346.2c-0.1,0-0.2,0-0.2-0.1c-0.1-0.1-0.1-0.3,0-0.4c0.1-0.1,0.1-0.1,0.2-0.1s0.2,0,0.2,0.1c0.1,0.1,0.1,0.3,0,0.4
					C365.7-1346.2,365.6-1346.2,365.5-1346.2 M364.4-1345.1c-0.1,0-0.2,0-0.2-0.1c-0.1-0.1-0.1-0.3,0-0.4s0.1-0.1,0.2-0.1
					s0.2,0,0.2,0.1c0.1,0.1,0.1,0.3,0,0.4C364.6-1345.2,364.5-1345.1,364.4-1345.1 M363.3-1344.1c-0.1,0-0.2,0-0.2-0.1
					c-0.1-0.1-0.1-0.3,0-0.4s0.1-0.1,0.2-0.1s0.2,0,0.2,0.1c0.1,0.1,0.1,0.3,0,0.4C363.5-1344.1,363.4-1344.1,363.3-1344.1
					 M362.2-1343.1c-0.1,0-0.2,0-0.2-0.1c-0.1-0.1-0.1-0.3,0-0.4s0.1-0.1,0.2-0.1s0.2,0,0.2,0.1c0.1,0.1,0.1,0.3,0,0.4
					C362.4-1343.1,362.3-1343.1,362.2-1343.1"/>
			</g>
		</g>
		<g id="XMLID_7590_">
			<g id="XMLID_7591_">
				<path id="XMLID_7592_" class="st11" d="M372.1-1352.3c-0.1,0-0.2,0-0.2-0.1c-0.1-0.1-0.1-0.1-0.1-0.2s0-0.2,0.1-0.2
					c0.1-0.1,0.1-0.1,0.2-0.1s0.2,0,0.2,0.1c0.1,0.1,0.1,0.1,0.1,0.2s0,0.2-0.1,0.2C372.3-1352.3,372.2-1352.3,372.1-1352.3"/>
			</g>
		</g>
		<g id="XMLID_7580_">
			<g id="XMLID_7581_">
				<path id="XMLID_7582_" class="st11" d="M366.4-1361.1c-0.1,0-0.2,0-0.2-0.1c-0.1-0.1,0-0.3,0.1-0.4c0.1,0,0.1,0,0.2,0
					s0.2,0,0.2,0.1c0.1,0.1,0.1,0.3-0.1,0.4C366.5-1361.1,366.4-1361.1,366.4-1361.1 M367.2-1359.8c-0.1,0-0.2,0-0.2-0.1
					c-0.1-0.1-0.1-0.3,0.1-0.4c0,0,0.1,0,0.2,0s0.2,0,0.2,0.1c0.1,0.1,0.1,0.3-0.1,0.4C367.3-1359.8,367.3-1359.8,367.2-1359.8
					 M368-1358.6c-0.1,0-0.2,0-0.2-0.1c-0.1-0.1-0.1-0.3,0.1-0.4c0.1,0,0.1,0,0.2,0s0.2,0,0.2,0.1c0.1,0.1,0,0.3-0.1,0.4
					C368.1-1358.6,368.1-1358.6,368-1358.6 M368.8-1357.3c-0.1,0-0.2,0-0.2-0.1c-0.1-0.1-0.1-0.3,0.1-0.4c0,0,0.1,0,0.2,0
					s0.2,0,0.2,0.1c0.1,0.1,0,0.3-0.1,0.4C369-1357.3,368.9-1357.3,368.8-1357.3 M369.7-1356c-0.1,0-0.2,0-0.2-0.1
					c-0.1-0.1-0.1-0.3,0.1-0.4c0,0,0.1,0,0.2,0s0.2,0,0.2,0.1c0.1,0.1,0.1,0.3-0.1,0.4C369.8-1356.1,369.7-1356,369.7-1356
					 M370.5-1354.8c-0.1,0-0.2,0-0.2-0.1c-0.1-0.1-0.1-0.3,0.1-0.4c0.1,0,0.1,0,0.2,0s0.2,0,0.2,0.1c0.1,0.1,0.1,0.3-0.1,0.4
					C370.6-1354.8,370.5-1354.8,370.5-1354.8 M371.3-1353.5c-0.1,0-0.2,0-0.2-0.1c-0.1-0.1-0.1-0.3,0.1-0.4c0,0,0.1,0,0.2,0
					s0.2,0,0.2,0.1c0.1,0.1,0.1,0.3-0.1,0.4C371.4-1353.5,371.4-1353.5,371.3-1353.5"/>
			</g>
		</g>
		<g id="XMLID_7577_">
			<g id="XMLID_7578_">
				<path id="XMLID_7579_" class="st11" d="M365.6-1362.3c-0.1,0-0.2,0-0.2-0.1c-0.1-0.1-0.1-0.1-0.1-0.2s0-0.2,0.1-0.2
					c0.1-0.1,0.1-0.1,0.2-0.1s0.2,0,0.2,0.1c0.1,0.1,0.1,0.1,0.1,0.2s0,0.2-0.1,0.2S365.6-1362.3,365.6-1362.3"/>
			</g>
		</g>
		<g id="XMLID_7529_">
			<g id="XMLID_7530_">
				<path id="XMLID_7531_" class="st11" d="M435.5-1364.7c-0.2,0-0.3-0.1-0.3-0.3s0.1-0.3,0.3-0.3l0,0c0.2,0,0.3,0.1,0.3,0.3
					S435.7-1364.7,435.5-1364.7L435.5-1364.7 M434-1364.7c-0.2,0-0.3-0.1-0.3-0.3s0.1-0.3,0.3-0.3l0,0c0.2,0,0.3,0.1,0.3,0.3
					S434.1-1364.7,434-1364.7L434-1364.7 M432.4-1364.6c-0.2,0-0.3-0.1-0.3-0.3c0-0.2,0.1-0.3,0.3-0.3l0,0c0.2,0,0.3,0.1,0.3,0.3
					C432.7-1364.7,432.6-1364.6,432.4-1364.6L432.4-1364.6 M430.8-1364.5c-0.2,0-0.3-0.1-0.3-0.3c0-0.2,0.1-0.3,0.3-0.3l0,0
					c0.2,0,0.3,0.1,0.3,0.3C431.1-1364.7,431-1364.5,430.8-1364.5L430.8-1364.5 M429.3-1364.5c-0.2,0-0.3-0.1-0.3-0.3
					c0-0.2,0.1-0.3,0.3-0.3l0,0c0.2,0,0.3,0.1,0.3,0.3C429.6-1364.6,429.5-1364.5,429.3-1364.5L429.3-1364.5 M427.7-1364.4
					c-0.2,0-0.3-0.1-0.3-0.3c0-0.2,0.1-0.3,0.3-0.3l0,0c0.2,0,0.3,0.1,0.3,0.3C428-1364.6,427.9-1364.4,427.7-1364.4L427.7-1364.4
					 M426.2-1364.4c-0.2,0-0.3-0.1-0.3-0.3c0-0.2,0.1-0.3,0.3-0.3l0,0c0.2,0,0.3,0.1,0.3,0.3
					C426.5-1364.5,426.4-1364.4,426.2-1364.4L426.2-1364.4 M424.6-1364.3c-0.2,0-0.3-0.1-0.3-0.3c0-0.2,0.1-0.3,0.3-0.3l0,0
					c0.2,0,0.3,0.1,0.3,0.3C424.9-1364.5,424.8-1364.3,424.6-1364.3L424.6-1364.3 M423.1-1364.3c-0.2,0-0.3-0.1-0.3-0.3
					c0-0.2,0.1-0.3,0.3-0.3l0,0c0.2,0,0.3,0.1,0.3,0.3C423.4-1364.4,423.2-1364.3,423.1-1364.3L423.1-1364.3 M421.5-1364.2
					c-0.2,0-0.3-0.1-0.3-0.3s0.1-0.3,0.3-0.3l0,0c0.2,0,0.3,0.1,0.3,0.3C421.8-1364.4,421.7-1364.2,421.5-1364.2L421.5-1364.2
					 M420-1364.2c-0.2,0-0.3-0.1-0.3-0.3s0.1-0.3,0.3-0.3l0,0c0.2,0,0.3,0.1,0.3,0.3S420.1-1364.2,420-1364.2L420-1364.2
					 M418.4-1364.1c-0.2,0-0.3-0.1-0.3-0.3c0-0.2,0.1-0.3,0.3-0.3l0,0c0.2,0,0.3,0.1,0.3,0.3
					C418.7-1364.3,418.6-1364.1,418.4-1364.1L418.4-1364.1 M416.9-1364.1c-0.2,0-0.3-0.1-0.3-0.3c0-0.2,0.1-0.3,0.3-0.3l0,0
					c0.2,0,0.3,0.1,0.3,0.3C417.2-1364.2,417-1364.1,416.9-1364.1L416.9-1364.1 M415.3-1364c-0.2,0-0.3-0.1-0.3-0.3
					c0-0.2,0.1-0.3,0.3-0.3l0,0c0.2,0,0.3,0.1,0.3,0.3C415.6-1364.2,415.5-1364,415.3-1364L415.3-1364 M413.7-1364
					c-0.2,0-0.3-0.1-0.3-0.3c0-0.2,0.1-0.3,0.3-0.3l0,0c0.2,0,0.3,0.1,0.3,0.3C414-1364.1,413.9-1364,413.7-1364L413.7-1364
					 M412.2-1363.9c-0.2,0-0.3-0.1-0.3-0.3c0-0.2,0.1-0.3,0.3-0.3l0,0c0.2,0,0.3,0.1,0.3,0.3
					C412.5-1364.1,412.4-1363.9,412.2-1363.9L412.2-1363.9 M410.6-1363.9c-0.2,0-0.3-0.1-0.3-0.3c0-0.2,0.1-0.3,0.3-0.3l0,0
					c0.2,0,0.3,0.1,0.3,0.3C410.9-1364,410.8-1363.9,410.6-1363.9L410.6-1363.9 M409.1-1363.8c-0.2,0-0.3-0.1-0.3-0.3
					c0-0.2,0.1-0.3,0.3-0.3l0,0c0.2,0,0.3,0.1,0.3,0.3C409.4-1364,409.3-1363.8,409.1-1363.8L409.1-1363.8 M407.5-1363.8
					c-0.2,0-0.3-0.1-0.3-0.3c0-0.2,0.1-0.3,0.3-0.3l0,0c0.2,0,0.3,0.1,0.3,0.3C407.8-1363.9,407.7-1363.8,407.5-1363.8L407.5-1363.8
					 M406-1363.7c-0.2,0-0.3-0.1-0.3-0.3s0.1-0.3,0.3-0.3l0,0c0.2,0,0.3,0.1,0.3,0.3S406.1-1363.7,406-1363.7L406-1363.7
					 M404.4-1363.7c-0.2,0-0.3-0.1-0.3-0.3s0.1-0.3,0.3-0.3l0,0c0.2,0,0.3,0.1,0.3,0.3C404.7-1363.8,404.6-1363.7,404.4-1363.7
					L404.4-1363.7 M402.9-1363.6c-0.2,0-0.3-0.1-0.3-0.3c0-0.2,0.1-0.3,0.3-0.3l0,0c0.2,0,0.3,0.1,0.3,0.3
					C403.2-1363.7,403-1363.6,402.9-1363.6L402.9-1363.6 M401.3-1363.5c-0.2,0-0.3-0.1-0.3-0.3c0-0.2,0.1-0.3,0.3-0.3l0,0
					c0.2,0,0.3,0.1,0.3,0.3C401.6-1363.7,401.5-1363.6,401.3-1363.5L401.3-1363.5 M399.8-1363.5c-0.2,0-0.3-0.1-0.3-0.3
					c0-0.2,0.1-0.3,0.3-0.3l0,0c0.2,0,0.3,0.1,0.3,0.3C400.1-1363.6,399.9-1363.5,399.8-1363.5L399.8-1363.5 M398.2-1363.4
					c-0.2,0-0.3-0.1-0.3-0.3c0-0.2,0.1-0.3,0.3-0.3l0,0c0.2,0,0.3,0.1,0.3,0.3C398.5-1363.6,398.4-1363.4,398.2-1363.4L398.2-1363.4
					 M396.6-1363.4c-0.2,0-0.3-0.1-0.3-0.3c0-0.2,0.1-0.3,0.3-0.3l0,0c0.2,0,0.3,0.1,0.3,0.3
					C396.9-1363.5,396.8-1363.4,396.6-1363.4L396.6-1363.4 M395.1-1363.3c-0.2,0-0.3-0.1-0.3-0.3c0-0.2,0.1-0.3,0.3-0.3l0,0
					c0.2,0,0.3,0.1,0.3,0.3C395.4-1363.5,395.3-1363.3,395.1-1363.3L395.1-1363.3 M393.5-1363.3c-0.2,0-0.3-0.1-0.3-0.3
					c0-0.2,0.1-0.3,0.3-0.3l0,0c0.2,0,0.3,0.1,0.3,0.3C393.8-1363.4,393.7-1363.3,393.5-1363.3L393.5-1363.3 M392-1363.2
					c-0.2,0-0.3-0.1-0.3-0.3s0.1-0.3,0.3-0.3l0,0c0.2,0,0.3,0.1,0.3,0.3C392.3-1363.4,392.2-1363.2,392-1363.2L392-1363.2
					 M390.4-1363.2c-0.2,0-0.3-0.1-0.3-0.3s0.1-0.3,0.3-0.3l0,0c0.2,0,0.3,0.1,0.3,0.3C390.7-1363.3,390.6-1363.2,390.4-1363.2
					L390.4-1363.2 M388.9-1363.1c-0.2,0-0.3-0.1-0.3-0.3c0-0.2,0.1-0.3,0.3-0.3l0,0c0.2,0,0.3,0.1,0.3,0.3
					C389.2-1363.3,389-1363.1,388.9-1363.1L388.9-1363.1 M387.3-1363.1c-0.2,0-0.3-0.1-0.3-0.3c0-0.2,0.1-0.3,0.3-0.3l0,0
					c0.2,0,0.3,0.1,0.3,0.3C387.6-1363.2,387.5-1363.1,387.3-1363.1L387.3-1363.1 M385.8-1363c-0.2,0-0.3-0.1-0.3-0.3
					c0-0.2,0.1-0.3,0.3-0.3l0,0c0.2,0,0.3,0.1,0.3,0.3C386.1-1363.2,385.9-1363,385.8-1363L385.8-1363 M384.2-1363
					c-0.2,0-0.3-0.1-0.3-0.3c0-0.2,0.1-0.3,0.3-0.3l0,0c0.2,0,0.3,0.1,0.3,0.3C384.5-1363.1,384.4-1363,384.2-1363L384.2-1363
					 M382.7-1362.9c-0.2,0-0.3-0.1-0.3-0.3c0-0.2,0.1-0.3,0.3-0.3l0,0c0.2,0,0.3,0.1,0.3,0.3C383-1363.1,382.8-1362.9,382.7-1362.9
					L382.7-1362.9 M381.1-1362.9c-0.2,0-0.3-0.1-0.3-0.3c0-0.2,0.1-0.3,0.3-0.3l0,0c0.2,0,0.3,0.1,0.3,0.3
					C381.4-1363,381.3-1362.9,381.1-1362.9L381.1-1362.9 M379.5-1362.8c-0.2,0-0.3-0.1-0.3-0.3c0-0.2,0.1-0.3,0.3-0.3l0,0
					c0.2,0,0.3,0.1,0.3,0.3C379.8-1362.9,379.7-1362.8,379.5-1362.8L379.5-1362.8 M378-1362.8c-0.2,0-0.3-0.1-0.3-0.3
					c0-0.2,0.1-0.3,0.3-0.3l0,0c0.2,0,0.3,0.1,0.3,0.3C378.3-1362.9,378.2-1362.8,378-1362.8L378-1362.8 M376.4-1362.7
					c-0.2,0-0.3-0.1-0.3-0.3s0.1-0.3,0.3-0.3l0,0c0.2,0,0.3,0.1,0.3,0.3C376.7-1362.8,376.6-1362.7,376.4-1362.7L376.4-1362.7
					 M374.9-1362.7c-0.2,0-0.3-0.1-0.3-0.3s0.1-0.3,0.3-0.3l0,0c0.2,0,0.3,0.1,0.3,0.3C375.2-1362.8,375.1-1362.7,374.9-1362.7
					L374.9-1362.7 M373.3-1362.6c-0.2,0-0.3-0.1-0.3-0.3c0-0.2,0.1-0.3,0.3-0.3l0,0c0.2,0,0.3,0.1,0.3,0.3
					C373.6-1362.7,373.5-1362.6,373.3-1362.6L373.3-1362.6 M371.8-1362.5c-0.2,0-0.3-0.1-0.3-0.3c0-0.2,0.1-0.3,0.3-0.3l0,0
					c0.2,0,0.3,0.1,0.3,0.3C372.1-1362.7,371.9-1362.6,371.8-1362.5L371.8-1362.5 M370.2-1362.5c-0.2,0-0.3-0.1-0.3-0.3
					c0-0.2,0.1-0.3,0.3-0.3l0,0c0.2,0,0.3,0.1,0.3,0.3C370.5-1362.6,370.4-1362.5,370.2-1362.5L370.2-1362.5 M368.7-1362.4
					c-0.2,0-0.3-0.1-0.3-0.3c0-0.2,0.1-0.3,0.3-0.3l0,0c0.2,0,0.3,0.1,0.3,0.3C369-1362.6,368.8-1362.4,368.7-1362.4L368.7-1362.4
					 M367.1-1362.4c-0.2,0-0.3-0.1-0.3-0.3c0-0.2,0.1-0.3,0.3-0.3l0,0c0.2,0,0.3,0.1,0.3,0.3
					C367.4-1362.5,367.3-1362.4,367.1-1362.4L367.1-1362.4"/>
			</g>
		</g>
		<g id="XMLID_7526_">
			<g id="XMLID_7527_">
				<polygon id="XMLID_7528_" class="st10" points="364.1,-1260.6 359.7,-1257.6 364.4,-1271.2 360.4,-1269.2 365.3,-1287.3 
					383.3,-1288.2 395.5,-1274.9 383.9,-1258.4 382.7,-1262.8 375.5,-1250.4 375,-1255.6 361,-1239.7 				"/>
			</g>
		</g>
		<g id="XMLID_7521_">
			<g id="XMLID_7522_">
				<path id="XMLID_7523_" class="st10" d="M383-1287.4l11.5,12.6l-10.3,14.6l-1.2-4.5l-7,11.9l-0.5-4.7l-13.4,15.3l2.9-20.1
					l-3.9,2.7l4.6-13.1l-4.2,2l4.3-15.9L383-1287.4z M383.6-1289h-0.7l-17.1,0.8l-1.1,0.1l-5.6,20.3l3.1-1.5l0.8-0.4l-4.9,14
					l4.9-3.4l-3.2,21.8l14.5-16.6l0.6,5.9l7.5-12.8l1.1,4.1l12.9-18.4L383.6-1289z"/>
			</g>
		</g>
		<g id="XMLID_7518_">
			<g id="XMLID_7519_">
				<polygon id="XMLID_7520_" class="st6" points="395.4,-1276.1 384.3,-1260.4 383.1,-1265 376.1,-1253 375.7,-1257.7 
					362.3,-1242.4 365.2,-1262.5 361.4,-1259.8 365.9,-1272.9 361.7,-1270.8 366.3,-1288.2 383.7,-1289 				"/>
			</g>
		</g>
		<g id="XMLID_7515_">
			<g id="XMLID_7516_">
				<polygon id="XMLID_7517_" class="st7" points="390.4,-1277.1 382.7,-1286.7 370.6,-1286 367.1,-1273.8 370.8,-1275.5 
					366.5,-1262.6 370,-1265.4 367.8,-1254.3 374.8,-1263.1 375.3,-1259.5 382,-1270.3 383.1,-1266.5 				"/>
			</g>
		</g>
	</g>
	<path class="st13" d="M188.2-1322.3h-85.3c-6.6,0-12-5.4-12-12v-44.8c0-6.6,5.4-12,12-12h85.2c6.6,0,12,5.4,12,12v44.8
		C200.2-1327.7,194.8-1322.3,188.2-1322.3z"/>
	<path class="st13" d="M188.2-1252.8h-85.3c-6.6,0-12-5.4-12-12v-44.8c0-6.6,5.4-12,12-12h85.2c6.6,0,12,5.4,12,12v44.8
		C200.2-1258.2,194.8-1252.8,188.2-1252.8z"/>
	<path class="st13" d="M314.6-1322.3h-85.2c-6.6,0-12-5.4-12-12v-44.8c0-6.6,5.4-12,12-12h85.2c6.6,0,12,5.4,12,12v44.8
		C326.6-1327.7,321.2-1322.3,314.6-1322.3z"/>
	<path class="st13" d="M314.6-1252.8h-85.2c-6.6,0-12-5.4-12-12v-44.8c0-6.6,5.4-12,12-12h85.2c6.6,0,12,5.4,12,12v44.8
		C326.6-1258.2,321.2-1252.8,314.6-1252.8z"/>
	<path class="st13" d="M579-1322.2h-85.2c-6.6,0-12-5.4-12-12v-44.8c0-6.6,5.4-12,12-12H579c6.6,0,12,5.4,12,12v44.8
		C591-1327.6,585.6-1322.2,579-1322.2z"/>
	<path class="st13" d="M579-1252.7h-85.2c-6.6,0-12-5.4-12-12v-44.8c0-6.6,5.4-12,12-12H579c6.6,0,12,5.4,12,12v44.8
		C591-1258.1,585.6-1252.7,579-1252.7z"/>
	<path class="st13" d="M708.7-1322.2h-85.2c-6.6,0-12-5.4-12-12v-45.6c0-6.2,5-11.1,11.1-11.1h86.1c6.6,0,12,5.4,12,12v44.8
		C720.7-1327.6,715.3-1322.2,708.7-1322.2z"/>
	<path class="st13" d="M708.7-1252.7h-85.2c-6.6,0-12-5.4-12-12v-44.8c0-6.6,5.4-12,12-12h85.2c6.6,0,12,5.4,12,12v44.8
		C720.7-1258.1,715.3-1252.7,708.7-1252.7z"/>
	<g class="st14">
		<path class="st15" d="M615-1408.2c0-0.4,0-0.9-0.1-1.3s-0.3-0.6-0.6-0.6c-0.5,0-0.7,0.5-0.7,1.3c0,0.4,0.2,0.9,0.5,1.4
			s0.7,1,1,1.6c0.4,0.7,0.9,1.3,1.2,2c0.3,0.7,0.6,1.3,0.6,2c0,0.9-0.1,1.7-0.6,2.3c-0.4,0.6-1.1,1-2.1,1c-1.2,0-1.9-0.5-2.3-1.2
			c-0.4-0.7-0.5-1.7-0.5-2.6l1.9-0.2c0,0.6,0,1.1,0.2,1.5c0.1,0.4,0.3,0.7,0.7,0.7c0.6,0,0.8-0.6,0.8-1.4c0-0.4-0.2-0.9-0.5-1.4
			c-0.2-0.2-0.3-0.5-0.5-0.8c-0.4-0.5-0.8-1.1-1.2-1.8c-0.4-0.7-0.7-1.3-0.9-2c-0.1-0.3-0.2-0.7-0.2-1c0-0.7,0.2-1.5,0.6-2.1
			c0.4-0.6,1-1,1.9-1c1.2,0,1.8,0.5,2.2,1.2c0.4,0.7,0.5,1.6,0.5,2.3L615-1408.2z"/>
		<path class="st15" d="M617.9-1411.7h4.4v2h-2.5v3.4h1.8v2.1h-1.8v3.6h2.5v2h-4.4V-1411.7z"/>
		<path class="st15" d="M628.4-1403.2v1.8c0,0.5-0.1,1-0.3,1.4s-0.4,0.7-0.8,1c-0.4,0.3-0.8,0.4-1.5,0.4c-0.6,0-1.1-0.2-1.5-0.4
			c-0.4-0.3-0.6-0.6-0.7-1c-0.2-0.4-0.3-0.9-0.3-1.4v-7.7c0-0.5,0.1-1,0.3-1.4c0.2-0.4,0.4-0.7,0.7-1c0.4-0.3,0.9-0.4,1.5-0.4
			s1.1,0.2,1.5,0.4c0.4,0.3,0.6,0.6,0.8,1c0.2,0.4,0.3,0.9,0.3,1.4v1.8h-1.8v-1.8c0-0.4-0.1-0.6-0.3-0.8c-0.1-0.1-0.2-0.1-0.4-0.1
			c-0.3,0-0.5,0.2-0.6,0.5c-0.1,0.1-0.1,0.3-0.1,0.5v7.7c0,0.4,0.1,0.6,0.3,0.8c0.1,0.1,0.2,0.1,0.4,0.1c0.4,0,0.6-0.2,0.7-0.5
			c0.1-0.1,0.1-0.3,0.1-0.5v-1.8H628.4z"/>
		<path class="st15" d="M634.5-1401.4c0,0.5-0.1,1-0.3,1.4s-0.4,0.7-0.8,1c-0.4,0.3-0.8,0.4-1.5,0.4c-0.6,0-1.1-0.2-1.5-0.4
			c-0.4-0.3-0.6-0.6-0.7-1c-0.2-0.4-0.3-0.9-0.3-1.4v-7.7c0-0.5,0.1-1,0.3-1.4c0.2-0.4,0.4-0.7,0.7-1c0.4-0.3,0.9-0.4,1.5-0.4
			s1.1,0.2,1.5,0.4c0.4,0.3,0.6,0.6,0.8,1c0.2,0.4,0.3,0.9,0.3,1.4V-1401.4z M632.6-1409.1c0-0.4-0.1-0.6-0.2-0.8
			c-0.1-0.1-0.2-0.1-0.4-0.1c-0.3,0-0.5,0.2-0.6,0.5c-0.1,0.1-0.1,0.3-0.1,0.5v7.7c0,0.4,0.1,0.6,0.3,0.8c0.1,0.1,0.2,0.1,0.4,0.1
			c0.3,0,0.5-0.2,0.6-0.5c0.1-0.1,0.1-0.3,0.1-0.5L632.6-1409.1L632.6-1409.1z"/>
		<path class="st15" d="M637.8-1405.5l-0.2-0.6h-0.1v7.4h-1.8v-13h1.7l1.9,6.8l0.2,0.6h0.1v-7.4h1.8v13h-1.7L637.8-1405.5z"/>
		<path class="st15" d="M642.8-1398.7v-13h1.5c1.8,0,2.7,0.4,3.2,1.3c0.5,1,0.6,2.6,0.6,5.2s-0.1,4.2-0.6,5.2s-1.5,1.3-3.2,1.3
			H642.8z M644.7-1400.6c0.7,0,1-0.1,1.2-0.7c0.1-0.3,0.2-0.8,0.2-1.4s0-1.5,0-2.5c0-1.1,0-1.9,0-2.5s-0.1-1.1-0.2-1.4
			c-0.2-0.6-0.6-0.7-1.2-0.7V-1400.6z"/>
		<path class="st15" d="M652.6-1408.2c0-0.4,0-0.9-0.1-1.3s-0.3-0.6-0.6-0.6c-0.5,0-0.7,0.5-0.7,1.3c0,0.4,0.2,0.9,0.5,1.4
			s0.7,1,1,1.6c0.4,0.7,0.9,1.3,1.2,2c0.3,0.7,0.6,1.3,0.6,2c0,0.9-0.1,1.7-0.6,2.3c-0.4,0.6-1.1,1-2.1,1c-1.2,0-1.9-0.5-2.3-1.2
			c-0.4-0.7-0.5-1.7-0.5-2.6l1.9-0.2c0,0.6,0,1.1,0.2,1.5c0.1,0.4,0.3,0.7,0.7,0.7c0.6,0,0.8-0.6,0.8-1.4c0-0.4-0.2-0.9-0.5-1.4
			c-0.2-0.2-0.3-0.5-0.5-0.8c-0.4-0.5-0.8-1.1-1.2-1.8c-0.4-0.7-0.7-1.3-0.9-2c-0.1-0.3-0.2-0.7-0.2-1c0-0.7,0.2-1.5,0.6-2.1
			c0.4-0.6,1-1,1.9-1c1.2,0,1.8,0.5,2.2,1.2c0.4,0.7,0.5,1.6,0.5,2.3L652.6-1408.2z"/>
	</g>
	<g class="st14">
		<path class="st15" d="M91.6-1398.8v-13.1h1.5c1.8,0,2.7,0.4,3.2,1.3c0.5,1,0.6,2.6,0.6,5.2s-0.1,4.2-0.6,5.2s-1.5,1.3-3.2,1.3
			L91.6-1398.8L91.6-1398.8z M93.5-1400.7c0.7,0,1-0.1,1.2-0.7c0.1-0.3,0.2-0.8,0.2-1.4c0-0.6,0-1.5,0-2.5c0-1.1,0-1.9,0-2.5
			c0-0.6-0.1-1.1-0.2-1.4c-0.2-0.6-0.6-0.7-1.2-0.7V-1400.7z"/>
		<path class="st15" d="M97.7-1398.8l2-13.1h2.3l2,13.1h-1.9l-0.4-2.7h-1.8l-0.4,2.7H97.7z M101-1407.6l-0.1-0.3h-0.1l-0.1,0.3
			l-0.6,4.1h1.3L101-1407.6z"/>
		<path class="st15" d="M106.7-1407.7L106.7-1407.7L106.7-1407.7h0.2l1-4.2h1.9l-2,7.5v5.6h-1.9v-5.6l-2-7.5h1.9L106.7-1407.7z"/>
		<path class="st15" d="M113.7-1408.4c0-0.4,0-0.9-0.1-1.3s-0.3-0.6-0.6-0.6c-0.5,0-0.7,0.5-0.7,1.3c0,0.4,0.2,0.9,0.5,1.4
			s0.7,1,1,1.6c0.4,0.7,0.9,1.3,1.2,2c0.3,0.7,0.6,1.3,0.6,2c0,0.9-0.1,1.7-0.6,2.3c-0.4,0.6-1.1,1-2.1,1c-1.2,0-1.9-0.5-2.3-1.2
			c-0.4-0.7-0.5-1.7-0.5-2.6l1.9-0.2c0,0.6,0,1.1,0.2,1.5c0.1,0.4,0.3,0.7,0.7,0.7c0.6,0,0.8-0.6,0.8-1.4c0-0.4-0.2-0.9-0.5-1.4
			c-0.2-0.2-0.3-0.5-0.5-0.8c-0.4-0.5-0.8-1.1-1.2-1.8c-0.4-0.7-0.7-1.3-0.9-2c-0.1-0.3-0.2-0.7-0.2-1c0-0.7,0.2-1.5,0.6-2.1
			s1-1,1.9-1c1.2,0,1.8,0.5,2.2,1.2c0.4,0.7,0.5,1.6,0.5,2.3L113.7-1408.4z"/>
	</g>
	<g class="st14">
		<path class="st15" d="M222.6-1404.5h-1.5v5.7h-1.9v-13.1h1.9v5.4h1.5v-5.4h1.9v13.1h-1.9V-1404.5z"/>
		<path class="st15" d="M230.9-1401.5c0,0.5-0.1,1-0.3,1.4s-0.4,0.7-0.8,1c-0.4,0.3-0.8,0.4-1.5,0.4c-0.6,0-1.1-0.2-1.5-0.4
			c-0.4-0.3-0.6-0.6-0.7-1c-0.2-0.4-0.3-0.9-0.3-1.4v-7.7c0-0.5,0.1-1,0.3-1.4s0.4-0.7,0.7-1c0.4-0.3,0.9-0.4,1.5-0.4
			s1.1,0.2,1.5,0.4c0.4,0.3,0.6,0.6,0.8,1s0.3,0.9,0.3,1.4V-1401.5z M229-1409.2c0-0.4-0.1-0.6-0.2-0.8c-0.1-0.1-0.2-0.1-0.4-0.1
			c-0.3,0-0.5,0.2-0.6,0.5c-0.1,0.1-0.1,0.3-0.1,0.5v7.7c0,0.4,0.1,0.6,0.3,0.8c0.1,0.1,0.2,0.1,0.4,0.1c0.3,0,0.5-0.2,0.6-0.5
			c0.1-0.1,0.1-0.3,0.1-0.5v-7.7H229z"/>
		<path class="st15" d="M237.3-1411.9v10.4c0,0.5-0.1,1-0.3,1.4s-0.4,0.7-0.8,1c-0.4,0.3-0.8,0.4-1.5,0.4s-1.1-0.2-1.5-0.4
			c-0.4-0.3-0.6-0.6-0.7-1c-0.2-0.4-0.3-0.9-0.3-1.4v-10.4h1.9v10.4c0,0.4,0.1,0.6,0.3,0.8c0.1,0.1,0.2,0.1,0.4,0.1
			c0.3,0,0.5-0.2,0.6-0.5c0.1-0.1,0.1-0.3,0.1-0.5v-10.4L237.3-1411.9L237.3-1411.9z"/>
		<path class="st15" d="M242.2-1398.8l-1-5.5h-0.5v5.5h-1.9v-13.1h1.9c2.3,0,3.3,1.3,3.3,3.8c0,1.3-0.3,2.5-1.1,3l1.2,6.3H242.2z
			 M240.6-1406.1c0.3,0,0.6,0,0.9-0.3c0.3-0.2,0.5-0.7,0.5-1.7c0-0.9-0.2-1.4-0.5-1.7c-0.3-0.2-0.6-0.3-0.9-0.3V-1406.1z"/>
		<path class="st15" d="M248.3-1408.4c0-0.4,0-0.9-0.1-1.3s-0.3-0.6-0.6-0.6c-0.5,0-0.7,0.5-0.7,1.3c0,0.4,0.2,0.9,0.5,1.4
			s0.7,1,1,1.6c0.4,0.7,0.9,1.3,1.2,2s0.6,1.3,0.6,2c0,0.9-0.1,1.7-0.6,2.3c-0.4,0.6-1.1,1-2.1,1c-1.2,0-1.9-0.5-2.3-1.2
			c-0.4-0.7-0.5-1.7-0.5-2.6l1.9-0.2c0,0.6,0,1.1,0.2,1.5c0.1,0.4,0.3,0.7,0.7,0.7c0.6,0,0.8-0.6,0.8-1.4c0-0.4-0.2-0.9-0.5-1.4
			c-0.2-0.2-0.3-0.5-0.5-0.8c-0.4-0.5-0.8-1.1-1.2-1.8c-0.4-0.7-0.7-1.3-0.9-2c-0.1-0.3-0.2-0.7-0.2-1c0-0.7,0.2-1.5,0.6-2.1
			c0.4-0.6,1-1,1.9-1c1.2,0,1.8,0.5,2.2,1.2c0.4,0.7,0.5,1.6,0.5,2.3L248.3-1408.4z"/>
	</g>
	<g class="st14">
		<path class="st16" d="M120.2-1314.4v-10.8c5.4-0.4,7.9-1.4,9-4c0.6-1.2,0.8-2.8,0.8-4.7s0-4.3,0-7.1c0-2.5,0-5.3-0.5-7.6
			c-0.5-2.3-1.6-3.9-3.6-3.9c-1.6,0-2.5,0.7-3,3c-0.6,2.4-0.8,6.1-0.8,12h-12.8c0-4.9,0.1-11.7,2.3-17.1c2.2-5.3,6.1-9.4,14.3-9.4
			s12.4,4.2,14.6,8.7c2.2,4.5,2.3,9.3,2.3,10.3c0,13.1-2.3,19.4-6.3,23.3l-0.1,0.1c6.3,4.9,7.5,14.1,7.5,24.3c0,0.4,0,1.2-0.1,2.5
			c-0.1,2.5-0.8,6.3-2.2,10.1c-1.4,3.9-3.9,7.3-7.6,9.4c-1.9,1.1-4.2,1.6-7,1.6c-8.2,0-12.4-4.1-14.7-9.5c-2.3-5.3-2.5-12-2.5-17
			h12.8c0,5.9,0.4,9.6,1.1,11.9c0.7,2.4,1.8,3.1,3.4,3.1c2,0,3.1-1.6,3.6-3.7c0.5-2.2,0.5-4.9,0.5-7.5c0-2.8,0-5.3,0.1-7.6
			c0-4.3-0.8-7.3-3.6-9.1c-1.4-0.8-3.6-1.4-6.4-1.6h-1.1V-1314.4z"/>
		<path class="st16" d="M160.5-1314.4v-10.8c5.4-0.4,7.9-1.4,9-4c0.6-1.2,0.8-2.8,0.8-4.7s0-4.3,0-7.1c0-2.5,0-5.3-0.5-7.6
			c-0.5-2.3-1.6-3.9-3.6-3.9c-1.6,0-2.5,0.7-3,3c-0.6,2.4-0.8,6.1-0.8,12h-12.8c0-4.9,0.1-11.7,2.3-17.1c2.2-5.3,6.1-9.4,14.3-9.4
			s12.4,4.2,14.6,8.7c2.2,4.5,2.3,9.3,2.3,10.3c0,13.1-2.3,19.4-6.3,23.3l-0.1,0.1c6.3,4.9,7.5,14.1,7.5,24.3c0,0.4,0,1.2-0.1,2.5
			c-0.1,2.5-0.8,6.3-2.2,10.1c-1.4,3.9-3.9,7.3-7.6,9.4c-1.9,1.1-4.2,1.6-7,1.6c-8.2,0-12.4-4.1-14.7-9.5c-2.3-5.3-2.5-12-2.5-17
			h12.8c0,5.9,0.4,9.6,1.1,11.9c0.7,2.4,1.8,3.1,3.4,3.1c2,0,3.1-1.6,3.6-3.7c0.5-2.2,0.5-4.9,0.5-7.5c0-2.8,0-5.3,0.1-7.6
			c0-4.3-0.8-7.3-3.6-9.1c-1.4-0.8-3.6-1.4-6.4-1.6h-1.1V-1314.4z"/>
	</g>
	<g class="st14">
		<path class="st16" d="M231.8-1336.9v-6.3c0-6.1,0.9-12.1,3.5-16.4c2.6-4.4,7.1-7.2,14.4-7.2c6.8,0,11.5,2.6,14.2,6.6
			c2.7,4.1,3.7,9.8,3.7,16.2c0,9.3-3.5,20.4-7.8,30.7c-4.5,10.5-9.7,19.8-13.2,25.6h21.3v13.3h-36.5v-13.3
			c4.1-6.3,7.8-12.8,11.2-19.3c2.9-5.5,5.6-11.7,7.7-18c2.1-6.3,3.7-12.6,3.9-18.2c0-2.5-0.1-5.4-0.7-7.5c-0.6-2.1-1.7-3.7-3.7-3.7
			c-1.9,0-3,1.4-3.6,3.4c-0.6,2.1-0.9,4.9-0.9,7.8v6.3H231.8z"/>
		<path class="st16" d="M312.5-1293.3c-0.1,3.7-0.9,7.1-2.2,10c-1.1,2.5-2.9,4.9-5.4,6.7c-2.5,2-5.9,3.1-10.3,3.1
			c-4.5,0-8-1.1-10.5-3.1c-2.5-1.9-4.1-4.2-5.2-6.7c-1.4-2.9-2.1-6.2-2.2-10v-53.9c0.1-3.6,0.9-7,2.2-9.8c1.1-2.5,2.7-5,5.2-6.8
			c2.5-1.9,6-3.1,10.5-3.1s7.8,1.2,10.3,3.1c2.5,1.9,4.2,4.4,5.4,6.8c1.4,2.9,2.1,6.2,2.2,9.8V-1293.3z M299-1347.1
			c0-2.5-0.5-4.2-1.7-5.7c-0.6-0.6-1.6-1-2.7-1c-2.4,0-3.5,1.7-4,3.4c-0.4,1-0.5,2.1-0.5,3.4v53.9c0,2.6,0.6,4.4,1.9,5.7
			c0.6,0.6,1.5,1,2.6,1c2.4,0,3.5-1.5,4-3.4c0.4-0.9,0.5-2,0.5-3.4L299-1347.1L299-1347.1z"/>
	</g>
	<g class="st14">
		<path class="st16" d="M497.3-1349.3v-9.2c6-1.2,9.6-4.3,12.1-6.9c1.3-1.6,2.4-3.3,3.2-5.1h8.7v97.9h-14.4v-76.7H497.3
			L497.3-1349.3z"/>
		<path class="st16" d="M554.6-1319c0-4.1-1.5-7.2-4.5-7.2c-1.6,0-2.9,1.2-4,2.7c-1.1,1.6-1.6,3.5-1.6,4.5h-12.1v-51.5h34.8v14.2
			h-22.4v20.4c1.6-1.2,3.3-2.3,5.3-2.9c0.9-0.4,2-0.5,2.9-0.4c7.5,0,11.5,4.3,13.6,8.9c2.1,4.7,2.4,9.7,2.4,11.3v21.8
			c0,4.7-0.3,10.9-2.8,16.1c-2.5,5.3-7.3,9.5-16,9.5c-8.9,0-13.4-4.1-16-10c-2.5-5.7-2.8-13-2.8-19.6h14.4v3.9
			c0,4.9,0.3,8.4,0.9,10.3c0.7,2,1.7,2.9,3.5,2.9c1.5,0,2.7-0.9,3.3-2.8c0.7-1.9,1.1-5.3,1.1-10.3L554.6-1319L554.6-1319z"/>
	</g>
	<g class="st14">
		<path class="st16" d="M623.7-1337v-6.7c0-6.5,0.9-12.9,3.7-17.6c2.8-4.7,7.6-7.7,15.4-7.7c7.3,0,12.3,2.8,15.2,7.1
			c2.9,4.4,4,10.5,4,17.3c0,10-3.7,21.8-8.4,32.9c-4.8,11.2-10.4,21.2-14.1,27.4h22.8v14.2h-39v-14.2c4.4-6.8,8.4-13.7,12-20.6
			c3.1-5.9,6-12.5,8.3-19.3c2.3-6.8,4-13.4,4.1-19.4c0-2.7-0.1-5.7-0.8-8s-1.9-4-4-4c-2,0-3.2,1.5-3.9,3.6c-0.7,2.3-0.9,5.2-0.9,8.4
			v6.8h-14.4V-1337z"/>
		<path class="st16" d="M682.1-1314.3v-12c6-0.4,8.8-1.6,10-4.4c0.7-1.3,0.9-3.1,0.9-5.2s0-4.8,0-7.9c0-2.8,0-5.9-0.5-8.4
			s-1.7-4.3-4-4.3c-1.7,0-2.8,0.8-3.3,3.3c-0.7,2.7-0.9,6.8-0.9,13.3h-14.1c0-5.5,0.1-12.9,2.5-18.9c2.4-5.9,6.8-10.4,15.8-10.4
			c9.1,0,13.7,4.7,16.1,9.6c2.4,4.9,2.5,10.3,2.5,11.5c0,14.5-2.5,21.4-6.9,25.8l-0.1,0.1c6.9,5.5,8.3,15.6,8.3,26.9
			c0,0.4,0,1.3-0.1,2.8c-0.1,2.8-0.9,6.9-2.4,11.2c-1.6,4.3-4.3,8.1-8.4,10.4c-2.1,1.2-4.7,1.7-7.7,1.7c-9.1,0-13.7-4.5-16.2-10.5
			c-2.5-5.9-2.8-13.3-2.8-18.8h14.1c0,6.5,0.4,10.7,1.2,13.2c0.8,2.7,2,3.5,3.7,3.5c2.3,0,3.5-1.7,4-4.1c0.5-2.4,0.5-5.5,0.5-8.3
			c0-3.1,0-5.9,0.1-8.4c0-4.8-0.9-8.1-4-10.1c-1.6-0.9-4-1.6-7.1-1.7L682.1-1314.3L682.1-1314.3z"/>
	</g>
</g>
</svg>
