<?xml version="1.0" encoding="UTF-8" standalone="no"?>
<svg
   xmlns:dc="http://purl.org/dc/elements/1.1/"
   xmlns:cc="http://creativecommons.org/ns#"
   xmlns:rdf="http://www.w3.org/1999/02/22-rdf-syntax-ns#"
   xmlns:svg="http://www.w3.org/2000/svg"
   xmlns="http://www.w3.org/2000/svg"
   xmlns:sodipodi="http://sodipodi.sourceforge.net/DTD/sodipodi-0.dtd"
   xmlns:inkscape="http://www.inkscape.org/namespaces/inkscape"
   viewBox="0 0 83.384798 63.69533"
   height="636.95332"
   width="833.84796"
   xml:space="preserve"
   id="svg2"
   version="1.1"
   sodipodi:docname="logo_UGent_NL_RGB_kleur.svg"
   inkscape:version="0.92.4 (5da689c313, 2019-01-14)"><sodipodi:namedview
     pagecolor="#ffffff"
     bordercolor="#666666"
     borderopacity="1"
     objecttolerance="10"
     gridtolerance="10"
     guidetolerance="10"
     inkscape:pageopacity="0"
     inkscape:pageshadow="2"
     inkscape:window-width="1920"
     inkscape:window-height="1057"
     id="namedview34"
     showgrid="false"
     fit-margin-top="0"
     fit-margin-left="0"
     fit-margin-right="0"
     fit-margin-bottom="0"
     inkscape:pagecheckerboard="true"
     inkscape:zoom="8.3254934"
     inkscape:cx="19.600553"
     inkscape:cy="38.08516"
     inkscape:window-x="-8"
     inkscape:window-y="-8"
     inkscape:window-maximized="1"
     inkscape:current-layer="svg2" /><metadata
     id="metadata8"><rdf:RDF><cc:Work
         rdf:about=""><dc:format>image/svg+xml</dc:format><dc:type
           rdf:resource="http://purl.org/dc/dcmitype/StillImage" /><dc:title></dc:title></cc:Work></rdf:RDF></metadata><defs
     id="defs6" /><g
     transform="matrix(1.3333333,0,0,-1.3333333,-27.984933,91.824531)"
     id="g10"><g
       transform="scale(0.1)"
       id="g12"><path
         id="path14"
         style="fill:#1e64c8;fill-opacity:1;fill-rule:nonzero;stroke:none"
         d="M 325.133,605.922 H 312.66 v -80.957 h 12.473 v 80.957"
         inkscape:connector-curvature="0" /><path
         id="path16"
         style="fill:#1e64c8;fill-opacity:1;fill-rule:nonzero;stroke:none"
         d="m 300.191,605.922 h -12.472 v -80.957 h 12.472 v 80.957"
         inkscape:connector-curvature="0" /><path
         id="path18"
         style="fill:#1e64c8;fill-opacity:1;fill-rule:nonzero;stroke:none"
         d="m 275.25,605.922 h -12.473 v -80.957 h 12.473 v 80.957"
         inkscape:connector-curvature="0" /><path
         id="path20"
         style="fill:#1e64c8;fill-opacity:1;fill-rule:nonzero;stroke:none"
         d="m 250.309,605.922 h -12.473 v -80.957 h 12.473 v 80.957"
         inkscape:connector-curvature="0" /><path
         id="path22"
         style="fill:#1e64c8;fill-opacity:1;fill-rule:nonzero;stroke:none"
         d="m 350.074,605.922 h -12.472 v -80.957 h 12.472 v 80.957"
         inkscape:connector-curvature="0" /><path
         id="path24"
         style="fill:#1e64c8;fill-opacity:1;fill-rule:nonzero;stroke:none"
         d="m 375.016,605.922 h -12.473 v -80.957 h 12.473 v 80.957"
         inkscape:connector-curvature="0" /><path
         id="path26"
         style="fill:#1e64c8;fill-opacity:1;fill-rule:nonzero;stroke:none"
         d="m 399.957,605.922 h -12.473 v -80.957 h 12.473 v 80.957"
         inkscape:connector-curvature="0" /><path
         id="path28"
         style="fill:#1e64c8;fill-opacity:1;fill-rule:nonzero;stroke:none"
         d="M 412.727,500.016 H 225.066 v 12.48 h 187.661 v -12.48"
         inkscape:connector-curvature="0" /><path
         id="path30"
         style="fill:#1e64c8;fill-opacity:1;fill-rule:nonzero;stroke:none"
         d="M 399.957,618.395 H 237.836 l -12.469,12.468 h 187.059 l -12.469,-12.468"
         inkscape:connector-curvature="0" /><path
         id="path32"
         style="fill:#1e64c8;fill-opacity:1;fill-rule:nonzero;stroke:none"
         d="M 425.195,475.074 H 212.598 v 12.481 h 212.597 v -12.481"
         inkscape:connector-curvature="0" /><path
         id="path34"
         style="fill:#1e64c8;fill-opacity:1;fill-rule:nonzero;stroke:none"
         d="m 425.195,651.035 -106.3,37.649 -106.297,-37.649 v -13.242 l 106.297,37.641 106.3,-37.641 v 13.242"
         inkscape:connector-curvature="0" /><path
         id="path36"
         style="fill:#1e64c8;fill-opacity:1;fill-rule:nonzero;stroke:none"
         d="m 589.082,416.145 c 5.508,0.011 10.703,-1.79 13.086,-3.665 v 11.243 c -2.383,1.465 -8.242,3.093 -14.18,3.093 -16.55,0 -25.664,-9.414 -25.664,-23.066 0,-11.387 4.824,-16.855 12.586,-23.555 l 7.102,-6.132 c 5.859,-4.903 9.492,-8.68 9.492,-16.016 0,-8.574 -5.664,-11.973 -14.168,-11.973 -6.445,0 -11.801,1.789 -14.887,3.918 v -11.437 c 2.719,-1.563 8.371,-3.172 15.996,-3.153 16.516,0.043 25.625,9.422 25.649,23.067 0.011,11.375 -4.824,16.855 -12.59,23.543 l -7.09,6.144 c -5.879,5.028 -9.519,8.66 -9.504,15.985 0.028,8.613 5.649,11.98 14.172,12.004"
         inkscape:connector-curvature="0" /><path
         id="path38"
         style="fill:#1e64c8;fill-opacity:1;fill-rule:nonzero;stroke:none"
         d="m 212.598,363.613 v 61.582 h 12.48 v -62.129 c 0,-13.027 4.473,-16.816 13.567,-16.816 9.089,0 13.562,3.789 13.562,16.816 v 62.129 h 12.481 v -61.582 c 0,-20.078 -8.411,-28.222 -26.043,-28.222 -17.915,0 -26.047,7.871 -26.047,28.222"
         inkscape:connector-curvature="0" /><path
         id="path40"
         style="fill:#1e64c8;fill-opacity:1;fill-rule:nonzero;stroke:none"
         d="m 280.828,425.195 h 14.375 l 27.817,-70.273 c -0.95,7.187 -1.77,15.605 -1.77,23.476 v 46.797 h 11.941 v -88.183 h -14.382 l -28.079,70.547 c 1.086,-7.188 2.036,-15.743 2.036,-23.75 v -46.797 h -11.938 v 88.183"
         inkscape:connector-curvature="0" /><path
         id="path42"
         style="fill:#1e64c8;fill-opacity:1;fill-rule:nonzero;stroke:none"
         d="m 350.859,425.195 h 12.481 v -88.183 h -12.481 v 88.183"
         inkscape:connector-curvature="0" /><path
         id="path44"
         style="fill:#1e64c8;fill-opacity:1;fill-rule:nonzero;stroke:none"
         d="m 374.934,425.195 h 13.027 l 11.121,-45.859 c 1.633,-6.914 3.66,-18.574 4.883,-27.813 1.223,9.239 3.254,20.899 5.156,27.813 l 10.984,45.859 h 12.622 l -22.383,-88.183 h -13.031 l -22.379,88.183"
         inkscape:connector-curvature="0" /><path
         id="path46"
         style="fill:#1e64c8;fill-opacity:1;fill-rule:nonzero;stroke:none"
         d="m 444.316,425.195 h 41.243 V 414.609 H 456.797 V 387.617 H 480 v -10.449 h -23.203 v -29.57 h 28.762 v -10.586 h -41.243 v 88.183"
         inkscape:connector-curvature="0" /><path
         id="path48"
         style="fill:#1e64c8;fill-opacity:1;fill-rule:nonzero;stroke:none"
         d="m 512.449,414.609 v -31.074 h 6.653 c 9.765,0 16.281,2.051 16.281,15.606 0,13.437 -6.516,15.468 -16.281,15.468 z m -12.476,10.586 h 20.347 c 16.282,0 27.942,-6.113 27.942,-26.054 0,-13.965 -6.778,-20.743 -15.324,-23.868 l 18.722,-38.261 h -14.25 l -16.551,35.957 h -8.41 v -35.957 h -12.476 v 88.183"
         inkscape:connector-curvature="0" /><path
         id="path50"
         style="fill:#1e64c8;fill-opacity:1;fill-rule:nonzero;stroke:none"
         d="m 618.906,425.195 h 12.481 v -88.183 h -12.481 v 88.183"
         inkscape:connector-curvature="0" /><path
         id="path52"
         style="fill:#1e64c8;fill-opacity:1;fill-rule:nonzero;stroke:none"
         d="m 643.23,425.195 h 50.598 v -10.586 h -19.121 v -77.597 h -12.48 v 77.597 H 643.23 v 10.586"
         inkscape:connector-curvature="0" /><path
         id="path54"
         style="fill:#1e64c8;fill-opacity:1;fill-rule:nonzero;stroke:none"
         d="m 705.254,425.195 h 41.238 v -10.586 h -28.758 v -26.992 h 23.204 v -10.449 h -23.204 v -29.57 h 28.758 v -10.586 h -41.238 v 88.183"
         inkscape:connector-curvature="0" /><path
         id="path56"
         style="fill:#1e64c8;fill-opacity:1;fill-rule:nonzero;stroke:none"
         d="m 760.77,425.195 h 12.484 V 337.012 H 760.77 v 88.183"
         inkscape:connector-curvature="0" /><path
         id="path58"
         style="fill:#1e64c8;fill-opacity:1;fill-rule:nonzero;stroke:none"
         d="m 784.68,425.195 h 50.593 V 414.609 H 816.145 V 337.012 H 803.66 v 77.597 h -18.98 v 10.586"
         inkscape:connector-curvature="0" /><path
         id="path60"
         style="fill:#1e64c8;fill-opacity:1;fill-rule:nonzero;stroke:none"
         d="m 209.887,256.68 c 0,34.726 9.222,45.722 32.148,45.722 6.512,0 13.43,-1.765 16.41,-3.535 v -11.523 c -3.25,1.894 -9.492,3.937 -15.461,3.937 -14.648,0 -20.211,-5.429 -20.211,-34.601 0,-28.887 3.938,-34.852 16.684,-34.852 3.938,0 7.188,0.535 9.629,1.219 v 29.433 h -13.023 v 10.579 h 25.503 v -47.61 c -2.578,-1.629 -12.882,-4.48 -21.972,-4.48 -23.875,0 -29.707,12.48 -29.707,45.711"
         inkscape:connector-curvature="0" /><path
         id="path62"
         style="fill:#1e64c8;fill-opacity:1;fill-rule:nonzero;stroke:none"
         d="m 276.461,300.773 h 41.238 v -10.585 h -28.758 v -26.993 h 23.2 v -10.441 h -23.2 v -29.578 h 28.758 v -10.578 h -41.238 v 88.175"
         inkscape:connector-curvature="0" /><path
         id="path64"
         style="fill:#1e64c8;fill-opacity:1;fill-rule:nonzero;stroke:none"
         d="m 332.113,300.773 h 14.379 l 27.809,-70.265 c -0.946,7.187 -1.762,15.597 -1.762,23.469 v 46.796 h 11.938 v -88.175 h -14.379 l -28.082,70.539 c 1.086,-7.188 2.039,-15.735 2.039,-23.742 v -46.797 h -11.942 v 88.175"
         inkscape:connector-curvature="0" /><path
         id="path66"
         style="fill:#1e64c8;fill-opacity:1;fill-rule:nonzero;stroke:none"
         d="M 395.902,300.773 H 446.5 v -10.585 h -19.129 v -77.59 h -12.476 v 77.59 h -18.993 v 10.585"
         inkscape:connector-curvature="0" /></g></g></svg>