<?xml version="1.0" encoding="UTF-8" standalone="no"?>
<!-- Generator: Adobe Illustrator 16.0.4, SVG Export Plug-In . SVG Version: 6.00 Build 0)  -->

<svg
   xmlns:dc="http://purl.org/dc/elements/1.1/"
   xmlns:cc="http://creativecommons.org/ns#"
   xmlns:rdf="http://www.w3.org/1999/02/22-rdf-syntax-ns#"
   xmlns:svg="http://www.w3.org/2000/svg"
   xmlns="http://www.w3.org/2000/svg"
   xmlns:sodipodi="http://sodipodi.sourceforge.net/DTD/sodipodi-0.dtd"
   xmlns:inkscape="http://www.inkscape.org/namespaces/inkscape"
   version="1.1"
   id="Layer_1"
   x="0px"
   y="0px"
   width="1045.2144"
   height="1460.1888"
   viewBox="0 0 1045.2143 1460.1888"
   enable-background="new 0 0 1075.227 1490.193"
   xml:space="preserve"
   sodipodi:docname="vppk.svg"
   inkscape:version="0.92.4 (5da689c313, 2019-01-14)"><metadata
   id="metadata181"><rdf:RDF><cc:Work
       rdf:about=""><dc:format>image/svg+xml</dc:format><dc:type
         rdf:resource="http://purl.org/dc/dcmitype/StillImage" /><dc:title></dc:title></cc:Work></rdf:RDF></metadata><defs
   id="defs179">
	
	

		
		
		
		
		
		
		
		
		
		
		
		
		
		
		
		
		
		
		
		
		
		
		
		
		
		
		
		
		
		
		
		
		
		
		
		
		
		
		
		
		
	</defs><sodipodi:namedview
   pagecolor="#ffffff"
   bordercolor="#666666"
   borderopacity="1"
   objecttolerance="10"
   gridtolerance="10"
   guidetolerance="10"
   inkscape:pageopacity="0"
   inkscape:pageshadow="2"
   inkscape:window-width="1920"
   inkscape:window-height="1057"
   id="namedview177"
   showgrid="false"
   fit-margin-top="0"
   fit-margin-left="0"
   fit-margin-right="0"
   fit-margin-bottom="0"
   inkscape:zoom="0.633475"
   inkscape:cx="571.96142"
   inkscape:cy="673.17507"
   inkscape:window-x="-8"
   inkscape:window-y="-8"
   inkscape:window-maximized="1"
   inkscape:current-layer="Layer_1" />
<g
   id="g6"
   transform="translate(-15.012975,-15.004102)">
		<path
   inkscape:connector-curvature="0"
   id="path2"
   d="m 1055.226,20.006 v 0 c 0,-0.475 0,0.475 0,0 v 0 c -342.113,0.08 -692.428,0.113 -1034.541,0 v 0 L 20,854.427 h 0.049 c 0,79.2 0,158.401 0.007,237.604 0,3.742 0.1,7.5 0.434,11.227 2.131,23.699 8.592,46.344 17.039,68.467 12.178,31.886 28.541,61.537 48.147,89.433 20.845,29.658 45.078,56.274 72.433,80.018 26.684,23.162 55.688,42.998 86.803,59.767 33.418,18.01 68.453,32.024 104.865,42.639 4.74,1.381 9.356,3.443 14.434,3.572 1.394,1.469 3.361,1.512 5.138,1.959 35.305,8.893 71.092,14.969 107.354,18.194 31.771,2.826 63.523,4.339 95.391,0.937 43.021,-4.596 85.623,-11.385 127.412,-22.76 4.383,-1.193 9.104,-1.474 13.038,-4.138 -0.065,-1.614 -0.19,-3.229 -0.19,-4.846 -0.014,-65.082 0.488,-64.342 0.481,1.109 0,1.69 -0.088,3.313 2.132,3.651 2.006,-0.668 4,-1.387 6.024,-2.004 43.865,-13.387 85.756,-31.246 125.326,-54.557 37.543,-22.115 71.781,-48.443 102.096,-79.711 36.396,-37.545 65.734,-79.928 86.146,-128.269 13.504,-31.983 20.729,-64.916 20.67,-100.032 -0.125,-74.087 -0.197,-148.175 -0.24,-222.26 h 0.24 V 20.006 Z" />
		<path
   style="stroke:#000000;stroke-width:50;stroke-miterlimit:10"
   inkscape:connector-curvature="0"
   id="path4"
   d="m 375.484,1430.027 c 33.791,8.44 68.435,14.278 102.99,17.354 21.563,1.918 38.97,2.812 54.775,2.812 13.099,0 25.11,-0.604 36.719,-1.843 47.27,-5.05 86.228,-11.94 122.385,-21.657 0.007,-10.699 0.03,-19.783 0.067,-26.621 0.022,-4.107 0.05,-7.187 0.079,-9.236 0.016,-1.146 0.032,-2.005 0.051,-2.578 0.39,-13.094 10.613,-20.159 20.036,-20.159 9.425,0 19.648,7.073 20.038,20.185 0.018,0.586 0.034,1.464 0.052,2.634 0.028,2.104 0.058,5.259 0.081,9.463 0.021,3.991 0.04,8.718 0.053,14.062 36.909,-12.51 71.606,-28.274 103.354,-46.978 36.848,-21.705 69.781,-47.409 97.889,-76.399 35.872,-37.005 63.486,-78.094 82.079,-122.125 12.902,-30.562 19.148,-60.729 19.095,-92.221 -0.114,-67.673 -0.192,-140.382 -0.24,-222.281 l -0.012,-20.012 h 0.252 V 40.011 c -178.925,0.041 -360.038,0.068 -540.924,0.068 -162.642,0 -311.279,-0.022 -453.634,-0.067 l -0.656,799.469 0.037,14.944 c 0,79.199 0,158.4 0.006,237.602 0,3.751 0.111,6.751 0.354,9.441 1.744,19.392 6.766,39.448 15.804,63.119 11.027,28.872 26.445,57.492 45.826,85.064 19.574,27.851 42.85,53.561 69.18,76.413 25.073,21.766 53.06,41.031 83.181,57.265 31.139,16.782 65.112,30.591 100.974,41.044 1.561,0.454 3.028,0.938 4.323,1.368 1.671,0.552 4.196,1.387 5.021,1.412 l 8.238,0.249 z"
   stroke-miterlimit="10" />
	</g><g
   id="g10"
   transform="translate(-15.012975,-15.004102)">
			<path
   d="m 708.569,272.139 c 0.991,0.003 1.981,0.006 2.972,0.009 0.324,0.158 0.646,0.315 0.968,0.47 -0.041,0.368 -0.113,0.738 -0.113,1.109 0.006,107.528 0.014,215.055 0.033,322.582 0.002,2.102 0.086,4.195 -0.756,6.186 -0.714,-0.088 -1.388,0.035 -2.154,-0.248 -7.962,-2.93 -15.224,-7.24 -22.509,-11.464 -15.303,-8.874 -31.062,-16.569 -48.732,-19.427 -7.771,-1.257 -15.674,-2.771 -23.475,-1.641 -13.218,1.914 -22.736,9.692 -29.312,21.077 -7.362,12.756 -9.479,26.739 -8.567,41.198 0.245,3.875 0.166,8.077 2.354,11.582 2.106,3.378 4.337,6.718 6.861,9.788 5.431,6.607 11.999,11.735 20.792,12.71 14.033,1.553 24.723,-5.935 28.979,-19.873 0.642,-2.1 -0.178,-3.109 -2.336,-3.252 -4.379,-0.29 -8.684,-1.059 -12.84,-2.459 -12.558,-4.239 -17.137,-15.22 -11.362,-26.771 0.891,-1.782 2.068,-2.633 3.858,-3.067 8.408,-2.051 16.092,-0.562 22.998,4.685 10.304,7.829 16.271,18.803 21.338,30.264 12.256,27.732 18.28,57.173 23.486,86.843 0.598,3.416 -0.56,4.594 -3.17,5.92 -8.294,4.211 -15.765,9.719 -22.447,16.104 -30.842,29.467 -41.909,66.185 -38.705,107.861 1.455,18.93 6.271,37.139 13.312,54.748 0.989,2.479 0.86,3.541 -2.062,4.408 -9.196,2.725 -18.545,3.905 -28.093,3.881 -2.071,-0.004 -4.048,0.201 -2.524,3.088 6.513,12.344 16.08,20.719 30.215,23.113 0.984,0.434 2.002,0.389 3.031,0.215 3.478,0.623 6.953,1.096 10.433,0.014 1.26,-0.066 2.521,-0.131 3.782,-0.195 2.455,0.424 4.974,-2.396 7.472,0.758 12.235,15.441 27.436,27.398 44.151,37.685 4.689,2.885 8.793,2.078 13.298,0.715 0.937,-0.283 1.82,-0.746 2.729,-1.125 0.006,36.596 0.014,73.191 0.02,109.785 -1.231,0 -2.612,0.367 -3.673,-0.062 -8.209,-3.33 -15.27,-8.22 -20.83,-15.265 -9.092,-11.521 -14.989,-24.69 -20.174,-38.248 -1.819,-4.762 -5.264,-8.127 -9.287,-10.896 -2.872,-1.978 -6.136,-2.654 -9.594,-1.172 -4.83,2.071 -10.903,11.301 -10.71,16.577 0.304,8.269 1.62,16.39 3.81,24.363 5.623,20.476 14.64,39.308 28.084,55.779 8.681,10.631 18.718,19.682 32.334,23.887 3.337,1.031 6.98,0.562 10.075,2.42 -0.045,1.121 -0.131,2.242 -0.131,3.363 0.006,92.17 0.014,184.342 0.035,276.512 0,1.615 0.125,3.23 0.191,4.847 -3.936,2.663 -8.656,2.942 -13.04,4.137 -41.789,11.375 -84.392,18.164 -127.412,22.76 -31.867,3.402 -63.621,1.891 -95.391,-0.936 -36.265,-3.228 -72.052,-9.304 -107.356,-18.195 -1.775,-0.447 -3.744,-0.49 -5.138,-1.959 0.955,-1.221 0.51,-2.646 0.51,-3.975 0.019,-77.361 0.011,-154.724 0.026,-232.084 0.001,-1.847 -0.32,-3.765 0.65,-5.511 1.975,1.521 3.848,3.197 5.941,4.525 6.993,4.432 13.434,9.953 22.099,11.168 1.574,0.221 3.264,0.604 3.988,-0.773 0.646,-1.229 -1.091,-2.018 -1.923,-2.873 -10.337,-10.61 -20.69,-21.207 -31.042,-31.807 0.559,-2.975 0.229,-5.971 0.229,-8.959 0.014,-76.264 0.025,-152.527 0.041,-228.791 0,-4.863 0.027,-9.725 0.042,-14.588 14.562,-10.976 29.974,-20.711 45.05,-30.939 2.175,-1.477 2.211,0.115 2.365,1.547 0.59,5.459 1.26,10.914 1.711,16.388 3.946,47.887 -6.451,92.955 -26.99,136.094 1.912,0.318 2.07,-1.291 2.652,-2.193 3.377,-5.235 6.737,-10.483 9.971,-15.812 29.428,-48.512 65.129,-92.07 104.728,-132.537 2.125,-2.172 1.846,-3.033 -0.516,-4.576 -14.376,-9.395 -27.318,-20.531 -39.486,-32.623 -2.139,-2.125 -1.695,-3.03 0.444,-4.69 13.322,-10.33 26.5,-20.838 37.543,-33.713 7.605,-8.867 14.258,-18.291 17.492,-29.726 1.391,-4.914 2.58,-9.809 0.431,-14.873 -0.923,-2.17 -1.386,-4.526 -2.171,-6.762 -7.604,-21.629 -21.908,-36.07 -44.479,-41.926 -9,-2.335 -18.131,-3.555 -27.33,-4.39 -19.904,-1.807 -39.93,-1.991 -59.793,-4.377 -5.874,-0.705 -11.804,-1.08 -17.988,-2.704 11.959,-16.047 23.582,-31.751 38.344,-44.872 14.709,-13.072 31.854,-22.066 49.615,-30.322 -15.812,-5.142 -31.244,-10.436 -45.561,-18.503 -14.386,-8.109 -27.042,-18.585 -40.372,-29.989 -0.213,15.554 -1.583,30.029 -4.868,44.263 -1.099,-0.969 -0.845,-2.282 -0.849,-3.503 -0.013,-3.746 0.039,-7.492 0.038,-11.238 -0.008,-119.761 -0.019,-239.521 -0.025,-359.284 0.375,-0.017 0.749,-0.048 1.123,-0.048 112.721,-0.006 225.44,-0.01 338.162,-0.023 1.495,-0.007 2.987,-0.125 4.48,-0.189 z"
   id="path8"
   inkscape:connector-curvature="0"
   style="fill:#fefefe" />
		</g><g
   id="g14"
   transform="translate(-15.012975,-15.004102)">
			<path
   d="m 364.803,272.393 c 0.01,119.762 0.021,239.523 0.028,359.284 0,3.747 -0.051,7.492 -0.038,11.238 0.004,1.221 -0.25,2.534 0.85,3.497 -5.849,24.964 -16.284,47.825 -31.345,68.601 -1.36,1.877 -2.39,2.237 -4.544,1.479 -16.432,-5.789 -32.083,-13.181 -46.794,-22.521 -13.268,-8.423 -13.786,-11.23 -5.553,-24.777 5.729,-9.429 12.6,-18.006 19.431,-26.595 15.927,-20.02 33.35,-38.818 48.417,-59.546 5.313,-7.308 10.27,-14.724 12.736,-23.55 0.892,-3.188 0.052,-5.847 -1.834,-8.397 -1.248,-1.688 -2.43,-2.125 -4.374,-0.896 -11.514,7.287 -23.63,7.619 -35.754,2.044 -10.875,-4.999 -21.416,-10.719 -32.149,-16.031 -6.191,-3.064 -12.853,-4.78 -20.144,-7.17 1.271,2.383 2.166,3.754 3.297,5.108 11.08,13.252 20,27.64 23.692,44.848 8,37.288 -23.135,62.131 -52.164,60.991 -3.941,-0.155 -5.96,-2.04 -7.223,-5.303 -1.262,-3.265 -2.217,-6.623 -2.887,-10.069 -1.718,-8.84 -2.812,-17.755 -3.391,-26.739 -0.187,-2.88 -0.854,-4.968 -4.529,-3.326 -1.321,0.589 -2.957,0.431 -4.411,0.775 -6.127,1.459 -11.635,3.897 -14.637,9.944 -3.235,6.515 -6.869,12.671 -14.039,15.767 0.765,0.843 1.146,1.346 1.61,1.755 0.56,0.495 1.223,0.87 1.781,1.364 7.439,6.559 14.595,13.367 17.829,23.137 2.464,7.442 1.023,10.303 -5.902,13.569 -10.839,5.112 -22.19,5.599 -33.731,3.878 -18.413,-2.746 -35.149,-10.129 -51.333,-19 -11.675,-6.4 -18.452,-16.355 -21.676,-29.021 -1.049,-4.123 -2.175,-8.233 -4.601,-11.808 -0.621,-0.914 -1.253,-2.719 -2.772,-1.579 -4.169,3.126 -8.834,6.035 -8.619,12.255 0.16,4.612 0.701,9.229 0.573,13.83 -0.265,9.504 -5.193,17.021 -11.092,23.96 -1.658,1.951 -1.219,2.959 0.759,3.966 11.353,5.774 23.025,10.724 35.248,14.416 22.714,6.862 45.996,11.524 68.812,17.971 9.978,2.818 19.799,5.991 28.818,11.352 10.192,6.059 20.6,11.75 31.325,16.845 22.008,10.455 44.542,19.593 67.633,27.368 3.658,1.23 3.792,1.734 0.979,4.062 -6.542,5.41 -12.968,10.988 -19.797,16.014 -23.75,17.48 -49.745,30.976 -76.89,42.281 -17.989,7.494 -36.48,13.613 -55.15,19.189 -1.546,0.461 -3.061,1.079 -4.512,1.786 -0.979,0.478 -1.335,1.63 -1.275,2.572 0.072,1.144 1.454,1.646 2.211,1.605 3.519,-0.187 5.443,2.188 7.352,4.401 3.105,3.603 5.484,7.705 7.562,11.992 10.062,20.783 16.546,42.812 22.638,64.974 1.722,6.268 3.193,12.604 4.998,19.77 4.75,-12.1 9.267,-23.191 14.38,-34.027 7.046,-14.928 15.17,-29.211 25.256,-42.332 12.623,-16.422 28.508,-29.237 45.152,-41.26 2.141,-1.545 3.063,-0.963 4.371,0.883 5.928,8.361 11.238,17.092 16.012,26.154 13.585,25.793 21.362,53.135 22.384,82.375 0.188,5.373 -1.467,8.871 -5.73,12.275 -9.542,7.619 -18.988,15.469 -27.632,24.069 -8.927,8.888 -16.262,19.229 -22.845,30.017 -10.045,16.463 -16.834,34.074 -17.397,53.547 -0.434,15.002 0.909,29.74 10.533,42.334 4.545,5.949 8.846,12.096 13.574,17.896 21.866,26.824 45.095,52.412 70.169,76.287 8.662,8.248 17.485,16.328 27.023,23.58 -0.972,1.746 -0.649,3.664 -0.65,5.51 -0.017,77.361 -0.009,154.724 -0.026,232.084 0,1.33 0.445,2.755 -0.51,3.976 -5.075,-0.129 -9.692,-2.191 -14.434,-3.572 -36.411,-10.613 -71.446,-24.629 -104.864,-42.639 -31.113,-16.769 -60.12,-36.604 -86.803,-59.767 -27.354,-23.741 -51.588,-50.358 -72.434,-80.018 -19.605,-27.896 -35.971,-57.547 -48.146,-89.433 -8.448,-22.123 -14.908,-44.768 -17.039,-68.467 -0.335,-3.727 -0.435,-7.483 -0.436,-11.227 -0.019,-271.713 -0.02,-543.428 0.031,-815.141 0,-1.676 -1.073,-3.851 1.329,-4.968 0.816,-0.013 1.632,-0.025 2.448,-0.038 1.361,0.091 2.725,0.261 4.087,0.261 109.825,0.012 219.649,0.012 329.476,0.002 1.493,0 2.986,-0.131 4.48,-0.2 0.941,0.096 1.882,0.187 2.822,0.279 z"
   id="path12"
   inkscape:connector-curvature="0"
   style="fill:#eb9635" />
		</g><g
   id="g18"
   transform="translate(-15.012975,-15.004102)">
			<path
   d="m 717.664,272.113 c 2.119,0.072 4.238,0.206 6.357,0.206 108.484,0.008 216.969,0.003 325.451,10e-4 1.125,0 2.254,0.066 3.375,0.013 1.541,-0.073 2.377,0.46 2.223,2.145 -0.078,0.868 -0.014,1.749 -0.014,2.624 0,266.586 -0.205,533.172 0.248,799.758 0.061,35.116 -7.166,68.049 -20.67,100.032 -20.41,48.341 -49.748,90.724 -86.146,128.269 -30.313,31.268 -64.553,57.596 -102.096,79.711 -39.57,23.311 -81.461,41.17 -125.326,54.557 -2.025,0.617 -4.021,1.336 -6.025,2.004 -2.219,-0.338 -2.131,-1.961 -2.131,-3.651 0.008,-92.291 -0.004,-184.582 0.013,-276.875 0.002,-1.455 0.34,-2.912 0.521,-4.367 11.883,1.463 22.369,-2.461 32.338,-8.381 16.478,-9.781 29.635,-23.148 41.193,-38.224 14.162,-18.469 24.369,-38.812 29.528,-61.627 6.994,-30.928 10.123,-62.321 11.765,-93.91 0.082,-1.569 0.496,-2.807 1.608,-4.01 15.793,-17.08 25.322,-37.188 28.877,-60.151 0.621,-4.009 1.14,-8.031 1.695,-11.98 1.025,-0.108 1.31,0.496 1.646,0.982 5.573,7.977 11.184,15.93 16.653,23.979 0.748,1.103 1.052,1.683 2.513,1.113 17.168,-6.662 32.504,-15.875 43.34,-31.26 3.219,-4.572 5.082,-9.714 4.854,-15.447 -0.073,-1.875 -0.498,-2.584 -2.733,-2 -9.367,2.44 -18.396,0.93 -26.873,-3.424 -16.775,-8.615 -27.129,-23.162 -35.273,-39.47 -11.115,-22.262 -16.076,-46.039 -16.832,-70.827 -0.67,-21.949 2.849,-42.498 15.869,-61.089 20.945,-29.905 47.385,-53.101 80.363,-68.751 7.801,-3.701 15.979,-6.439 24.721,-6.968 3.953,-0.24 5.449,0.92 6.078,4.878 0.23,1.456 0.229,3 0.031,4.463 -0.795,5.864 -2.832,11.374 -5.189,16.757 -5.047,11.526 -10.365,22.939 -15.207,34.553 -3.565,8.558 -6.213,17.423 -5.52,26.915 0.1,1.366 -0.053,2.571 1.899,3.051 5.988,1.47 11.82,1.58 17.605,-0.844 10.812,-4.531 17.615,-13.236 23.516,-22.766 9.08,-14.666 14.773,-30.787 19.588,-47.233 0.507,-1.732 1.683,-3.252 1.408,-5.313 -1.371,-10.298 -3.274,-20.444 -7.44,-30.045 -4.021,-9.265 -9.353,-17.594 -17.146,-24.183 -6.926,-5.855 -14.606,-8.75 -23.983,-8.535 -16.229,0.371 -31.343,3.711 -45.185,12.477 -13.643,8.638 -26.186,18.716 -38.541,29.02 -7.158,5.972 -14.529,11.099 -23.629,13.839 -14.305,4.305 -28.871,6.936 -43.701,8.188 -18.117,1.529 -36.143,0.904 -54.108,-2.183 -16.103,-2.766 -31.4,-7.906 -46.287,-14.464 0.022,-90.312 0.051,-180.623 0.067,-270.937 0.002,-20.11 -0.033,-40.222 -0.051,-60.333 0.316,-0.084 0.635,-0.168 0.953,-0.252 l 0.34,0.12 0.34,-0.125 c 1.046,-0.012 2.089,-0.021 3.13,-0.03 z"
   id="path16"
   inkscape:connector-curvature="0"
   style="fill:#eb9635" />
		</g><g
   id="g22"
   transform="translate(-15.012975,-15.004102)">
			<path
   d="m 537.18,264.701 c -170.244,0 -340.488,0 -510.731,0 -6.289,0 -6.291,-0.006 -6.291,-6.352 0,-77.748 0.026,-155.494 -0.081,-233.241 -0.005,-3.741 0.686,-4.928 4.761,-4.927 342.112,0.113 684.225,0.109 1026.339,0.029 2.877,0 3.459,0.738 3.457,3.473 -0.074,79.122 -0.099,158.244 0.051,237.366 0.01,4.042 -1.959,3.649 -4.522,3.649 -170.992,-0.016 -341.987,-0.015 -512.981,-0.015 -0.002,0.007 -0.002,0.012 -0.002,0.018 z M 876.883,60.35 c -1.088,-1.168 -1.881,-0.787 -2.562,-0.788 -14.873,-0.027 -29.748,0.032 -44.621,-0.067 -2.299,-0.015 -3.95,0.626 -5.645,2.166 -18.092,16.457 -36.248,32.844 -54.4,49.236 -5.795,5.234 -11.629,10.426 -17.559,15.74 -0.945,-1.617 -0.572,-3 -0.574,-4.312 -0.029,-19.498 -0.096,-38.998 0.045,-58.495 0.023,-3.357 -1.149,-4.371 -4.328,-4.331 -9.498,0.122 -18.998,0.047 -28.498,0.047 -5.539,10e-4 -5.543,0 -5.543,5.57 0,48.122 0.002,96.244 0.002,144.366 0,1.609 0,3.218 0,5.271 1.679,-1.184 3.189,-0.936 4.666,-0.938 10.125,-0.009 20.25,-0.096 30.373,0.059 2.604,0.041 3.347,-0.626 3.32,-3.279 -0.129,-13.497 0.004,-26.997 -0.086,-40.495 -0.014,-2.077 0.563,-3.435 2.164,-4.767 8.531,-7.107 17.018,-14.272 25.397,-21.559 1.838,-1.597 2.576,-1.342 3.896,0.56 7.402,10.66 14.959,21.211 22.449,31.81 8.498,12.026 16.967,24.074 25.498,36.076 0.562,0.791 0.832,1.984 2.362,1.913 15.226,-0.716 30.459,-0.14 45.689,-0.325 0.447,-0.006 0.895,-0.045 1.383,-0.071 0.055,-1.718 -1.135,-2.445 -1.846,-3.356 -23.006,-29.413 -46.037,-58.808 -69.136,-88.149 -1.284,-1.633 -1.817,-2.496 0.084,-4.108 15.714,-13.312 31.343,-26.724 46.982,-40.122 6.804,-5.823 13.57,-11.685 20.488,-17.652 z M 540.589,214.598 c 1.84,-1.004 3.364,-0.773 4.852,-0.776 9.869,-0.016 19.74,-0.146 29.605,0.069 3.1,0.067 3.922,-0.757 3.893,-3.857 -0.154,-16.863 -0.068,-33.729 -0.083,-50.593 -10e-4,-1.785 -0.304,-3.344 2.532,-3.349 7.201,-0.012 14.428,-0.222 21.607,-0.134 13.122,0.161 26.19,-0.128 39.106,-2.331 12.924,-2.205 23.926,-8.385 32.084,-18.725 8.838,-11.204 10.39,-24.232 7.863,-37.919 -3.746,-20.291 -21.966,-33.297 -40.679,-35.694 -15.092,-1.932 -30.282,-1.722 -45.455,-1.747 -17.112,-0.027 -34.229,0.155 -51.34,-0.115 -3.578,-0.057 -4.229,1.207 -4,4.109 0.039,0.497 0.011,0.999 0.011,1.499 10e-4,48.47 10e-4,96.94 10e-4,145.41 0.003,1.238 0.003,2.476 0.003,4.153 z M 368.361,59.471 c 0.087,1.805 0.221,3.287 0.221,4.768 0.013,47.597 0.013,95.192 0.014,142.788 0,1.749 -0.011,3.498 -0.004,5.246 0.006,1.15 -0.016,1.72 1.746,1.685 10.863,-0.217 21.736,-0.261 32.6,-0.062 3.045,0.056 3.637,-0.87 3.613,-3.711 -0.138,-16.864 -0.01,-33.729 -0.146,-50.593 -0.021,-2.805 0.728,-3.546 3.539,-3.508 10.74,0.147 21.496,0.305 32.226,-0.109 10.567,-0.408 21.243,-0.366 31.575,-3.154 21.435,-5.785 37.275,-22.117 37.093,-44.635 C 510.733,95.363 507.262,84.207 497.989,75.055 487.827,65.026 475.192,61.144 461.424,60.4 430.473,58.726 399.491,59.909 368.361,59.471 Z m -191.1,0.083 c 0.447,1.178 0.719,1.975 1.05,2.746 15.094,35.048 30.189,70.095 45.295,105.138 6.367,14.771 12.736,29.54 19.169,44.282 0.409,0.937 0.173,2.542 2.123,2.421 12.097,-0.753 24.209,-0.207 36.314,-0.263 2.129,-0.011 3.006,-0.733 3.8,-2.575 21.212,-49.235 42.483,-98.445 63.735,-147.663 1.507,-3.491 1.125,-4.08 -2.701,-4.087 -10.999,-0.023 -22,0.096 -32.995,-0.083 -2.438,-0.04 -3.356,0.807 -4.189,2.909 -11.711,29.57 -23.502,59.107 -35.284,88.649 -2.767,6.935 -5.57,13.855 -8.545,21.25 -0.566,-1.183 -0.862,-1.729 -1.098,-2.302 -14.618,-35.501 -29.254,-70.996 -43.796,-106.528 -0.901,-2.201 -2.096,-3.83 -4.414,-3.849 -12.693,-0.096 -25.387,-0.045 -38.464,-0.045 z"
   id="path20"
   inkscape:connector-curvature="0"
   style="fill:#fefefe" />
		</g><g
   id="g26"
   transform="translate(-15.012975,-15.004102)">
			<path
   d="m 713.445,1156.537 c -0.182,1.455 -0.52,2.912 -0.521,4.367 -0.017,92.293 -0.004,184.584 -0.013,276.875 0,1.69 -0.088,3.313 2.131,3.651 -0.805,0.195 -1.602,0.512 -2.424,0.086 -0.063,-1.616 -0.188,-3.231 -0.188,-4.848 -0.021,-92.17 -0.029,-184.342 -0.035,-276.512 0,-1.121 0.086,-2.242 0.131,-3.363 0.304,-0.086 0.612,-0.172 0.919,-0.256 z"
   id="path24"
   inkscape:connector-curvature="0"
   style="fill:#383e89" />
		</g><g
   id="g30"
   transform="translate(-15.012975,-15.004102)">
			<path
   d="m 365.472,1205.754 c -9.538,-7.252 -18.361,-15.332 -27.023,-23.58 -25.074,-23.875 -48.303,-49.463 -70.169,-76.287 -4.729,-5.801 -9.028,-11.946 -13.574,-17.896 -9.624,-12.594 -10.966,-27.332 -10.533,-42.334 0.562,-19.473 7.353,-37.084 17.397,-53.547 6.583,-10.787 13.918,-21.129 22.845,-30.017 8.644,-8.602 18.09,-16.45 27.632,-24.069 4.265,-3.404 5.918,-6.902 5.73,-12.275 -1.021,-29.24 -8.799,-56.582 -22.384,-82.375 -4.773,-9.062 -10.084,-17.793 -16.012,-26.154 -1.308,-1.846 -2.23,-2.428 -4.371,-0.883 -16.645,12.021 -32.529,24.838 -45.152,41.26 -10.086,13.121 -18.21,27.404 -25.256,42.332 -5.113,10.836 -9.63,21.929 -14.38,34.027 -1.805,-7.166 -3.276,-13.502 -4.998,-19.77 -6.091,-22.162 -12.575,-44.189 -22.638,-64.974 -2.076,-4.287 -4.455,-8.391 -7.562,-11.992 -1.907,-2.213 -3.833,-4.588 -7.352,-4.401 -0.757,0.039 -2.139,-0.463 -2.211,-1.605 -0.06,-0.942 0.296,-2.096 1.275,-2.572 1.451,-0.707 2.966,-1.325 4.512,-1.786 18.67,-5.576 37.161,-11.695 55.15,-19.189 27.145,-11.307 53.14,-24.801 76.89,-42.281 6.829,-5.024 13.255,-10.604 19.797,-16.014 2.812,-2.326 2.679,-2.83 -0.979,-4.062 -23.091,-7.774 -45.625,-16.913 -67.633,-27.368 -10.726,-5.096 -21.132,-10.786 -31.325,-16.845 -9.021,-5.36 -18.842,-8.533 -28.818,-11.352 -22.816,-6.445 -46.099,-11.107 -68.812,-17.971 -12.223,-3.692 -23.896,-8.642 -35.248,-14.416 -1.978,-1.006 -2.417,-2.015 -0.759,-3.966 5.898,-6.938 10.827,-14.456 11.092,-23.96 0.128,-4.601 -0.413,-9.218 -0.573,-13.83 -0.215,-6.221 4.45,-9.129 8.619,-12.255 1.52,-1.14 2.152,0.665 2.772,1.579 2.426,3.574 3.552,7.685 4.601,11.808 3.225,12.665 10.001,22.622 21.676,29.021 16.184,8.871 32.919,16.254 51.333,19 11.541,1.721 22.893,1.234 33.731,-3.878 6.926,-3.268 8.366,-6.127 5.902,-13.569 -3.234,-9.77 -10.389,-16.578 -17.829,-23.137 -0.56,-0.494 -1.223,-0.869 -1.781,-1.364 -0.465,-0.409 -0.847,-0.913 -1.61,-1.755 7.17,-3.096 10.804,-9.252 14.039,-15.767 3.002,-6.046 8.509,-8.484 14.637,-9.944 1.454,-0.346 3.089,-0.187 4.411,-0.775 3.677,-1.642 4.343,0.446 4.529,3.326 0.58,8.984 1.673,17.899 3.391,26.739 0.669,3.446 1.625,6.806 2.887,10.069 1.263,3.263 3.28,5.146 7.223,5.303 29.029,1.14 60.165,-23.703 52.164,-60.991 -3.692,-17.208 -12.612,-31.596 -23.692,-44.848 -1.131,-1.354 -2.026,-2.726 -3.297,-5.108 7.291,2.39 13.952,4.104 20.144,7.17 10.733,5.312 21.274,11.032 32.149,16.031 12.124,5.574 24.24,5.242 35.754,-2.044 1.944,-1.229 3.126,-0.792 4.374,0.896 1.886,2.552 2.727,5.21 1.834,8.397 -2.467,8.826 -7.423,16.242 -12.736,23.55 -15.068,20.728 -32.491,39.526 -48.417,59.546 -6.83,8.589 -13.701,17.166 -19.431,26.595 -8.231,13.547 -7.714,16.354 5.553,24.777 14.711,9.338 30.362,16.73 46.794,22.521 2.154,0.759 3.184,0.397 4.545,-1.479 15.06,-20.775 25.495,-43.636 31.344,-68.601 3.285,-14.229 4.653,-28.703 4.868,-44.257 13.33,11.403 25.986,21.88 40.371,29.988 14.315,8.068 29.748,13.362 45.561,18.504 -17.761,8.256 -34.906,17.25 -49.615,30.322 -14.762,13.12 -26.384,28.824 -38.344,44.872 6.185,1.624 12.115,1.999 17.988,2.704 19.863,2.385 39.889,2.57 59.793,4.377 9.199,0.835 18.33,2.054 27.33,4.389 22.57,5.855 36.873,20.298 44.479,41.927 0.785,2.233 1.248,4.592 2.172,6.762 2.148,5.064 0.96,9.959 -0.432,14.873 -3.234,11.434 -9.887,20.856 -17.492,29.725 -11.043,12.875 -24.221,23.384 -37.543,33.713 -2.141,1.66 -2.583,2.566 -0.444,4.691 12.168,12.092 25.11,23.229 39.486,32.623 2.36,1.543 2.641,2.404 0.516,4.576 -39.599,40.467 -75.3,84.024 -104.728,132.537 -3.232,5.327 -6.594,10.575 -9.971,15.812 -0.582,0.902 -0.74,2.512 -2.652,2.193 20.539,-43.14 30.938,-88.207 26.99,-136.094 -0.451,-5.474 -1.121,-10.929 -1.711,-16.388 -0.154,-1.432 -0.19,-3.022 -2.365,-1.547 -15.076,10.229 -30.488,19.965 -45.046,30.935 -2.756,1.889 -5.451,3.891 -8.301,5.639 -1.741,1.067 -2.253,2.338 -2.092,4.322 0.487,5.967 0.965,11.94 1.146,17.922 1.1,36.473 -3.836,72.151 -14.308,107.082 -1.512,5.037 -3.196,10.021 -4.951,15.502 -16.816,-22.222 -37.67,-39.111 -59.401,-55.054 1.092,-0.188 2.066,-0.579 2.709,-1.555 3.479,1.748 6.249,4.457 9.291,6.805 14.819,11.438 29.253,23.281 41.106,37.938 1.575,1.947 3.414,3.68 5.486,5.895 2.488,-8.52 4.983,-16.211 6.958,-24.035 2.709,-10.725 4.538,-21.635 6.445,-32.536 2.41,-13.779 3.375,-27.658 4.055,-41.568 0.624,-12.729 -0.046,-25.459 -1.467,-38.107 -1.15,-10.235 -2.117,-20.518 -4.363,-30.606 -1.828,-8.211 -3.806,-16.387 -5.767,-24.564 -3.262,-13.602 -7.805,-26.762 -12.843,-39.705 -6.938,-17.823 -15.229,-35.092 -24.088,-52.059 -0.486,-0.932 -1.001,-1.74 -0.601,-2.773 4.187,-10.812 10.287,-19.91 22.103,-23.416 2.596,-0.771 5.051,-2.975 8.159,-1.467 3.574,1.73 7.109,3.496 10.329,5.857 5.512,4.039 11.319,7.801 15.646,13.147 4.245,5.25 9.465,9.517 13.342,15.248 4.041,5.974 8.459,11.658 12.131,17.953 6.062,10.394 11.549,21.021 15.876,32.234 2.453,6.354 5.31,12.664 6.785,19.262 2.943,13.144 6.56,26.203 7.631,39.697 0.533,6.692 1.89,13.303 1.687,20.082 -0.305,10.092 0.473,20.201 -0.809,30.285 -1.146,9.002 -1.598,18.108 -3.785,26.95 -1.996,8.062 -3.314,16.271 -5.751,24.252 -1.223,3.998 -3.348,7.816 -3.34,12.173 -0.555,0.36 -0.719,0.905 -0.715,1.53 -0.246,0.199 -0.543,0.402 -0.121,0.691 0.041,0.029 0.289,-0.244 0.441,-0.377 0.264,-0.498 0.527,-0.998 0.791,-1.498 0.663,-0.104 1.031,-0.504 1.398,-1.076 4.764,-7.436 9.025,-15.279 14.51,-22.146 5.897,-7.388 10.629,-15.578 16.701,-22.802 3.092,-3.678 5.983,-7.473 8.693,-11.475 2.598,-3.834 6.245,-6.979 9.221,-10.637 6.135,-7.545 12.299,-15.084 18.809,-22.303 8.158,-9.048 16.67,-17.775 25.041,-26.63 1.891,-2.002 2.752,-3.977 -0.061,-5.866 -5.671,-3.812 -10.748,-8.394 -16.222,-12.438 -12.877,-9.518 -22.91,-21.943 -34.228,-33.041 -6.241,-6.119 -11.516,-13.229 -17.178,-19.934 -3.247,-3.847 -7.102,-7.398 -9.758,-11.464 -4.473,-6.848 -9.895,-12.895 -14.688,-19.438 -7.019,-9.582 -14.314,-19.012 -21.242,-28.625 -4.581,-6.356 -9.276,-12.81 -13.568,-19.467 -3.991,-6.195 -7.938,-12.574 -12.853,-18.166 -1.826,-2.076 -1.318,-3.576 0.195,-5.525 4.619,-5.942 9.073,-12.016 13.578,-18.046 4.216,-5.644 7.995,-11.684 12.721,-16.862 7.093,-7.774 14.216,-15.528 22.24,-22.473 8.422,-7.29 17.686,-13.113 27.257,-18.613 3.115,-1.792 6.378,-3.21 9.65,-4.646 0.66,-0.289 1.429,-0.594 1.556,-1.472 0.11,-0.772 -0.418,-1.062 -1.039,-1.303 -3.81,-1.475 -7.545,-3.167 -11.428,-4.414 -10.109,-3.247 -19.574,-7.912 -28.583,-13.393 -10.272,-6.25 -19.581,-13.895 -28.879,-21.503 -0.78,-0.64 -1.473,-1.521 -2.58,-1.079 -1.19,0.475 -0.907,1.675 -0.908,2.624 -0.017,11.844 -1.972,23.4 -4.489,34.954 -3.572,16.39 -9.643,31.814 -17.404,46.542 -6.989,13.261 -15.739,25.362 -25.66,36.694 -9.037,10.322 -18.731,19.861 -29.282,28.582 -11.611,9.601 -23.958,18.175 -36.886,25.873 -14.767,8.793 -30.243,16.244 -45.942,23.201 -11.114,4.926 -22.555,9.062 -34.087,12.916 -7.748,2.59 -15.532,5.066 -23.291,7.623 -2.243,0.74 -2.76,1.871 -0.887,3.74 8.065,8.039 12.363,18.44 16.482,28.619 6.229,15.393 11.251,31.274 15.407,47.395 1.227,4.752 2.579,9.474 3.969,14.553 0.792,-0.924 1.57,-1.479 1.869,-2.229 4.538,-11.436 9.604,-22.631 15.275,-33.547 6.899,-13.273 14.771,-25.947 24.459,-37.367 12.632,-14.889 27.867,-26.857 43.633,-38.211 2.152,-1.551 2.847,-0.719 4.035,0.975 10.188,14.519 19.028,29.775 26.022,46.103 7.22,16.85 12.021,34.477 13.798,52.567 1.455,14.812 1.062,29.834 -1.723,44.728 -4.063,21.717 -12.466,41.338 -26.312,58.526 -1.931,2.396 -3.425,5.531 -6.75,6.627 0.765,-1.104 0.757,-2.352 0.677,-3.614 2.964,-4.297 6.743,-7.933 9.703,-12.263 5.622,-8.225 10.09,-16.979 13.38,-26.381 -3.182,2.814 -6.272,5.66 -9.116,8.736 -9.681,10.471 -18.117,21.826 -24.057,34.877 -0.585,1.287 -2.158,2.725 -0.364,4.309 v 0.255 c -1.824,-0.275 -1.952,1.299 -2.337,2.344 -3.088,8.385 -4.693,17.016 -4.28,25.998 0.683,14.848 6.726,27.762 14.616,39.908 10.502,16.166 23.493,30.329 36.589,44.377 14.606,15.668 29.578,30.985 44.859,46 10.351,10.6 20.704,21.194 31.042,31.807 0.832,0.854 2.568,1.643 1.923,2.873 -0.726,1.377 -2.414,0.994 -3.988,0.772 -8.666,-1.215 -15.105,-6.735 -22.099,-11.168 -2.088,-1.328 -3.961,-3.007 -5.935,-4.525 z m 0.07,-409.389 c -0.899,-1.027 -1.771,-2.078 -2.704,-3.074 -7.703,-8.225 -15.943,-15.803 -25.976,-21.15 -1.702,-0.905 -3.367,-2.145 -5.599,-1.62 -11.011,2.596 -19.25,8.368 -23.386,19.372 -1.001,2.664 -0.66,4.675 0.548,6.986 17.979,34.404 32.576,70.076 40.315,108.291 0.501,2.476 1.286,2.869 3.361,1.326 4.479,-3.328 9.079,-6.498 13.628,-9.732 12.044,-7.979 24.032,-16.043 36.181,-23.856 2.322,-1.494 2.851,-2.738 2.025,-5.299 -8.391,-26.134 -20.56,-50.211 -38.393,-71.244 z M 272.429,535.636 c 7.047,9.943 13.52,20.117 17.72,31.586 5.095,13.915 6.646,27.992 1.042,42.066 -8.25,20.721 -29.558,34.282 -51.938,33.978 -5.068,-0.068 -7.977,-2.125 -9.8,-6.368 -1.03,-2.396 -1.906,-4.888 -2.569,-7.409 -2.455,-9.337 -3.5,-18.9 -4.358,-28.491 -0.115,-1.275 0.583,-3.41 -2.014,-3.083 -7.398,0.933 -14.271,2.687 -17.686,10.488 -2.017,4.605 -4.708,8.834 -8.826,11.913 -1.456,1.089 -1.124,1.75 0.028,2.847 2.8,2.66 5.642,5.314 8.124,8.262 6.126,7.271 11.259,15.022 10.037,25.252 -0.113,0.948 0.17,1.95 -1.049,2.546 -2.58,1.261 -4.676,3.277 -7.295,4.554 -12.779,6.222 -26.137,6.014 -39.581,3.416 -16.827,-3.253 -32.375,-10.015 -47.208,-18.445 -3.781,-2.149 -8.171,-4.037 -10.789,-7.258 -5.88,-7.237 -11.263,-14.981 -12.973,-24.577 -0.521,-2.932 -1.571,-5.772 -2.919,-8.475 -0.711,-1.426 -1.411,-1.631 -2.843,-0.713 -4.354,2.793 -5.698,6.694 -4.793,11.612 2.271,12.336 -0.945,23.267 -8.774,32.862 -1.749,2.143 -1.24,2.914 0.906,4.002 8.252,4.181 16.743,7.77 25.537,10.634 20.555,6.695 41.672,11.271 62.595,16.574 16.864,4.273 33.164,9.662 48.327,18.674 29.526,17.548 61.403,29.944 93.847,40.95 2.616,0.889 4.351,0.473 6.271,-1.49 6.03,-6.168 11.82,-12.535 17.302,-19.193 1.379,-1.676 1.566,-2.406 -0.858,-3.26 -18.579,-6.537 -36.033,-15.314 -52.308,-26.455 -6.482,-4.438 -7.939,-8.476 -4.914,-15.821 2.627,-6.375 6.165,-12.238 10.209,-17.824 14.082,-19.452 30.06,-37.364 45.271,-55.898 9.11,-11.1 18.305,-22.155 25.406,-34.715 2.012,-3.56 3.939,-7.284 3.896,-11.562 -0.043,-4.181 -0.845,-4.58 -4.539,-2.551 -8.554,4.7 -17.553,6.025 -27.126,3.855 -9.291,-2.106 -17.305,-7.018 -25.609,-11.293 -8.287,-4.267 -16.402,-8.902 -25.749,-11.19 z m 246.429,256.198 c -0.633,-4.277 -2.146,-8.498 -3.658,-12.729 -6.985,-19.577 -20.139,-32.562 -40.354,-38.252 -14.439,-4.062 -29.271,-4.938 -44.099,-5.895 -19.563,-1.265 -39.221,-1.738 -58.54,-5.325 -5.264,-0.978 -7.719,0.985 -10.047,4.922 -0.945,1.6 -1.295,2.665 -0.066,4.278 2.721,3.572 5.304,7.256 7.782,11 1.155,1.746 2.578,2.367 4.609,2.607 22.315,2.643 44.654,5.202 66.549,10.479 12.644,3.047 25.181,6.547 36.261,13.672 5.42,3.484 9.889,7.938 11.327,14.676 0.906,4.246 -0.862,8.129 -1.354,12.177 -1.047,8.592 -5.076,15.786 -10.773,22.172 -7.909,8.86 -17.551,15.541 -27.586,21.639 -3.383,2.055 -2.34,3.447 -0.364,5.418 3.09,3.084 6.452,5.963 9.106,9.389 1.883,2.429 3.115,1.959 4.978,0.438 8.692,-7.115 17.764,-13.777 25.907,-21.551 8.326,-7.949 16.203,-16.281 22.211,-26.201 4.253,-7.019 7.344,-14.437 8.111,-22.914 z M 374.266,756.152 c 4.178,5.797 8.354,11.602 12.542,17.401 17.594,24.377 35.338,48.642 55.231,71.236 1.072,1.217 1.634,2.617 3.771,1.211 8.234,-5.418 16.594,-10.674 23.9,-17.33 7.614,-6.938 13.603,-14.943 14.959,-25.594 0.17,-1.342 0.127,-2.738 0.494,-4.021 2.086,-7.28 0.372,-12.272 -5.464,-17.143 -6.676,-5.566 -14.592,-8.639 -22.619,-11.262 -26.368,-8.616 -53.823,-11.547 -81.175,-14.951 -0.601,-0.072 -1.232,-0.252 -1.639,0.453 z m 16.24,461.452 c 0.31,-0.416 0.615,-0.829 0.925,-1.245 -4.818,-4.527 -9.8,-8.896 -14.43,-13.607 -23.104,-23.51 -46.723,-46.533 -68.684,-71.146 -12.057,-13.513 -23.894,-27.197 -32.695,-43.209 -12.479,-22.697 -13.014,-45.519 -1.597,-68.787 7.419,-15.123 17.55,-28.256 29.626,-39.738 6.136,-5.834 9.75,-12.197 11.09,-20.406 1.174,-7.19 2.211,-14.361 2.875,-22.459 -19.369,15.854 -37.86,31.115 -50.915,51.933 -10.789,17.202 -18.903,35.223 -19.782,55.788 -0.679,15.873 1.546,30.869 11.692,44.224 15.059,19.819 31.212,38.654 48.091,56.904 20.118,21.752 40.925,42.786 64.613,60.727 5.905,4.466 12.004,8.778 19.191,11.021 z m 20.503,-320.836 c -1.236,-6.735 -2.81,-13.397 -4.451,-20.055 -0.653,-2.647 -1.51,-2.578 -3.437,-1.297 -16.918,11.266 -34.098,22.139 -50.506,34.16 -1.735,1.271 -2.39,2.469 -2.022,4.651 1.142,6.767 2.173,13.56 2.987,20.369 0.311,2.588 0.96,2.633 2.857,1.267 17.306,-12.468 34.991,-24.381 52.774,-36.154 1.069,-0.707 2.149,-1.369 1.798,-2.941 z"
   id="path28"
   inkscape:connector-curvature="0"
   style="fill:#191a1a" />
		</g><g
   id="g34"
   transform="translate(-15.012975,-15.004102)">
			<path
   d="m 713.445,1156.537 c -0.307,0.084 -0.615,0.17 -0.92,0.258 -3.095,-1.856 -6.739,-1.389 -10.075,-2.42 -13.616,-4.205 -23.653,-13.256 -32.334,-23.887 -13.444,-16.474 -22.461,-35.306 -28.084,-55.779 -2.188,-7.975 -3.506,-16.096 -3.81,-24.363 -0.193,-5.276 5.88,-14.506 10.71,-16.578 3.458,-1.481 6.722,-0.805 9.594,1.173 4.023,2.77 7.467,6.135 9.287,10.896 5.185,13.557 11.082,26.728 20.174,38.248 5.562,7.045 12.621,11.934 20.83,15.264 1.061,0.431 2.44,0.062 3.673,0.062 0.054,0.205 0.199,0.276 0.438,0.215 3.119,0.346 6.225,0.332 9.334,-0.168 12.291,-1.971 21.918,-8.795 30.481,-17.205 14.111,-13.856 21.953,-31.33 27.693,-49.883 5.295,-17.113 8.303,-34.685 10.209,-52.471 0.535,-4.988 0.707,-4.972 -4.137,-4.011 -14.213,2.822 -27.06,-0.289 -38.377,-9.235 -4.664,-3.688 -9.316,-7.728 -11.722,-13.271 -5.795,-13.359 -9.543,-27.342 -10.733,-41.889 -1.527,-18.67 0.91,-36.467 13.254,-51.545 11.127,-13.588 24.924,-19.676 42.672,-14.851 17.75,4.824 29.637,16.261 37.744,32.23 1.408,2.772 2.658,5.625 4.268,9.051 2.08,-8.846 2.361,-16.981 2.537,-25.08 0.314,-14.305 -2.408,-28.102 -8.436,-41.115 -9.133,-19.715 -23.636,-34.459 -42.691,-44.646 -12.768,-6.824 -26.309,-11.244 -41.012,-11.458 -3.562,-0.052 -4.695,1.052 -4.611,4.704 0.455,19.996 -0.311,39.955 -2.41,59.856 -1.678,15.912 -4.356,31.64 -8.045,47.209 -1.586,6.697 -4.44,12.964 -6.258,19.57 l 0.012,0.082 c -1.366,0.086 -1.299,1.365 -1.715,2.172 -6.216,12.06 -13.795,23.123 -23.927,32.244 -1.709,1.539 -1.092,2.322 0.029,3.527 6.034,6.483 11.96,13.073 18.114,19.442 2.277,2.357 4.203,5.222 7.444,6.521 l -0.018,0.09 c 1.383,2.908 4.094,4.639 6.163,6.936 0.921,1.021 2.101,1.898 2.066,3.414 -0.164,7.556 -1.521,14.636 -8.09,19.547 -0.207,-0.021 -0.307,0.056 -0.301,0.229 -0.908,0.379 -1.793,0.842 -2.729,1.125 -4.505,1.363 -8.607,2.17 -13.298,-0.715 -16.717,-10.285 -31.916,-22.242 -44.152,-37.685 -2.498,-3.153 -5.016,-0.334 -7.471,-0.758 0.068,-0.879 0.801,-2.008 -1.055,-1.979 -4.835,0.065 -9.672,0.034 -14.508,0.026 -1.326,-0.002 -1.685,0.787 -1.685,1.92 -14.135,-2.395 -23.703,-10.77 -30.215,-23.112 -1.523,-2.888 0.453,-3.093 2.524,-3.088 9.548,0.024 18.896,-1.156 28.093,-3.882 2.924,-0.866 3.053,-1.93 2.062,-4.407 -7.041,-17.609 -11.854,-35.818 -13.311,-54.748 -3.204,-41.679 7.863,-78.396 38.705,-107.861 6.684,-6.385 14.152,-11.893 22.447,-16.104 2.61,-1.325 3.768,-2.504 3.17,-5.92 -5.206,-29.669 -11.23,-59.108 -23.486,-86.842 -5.066,-11.461 -11.034,-22.435 -21.338,-30.264 -6.906,-5.247 -14.59,-6.735 -22.998,-4.686 -1.79,0.437 -2.969,1.286 -3.859,3.068 -5.772,11.551 -1.193,22.532 11.363,26.771 4.156,1.401 8.461,2.169 12.84,2.459 2.158,0.143 2.977,1.152 2.336,3.252 -4.256,13.938 -14.945,21.426 -28.979,19.873 -8.793,-0.975 -15.361,-6.103 -20.792,-12.71 -2.524,-3.07 -4.755,-6.41 -6.861,-9.788 -2.188,-3.506 -2.109,-7.707 -2.354,-11.582 -0.911,-14.459 1.205,-28.442 8.568,-41.198 6.574,-11.385 16.093,-19.163 29.311,-21.077 7.802,-1.13 15.704,0.384 23.476,1.64 17.672,2.857 33.43,10.554 48.731,19.428 7.285,4.224 14.548,8.533 22.51,11.464 0.768,0.283 1.44,0.16 2.151,0.248 -0.188,1.011 0.263,1.354 1.22,1.17 14.887,6.558 30.186,11.698 46.286,14.464 17.968,3.086 35.992,3.712 54.109,2.183 14.83,-1.252 29.396,-3.883 43.701,-8.188 9.1,-2.74 16.471,-7.867 23.629,-13.839 12.354,-10.305 24.897,-20.383 38.541,-29.02 13.842,-8.765 28.955,-12.104 45.184,-12.477 9.377,-0.214 17.06,2.68 23.984,8.535 7.793,6.589 13.125,14.918 17.146,24.183 4.166,9.6 6.069,19.747 7.44,30.045 0.273,2.062 -0.902,3.581 -1.408,5.313 -4.813,16.447 -10.508,32.567 -19.588,47.233 -5.899,9.529 -12.703,18.234 -23.516,22.765 -5.785,2.425 -11.617,2.314 -17.605,0.845 -1.953,-0.479 -1.801,-1.686 -1.899,-3.052 -0.693,-9.491 1.953,-18.356 5.52,-26.914 4.842,-11.613 10.16,-23.025 15.207,-34.554 2.357,-5.382 4.396,-10.892 5.189,-16.756 0.196,-1.463 0.198,-3.008 -0.031,-4.463 -0.629,-3.958 -2.125,-5.118 -6.078,-4.878 -8.742,0.528 -16.92,3.266 -24.721,6.968 -32.979,15.65 -59.418,38.845 -80.363,68.751 -13.021,18.59 -16.539,39.14 -15.869,61.088 0.756,24.789 5.717,48.566 16.832,70.828 8.146,16.308 18.498,30.854 35.273,39.469 8.479,4.354 17.506,5.865 26.873,3.425 2.235,-0.584 2.659,0.125 2.733,2 0.228,5.733 -1.637,10.875 -4.854,15.446 -10.836,15.386 -26.172,24.599 -43.34,31.261 -1.461,0.567 -1.765,-0.013 -2.513,-1.113 -5.471,-8.049 -11.08,-16.002 -16.653,-23.979 -0.339,-0.485 -0.621,-1.092 -1.646,-0.981 -0.557,3.949 -1.074,7.973 -1.695,11.979 -3.555,22.964 -13.084,43.072 -28.877,60.152 -1.112,1.203 -1.526,2.439 -1.608,4.01 -1.642,31.588 -4.771,62.982 -11.765,93.91 -5.159,22.814 -15.366,43.158 -29.528,61.627 -11.56,15.074 -24.718,28.441 -41.193,38.223 -9.964,5.927 -20.45,9.851 -32.333,8.388 z m 108.432,-484.328 0.051,-0.057 c -0.435,2.822 -0.773,5.667 -1.322,8.468 -4.9,25.065 -6.254,50.28 -3.344,75.693 0.283,2.474 1.176,4.375 2.916,6.229 5.865,6.24 11.842,12.369 16.106,19.971 15.006,26.729 23.824,55.158 24.142,85.982 0.021,2.229 0.614,4.092 1.811,5.947 5.41,8.401 11.187,16.545 17,24.67 1.279,1.787 2.412,1.604 4.074,0.967 10.471,-4.023 20.104,-9.514 28.531,-16.902 6.129,-5.371 11.764,-11.271 14.178,-19.405 1.26,-4.248 1.02,-4.544 -3.23,-4.109 -12.071,1.231 -22.646,-2.439 -32.2,-9.617 -15.484,-11.631 -25.306,-27.479 -32.523,-44.967 -10.562,-25.588 -14.273,-52.353 -12.725,-79.992 0.938,-16.735 6.522,-31.607 15.733,-45.365 16.89,-25.223 38.648,-45.375 64.322,-61.322 13,-8.076 26.721,-14.65 42.199,-16.571 4.768,-0.592 6.586,0.409 8.858,4.7 1.354,2.554 1.455,5.261 1.127,8.014 -0.7,5.888 -2.788,11.394 -5.055,16.796 -5.111,12.196 -11.242,23.948 -15.998,36.302 -2.701,7.015 -4.848,14.167 -5.02,21.789 -0.056,2.486 0.907,3.521 3.362,3.869 4.459,0.633 8.722,0.167 12.861,-1.517 7.812,-3.174 13.498,-8.907 18.246,-15.613 10.604,-14.979 16.693,-32.009 22.213,-49.302 1.396,-4.367 1.949,-8.635 1.182,-13.214 -2.713,-16.19 -7.856,-31.251 -19.684,-43.236 -5.566,-5.64 -12.078,-9.918 -20.236,-10.292 -19.924,-0.912 -38.323,3.685 -54.768,15.463 -13.008,9.319 -25.729,19.023 -37.732,29.569 -5.403,4.749 -11.508,7.6 -18.033,9.614 -31.282,9.654 -63.204,12.045 -95.59,7.279 -27.282,-4.016 -52.436,-14.12 -76.178,-27.831 -18.768,-10.839 -38.174,-19.271 -60.161,-21.289 -16.283,-1.492 -28.983,3.555 -37.994,17.142 -5.774,8.709 -8.462,18.599 -9.291,28.938 -0.598,7.477 -1.37,15.307 1.625,22.224 3.83,8.846 10.309,15.875 19.355,20.033 11.938,5.488 27.031,-0.548 31.561,-12.485 0.781,-2.062 0.677,-2.871 -1.739,-3.023 -4.263,-0.269 -8.354,-1.416 -12.297,-3.052 -13.225,-5.489 -18.05,-18.48 -9.843,-32.96 0.472,-0.832 1.176,-1.159 2.053,-1.447 5.339,-1.75 10.718,-2.202 16.223,-0.851 9.724,2.385 16.229,9.061 21.8,16.725 11.64,16.016 17.842,34.499 23.258,53.239 5.172,17.894 8.807,36.153 11.894,54.514 0.359,2.138 0.559,3.209 3.104,2.011 10.834,-5.097 22.299,-8.031 34.167,-9.38 2.205,-0.25 2.984,-0.836 2.639,-3.223 -1.791,-12.369 -3.827,-24.673 -7.096,-36.763 -1.84,-6.808 -4.551,-13.299 -7.184,-20.348 0.967,0.4 1.399,0.556 1.812,0.755 10.562,5.131 21.299,9.805 32.656,12.922 25.854,7.096 51.135,6.055 75.676,-5.354 0.853,-0.398 1.629,-0.542 2.508,-0.338 z m -28.033,261.656 c 5.86,-3.086 10.354,-6.332 14.121,-10.849 4.139,-4.959 7.274,-10.434 9.731,-16.271 2.578,-6.129 5.728,-12.34 3.037,-19.344 -6.219,-16.191 -15.465,-29.595 -32.34,-36.478 -15.142,-6.176 -29.174,-6.111 -42.058,5.312 -12.26,10.871 -16.963,25.092 -18.186,40.729 -1.129,14.482 1.668,28.553 6.088,42.281 1.635,5.078 2.414,10.729 5.713,14.943 9.604,12.268 21.922,19.674 38.066,19.43 10.109,-0.152 19.18,-4.104 27.703,-8.674 16.522,-8.859 29,-21.994 38.074,-38.556 13.116,-23.938 15.612,-49.664 12.875,-76.065 -1.603,-15.443 -6.035,-30.441 -11.951,-44.844 -6.842,-16.656 -16.246,-31.545 -29.599,-44.035 -14.875,-13.92 -31.598,-24.078 -51.141,-29.947 -10.162,-3.053 -20.504,-3.836 -30.918,-4.494 -7.767,-0.49 -15.283,1.484 -22.902,2.623 -12.165,1.818 -22.605,7.631 -33.296,13.013 -3.912,1.97 -7.227,4.793 -10.826,7.21 -9.201,6.175 -16.955,13.988 -23.231,22.91 -8.539,12.138 -15.002,25.297 -18.842,39.955 -2.7,10.301 -4.009,20.551 -4.781,31.021 -0.543,7.35 0.312,14.625 0.746,21.936 0.562,9.51 2.696,18.797 5.287,27.773 2.875,9.961 5.858,19.977 10.711,29.418 4.172,8.117 9.299,15.518 14.669,22.651 5.9,7.843 12.408,15.322 19.962,21.843 8.94,7.717 18.558,14.375 28.686,20.35 1.836,1.084 3.941,1.123 6.166,0.771 7.925,-1.254 12.255,-7.778 12.313,-15.393 0.018,-2.396 -0.441,-4.287 -2.271,-5.998 -2.895,-2.709 -5.984,-5.27 -8.665,-8.141 -7.665,-8.217 -15.709,-16.062 -22.842,-24.82 -7.533,-9.248 -15.041,-18.449 -20.82,-28.898 -3.718,-6.723 -7.063,-13.616 -9.258,-21.084 -1.916,-6.522 -2.449,-13.139 -3.192,-19.815 -1.258,-11.293 0.262,-22.367 1.723,-33.463 0.856,-6.517 2.826,-12.73 4.977,-18.988 3.386,-9.85 8.888,-18.289 15.698,-25.766 6.028,-6.617 13.942,-11.095 21.955,-15.091 7.448,-3.713 15.438,-6.018 23.502,-7.889 5.4,-1.252 10.971,-2.639 16.438,-2.532 9.471,0.186 18.733,2.397 27.623,5.799 22.602,8.646 40.506,22.961 53.008,43.868 7.01,11.722 11.633,24.394 12.68,37.867 1.461,18.828 0.613,37.717 -5.908,55.717 -4.672,12.898 -11.68,24.388 -24.043,31.632 -10.332,6.053 -21.295,5.844 -30.823,-2.013 -4.103,-3.381 -7.017,-7.731 -9.859,-12.117 -0.912,-1.405 -2.375,-2.426 -2.492,-4.467 -0.207,-3.59 -1.152,-7.145 -1.258,-10.729 -0.502,-16.717 7.016,-24.164 22.463,-23.611 5.893,0.213 9.205,5.185 12.055,9.578 4.631,7.146 6.451,15.258 6.437,23.803 -0.011,5.73 -0.201,11.445 -1.005,17.939 z m -152.835,118.903 c 0.717,4.701 1.176,10.197 2.446,15.5 2.156,8.994 4.688,17.902 8.535,26.382 3.324,7.321 6.82,14.561 11.264,21.266 2.607,3.936 6.199,7.467 8.607,11.209 3.822,5.938 9.055,10.062 13.896,14.607 5.414,5.082 12.27,8.297 19.664,9.815 4.527,0.931 9.16,2.088 13.72,1.988 12.387,-0.271 22.912,-6.025 32.766,-12.855 7.461,-5.174 14.137,-11.336 20.422,-17.959 10.072,-10.61 18.627,-22.262 25.854,-34.959 4.985,-8.758 9.373,-17.805 12.229,-27.438 3.111,-10.496 5.543,-21.205 7.334,-32.018 1.787,-10.8 3.521,-21.623 4.713,-32.498 1.328,-12.113 2.021,-24.295 2.978,-36.447 0.076,-0.963 0.471,-2.148 -0.51,-2.771 -1.242,-0.784 -1.966,0.347 -2.822,1.076 -7.781,6.623 -16.424,11.785 -26.084,15.178 -1.043,0.367 -1.928,0.832 -1.922,1.978 0.018,3.037 -1.207,5.861 -1.437,8.834 -0.979,12.66 -3.123,25.129 -6.143,37.445 -2.807,11.454 -6.318,22.707 -11.488,33.321 -6.604,13.558 -14.312,26.354 -26.631,35.711 -7.271,5.525 -14.789,10.438 -23.953,12.271 -13.139,2.629 -23.919,-1.234 -33.35,-10.711 -7.665,-7.703 -13.196,-16.681 -18.135,-26.148 -2.223,-4.26 -4.729,-8.516 -6.013,-13.08 -1.31,-4.655 -3.394,-8.604 -6.464,-12.172 -3.984,-4.631 -10.592,-5.168 -14.434,-0.709 -2.983,3.463 -4.967,7.644 -5.042,13.184 z m 85.747,-261.641 c 0,-8.07 -0.111,-15.443 0.059,-22.811 0.062,-2.752 -0.701,-3.431 -3.393,-2.858 -10.283,2.181 -20.308,5.061 -29.797,9.706 -2.604,1.277 -3.549,2.639 -3.189,5.703 2.648,22.656 0.773,45.141 -3.585,67.41 -3.631,18.549 -9.938,36.082 -22,51.051 -1.154,1.434 -0.49,2.484 0.16,3.719 4.507,8.547 10.512,16.056 16.297,23.726 1.698,2.252 2.882,2.323 4.924,0.348 13.362,-12.93 23.112,-28.166 28.304,-45.982 8.622,-29.588 11.231,-60.055 12.22,-90.012 z M 714.418,669.975 c 6.547,17.246 9.389,34.305 11.719,51.464 0.332,2.449 1.617,2.566 3.584,2.511 26.521,-0.771 50.377,7.084 71.854,22.442 4.193,2.998 8.195,6.263 12.685,9.711 -0.39,-7.26 -0.914,-13.846 -1.064,-20.438 -0.418,-18.531 1.037,-36.912 4.746,-55.097 0.211,-1.04 0.877,-2.405 -0.053,-3.193 -0.961,-0.813 -2.08,0.241 -3.103,0.589 -0.709,0.242 -1.391,0.556 -2.094,0.814 -25.016,9.193 -50.082,8.648 -75.225,0.498 -7.59,-2.461 -14.965,-5.444 -23.049,-9.301 z m -51.679,228.687 c 25.423,-36.896 27.291,-77.627 25.582,-119.308 -1.262,0 -1.549,-0.084 -1.742,0.017 -0.661,0.342 -1.317,0.707 -1.927,1.135 -11.691,8.221 -19.861,19.133 -24.741,32.531 -6.368,17.479 -7.227,35.625 -6.184,53.94 0.619,10.849 3.732,21.08 9.012,31.685 z m 129.577,21.746 c -0.156,-3.195 -0.148,-6.076 -0.461,-8.92 -0.977,-8.849 -3.26,-17.164 -10.494,-23.174 -6.467,-5.373 -20.131,-2.074 -22.748,5.893 -4.236,12.893 -1.774,24.541 7.963,34.365 5.574,5.627 12.097,8.633 20.181,7.629 2.575,-0.32 4.424,-0.979 4.506,-4.205 0.1,-3.975 0.7,-7.935 1.053,-11.588 z m -155.204,28.781 c 2.172,-0.169 5.162,-0.354 8.144,-0.64 2.146,-0.207 3.276,-0.766 1.502,-3.16 -4.758,-6.416 -9.174,-13.073 -12.886,-20.159 -0.885,-1.689 -1.782,-1.867 -3.526,-1.289 -8.338,2.766 -16.928,4.198 -25.715,4.469 -1.066,0.033 -2.571,-0.547 -3.119,0.492 -0.63,1.194 0.618,2.285 1.273,3.287 7.909,12.075 19.552,16.799 34.327,17 z"
   id="path32"
   inkscape:connector-curvature="0"
   style="fill:#191a1a" />
		</g><g
   id="g38"
   transform="translate(-15.012975,-15.004102)">
			<path
   d="m 364.537,1185.994 c -15.281,-15.015 -30.252,-30.332 -44.859,-46 -13.096,-14.047 -26.087,-28.211 -36.589,-44.377 -7.892,-12.146 -13.935,-25.062 -14.616,-39.908 -0.413,-8.981 1.192,-17.613 4.28,-25.998 0.386,-1.045 0.513,-2.619 2.337,-2.344 0.435,0.768 0.9,1.5 1.855,1.697 21.73,15.94 42.585,32.832 59.401,55.053 1.755,-5.48 3.439,-10.465 4.95,-15.502 10.472,-34.931 15.408,-70.609 14.309,-107.082 -0.181,-5.98 -0.657,-11.955 -1.146,-17.922 -0.162,-1.984 0.351,-3.254 2.092,-4.322 2.85,-1.748 5.544,-3.75 8.301,-5.639 -0.02,4.869 -0.046,9.729 -0.046,14.594 -0.016,76.264 -0.027,152.527 -0.041,228.791 0,2.987 0.33,5.986 -0.228,8.959 z"
   id="path36"
   inkscape:connector-curvature="0"
   style="fill:#eb9635" />
		</g><g
   id="g42"
   transform="translate(-15.012975,-15.004102)">
			<path
   d="m 712.888,603.665 c -0.957,0.185 -1.408,-0.159 -1.219,-1.17 0.844,-1.99 0.76,-4.084 0.758,-6.186 -0.021,-107.526 -0.027,-215.054 -0.033,-322.582 0,-0.371 0.072,-0.741 0.113,-1.109 0.078,-0.174 0.211,-0.25 0.397,-0.224 0.019,20.112 0.053,40.223 0.051,60.334 -0.016,90.314 -0.043,180.625 -0.067,270.937 z"
   id="path40"
   inkscape:connector-curvature="0"
   style="fill:#383e89" />
		</g><g
   id="g46"
   transform="translate(-15.012975,-15.004102)">
			<path
   d="m 712.47,989.625 c -0.006,-0.174 0.094,-0.25 0.301,-0.229 0.064,2.246 0.18,4.492 0.18,6.738 0.002,34.496 -0.012,68.992 -0.022,103.49 -0.238,0.062 -0.386,-0.01 -0.438,-0.215 -0.007,-36.593 -0.015,-73.188 -0.021,-109.784 z"
   id="path44"
   inkscape:connector-curvature="0"
   style="fill:#383e89" />
		</g><g
   id="g50"
   transform="translate(-15.012975,-15.004102)">
			<path
   d="m 627.575,951.561 c 0,-1.133 0.357,-1.922 1.685,-1.92 4.836,0.009 9.673,0.039 14.508,-0.026 1.854,-0.027 1.123,1.102 1.055,1.979 -1.262,0.064 -2.522,0.129 -3.783,0.195 -3.477,-1.055 -6.952,-1.025 -10.432,-0.014 -1.031,0.174 -2.049,0.219 -3.033,-0.214 z"
   id="path48"
   inkscape:connector-curvature="0"
   style="fill:#141517" />
		</g><g
   id="g54"
   transform="translate(-15.012975,-15.004102)">
			<path
   d="m 630.606,951.775 c 3.479,-1.013 6.955,-1.041 10.432,0.014 -3.479,1.082 -6.954,0.609 -10.432,-0.014 z"
   id="path52"
   inkscape:connector-curvature="0"
   style="fill:#191a1a" />
		</g><g
   id="g58"
   transform="translate(-15.012975,-15.004102)">
			<path
   d="m 23.939,272.056 c 1.274,-0.779 2.685,-0.412 4.027,-0.412 110.005,-0.019 220.009,-0.019 330.013,10e-4 1.337,0 2.757,-0.402 4.003,0.474 -1.494,0.069 -2.987,0.2 -4.48,0.2 -109.825,0.01 -219.649,0.01 -329.476,-0.002 -1.362,0 -2.725,-0.17 -4.087,-0.261 z"
   id="path56"
   inkscape:connector-curvature="0"
   style="fill:#191a1a" />
		</g><g
   id="g62"
   transform="translate(-15.012975,-15.004102)">
			<path
   d="m 713.859,272.144 c 0.228,-0.001 0.453,-0.003 0.68,-0.004 l -0.34,0.125 z"
   id="path60"
   inkscape:connector-curvature="0"
   style="fill:#191a1a" />
		</g><g
   id="g66"
   transform="translate(-15.012975,-15.004102)">
			<path
   d="m 284.867,1021.447 c 3.325,-1.095 4.819,-4.229 6.75,-6.625 13.846,-17.189 22.248,-36.812 26.312,-58.527 2.785,-14.893 3.178,-29.914 1.723,-44.727 -1.777,-18.093 -6.578,-35.72 -13.798,-52.568 -6.994,-16.326 -15.835,-31.584 -26.022,-46.102 -1.188,-1.693 -1.883,-2.525 -4.035,-0.976 -15.766,11.354 -31.001,23.322 -43.633,38.211 -9.688,11.42 -17.561,24.095 -24.459,37.367 -5.672,10.916 -10.738,22.111 -15.275,33.547 -0.299,0.75 -1.077,1.308 -1.869,2.23 -1.39,-5.08 -2.742,-9.801 -3.969,-14.553 -4.156,-16.119 -9.178,-32.003 -15.407,-47.396 -4.12,-10.178 -8.417,-20.58 -16.482,-28.619 -1.873,-1.869 -1.356,-3 0.887,-3.74 7.759,-2.557 15.543,-5.032 23.291,-7.623 11.532,-3.854 22.973,-7.989 34.087,-12.916 15.699,-6.956 31.176,-14.407 45.942,-23.2 12.929,-7.699 25.274,-16.273 36.886,-25.873 10.55,-8.722 20.245,-18.261 29.282,-28.582 9.921,-11.332 18.671,-23.435 25.66,-36.695 7.762,-14.727 13.832,-30.151 17.404,-46.542 2.518,-11.554 4.473,-23.11 4.489,-34.954 0.001,-0.949 -0.282,-2.148 0.908,-2.624 1.107,-0.44 1.8,0.44 2.58,1.079 9.299,7.609 18.606,15.253 28.879,21.503 9.009,5.481 18.474,10.146 28.583,13.394 3.883,1.246 7.618,2.938 11.428,4.414 0.621,0.24 1.149,0.528 1.039,1.303 -0.127,0.877 -0.896,1.182 -1.556,1.471 -3.272,1.436 -6.535,2.854 -9.65,4.646 -9.571,5.5 -18.835,11.322 -27.257,18.612 -8.023,6.943 -15.146,14.697 -22.24,22.474 -4.726,5.179 -8.505,11.218 -12.721,16.861 -4.505,6.031 -8.959,12.104 -13.578,18.046 -1.514,1.949 -2.021,3.449 -0.195,5.525 4.915,5.592 8.86,11.971 12.853,18.166 4.292,6.658 8.987,13.11 13.568,19.467 6.927,9.613 14.224,19.043 21.242,28.625 4.793,6.545 10.215,12.592 14.688,19.439 2.656,4.063 6.511,7.617 9.758,11.463 5.662,6.703 10.937,13.813 17.178,19.934 11.316,11.099 21.351,23.523 34.228,33.041 5.474,4.045 10.551,8.627 16.221,12.438 2.812,1.891 1.951,3.865 0.062,5.867 -8.371,8.854 -16.883,17.582 -25.041,26.629 -6.51,7.219 -12.674,14.758 -18.809,22.303 -2.976,3.658 -6.623,6.803 -9.221,10.637 -2.71,4.002 -5.603,7.797 -8.693,11.476 -6.072,7.223 -10.804,15.414 -16.701,22.801 -5.483,6.867 -9.746,14.711 -14.51,22.146 -0.367,0.572 -0.735,0.974 -1.398,1.076 -0.137,-0.112 -0.27,-0.229 -0.398,-0.35 -0.006,-4.354 2.119,-8.172 3.342,-12.17 2.437,-7.98 3.755,-16.189 5.751,-24.252 2.188,-8.842 2.641,-17.949 3.785,-26.951 1.28,-10.084 0.504,-20.193 0.809,-30.285 0.203,-6.778 -1.152,-13.389 -1.687,-20.082 -1.071,-13.494 -4.688,-26.555 -7.631,-39.697 -1.477,-6.598 -4.332,-12.907 -6.785,-19.262 -4.327,-11.213 -9.813,-21.842 -15.876,-32.233 -3.672,-6.296 -8.09,-11.98 -12.131,-17.953 -3.877,-5.732 -9.097,-9.998 -13.342,-15.248 -4.326,-5.349 -10.134,-9.109 -15.646,-13.148 -3.22,-2.36 -6.755,-4.127 -10.329,-5.856 -3.107,-1.509 -5.562,0.694 -8.159,1.467 -11.815,3.505 -17.916,12.604 -22.103,23.416 -0.4,1.033 0.114,1.842 0.601,2.772 8.858,16.968 17.15,34.234 24.088,52.06 5.039,12.942 9.582,26.104 12.843,39.705 1.96,8.178 3.938,16.354 5.767,24.563 2.247,10.091 3.213,20.371 4.363,30.607 1.421,12.647 2.09,25.379 1.467,38.106 -0.681,13.91 -1.646,27.789 -4.055,41.568 -1.907,10.902 -3.736,21.812 -6.445,32.537 -1.975,7.824 -4.471,15.516 -6.958,24.035 -2.074,-2.215 -3.912,-3.947 -5.486,-5.896 -11.854,-14.655 -26.288,-26.5 -41.106,-37.938 -3.042,-2.349 -5.811,-5.058 -9.292,-6.803 -0.006,-0.228 -0.06,-0.443 -0.162,-0.648 0.044,-0.238 0.123,-0.463 0.234,-0.678 1.704,-1.578 3.418,-3.157 5.132,-4.735 z"
   id="path64"
   inkscape:connector-curvature="0"
   style="fill:#383e89" />
		</g><g
   id="g70"
   transform="translate(-15.012975,-15.004102)">
			<path
   d="m 272.429,535.636 c 9.348,2.288 17.462,6.923 25.747,11.189 8.306,4.276 16.318,9.187 25.609,11.293 9.573,2.17 18.572,0.845 27.126,-3.855 3.694,-2.028 4.496,-1.63 4.539,2.552 0.044,4.277 -1.884,8.003 -3.896,11.562 -7.102,12.561 -16.294,23.615 -25.406,34.715 -15.213,18.534 -31.189,36.447 -45.271,55.898 -4.044,5.586 -7.582,11.451 -10.209,17.825 -3.025,7.345 -1.569,11.382 4.914,15.82 16.274,11.141 33.729,19.917 52.308,26.455 2.425,0.854 2.237,1.584 0.858,3.261 -5.48,6.657 -11.271,13.024 -17.302,19.192 -1.92,1.963 -3.653,2.379 -6.271,1.49 -32.442,-11.006 -64.32,-23.402 -93.847,-40.95 -15.163,-9.012 -31.463,-14.398 -48.327,-18.674 -20.923,-5.303 -42.04,-9.879 -62.595,-16.574 -8.794,-2.865 -17.284,-6.453 -25.537,-10.634 -2.146,-1.088 -2.654,-1.859 -0.906,-4.002 7.829,-9.595 11.047,-20.525 8.774,-32.862 -0.905,-4.918 0.439,-8.818 4.793,-11.611 1.432,-0.918 2.132,-0.714 2.843,0.713 1.348,2.702 2.396,5.543 2.919,8.474 1.709,9.596 7.092,17.34 12.973,24.577 2.617,3.221 7.008,5.109 10.789,7.258 14.833,8.432 30.381,15.193 47.208,18.445 13.444,2.598 26.802,2.806 39.581,-3.416 2.619,-1.276 4.715,-3.293 7.295,-4.553 1.22,-0.597 0.937,-1.599 1.049,-2.547 1.222,-10.229 -3.911,-17.98 -10.037,-25.252 -2.482,-2.946 -5.324,-5.602 -8.124,-8.262 -1.152,-1.096 -1.484,-1.758 -0.028,-2.847 4.118,-3.078 6.81,-7.308 8.826,-11.913 3.416,-7.802 10.287,-9.555 17.686,-10.488 2.598,-0.328 1.898,1.807 2.014,3.083 0.859,9.591 1.904,19.153 4.358,28.491 0.664,2.521 1.54,5.013 2.569,7.409 1.823,4.245 4.731,6.3 9.8,6.369 22.38,0.304 43.688,-13.258 51.938,-33.979 5.604,-14.074 4.052,-28.151 -1.042,-42.065 -4.199,-11.471 -10.671,-21.644 -17.718,-31.587 z"
   id="path68"
   inkscape:connector-curvature="0"
   style="fill:#eeec3c" />
		</g><g
   id="g74"
   transform="translate(-15.012975,-15.004102)">
			<path
   d="m 518.858,791.834 c -0.768,8.477 -3.859,15.896 -8.111,22.912 -6.008,9.92 -13.885,18.252 -22.211,26.201 -8.145,7.772 -17.215,14.436 -25.907,21.551 -1.861,1.521 -3.095,1.99 -4.978,-0.438 -2.654,-3.426 -6.018,-6.305 -9.106,-9.389 -1.976,-1.971 -3.019,-3.363 0.364,-5.418 10.035,-6.098 19.677,-12.777 27.586,-21.639 5.697,-6.385 9.728,-13.58 10.773,-22.172 0.492,-4.047 2.262,-7.931 1.354,-12.177 -1.438,-6.737 -5.907,-11.19 -11.327,-14.676 -11.08,-7.125 -23.617,-10.625 -36.261,-13.672 -21.896,-5.275 -44.233,-7.836 -66.549,-10.479 -2.031,-0.239 -3.454,-0.86 -4.609,-2.606 -2.479,-3.744 -5.062,-7.428 -7.781,-11 -1.229,-1.613 -0.88,-2.68 0.065,-4.278 2.328,-3.937 4.783,-5.898 10.047,-4.922 19.319,3.587 38.976,4.062 58.54,5.325 14.826,0.957 29.658,1.832 44.099,5.895 20.215,5.689 33.367,18.675 40.354,38.253 1.511,4.231 3.025,8.452 3.658,12.729 z"
   id="path72"
   inkscape:connector-curvature="0"
   style="fill:#eeec3c" />
		</g><g
   id="g78"
   transform="translate(-15.012975,-15.004102)">
			<path
   d="m 374.266,756.152 c 0.407,-0.705 1.038,-0.525 1.64,-0.451 27.352,3.405 54.807,6.335 81.175,14.951 8.027,2.623 15.943,5.694 22.619,11.262 5.836,4.869 7.55,9.861 5.464,17.143 -0.367,1.283 -0.324,2.681 -0.494,4.021 -1.356,10.649 -7.345,18.656 -14.959,25.594 -7.308,6.656 -15.666,11.912 -23.9,17.33 -2.137,1.406 -2.697,0.006 -3.771,-1.211 -19.895,-22.596 -37.639,-46.859 -55.231,-71.236 -4.188,-5.801 -8.366,-11.606 -12.543,-17.403 z"
   id="path76"
   inkscape:connector-curvature="0"
   style="fill:#fefefe" />
		</g><g
   id="g82"
   transform="translate(-15.012975,-15.004102)">
			<path
   d="m 390.506,1217.604 c -7.188,-2.243 -13.286,-6.557 -19.188,-11.024 -23.688,-17.939 -44.495,-38.976 -64.613,-60.728 -16.879,-18.25 -33.032,-37.084 -48.091,-56.903 -10.146,-13.354 -12.371,-28.351 -11.692,-44.224 0.879,-20.565 8.993,-38.586 19.782,-55.789 13.055,-20.815 31.546,-36.078 50.915,-51.932 -0.665,8.098 -1.702,15.268 -2.875,22.459 -1.341,8.209 -4.954,14.572 -11.09,20.406 -12.077,11.481 -22.207,24.614 -29.626,39.737 -11.417,23.271 -10.882,46.091 1.597,68.787 8.804,16.013 20.639,29.697 32.695,43.209 21.961,24.613 45.578,47.638 68.684,71.146 4.63,4.713 9.611,9.08 14.43,13.606 -0.312,0.421 -0.619,0.834 -0.928,1.25 z"
   id="path80"
   inkscape:connector-curvature="0"
   style="fill:#eeec3c" />
		</g><g
   id="g86"
   transform="translate(-15.012975,-15.004102)">
			<path
   d="m 365.732,896.764 c -4.55,3.234 -9.149,6.404 -13.628,9.732 -2.075,1.543 -2.86,1.147 -3.361,-1.326 -7.739,-38.215 -22.335,-73.887 -40.314,-108.291 -1.208,-2.312 -1.55,-4.322 -0.549,-6.986 4.136,-11.004 12.375,-16.776 23.386,-19.372 2.23,-0.523 3.896,0.715 5.599,1.62 10.032,5.349 18.273,12.927 25.976,21.15 0.934,0.996 1.805,2.047 2.704,3.076 -0.943,0.901 -0.686,2.073 -0.687,3.172 -0.018,31.281 -0.031,62.561 -0.011,93.842 -0.003,1.16 -0.503,2.547 0.885,3.383 z"
   id="path84"
   inkscape:connector-curvature="0"
   style="fill:#eb9635" />
		</g><g
   id="g90"
   transform="translate(-15.012975,-15.004102)">
			<path
   d="m 365.732,896.764 c -1.388,-0.836 -0.888,-2.223 -0.888,-3.383 -0.021,-31.281 -0.007,-62.561 0.011,-93.842 0,-1.098 -0.257,-2.271 0.687,-3.172 17.833,21.031 30.002,45.106 38.396,71.24 0.824,2.561 0.297,3.805 -2.025,5.299 -12.149,7.815 -24.137,15.879 -36.181,23.858 z"
   id="path88"
   inkscape:connector-curvature="0"
   style="fill:#fefefe" />
		</g><g
   id="g94"
   transform="translate(-15.012975,-15.004102)">
			<path
   d="m 411.009,896.768 c 0.352,1.572 -0.729,2.234 -1.797,2.941 -17.783,11.773 -35.469,23.688 -52.774,36.154 -1.897,1.366 -2.547,1.321 -2.857,-1.267 -0.814,-6.811 -1.846,-13.604 -2.986,-20.369 -0.368,-2.184 0.286,-3.381 2.021,-4.651 16.408,-12.021 33.588,-22.896 50.506,-34.16 1.927,-1.281 2.782,-1.352 3.437,1.297 1.641,6.656 3.213,13.318 4.45,20.055 z"
   id="path92"
   inkscape:connector-curvature="0"
   style="fill:#eeec3c" />
		</g><g
   id="g98"
   transform="translate(-15.012975,-15.004102)">
			<path
   d="m 275.09,1027.113 c -1.794,-1.584 -0.221,-3.021 0.364,-4.31 5.938,-13.051 14.375,-24.405 24.057,-34.877 2.844,-3.076 5.935,-5.922 9.116,-8.735 -3.29,9.401 -7.758,18.155 -13.38,26.381 -2.959,4.33 -6.739,7.965 -9.703,12.262 -3.484,3.094 -6.97,6.187 -10.454,9.279 z"
   id="path96"
   inkscape:connector-curvature="0"
   style="fill:#eb9635" />
		</g><g
   id="g102"
   transform="translate(-15.012975,-15.004102)">
			<path
   d="m 275.09,1027.113 c 3.484,-3.095 6.971,-6.187 10.454,-9.279 0.08,1.264 0.088,2.512 -0.677,3.615 -1.713,1.576 -3.427,3.155 -5.142,4.733 -0.486,0.088 -0.771,0.242 -0.233,0.681 0.104,0.205 0.156,0.422 0.162,0.647 -0.642,0.974 -1.616,1.363 -2.708,1.553 -0.955,-0.196 -1.421,-0.93 -1.855,-1.696 z"
   id="path100"
   inkscape:connector-curvature="0"
   style="fill:#141517" />
		</g><g
   id="g106"
   transform="translate(-15.012975,-15.004102)">
			<path
   d="m 404.268,1024.797 c -0.264,0.5 -0.527,1 -0.791,1.498 -0.104,-0.106 -0.211,-0.215 -0.321,-0.315 -0.003,-0.623 0.161,-1.168 0.715,-1.529 0.128,0.115 0.261,0.233 0.397,0.346 z"
   id="path104"
   inkscape:connector-curvature="0"
   style="fill:#383e89" />
		</g><g
   id="g110"
   transform="translate(-15.012975,-15.004102)">
			<path
   d="m 403.477,1026.295 c -0.152,0.133 -0.4,0.406 -0.441,0.377 -0.422,-0.289 -0.125,-0.492 0.121,-0.69 0.109,0.098 0.216,0.206 0.32,0.313 z"
   id="path108"
   inkscape:connector-curvature="0"
   style="fill:#383e89" />
		</g><g
   id="g114"
   transform="translate(-15.012975,-15.004102)">
			<path
   d="m 821.877,672.209 c -0.88,-0.204 -1.654,-0.06 -2.507,0.336 -24.541,11.407 -49.821,12.449 -75.676,5.354 -11.356,-3.117 -22.096,-7.791 -32.656,-12.922 -0.411,-0.199 -0.846,-0.354 -1.812,-0.755 2.633,7.049 5.344,13.54 7.184,20.348 3.269,12.089 5.306,24.394 7.097,36.763 0.346,2.387 -0.435,2.973 -2.64,3.223 -11.867,1.349 -23.333,4.283 -34.167,9.38 -2.547,1.198 -2.745,0.126 -3.104,-2.011 -3.086,-18.36 -6.721,-36.621 -11.894,-54.514 -5.416,-18.74 -11.617,-37.224 -23.258,-53.239 -5.568,-7.664 -12.076,-14.34 -21.8,-16.725 -5.505,-1.352 -10.884,-0.899 -16.222,0.851 -0.877,0.288 -1.582,0.615 -2.054,1.447 -8.207,14.479 -3.382,27.472 9.844,32.96 3.941,1.636 8.033,2.783 12.296,3.052 2.416,0.152 2.521,0.963 1.74,3.023 -4.529,11.938 -19.621,17.975 -31.562,12.485 -9.048,-4.159 -15.525,-11.188 -19.354,-20.033 -2.996,-6.917 -2.224,-14.747 -1.625,-22.224 0.829,-10.341 3.516,-20.229 9.291,-28.938 9.01,-13.587 21.711,-18.634 37.993,-17.142 21.987,2.018 41.395,10.45 60.161,21.289 23.742,13.711 48.896,23.815 76.179,27.831 32.385,4.766 64.307,2.375 95.59,-7.279 6.524,-2.016 12.629,-4.865 18.033,-9.614 12.004,-10.546 24.725,-20.25 37.731,-29.569 16.443,-11.778 34.844,-16.375 54.769,-15.463 8.157,0.373 14.67,4.652 20.235,10.292 11.826,11.985 16.972,27.046 19.685,43.236 0.768,4.58 0.213,8.848 -1.183,13.214 -5.52,17.293 -11.608,34.323 -22.213,49.302 -4.748,6.706 -10.434,12.439 -18.246,15.613 -4.141,1.684 -8.401,2.149 -12.86,1.517 -2.455,-0.35 -3.418,-1.383 -3.363,-3.869 0.172,-7.622 2.318,-14.773 5.02,-21.789 4.757,-12.354 10.888,-24.104 15.998,-36.302 2.267,-5.401 4.354,-10.909 5.056,-16.796 0.328,-2.753 0.227,-5.46 -1.127,-8.014 -2.273,-4.291 -4.093,-5.292 -8.859,-4.7 -15.479,1.921 -29.199,8.496 -42.199,16.571 -25.674,15.947 -47.434,36.1 -64.321,61.322 -9.212,13.758 -14.798,28.63 -15.734,45.365 -1.549,27.641 2.162,54.404 12.725,79.992 7.219,17.488 17.039,33.336 32.523,44.967 9.555,7.178 20.129,10.85 32.201,9.617 4.25,-0.435 4.489,-0.139 3.229,4.109 -2.414,8.135 -8.049,14.034 -14.178,19.405 -8.428,7.39 -18.062,12.879 -28.531,16.902 -1.662,0.639 -2.795,0.82 -4.074,-0.967 -5.813,-8.125 -11.59,-16.269 -17,-24.67 -1.194,-1.855 -1.789,-3.72 -1.811,-5.947 -0.316,-30.824 -9.135,-59.254 -24.141,-85.982 -4.267,-7.602 -10.242,-13.729 -16.107,-19.971 -1.74,-1.854 -2.633,-3.756 -2.916,-6.229 -2.91,-25.413 -1.557,-50.628 3.344,-75.693 0.549,-2.801 0.89,-5.646 1.32,-8.465 -0.002,0.002 -0.004,-0.104 -0.004,-0.104 z"
   id="path112"
   inkscape:connector-curvature="0"
   style="fill:#eeec3c" />
		</g><g
   id="g118"
   transform="translate(-15.012975,-15.004102)">
			<path
   d="m 793.844,933.865 c 0.805,-6.494 0.994,-12.209 1.004,-17.939 0.016,-8.545 -1.805,-16.656 -6.437,-23.803 -2.85,-4.396 -6.161,-9.365 -12.055,-9.578 -15.447,-0.553 -22.965,6.896 -22.463,23.611 0.104,3.586 1.051,7.141 1.258,10.729 0.117,2.041 1.58,3.062 2.492,4.467 2.844,4.386 5.758,8.736 9.859,12.117 9.528,7.855 20.491,8.064 30.823,2.013 12.363,-7.244 19.371,-18.732 24.043,-31.632 6.521,-18 7.369,-36.889 5.908,-55.717 -1.047,-13.475 -5.67,-26.146 -12.68,-37.867 -12.502,-20.907 -30.406,-35.223 -53.008,-43.868 -8.89,-3.4 -18.152,-5.613 -27.623,-5.799 -5.467,-0.105 -11.037,1.28 -16.438,2.532 -8.063,1.871 -16.054,4.176 -23.502,7.889 -8.013,3.996 -15.927,8.474 -21.955,15.091 -6.812,7.477 -12.312,15.916 -15.698,25.766 -2.149,6.258 -4.118,12.473 -4.977,18.988 -1.461,11.096 -2.979,22.17 -1.723,33.463 0.744,6.678 1.276,13.293 3.192,19.815 2.193,7.468 5.54,14.361 9.259,21.084 5.778,10.449 13.286,19.65 20.819,28.898 7.133,8.76 15.177,16.604 22.842,24.82 2.681,2.871 5.771,5.432 8.665,8.141 1.828,1.711 2.287,3.602 2.271,5.998 -0.06,7.613 -4.39,14.139 -12.313,15.393 -2.225,0.353 -4.33,0.312 -6.166,-0.771 -10.128,-5.975 -19.744,-12.633 -28.686,-20.35 -7.553,-6.521 -14.062,-14 -19.962,-21.843 -5.37,-7.135 -10.497,-14.534 -14.669,-22.651 -4.853,-9.441 -7.836,-19.457 -10.711,-29.418 -2.59,-8.978 -4.726,-18.265 -5.287,-27.773 -0.435,-7.311 -1.289,-14.586 -0.746,-21.936 0.773,-10.47 2.081,-20.72 4.781,-31.021 3.84,-14.658 10.303,-27.817 18.842,-39.955 6.277,-8.922 14.031,-16.735 23.231,-22.91 3.601,-2.416 6.914,-5.24 10.826,-7.21 10.689,-5.382 21.131,-11.193 33.296,-13.013 7.619,-1.139 15.138,-3.113 22.902,-2.623 10.414,0.658 20.756,1.441 30.918,4.494 19.543,5.869 36.266,16.027 51.141,29.947 13.353,12.49 22.756,27.379 29.599,44.035 5.916,14.401 10.35,29.399 11.951,44.844 2.737,26.402 0.241,52.127 -12.875,76.065 -9.074,16.562 -21.552,29.695 -38.074,38.556 -8.523,4.569 -17.594,8.521 -27.703,8.674 -16.146,0.244 -28.463,-7.162 -38.066,-19.43 -3.299,-4.216 -4.077,-9.865 -5.713,-14.943 -4.42,-13.729 -7.217,-27.799 -6.088,-42.281 1.224,-15.637 5.926,-29.856 18.187,-40.729 12.883,-11.424 26.916,-11.488 42.057,-5.312 16.875,6.883 26.121,20.285 32.34,36.478 2.689,7.004 -0.459,13.215 -3.037,19.344 -2.457,5.838 -5.594,11.312 -9.731,16.271 -3.767,4.517 -8.259,7.763 -14.12,10.849 z"
   id="path116"
   inkscape:connector-curvature="0"
   style="fill:#383e89" />
		</g><g
   id="g122"
   transform="translate(-15.012975,-15.004102)">
			<path
   d="m 712.927,1099.625 c 0.012,-34.498 0.024,-68.994 0.022,-103.49 0,-2.246 -0.114,-4.492 -0.18,-6.737 6.568,-4.912 7.926,-11.992 8.09,-19.548 0.033,-1.516 -1.146,-2.395 -2.065,-3.413 -2.07,-2.298 -4.781,-4.027 -6.164,-6.935 0.104,-1.479 0.297,-2.963 0.301,-4.445 0.027,-15.039 0.045,-30.075 0.016,-45.116 -0.01,-4.841 -0.168,-9.681 -0.258,-14.521 1.816,-6.604 4.672,-12.871 6.258,-19.568 3.688,-15.569 6.367,-31.297 8.045,-47.209 2.101,-19.901 2.865,-39.86 2.41,-59.856 -0.084,-3.652 1.049,-4.756 4.611,-4.704 14.703,0.214 28.244,4.634 41.012,11.458 19.058,10.188 33.56,24.932 42.691,44.646 6.026,13.014 8.75,26.811 8.436,41.114 -0.176,8.099 -0.457,16.234 -2.537,25.08 -1.608,-3.426 -2.858,-6.276 -4.268,-9.051 -8.107,-15.971 -19.994,-27.406 -37.744,-32.23 -17.748,-4.825 -31.545,1.263 -42.672,14.851 -12.344,15.078 -14.781,32.875 -13.254,51.545 1.19,14.547 4.938,28.529 10.733,41.889 2.404,5.543 7.058,9.582 11.722,13.271 11.317,8.946 24.164,12.059 38.377,9.235 4.844,-0.961 4.672,-0.979 4.137,4.011 -1.906,17.786 -4.914,35.356 -10.209,52.471 -5.74,18.553 -13.582,36.024 -27.693,49.883 -8.563,8.41 -18.19,15.234 -30.481,17.205 -3.111,0.496 -6.216,0.51 -9.336,0.164 z"
   id="path120"
   inkscape:connector-curvature="0"
   style="fill:#eb9635" />
		</g><g
   id="g126"
   transform="translate(-15.012975,-15.004102)">
			<path
   d="m 641.009,1052.768 c 0.075,-5.541 2.06,-9.721 5.045,-13.184 3.842,-4.459 10.448,-3.922 14.434,0.709 3.07,3.568 5.154,7.516 6.464,12.172 1.284,4.564 3.79,8.82 6.013,13.08 4.938,9.469 10.47,18.445 18.135,26.147 9.431,9.478 20.211,13.341 33.35,10.712 9.164,-1.834 16.683,-6.746 23.953,-12.271 12.318,-9.356 20.027,-22.154 26.631,-35.711 5.17,-10.615 8.683,-21.867 11.488,-33.322 3.02,-12.315 5.164,-24.785 6.143,-37.444 0.229,-2.974 1.453,-5.798 1.437,-8.834 -0.006,-1.146 0.879,-1.609 1.922,-1.978 9.66,-3.393 18.303,-8.555 26.084,-15.178 0.857,-0.73 1.58,-1.861 2.822,-1.076 0.979,0.621 0.586,1.807 0.51,2.771 -0.955,12.151 -1.648,24.334 -2.977,36.446 -1.191,10.875 -2.927,21.699 -4.714,32.498 -1.791,10.812 -4.223,21.521 -7.334,32.019 -2.856,9.635 -7.243,18.682 -12.229,27.438 -7.228,12.697 -15.781,24.349 -25.854,34.959 -6.284,6.623 -12.961,12.785 -20.422,17.959 -9.854,6.83 -20.379,12.584 -32.766,12.855 -4.56,0.1 -9.191,-1.06 -13.72,-1.988 -7.396,-1.521 -14.25,-4.734 -19.664,-9.816 -4.84,-4.545 -10.072,-8.668 -13.896,-14.606 -2.408,-3.742 -6,-7.273 -8.607,-11.209 -4.442,-6.705 -7.938,-13.943 -11.264,-21.267 -3.848,-8.479 -6.379,-17.387 -8.534,-26.381 -1.275,-5.303 -1.734,-10.799 -2.45,-15.5 z"
   id="path124"
   inkscape:connector-curvature="0"
   style="fill:#383e89" />
		</g><g
   id="g130"
   transform="translate(-15.012975,-15.004102)">
			<path
   d="m 726.756,791.127 c -0.988,29.957 -3.599,60.424 -12.222,90.01 -5.19,17.816 -14.94,33.054 -28.304,45.982 -2.042,1.977 -3.226,1.904 -4.924,-0.349 -5.785,-7.67 -11.79,-15.178 -16.297,-23.725 -0.65,-1.234 -1.314,-2.285 -0.16,-3.719 12.062,-14.969 18.369,-32.502 22,-51.051 4.359,-22.271 6.232,-44.754 3.585,-67.41 -0.358,-3.064 0.585,-4.426 3.19,-5.703 9.488,-4.646 19.513,-7.525 29.796,-9.706 2.69,-0.571 3.455,0.106 3.393,2.858 -0.169,7.37 -0.057,14.743 -0.057,22.813 z"
   id="path128"
   inkscape:connector-curvature="0"
   style="fill:#eeec3c" />
		</g><g
   id="g134"
   transform="translate(-15.012975,-15.004102)">
			<path
   d="m 714.418,669.975 c 8.084,3.856 15.459,6.841 23.049,9.302 25.143,8.15 50.209,8.695 75.225,-0.498 0.703,-0.258 1.385,-0.572 2.094,-0.814 1.021,-0.349 2.142,-1.402 3.103,-0.589 0.93,0.788 0.264,2.153 0.053,3.193 -3.709,18.185 -5.164,36.565 -4.746,55.097 0.15,6.594 0.676,13.18 1.064,20.439 -4.488,-3.449 -8.49,-6.714 -12.685,-9.712 -21.477,-15.358 -45.332,-23.215 -71.854,-22.442 -1.967,0.057 -3.252,-0.062 -3.584,-2.51 -2.331,-17.162 -5.172,-34.22 -11.719,-51.466 z"
   id="path132"
   inkscape:connector-curvature="0"
   style="fill:#eb9635" />
		</g><g
   id="g138"
   transform="translate(-15.012975,-15.004102)">
			<path
   d="m 662.739,898.662 c -5.278,-10.605 -8.393,-20.836 -9.012,-31.685 -1.043,-18.315 -0.187,-36.461 6.184,-53.94 4.88,-13.398 13.05,-24.312 24.741,-32.531 0.608,-0.428 1.266,-0.793 1.927,-1.135 0.193,-0.101 0.48,-0.017 1.742,-0.017 1.709,41.681 -0.159,82.412 -25.582,119.308 z"
   id="path136"
   inkscape:connector-curvature="0"
   style="fill:#fefefe" />
		</g><g
   id="g142"
   transform="translate(-15.012975,-15.004102)">
			<path
   d="m 792.316,920.408 c -0.354,3.651 -0.953,7.612 -1.055,11.588 -0.082,3.227 -1.931,3.885 -4.506,4.205 -8.084,1.004 -14.605,-2.002 -20.181,-7.629 -9.737,-9.824 -12.198,-21.474 -7.963,-34.365 2.617,-7.967 16.281,-11.266 22.748,-5.893 7.234,6.01 9.519,14.325 10.494,23.174 0.315,2.844 0.307,5.725 0.463,8.92 z"
   id="path140"
   inkscape:connector-curvature="0"
   style="fill:#eb9635" />
		</g><g
   id="g146"
   transform="translate(-15.012975,-15.004102)">
			<path
   d="m 712.648,959.41 c -3.241,-1.299 -5.167,-4.162 -7.444,-6.521 -6.154,-6.369 -12.079,-12.959 -18.114,-19.442 -1.121,-1.205 -1.738,-1.988 -0.029,-3.527 10.132,-9.121 17.711,-20.186 23.927,-32.244 0.416,-0.807 0.349,-2.086 1.715,-2.172 -0.094,5.846 -0.274,11.693 -0.264,17.539 0.024,15.455 0.133,30.912 0.209,46.367 z"
   id="path144"
   inkscape:connector-curvature="0"
   style="fill:#fefefe" />
		</g><g
   id="g150"
   transform="translate(-15.012975,-15.004102)">
			<path
   d="m 637.112,949.189 c -14.774,-0.201 -26.418,-4.927 -34.327,-17 -0.655,-1.003 -1.903,-2.093 -1.273,-3.287 0.548,-1.039 2.053,-0.459 3.119,-0.492 8.787,-0.271 17.377,-1.703 25.715,-4.469 1.744,-0.578 2.643,-0.4 3.526,1.289 3.712,7.086 8.128,13.743 12.886,20.159 1.774,2.396 0.645,2.953 -1.502,3.16 -2.982,0.287 -5.972,0.472 -8.144,0.64 z"
   id="path148"
   inkscape:connector-curvature="0"
   style="fill:#eeec3c" />
		</g><g
   id="g154"
   transform="translate(-15.012975,-15.004102)">
			<path
   d="m 712.648,959.41 c -0.076,-15.455 -0.186,-30.912 -0.211,-46.367 -0.012,-5.846 0.17,-11.693 0.264,-17.539 l -0.012,-0.082 c 0.09,4.838 0.248,9.678 0.258,14.519 0.029,15.041 0.012,30.077 -0.016,45.116 -0.004,1.482 -0.195,2.966 -0.301,4.445 10e-4,-0.002 0.018,-0.092 0.018,-0.092 z"
   id="path152"
   inkscape:connector-curvature="0"
   style="fill:#383e89" />
		</g><g
   id="g158"
   transform="translate(-15.012975,-15.004102)">
			<path
   d="m 599.949,129.15 c -6.12,0 -12.243,-0.07 -18.361,0.039 -2.078,0.037 -2.785,-0.566 -2.769,-2.731 0.095,-12.493 0.092,-24.987 0.001,-37.479 -0.015,-2.072 0.776,-2.534 2.628,-2.51 13.485,0.175 27.004,-0.545 40.441,0.959 8.188,0.917 15.739,3.866 19.818,11.562 5.501,10.375 0.346,22.244 -11.046,26.807 -7.725,3.094 -15.93,2.542 -23.971,3.203 -2.234,0.184 -4.494,0.028 -6.743,0.028 0.002,0.04 0.002,0.081 0.002,0.122 z"
   id="path156"
   inkscape:connector-curvature="0"
   style="fill:#fefefe" />
		</g><g
   id="g162"
   transform="translate(-15.012975,-15.004102)">
			<path
   d="m 430.434,129.126 c -8.523,0 -14.644,-0.084 -20.758,0.042 -2.281,0.047 -3.285,-0.361 -3.254,-3.012 0.145,-12.359 0.094,-24.721 0.018,-37.081 -0.012,-1.887 0.412,-2.628 2.459,-2.612 13.67,0.101 27.381,-0.604 40.982,1.003 8.807,1.041 16.746,4.36 20.43,13.378 3.375,8.263 0.111,17.595 -7.326,22.601 -4.938,3.323 -10.543,4.401 -16.254,4.89 -6.213,0.531 -12.463,0.619 -16.297,0.791 z"
   id="path160"
   inkscape:connector-curvature="0"
   style="fill:#fefefe" />
		</g><g
   id="g166"
   transform="translate(-15.012975,-15.004102)">
			<path
   d="m 279.491,1026.863 c -0.538,-0.438 -0.253,-0.593 0.233,-0.681 -0.11,0.218 -0.189,0.443 -0.233,0.681 z"
   id="path164"
   inkscape:connector-curvature="0"
   style="fill:#191a1a" />
		</g><g
   id="g170"
   transform="translate(-15.012975,-15.004102)">
			<polygon
   points="821.877,672.209 821.922,672.052 821.926,672.155 "
   id="polygon168"
   style="fill:#191a1a" />
		</g>
</svg>