<svg xmlns="http://www.w3.org/2000/svg" viewBox="0 0 367 106" class="h-12 fill-current stroke-current text-white"><g id="layer1" transform="translate(-47.187951,-624.93363)"><g id="g4451" transform="translate(4,0)"><path id="path3014" d="m 373.96875,645.6875 c -3.85929,8e-5 -7.87518,1.52622 -12.03125,4.59375 -4.15614,3.06767 -7.64856,6.745 -10.46875,11 -2e-5,-3.71075 -0.12763,-6.39843 -0.375,-8.03125 -0.19793,-1.63269 -0.69015,-3.80992 -1.53125,-6.53125 l -13.15625,0 c 0.98954,1.68231 1.78126,4.89346 2.375,9.59375 0.6432,4.65095 0.96874,8.87779 0.96875,12.6875 l 0,53.125 11.71875,0 0,-37.6875 c -2e-5,-3.06756 1.11724,-6.75791 3.34375,-11.0625 2.22646,-4.35397 5.12509,-8.18495 8.6875,-11.5 3.56234,-3.36441 6.94017,-5.06243 10.15625,-5.0625 2.57278,7e-5 4.79428,0.63813 6.625,1.875 1.83061,1.18752 3.21612,2.78398 4.15625,4.8125 0.94002,1.97916 1.60412,4.01575 2,6.09375 0.44524,2.07811 0.65619,4.25533 0.65625,6.53125 l 0,46 11.8125,0 0,-46 c -7e-5,-4.0571 -0.51052,-7.87507 -1.5,-11.4375 -0.98962,-3.6118 -2.45847,-6.84899 -4.4375,-9.71875 -1.97916,-2.86962 -4.60954,-5.11717 -7.875,-6.75 -3.26557,-1.68216 -6.96894,-2.53117 -11.125,-2.53125 z m -192.4375,1.03125 36,76.53125 35.53125,-76.53125 -12.6875,0 -23.15625,47.65625 -23.09375,-47.65625 -12.59375,0 z m 74.8125,0 35.96875,76.53125 35.5625,-76.53125 -12.6875,0 -23.15625,47.65625 -23.09375,-47.65625 -12.59375,0 z" transform="translate(11.300508,-2.4031464)" style="font: bold 151.995px/125% Sawasdee; letter-spacing: 0px; word-spacing: 0px; fill-opacity: 1; stroke: none;"></path></g> <g id="g3120" transform="matrix(0.71871112,-0.21936197,0.21936197,0.71871112,-76.440276,233.71788)" style="stroke-width: 3.54331; stroke-opacity: 1;"><path id="path3055-79" d="m 112.99269,82.40353 c 3.76919,3.769196 3.76919,9.880271 0,13.649468 -3.7692,3.769196 -9.88027,3.769196 -13.64947,0 -3.769197,-3.769196 -3.769197,-9.880271 -10e-7,-13.649468 3.769191,-3.769195 9.880271,-3.769197 13.649461,-3e-6" transform="translate(16.39031,592.79771)" style="fill-opacity: 0; stroke-width: 3.54331; stroke-miterlimit: 4; stroke-opacity: 1; stroke-dasharray: none; stroke-dashoffset: 0;"></path> <path id="path3055" d="m 110.99377,80.869706 c 4.6163,2.665225 6.19797,8.56807 3.53274,13.184374 -2.66522,4.616304 -8.56807,6.19797 -13.18437,3.532742 -4.616307,-2.665225 -6.197969,-8.56807 -3.532744,-13.184374 2.665224,-4.616304 8.568064,-6.197966 13.184374,-3.532742" transform="translate(31.67207,581.00126)" style="fill-opacity: 0; stroke-width: 3.54331; stroke-miterlimit: 4; stroke-opacity: 1; stroke-dasharray: none; stroke-dashoffset: 0;"></path> <path id="path3055-72" d="m 112.99269,82.40353 c 3.76919,3.769196 3.76919,9.880271 0,13.649468 -3.7692,3.769196 -9.88027,3.769196 -13.64947,0 -3.769197,-3.769196 -3.769197,-9.880271 -10e-7,-13.649468 3.769191,-3.769195 9.880271,-3.769197 13.649461,-3e-6" transform="translate(18.535117,579.12456)" style="fill-opacity: 1; stroke-width: 3.54331; stroke-miterlimit: 4; stroke-opacity: 1; stroke-dasharray: none; stroke-dashoffset: 0;"></path> <path id="path3055-1" d="m 112.99269,82.40353 c 3.76919,3.769196 3.76919,9.880271 0,13.649468 -3.7692,3.769196 -9.88027,3.769196 -13.64947,0 -3.769197,-3.769196 -3.769197,-9.880271 -10e-7,-13.649468 3.769191,-3.769195 9.880271,-3.769197 13.649461,-3e-6" transform="translate(30.599655,594.94251)" style="fill-opacity: 1; stroke-width: 3.54331; stroke-miterlimit: 4; stroke-opacity: 1; stroke-dasharray: none; stroke-dashoffset: 0;"></path> <flowroot xml:space="preserve" id="flowRoot3003" transform="matrix(1.272809,0.38848137,-0.38848137,1.272809,5.3750844,545.97018)" style="font: 12px/125% Sawasdee; letter-spacing: 0px; word-spacing: 0px; fill-opacity: 1; stroke: none;"><flowregion id="flowRegion3005"><rect id="rect3007" width="474.53851" height="26.810085" x="-40.21513" y="113.06553"></rect></flowregion><flowpara id="flowPara3009"></flowpara></flowroot></g> <g id="g3139" transform="matrix(0.88531343,0.02526077,-0.02526077,0.88531343,57.474066,62.016287)"></g> <path id="path3016" transform="translate(31.788854,619.87502)" d="m 170.66573,41.894716 -1.84836,-3.981094 C 144.98484,33.059999 120.64157,29.942901 95.54627,29.382705 93.468488,18.591646 86.824569,11.567212 78.484436,7.6762605 68.830374,3.1723165 56.272516,4.5893523 48.436651,11.088627 41.496122,16.845286 36.202267,25.222039 36.872519,35.543922 27.067964,38.482749 16.702014,44.554226 15.545226,52.41618 c -1.845388,12.541927 14.198265,22.977145 24.929235,28.720754 17.283171,9.250588 49.995348,19.165746 76.209529,23.696996 41.05618,7.09677 91.53663,12.18562 130.99696,-3.12801 6.02295,-2.337365 12.33781,-8.421608 12.41723,-14.881708 0.12247,-9.962009 -10.15699,-18.089495 -18.57844,-23.412628 -5.71312,-3.611217 -16.77747,-8.625705 -16.77747,-8.625705 l -1.32703,3.412367 c 14.20935,5.913396 32.22213,16.824037 33.081,26.635419 1.57726,18.017975 -39.97373,22.397285 -61.99133,22.843895 C 146.50257,108.65124 89.773416,97.849332 56.304052,84.454513 41.101651,78.37034 18.313823,66.361417 18.910199,53.553636 19.185254,47.646565 28.18451,41.99514 37.156883,39.240653 c 1.214466,9.668372 8.224102,17.806487 16.019166,21.65905 10.127227,5.00519 22.641268,3.515872 30.92289,-2.801995 7.37423,-5.625637 12.006385,-14.293761 11.731694,-25.207849 28.227147,0.540035 51.544907,4.762104 74.835097,9.004857 z M 75.961966,11.105676 C 70.465707,8.8424368 64.170944,8.6369641 58.53275,10.487705 c 0.963804,1.112317 5.204194,3.981016 2.583243,4.547703 -1.847007,1.943401 -6.67787,3.554832 -8.862014,1.254478 -2.826707,0.331661 -7.074704,2.783965 -6.807872,5.661913 3.207042,2.000246 3.153754,4.273415 2.341356,4.578696 -3.215434,0.931544 -5.679509,5.594434 -6.120983,7.729549 3.515924,-0.992887 4.801727,-1.793345 5.277494,0.339172 0.475766,2.132517 -1.479018,1.878291 -5.706678,3.390832 0.203678,10.327827 11.192704,20.735744 22.5427,21.715358 9.034722,1.01502 18.400528,-3.28121 23.497066,-10.773962 2.204402,-5.879379 -5.687993,4.316783 -4.142347,-1.564424 1.171425,-3.510987 -2.896616,-2.792204 -4.280907,-4.869891 -2.672889,0.426966 -5.377345,-5.722733 -6.711056,-0.825879 0.248043,2.600836 7.780265,0.249994 3.132658,3.366683 -3.086133,2.248681 -10.66732,6.899308 -11.702096,10.637855 -2.279785,5.090527 -5.676705,-1.342207 -6.710058,-3.856424 0.343261,-3.922886 3.876645,-9.428812 1.451934,-12.546123 -3.393242,-1.747023 -6.224733,-3.420992 -5.773712,-7.893379 0.47512,-3.12918 4.045166,-6.465465 7.308114,-5.729899 5.609004,-0.712737 4.405695,5.886684 8.429466,7.876096 1.878201,-0.733801 5.535583,0.428382 6.508995,-0.917161 -2.454908,-1.702909 4.431506,-0.667114 1.251456,-3.35557 -2.121837,-0.692586 -4.273704,0.570892 -3.930387,2.625708 -4.320921,-0.893793 -1.410552,-7.488773 -6.116449,-7.160768 -1.608959,3.208495 -6.619268,-1.765965 -2.276064,-0.563754 1.667318,0.03676 -1.165377,-3.397709 0.658083,-2.170826 0.992671,0.394336 4.79467,0.778385 4.268124,-0.393073 2.337268,-0.284136 2.08996,4.199344 5.156867,2.246404 2.274673,-1.540165 0.63582,-2.765228 -1.474883,-2.426374 -0.58168,-1.90447 5.843188,-3.093421 7.905422,-1.906631 0.584169,2.023695 2.991839,3.273513 3.625656,0.620647 2.107517,-1.633413 6.201604,4.533405 3.685258,0.453089 C 84.75479,16.352218 80.66494,13.001763 75.961979,11.105623 z" style="fill-opacity: 1; fill-rule: evenodd; stroke: none;"></path> <path d="m 191.02186,46.942517 -1.94373,-4.289613 c 6.73747,1.939732 13.48321,3.920853 20.30864,6.30037 l -1.57509,3.183698 c -6.03677,-2.058606 -11.27347,-3.758252 -16.78982,-5.194455 z" id="path3791" transform="translate(31.788854,619.87502)" style="fill-opacity: 1; stroke: none;"></path></g></svg>