<svg xmlns="http://www.w3.org/2000/svg" width="899.6" height="557.83"><path fill="#ff7f00" d="M2.677 74.638h199.678L-1.254 318.512v58.613h329.984v-74.642H119.192L324.805 58.61V0H2.677zm762.105 420.336h51.069V329.982h-51.069zm-90.235-129.636c11.471 0 20.189 4.045 26.203 12.1 6.01 8.014 9.035 19.681 9.035 35.04 0 15.362-3.025 27.066-9.035 35.121-6.014 8.011-14.732 12.02-26.203 12.02-11.432 0-20.191-4.046-26.323-12.139-6.088-8.13-9.15-19.76-9.15-35.002 0-15.24 3.062-26.87 9.15-35.001 6.132-8.093 14.892-12.14 26.323-12.14m-35.472 106.066c7.382 9.429 15.517 16.341 24.435 20.819 8.917 4.442 19.17 6.68 30.798 6.68 20.584 0 37.477-8.05 50.637-24.195 13.24-16.11 19.838-36.85 19.838-62.228 0-25.377-6.597-46.119-19.838-62.222-13.158-16.148-30.053-24.2-50.637-24.2-11.628 0-21.881 2.24-30.798 6.678-8.918 4.48-17.053 11.392-24.435 20.82v-23.57h-51.07v227.848h51.07zm-259.393 23.571h57.08l27.421-113.452 27.578 113.452h57.08l43.096-164.991h-50.834l-27.537 112.586-27.46-112.586h-43.683l-27.577 113.726-27.421-113.729H336.59zM882.633 90.35c-16.735-4.045-32.252-7.03-46.512-8.916-14.26-1.926-27.852-2.867-40.777-2.867-32.958 0-57.432 5.696-73.422 17.048-15.948 11.352-23.923 28.794-23.923 52.327 0 21.762 6.56 37.987 19.643 48.71 13.081 10.686 35.944 18.032 68.512 22l11.667 1.533c13.435 1.65 22.43 4.008 26.95 7.032 4.516 3.023 6.796 7.62 6.796 13.75 0 7.383-3.496 12.923-10.447 16.655-6.953 3.73-17.285 5.578-31.034 5.578a208.292 208.292 0 0 1-45.02-4.91c-14.732-3.26-29.109-8.172-43.135-14.732v54.997c16.381 3.93 32.33 6.875 47.888 8.84 15.557 1.962 30.563 2.944 45.098 2.944 34.334 0 60.144-5.855 77.467-17.599 17.324-11.786 25.967-29.382 25.967-52.76 0-22.313-6.128-38.732-18.424-49.142-12.216-10.449-36.101-17.951-71.575-22.549l-11.668-1.691c-11.98-1.491-20.31-3.771-24.945-6.834-4.635-3.065-6.952-7.465-6.952-13.201 0-7.11 3.102-12.373 9.349-15.753 6.207-3.417 15.712-5.106 28.517-5.106 11.945 0 24.671 1.649 38.106 4.909 13.474 3.261 27.42 8.171 41.877 14.731zM478.011 221.088c0 29.07 6.56 51.185 19.72 66.427 13.16 15.203 32.291 22.825 57.432 22.825 14.101 0 27.065-3.18 38.813-9.585 11.745-6.365 22.823-16.265 33.311-29.698v35.356h70.71V86.423h-70.71v108.895c0 20.075-4.125 35.787-12.334 47.06-8.171 11.276-19.487 16.894-33.902 16.894-5.893 0-11.119-1.257-15.713-3.73-4.517-2.515-8.21-6.052-11.039-10.648-2.16-3.535-3.692-9.232-4.596-16.97-.906-7.817-1.336-20.585-1.336-38.304 0-6.087.04-18.108.157-36.178.118-18.032.197-33.04.197-44.98v-22.04h-70.71zm-160.279-52.17c2.12-13.944 7.542-24.631 16.264-32.056 8.724-7.424 20.076-11.157 34.02-11.157 12.846 0 23.256 3.968 31.231 11.903 7.974 7.937 11.981 18.385 11.981 31.31zm164.207 23.256c0-34.49-10.37-62.067-31.113-82.652-20.703-20.663-48.318-30.955-82.81-30.955-37.948 0-67.727 10.29-89.372 30.955-21.606 20.585-32.41 48.908-32.41 84.93 0 36.65 10.962 65.132 32.84 85.442 21.883 20.31 52.564 30.444 92.083 30.444 16.46 0 32.958-1.648 49.456-4.989 16.538-3.3 33.04-8.17 49.538-14.652V235.7c-16.304 9.23-32.135 16.147-47.574 20.703-15.44 4.516-30.524 6.797-45.215 6.797-18.268 0-32.488-4.243-42.663-12.767-10.175-8.525-16.066-21.291-17.756-38.303h164.994v-19.956z"/></svg>