<svg xmlns="http://www.w3.org/2000/svg" width="503.772" height="184.394">
    <path fill="#fff"
        d="M193.938 184.385c-2.793-.047-8.162-.209-12.696-.385-12.096-.482-13.492-.482-25.636 0-8.018.32-8.427.328-13.042.354l-4.35.023v-7.368l3.138-.008c8.66 0 13.114-.387 16.236-1.38 1.196-.378 1.22-.394 1.413-1.013 1.051-3.418 1.5-12.473 1.589-32.344l.048-10.018-1.067-2.84c-4.294-11.39-8.267-21.068-15.273-37.165-6.083-13.974-9.968-21.71-13.805-27.498-2.648-3.996-4.655-6.1-6.79-7.123-1.95-.93-4.085-1.199-9.607-1.199l-3.129-.004v-7.44l5.111.003c17.922 0 23.484.96 27.232 4.683 1.484 1.465 2.127 2.488 4.592 7.32 4.67 9.162 7.552 15.33 13.258 28.388 3.307 7.564 8.557 20.587 14.318 35.546l1.413 3.686.072 10.875c.136 22.295.569 31.494 1.661 35.242.121.408.152.45.546.617.883.393 2.665.818 4.542 1.092 2.689.385 6.622.57 12.514.57l3.13.008v7.352l-2.159.023c-1.187.011-2.656.02-3.259.003zM90.187 146.094c-1.053-2.785-1.541-4.889-2.151-9.246-.072-.52-.298-3.074-.401-4.559-.088-1.205-.104-2.986-.08-7.369.016-3.178.048-6.092.072-6.469.039-.738.232-7.72.369-13.227.256-10.89.297-23.893.088-26.077-.778-7.904-2.85-13.01-6.686-16.444-2.825-2.524-6.557-4.017-11.565-4.603-1.404-.165-6.63-.14-8.163.048-3.17.37-5.963 1.022-8.482 1.966-3.732 1.408-6.693 3.26-9.189 5.764-2.529 2.535-4.078 5.31-4.703 8.422l-.193.924.008 16.98c0 16.328.049 20.646.281 26.601.08 2.055.209 4.672.281 5.627l.128 1.66c.241 3.316.675 6.11 1.172 7.658.12.37.136.385.755.617 1.524.586 3.988 1.035 6.966 1.268 1.798.137 6.101.281 8.628.281h1.718v7.465l-3.331-.057c-3.949-.064-6.517-.145-12.681-.418-10.337-.44-13.491-.44-24.624 0-6.132.25-9.591.354-14.543.418l-3.86.057V135.941l5.161-.049c6.003-.049 8.09-.168 10.754-.627 1.565-.264 3.772-.898 4.045-1.154.153-.152.547-1.814.73-3.123.691-4.816 1.027-12.439 1.236-27.416.113-8.553.057-65.34-.08-70.124-.16-6.136-.329-10.755-.449-12.376-.024-.285-.057-.903-.088-1.372-.225-3.909-.675-7.324-1.172-8.86l-.161-.486-.546-.213c-1.147-.445-2.455-.763-4.222-1.022-2.648-.395-4.759-.494-10.458-.494L0 8.621V1.21l7.585-.057c15.449-.11 24.68-.404 30.972-.979 1.1-.097 2.015-.169 2.03-.156.017.008-.104 1.47-.265 3.242-.481 5.39-.666 8.078-.851 12.601-.297 7.06-.418 17.545-.393 31.72l.023 11.18.971-.823c6.75-5.698 16.189-9.716 25.779-10.976 2.697-.357 3.692-.422 6.855-.449 3.298-.024 4.582.044 6.998.365 10.827 1.457 18.523 6.637 22.593 15.217 1.694 3.556 2.688 7.484 3.179 12.44.185 1.902.145 16.634-.097 33.933-.104 7.29-.097 16.688.009 18.275.176 2.77.514 4.881 1.011 6.445.329 1.004.241.932 1.669 1.355 2.979.893 7.77 1.365 13.629 1.373h1.637v7.442h-2.648c-5.643.008-12.721.521-20.723 1.5-3.066.377-8.725 1.203-9.527 1.373-.137.04-.202.001-.249-.136zM466.868 144.672c-1.5-6.252-2.07-11.83-2.318-22.463-.152-6.598-.105-11.719.256-26.969.193-8.684.242-17.295.09-18.885-.715-7.242-2.609-12.127-6.125-15.719-1.533-1.568-2.785-2.479-4.775-3.455-2.447-1.199-5.281-1.938-8.531-2.219-1.203-.1-4.303-.1-5.547.008-3.154.262-6.211.895-9.438 1.951-1.252.404-1.525.525-1.557.662-.025.1-1.783 6.252-3.91 13.676l-3.859 13.508-3.25.02c-1.791.012-3.252-.004-3.252-.04 0-.076-4.438-27.82-4.479-28.015-.039-.156 1.205-.879 3.508-2.047 7.986-4.037 17.313-6.838 26.004-7.8 2.48-.278 3.467-.338 6.26-.39 11.742-.2 20.852 2.194 26.912 7.086 5.096 4.105 8.139 9.961 9.078 17.438.248 1.926.328 3.6.328 6.348 0 2.283-.104 7.248-.201 10.03-.031.641-.08 2.317-.127 3.718a149.582 149.582 0 01-.121 3.196c-.096 1.736-.129 10.682-.049 14.72.281 13.321 1.004 20.98 2.32 24.526.24.635.217.617 1.332 1.004 1.742.586 4.125 1.02 6.51 1.154.488.025 1.035.072 1.211.09.178.023 2.641.064 5.482.088l5.152.05v7.398l-4.43.048c-4.559.04-6.053.096-10.289.377a225.09 225.09 0 00-20.219 2.271 82.52 82.52 0 01-1.541.232c-.022.001-.216-.722-.425-1.597z" />
    <path fill="#fff"
        d="M287.761 60.533c-2.463-.943-6.084-2.32-6.773-2.52-2.729-.779-4.334-1.117-6.693-1.39-1.541-.18-5.818-.257-7.344-.128-4.574.39-8.869 1.85-12.465 4.246-2.56 1.705-5 4.104-6.886 6.758-4.1 5.786-6.348 13.984-6.348 23.114.008 9.972 2.736 18.232 8.186 24.74 10.105 12.096 29.705 18.758 59.552 20.242 5.82.297 18.598.4 21.551.176 3.676-.264 6.229-.705 8.018-1.396l.609-.24.178-.537c.906-2.89 1.5-9.76 1.67-19.19.023-1.397.07-2.73.088-2.954.08-.697.104-37.176.031-39.375-.176-5.434-.594-8.547-1.469-10.783-1.291-3.31-3.74-4.45-10.297-4.795-.852-.04-3.5-.08-5.891-.08h-4.334v-7.437l3.49-.024c4.76-.027 12.553.064 14.816.173 4.855.241 8.227.723 11.301 1.622 4.076 1.191 6.621 3.498 8.121 7.36l.234.593.434-.518c.873-1.02 3.467-3.535 4.518-4.366 4.27-3.415 9.109-5.747 14.135-6.822 2.479-.525 4.197-.706 6.758-.702 2.078 0 3.627.133 5.4.461 1.164.213 4.623 1.064 4.729 1.164.031.028-.715 7.396-1.654 16.365l-1.717 16.316h-3.154l-3.162-.008-3.965-12.007c-2.176-6.609-3.982-12.05-4.006-12.095-.031-.06-.273-.037-.73.072-5.635 1.352-11.123 6.02-14.102 11.986-1.396 2.813-2.111 5.365-2.311 8.247-.162 2.4-.041 31.29.16 38.167.297 10.29.787 15.818 1.637 18.531l.186.586.449.152c1.869.643 6.436 1.1 13.299 1.357 6.404.232 18.355.32 21.027.168 7.873-.49 13.043-1.773 16.551-4.109 3.434-2.31 5.088-5.418 5.424-10.2.354-5.058-1.18-9.118-4.486-11.88-1.508-1.26-3.018-2.117-5.313-3.049l-1.412-.57-.385-1.895c-.201-1.05-.371-1.91-.361-1.91.016-.023 6.123-1.877 30.057-9.149 4.471-1.356 10.547-3.207 13.508-4.105 3.756-1.144 5.393-1.609 5.434-1.545.031.053.57 1.412 1.18 3.025 1.1 2.846 1.123 2.934.955 3-.506.196-25.002 10.452-25.018 10.478-.023.016.289.674.684 1.477 1.709 3.41 2.504 6.637 2.592 10.537.111 4.64-.666 8.516-2.375 11.967-1.902 3.82-4.672 6.701-8.797 9.125-4.855 2.875-11.936 4.865-20.227 5.707-2.086.225-6.027.594-10.779.658-12.047-.064-20.762-.2-30.354-.49-6.373-.199-8.684-.248-11.807-.248-2.744 0-8.314.104-8.41.168-.016.008-.875.041-1.895.072-1.027.033-2.039.064-2.264.098-.225.008-.986.047-1.701.063-.715.033-2.311.09-3.564.13-6.34.231-10 .265-17.336.16-38.395-.546-62.89-5.812-77.289-16.622-5.033-3.789-8.854-8.299-11.533-13.645-2.24-4.479-3.557-9.31-4.166-15.342-.209-2.018-.209-8.495 0-10.393.441-4.08 1.067-7.055 2.191-10.438 2.07-6.188 5.297-11.449 9.832-15.972 7.223-7.235 16.998-11.69 27.857-12.71 1.727-.16 6.799-.136 8.789.045 4.525.41 8.813 1.288 11.557 2.371 1.662.598 3.74 1.453 5.619 2.26l-.033.057c-.008-8.648-.031-15.783-.088-18.793-.209-13.063-.762-20.04-1.781-23.19-.201-.59-.217-.603-1.484-1.013-1.574-.5-3.291-.81-6.037-1.075-1.018-.1-2.664-.14-7.014-.169l-5.682-.043V1.21l7.592-.057c16.484-.12 25.666-.43 32.408-1.096.354-.035.643-.06.643-.056 0 0-.129 1.497-.289 3.323-1.139 12.544-1.348 23.432-1.252 64.865.064 31.133.16 39.204.578 50.006.129 3.604.129 3.66.049 3.66-.033 0-4.078-2.16-8.99-4.793-4.928-2.623-8.973-4.807-9.014-4.848-.063-.055 0-2.816.152-7.47.121-3.349.201-25.339.209-44.18v-.03zM177.765 114.631c-1.308-3.17-2.391-5.842-2.407-5.939-.048-.24 5.177-17.577 7.705-25.545 5.337-16.83 8.548-23.934 12.714-28.039 1.42-1.408 2.567-2.219 4.43-3.135 4.471-2.194 9.92-2.989 20.441-2.993h3.46v7.42l-2.817.044c-2.961.053-3.916.133-5.843.506-7.93 1.541-12.608 7.151-19.696 23.592-2.841 6.59-6.244 15.29-13.716 35.053-.995 2.641-1.83 4.801-1.854 4.801-.032 0-1.116-2.603-2.417-5.765z" />
</svg>
